<?xml version="1.0" encoding="utf-8" standalone="no"?>
<!DOCTYPE svg PUBLIC "-//W3C//DTD SVG 1.1//EN"
  "http://www.w3.org/Graphics/SVG/1.1/DTD/svg11.dtd">
<!-- Created with matplotlib (https://matplotlib.org/) -->
<svg height="345.6pt" version="1.1" viewBox="0 0 460.8 345.6" width="460.8pt" xmlns="http://www.w3.org/2000/svg" xmlns:xlink="http://www.w3.org/1999/xlink">
 <metadata>
  <rdf:RDF xmlns:cc="http://creativecommons.org/ns#" xmlns:dc="http://purl.org/dc/elements/1.1/" xmlns:rdf="http://www.w3.org/1999/02/22-rdf-syntax-ns#">
   <cc:Work>
    <dc:type rdf:resource="http://purl.org/dc/dcmitype/StillImage"/>
    <dc:date>2021-03-02T16:50:41.572510</dc:date>
    <dc:format>image/svg+xml</dc:format>
    <dc:creator>
     <cc:Agent>
      <dc:title>Matplotlib v3.3.3, https://matplotlib.org/</dc:title>
     </cc:Agent>
    </dc:creator>
   </cc:Work>
  </rdf:RDF>
 </metadata>
 <defs>
  <style type="text/css">*{stroke-linecap:butt;stroke-linejoin:round;}</style>
 </defs>
 <g id="figure_1">
  <g id="patch_1">
   <path d="M 0 345.6 
L 460.8 345.6 
L 460.8 0 
L 0 0 
z
" style="fill:#ffffff;"/>
  </g>
  <g id="axes_1">
   <g id="patch_2">
    <path d="M 57.6 307.584 
L 414.72 307.584 
L 414.72 41.472 
L 57.6 41.472 
z
" style="fill:#ffffff;"/>
   </g>
   <g id="matplotlib.axis_1">
    <g id="xtick_1">
     <g id="line2d_1">
      <defs>
       <path d="M 0 0 
L 0 3.5 
" id="m4c0ffff335" style="stroke:#000000;stroke-width:0.8;"/>
      </defs>
      <g>
       <use style="stroke:#000000;stroke-width:0.8;" x="81.408" xlink:href="#m4c0ffff335" y="307.584"/>
      </g>
     </g>
     <g id="text_1">
      <!-- −1.4 -->
      <g transform="translate(69.266594 322.182437)scale(0.1 -0.1)">
       <defs>
        <path d="M 10.59375 35.5 
L 73.1875 35.5 
L 73.1875 27.203125 
L 10.59375 27.203125 
z
" id="DejaVuSans-8722"/>
        <path d="M 12.40625 8.296875 
L 28.515625 8.296875 
L 28.515625 63.921875 
L 10.984375 60.40625 
L 10.984375 69.390625 
L 28.421875 72.90625 
L 38.28125 72.90625 
L 38.28125 8.296875 
L 54.390625 8.296875 
L 54.390625 0 
L 12.40625 0 
z
" id="DejaVuSans-49"/>
        <path d="M 10.6875 12.40625 
L 21 12.40625 
L 21 0 
L 10.6875 0 
z
" id="DejaVuSans-46"/>
        <path d="M 37.796875 64.3125 
L 12.890625 25.390625 
L 37.796875 25.390625 
z
M 35.203125 72.90625 
L 47.609375 72.90625 
L 47.609375 25.390625 
L 58.015625 25.390625 
L 58.015625 17.1875 
L 47.609375 17.1875 
L 47.609375 0 
L 37.796875 0 
L 37.796875 17.1875 
L 4.890625 17.1875 
L 4.890625 26.703125 
z
" id="DejaVuSans-52"/>
       </defs>
       <use xlink:href="#DejaVuSans-8722"/>
       <use x="83.789062" xlink:href="#DejaVuSans-49"/>
       <use x="147.412109" xlink:href="#DejaVuSans-46"/>
       <use x="179.199219" xlink:href="#DejaVuSans-52"/>
      </g>
     </g>
    </g>
    <g id="xtick_2">
     <g id="line2d_2">
      <g>
       <use style="stroke:#000000;stroke-width:0.8;" x="129.024" xlink:href="#m4c0ffff335" y="307.584"/>
      </g>
     </g>
     <g id="text_2">
      <!-- −1.2 -->
      <g transform="translate(116.882594 322.182437)scale(0.1 -0.1)">
       <defs>
        <path d="M 19.1875 8.296875 
L 53.609375 8.296875 
L 53.609375 0 
L 7.328125 0 
L 7.328125 8.296875 
Q 12.9375 14.109375 22.625 23.890625 
Q 32.328125 33.6875 34.8125 36.53125 
Q 39.546875 41.84375 41.421875 45.53125 
Q 43.3125 49.21875 43.3125 52.78125 
Q 43.3125 58.59375 39.234375 62.25 
Q 35.15625 65.921875 28.609375 65.921875 
Q 23.96875 65.921875 18.8125 64.3125 
Q 13.671875 62.703125 7.8125 59.421875 
L 7.8125 69.390625 
Q 13.765625 71.78125 18.9375 73 
Q 24.125 74.21875 28.421875 74.21875 
Q 39.75 74.21875 46.484375 68.546875 
Q 53.21875 62.890625 53.21875 53.421875 
Q 53.21875 48.921875 51.53125 44.890625 
Q 49.859375 40.875 45.40625 35.40625 
Q 44.1875 33.984375 37.640625 27.21875 
Q 31.109375 20.453125 19.1875 8.296875 
z
" id="DejaVuSans-50"/>
       </defs>
       <use xlink:href="#DejaVuSans-8722"/>
       <use x="83.789062" xlink:href="#DejaVuSans-49"/>
       <use x="147.412109" xlink:href="#DejaVuSans-46"/>
       <use x="179.199219" xlink:href="#DejaVuSans-50"/>
      </g>
     </g>
    </g>
    <g id="xtick_3">
     <g id="line2d_3">
      <g>
       <use style="stroke:#000000;stroke-width:0.8;" x="176.64" xlink:href="#m4c0ffff335" y="307.584"/>
      </g>
     </g>
     <g id="text_3">
      <!-- −1.0 -->
      <g transform="translate(164.498594 322.182437)scale(0.1 -0.1)">
       <defs>
        <path d="M 31.78125 66.40625 
Q 24.171875 66.40625 20.328125 58.90625 
Q 16.5 51.421875 16.5 36.375 
Q 16.5 21.390625 20.328125 13.890625 
Q 24.171875 6.390625 31.78125 6.390625 
Q 39.453125 6.390625 43.28125 13.890625 
Q 47.125 21.390625 47.125 36.375 
Q 47.125 51.421875 43.28125 58.90625 
Q 39.453125 66.40625 31.78125 66.40625 
z
M 31.78125 74.21875 
Q 44.046875 74.21875 50.515625 64.515625 
Q 56.984375 54.828125 56.984375 36.375 
Q 56.984375 17.96875 50.515625 8.265625 
Q 44.046875 -1.421875 31.78125 -1.421875 
Q 19.53125 -1.421875 13.0625 8.265625 
Q 6.59375 17.96875 6.59375 36.375 
Q 6.59375 54.828125 13.0625 64.515625 
Q 19.53125 74.21875 31.78125 74.21875 
z
" id="DejaVuSans-48"/>
       </defs>
       <use xlink:href="#DejaVuSans-8722"/>
       <use x="83.789062" xlink:href="#DejaVuSans-49"/>
       <use x="147.412109" xlink:href="#DejaVuSans-46"/>
       <use x="179.199219" xlink:href="#DejaVuSans-48"/>
      </g>
     </g>
    </g>
    <g id="xtick_4">
     <g id="line2d_4">
      <g>
       <use style="stroke:#000000;stroke-width:0.8;" x="224.256" xlink:href="#m4c0ffff335" y="307.584"/>
      </g>
     </g>
     <g id="text_4">
      <!-- −0.8 -->
      <g transform="translate(212.114594 322.182437)scale(0.1 -0.1)">
       <defs>
        <path d="M 31.78125 34.625 
Q 24.75 34.625 20.71875 30.859375 
Q 16.703125 27.09375 16.703125 20.515625 
Q 16.703125 13.921875 20.71875 10.15625 
Q 24.75 6.390625 31.78125 6.390625 
Q 38.8125 6.390625 42.859375 10.171875 
Q 46.921875 13.96875 46.921875 20.515625 
Q 46.921875 27.09375 42.890625 30.859375 
Q 38.875 34.625 31.78125 34.625 
z
M 21.921875 38.8125 
Q 15.578125 40.375 12.03125 44.71875 
Q 8.5 49.078125 8.5 55.328125 
Q 8.5 64.0625 14.71875 69.140625 
Q 20.953125 74.21875 31.78125 74.21875 
Q 42.671875 74.21875 48.875 69.140625 
Q 55.078125 64.0625 55.078125 55.328125 
Q 55.078125 49.078125 51.53125 44.71875 
Q 48 40.375 41.703125 38.8125 
Q 48.828125 37.15625 52.796875 32.3125 
Q 56.78125 27.484375 56.78125 20.515625 
Q 56.78125 9.90625 50.3125 4.234375 
Q 43.84375 -1.421875 31.78125 -1.421875 
Q 19.734375 -1.421875 13.25 4.234375 
Q 6.78125 9.90625 6.78125 20.515625 
Q 6.78125 27.484375 10.78125 32.3125 
Q 14.796875 37.15625 21.921875 38.8125 
z
M 18.3125 54.390625 
Q 18.3125 48.734375 21.84375 45.5625 
Q 25.390625 42.390625 31.78125 42.390625 
Q 38.140625 42.390625 41.71875 45.5625 
Q 45.3125 48.734375 45.3125 54.390625 
Q 45.3125 60.0625 41.71875 63.234375 
Q 38.140625 66.40625 31.78125 66.40625 
Q 25.390625 66.40625 21.84375 63.234375 
Q 18.3125 60.0625 18.3125 54.390625 
z
" id="DejaVuSans-56"/>
       </defs>
       <use xlink:href="#DejaVuSans-8722"/>
       <use x="83.789062" xlink:href="#DejaVuSans-48"/>
       <use x="147.412109" xlink:href="#DejaVuSans-46"/>
       <use x="179.199219" xlink:href="#DejaVuSans-56"/>
      </g>
     </g>
    </g>
    <g id="xtick_5">
     <g id="line2d_5">
      <g>
       <use style="stroke:#000000;stroke-width:0.8;" x="271.872" xlink:href="#m4c0ffff335" y="307.584"/>
      </g>
     </g>
     <g id="text_5">
      <!-- −0.6 -->
      <g transform="translate(259.730594 322.182437)scale(0.1 -0.1)">
       <defs>
        <path d="M 33.015625 40.375 
Q 26.375 40.375 22.484375 35.828125 
Q 18.609375 31.296875 18.609375 23.390625 
Q 18.609375 15.53125 22.484375 10.953125 
Q 26.375 6.390625 33.015625 6.390625 
Q 39.65625 6.390625 43.53125 10.953125 
Q 47.40625 15.53125 47.40625 23.390625 
Q 47.40625 31.296875 43.53125 35.828125 
Q 39.65625 40.375 33.015625 40.375 
z
M 52.59375 71.296875 
L 52.59375 62.3125 
Q 48.875 64.0625 45.09375 64.984375 
Q 41.3125 65.921875 37.59375 65.921875 
Q 27.828125 65.921875 22.671875 59.328125 
Q 17.53125 52.734375 16.796875 39.40625 
Q 19.671875 43.65625 24.015625 45.921875 
Q 28.375 48.1875 33.59375 48.1875 
Q 44.578125 48.1875 50.953125 41.515625 
Q 57.328125 34.859375 57.328125 23.390625 
Q 57.328125 12.15625 50.6875 5.359375 
Q 44.046875 -1.421875 33.015625 -1.421875 
Q 20.359375 -1.421875 13.671875 8.265625 
Q 6.984375 17.96875 6.984375 36.375 
Q 6.984375 53.65625 15.1875 63.9375 
Q 23.390625 74.21875 37.203125 74.21875 
Q 40.921875 74.21875 44.703125 73.484375 
Q 48.484375 72.75 52.59375 71.296875 
z
" id="DejaVuSans-54"/>
       </defs>
       <use xlink:href="#DejaVuSans-8722"/>
       <use x="83.789062" xlink:href="#DejaVuSans-48"/>
       <use x="147.412109" xlink:href="#DejaVuSans-46"/>
       <use x="179.199219" xlink:href="#DejaVuSans-54"/>
      </g>
     </g>
    </g>
    <g id="xtick_6">
     <g id="line2d_6">
      <g>
       <use style="stroke:#000000;stroke-width:0.8;" x="319.488" xlink:href="#m4c0ffff335" y="307.584"/>
      </g>
     </g>
     <g id="text_6">
      <!-- −0.4 -->
      <g transform="translate(307.346594 322.182437)scale(0.1 -0.1)">
       <use xlink:href="#DejaVuSans-8722"/>
       <use x="83.789062" xlink:href="#DejaVuSans-48"/>
       <use x="147.412109" xlink:href="#DejaVuSans-46"/>
       <use x="179.199219" xlink:href="#DejaVuSans-52"/>
      </g>
     </g>
    </g>
    <g id="xtick_7">
     <g id="line2d_7">
      <g>
       <use style="stroke:#000000;stroke-width:0.8;" x="367.104" xlink:href="#m4c0ffff335" y="307.584"/>
      </g>
     </g>
     <g id="text_7">
      <!-- −0.2 -->
      <g transform="translate(354.962594 322.182437)scale(0.1 -0.1)">
       <use xlink:href="#DejaVuSans-8722"/>
       <use x="83.789062" xlink:href="#DejaVuSans-48"/>
       <use x="147.412109" xlink:href="#DejaVuSans-46"/>
       <use x="179.199219" xlink:href="#DejaVuSans-50"/>
      </g>
     </g>
    </g>
    <g id="xtick_8">
     <g id="line2d_8">
      <g>
       <use style="stroke:#000000;stroke-width:0.8;" x="414.72" xlink:href="#m4c0ffff335" y="307.584"/>
      </g>
     </g>
     <g id="text_8">
      <!-- 0.0 -->
      <g transform="translate(406.768438 322.182437)scale(0.1 -0.1)">
       <use xlink:href="#DejaVuSans-48"/>
       <use x="63.623047" xlink:href="#DejaVuSans-46"/>
       <use x="95.410156" xlink:href="#DejaVuSans-48"/>
      </g>
     </g>
    </g>
   </g>
   <g id="matplotlib.axis_2">
    <g id="ytick_1">
     <g id="line2d_9">
      <defs>
       <path d="M 0 0 
L -3.5 0 
" id="ma26ef20515" style="stroke:#000000;stroke-width:0.8;"/>
      </defs>
      <g>
       <use style="stroke:#000000;stroke-width:0.8;" x="57.6" xlink:href="#ma26ef20515" y="307.584"/>
      </g>
     </g>
     <g id="text_9">
      <!-- −1.0 -->
      <g transform="translate(26.317187 311.383219)scale(0.1 -0.1)">
       <use xlink:href="#DejaVuSans-8722"/>
       <use x="83.789062" xlink:href="#DejaVuSans-49"/>
       <use x="147.412109" xlink:href="#DejaVuSans-46"/>
       <use x="179.199219" xlink:href="#DejaVuSans-48"/>
      </g>
     </g>
    </g>
    <g id="ytick_2">
     <g id="line2d_10">
      <g>
       <use style="stroke:#000000;stroke-width:0.8;" x="57.6" xlink:href="#ma26ef20515" y="254.3616"/>
      </g>
     </g>
     <g id="text_10">
      <!-- −0.5 -->
      <g transform="translate(26.317187 258.160819)scale(0.1 -0.1)">
       <defs>
        <path d="M 10.796875 72.90625 
L 49.515625 72.90625 
L 49.515625 64.59375 
L 19.828125 64.59375 
L 19.828125 46.734375 
Q 21.96875 47.46875 24.109375 47.828125 
Q 26.265625 48.1875 28.421875 48.1875 
Q 40.625 48.1875 47.75 41.5 
Q 54.890625 34.8125 54.890625 23.390625 
Q 54.890625 11.625 47.5625 5.09375 
Q 40.234375 -1.421875 26.90625 -1.421875 
Q 22.3125 -1.421875 17.546875 -0.640625 
Q 12.796875 0.140625 7.71875 1.703125 
L 7.71875 11.625 
Q 12.109375 9.234375 16.796875 8.0625 
Q 21.484375 6.890625 26.703125 6.890625 
Q 35.15625 6.890625 40.078125 11.328125 
Q 45.015625 15.765625 45.015625 23.390625 
Q 45.015625 31 40.078125 35.4375 
Q 35.15625 39.890625 26.703125 39.890625 
Q 22.75 39.890625 18.8125 39.015625 
Q 14.890625 38.140625 10.796875 36.28125 
z
" id="DejaVuSans-53"/>
       </defs>
       <use xlink:href="#DejaVuSans-8722"/>
       <use x="83.789062" xlink:href="#DejaVuSans-48"/>
       <use x="147.412109" xlink:href="#DejaVuSans-46"/>
       <use x="179.199219" xlink:href="#DejaVuSans-53"/>
      </g>
     </g>
    </g>
    <g id="ytick_3">
     <g id="line2d_11">
      <g>
       <use style="stroke:#000000;stroke-width:0.8;" x="57.6" xlink:href="#ma26ef20515" y="201.1392"/>
      </g>
     </g>
     <g id="text_11">
      <!-- 0.0 -->
      <g transform="translate(34.696875 204.938419)scale(0.1 -0.1)">
       <use xlink:href="#DejaVuSans-48"/>
       <use x="63.623047" xlink:href="#DejaVuSans-46"/>
       <use x="95.410156" xlink:href="#DejaVuSans-48"/>
      </g>
     </g>
    </g>
    <g id="ytick_4">
     <g id="line2d_12">
      <g>
       <use style="stroke:#000000;stroke-width:0.8;" x="57.6" xlink:href="#ma26ef20515" y="147.9168"/>
      </g>
     </g>
     <g id="text_12">
      <!-- 0.5 -->
      <g transform="translate(34.696875 151.716019)scale(0.1 -0.1)">
       <use xlink:href="#DejaVuSans-48"/>
       <use x="63.623047" xlink:href="#DejaVuSans-46"/>
       <use x="95.410156" xlink:href="#DejaVuSans-53"/>
      </g>
     </g>
    </g>
    <g id="ytick_5">
     <g id="line2d_13">
      <g>
       <use style="stroke:#000000;stroke-width:0.8;" x="57.6" xlink:href="#ma26ef20515" y="94.6944"/>
      </g>
     </g>
     <g id="text_13">
      <!-- 1.0 -->
      <g transform="translate(34.696875 98.493619)scale(0.1 -0.1)">
       <use xlink:href="#DejaVuSans-49"/>
       <use x="63.623047" xlink:href="#DejaVuSans-46"/>
       <use x="95.410156" xlink:href="#DejaVuSans-48"/>
      </g>
     </g>
    </g>
    <g id="ytick_6">
     <g id="line2d_14">
      <g>
       <use style="stroke:#000000;stroke-width:0.8;" x="57.6" xlink:href="#ma26ef20515" y="41.472"/>
      </g>
     </g>
     <g id="text_14">
      <!-- 1.5 -->
      <g transform="translate(34.696875 45.271219)scale(0.1 -0.1)">
       <use xlink:href="#DejaVuSans-49"/>
       <use x="63.623047" xlink:href="#DejaVuSans-46"/>
       <use x="95.410156" xlink:href="#DejaVuSans-53"/>
      </g>
     </g>
    </g>
   </g>
   <g id="line2d_15">
    <defs>
     <path d="M 0 3 
C 0.795609 3 1.55874 2.683901 2.12132 2.12132 
C 2.683901 1.55874 3 0.795609 3 0 
C 3 -0.795609 2.683901 -1.55874 2.12132 -2.12132 
C 1.55874 -2.683901 0.795609 -3 0 -3 
C -0.795609 -3 -1.55874 -2.683901 -2.12132 -2.12132 
C -2.683901 -1.55874 -3 -0.795609 -3 0 
C -3 0.795609 -2.683901 1.55874 -2.12132 2.12132 
C -1.55874 2.683901 -0.795609 3 0 3 
z
" id="m940856b161" style="stroke:#666666;"/>
    </defs>
    <g clip-path="url(#p6398b777e2)">
     <use style="fill:#666666;stroke:#666666;" x="340.961213" xlink:href="#m940856b161" y="149.174424"/>
    </g>
   </g>
   <g id="line2d_16">
    <g clip-path="url(#p6398b777e2)">
     <use style="fill:#666666;stroke:#666666;" x="340.961126" xlink:href="#m940856b161" y="149.174496"/>
    </g>
   </g>
   <g id="line2d_17">
    <g clip-path="url(#p6398b777e2)">
     <use style="fill:#666666;stroke:#666666;" x="340.961122" xlink:href="#m940856b161" y="149.174356"/>
    </g>
   </g>
   <g id="line2d_18">
    <g clip-path="url(#p6398b777e2)">
     <use style="fill:#666666;stroke:#666666;" x="340.961107" xlink:href="#m940856b161" y="149.174313"/>
    </g>
   </g>
   <g id="line2d_19">
    <g clip-path="url(#p6398b777e2)">
     <use style="fill:#666666;stroke:#666666;" x="340.961115" xlink:href="#m940856b161" y="149.174181"/>
    </g>
   </g>
   <g id="line2d_20">
    <g clip-path="url(#p6398b777e2)">
     <use style="fill:#666666;stroke:#666666;" x="340.960967" xlink:href="#m940856b161" y="149.174104"/>
    </g>
   </g>
   <g id="line2d_21">
    <g clip-path="url(#p6398b777e2)">
     <use style="fill:#666666;stroke:#666666;" x="340.961328" xlink:href="#m940856b161" y="149.174325"/>
    </g>
   </g>
   <g id="line2d_22">
    <g clip-path="url(#p6398b777e2)">
     <use style="fill:#666666;stroke:#666666;" x="341.086639" xlink:href="#m940856b161" y="149.04348"/>
    </g>
   </g>
   <g id="line2d_23">
    <g clip-path="url(#p6398b777e2)">
     <use style="fill:#666666;stroke:#666666;" x="341.376757" xlink:href="#m940856b161" y="148.162586"/>
    </g>
   </g>
   <g id="line2d_24">
    <g clip-path="url(#p6398b777e2)">
     <use style="fill:#666666;stroke:#666666;" x="341.429212" xlink:href="#m940856b161" y="147.059023"/>
    </g>
   </g>
   <g id="line2d_25">
    <g clip-path="url(#p6398b777e2)">
     <use style="fill:#666666;stroke:#666666;" x="341.476446" xlink:href="#m940856b161" y="145.975579"/>
    </g>
   </g>
   <g id="line2d_26">
    <g clip-path="url(#p6398b777e2)">
     <use style="fill:#666666;stroke:#666666;" x="341.527189" xlink:href="#m940856b161" y="144.887839"/>
    </g>
   </g>
   <g id="line2d_27">
    <g clip-path="url(#p6398b777e2)">
     <use style="fill:#666666;stroke:#666666;" x="341.397563" xlink:href="#m940856b161" y="143.728944"/>
    </g>
   </g>
   <g id="line2d_28">
    <g clip-path="url(#p6398b777e2)">
     <use style="fill:#666666;stroke:#666666;" x="340.21509" xlink:href="#m940856b161" y="142.569632"/>
    </g>
   </g>
   <g id="line2d_29">
    <g clip-path="url(#p6398b777e2)">
     <use style="fill:#666666;stroke:#666666;" x="338.596114" xlink:href="#m940856b161" y="141.429338"/>
    </g>
   </g>
   <g id="line2d_30">
    <g clip-path="url(#p6398b777e2)">
     <use style="fill:#666666;stroke:#666666;" x="337.058763" xlink:href="#m940856b161" y="140.295284"/>
    </g>
   </g>
   <g id="line2d_31">
    <g clip-path="url(#p6398b777e2)">
     <use style="fill:#666666;stroke:#666666;" x="335.599503" xlink:href="#m940856b161" y="139.235215"/>
    </g>
   </g>
   <g id="line2d_32">
    <g clip-path="url(#p6398b777e2)">
     <use style="fill:#666666;stroke:#666666;" x="334.049423" xlink:href="#m940856b161" y="138.096481"/>
    </g>
   </g>
   <g id="line2d_33">
    <g clip-path="url(#p6398b777e2)">
     <use style="fill:#666666;stroke:#666666;" x="332.6036" xlink:href="#m940856b161" y="137.059035"/>
    </g>
   </g>
   <g id="line2d_34">
    <g clip-path="url(#p6398b777e2)">
     <use style="fill:#666666;stroke:#666666;" x="330.89494" xlink:href="#m940856b161" y="136.045062"/>
    </g>
   </g>
   <g id="line2d_35">
    <g clip-path="url(#p6398b777e2)">
     <use style="fill:#666666;stroke:#666666;" x="328.869998" xlink:href="#m940856b161" y="135.176492"/>
    </g>
   </g>
   <g id="line2d_36">
    <g clip-path="url(#p6398b777e2)">
     <use style="fill:#666666;stroke:#666666;" x="326.620717" xlink:href="#m940856b161" y="134.532646"/>
    </g>
   </g>
   <g id="line2d_37">
    <g clip-path="url(#p6398b777e2)">
     <use style="fill:#666666;stroke:#666666;" x="324.413089" xlink:href="#m940856b161" y="134.407079"/>
    </g>
   </g>
   <g id="line2d_38">
    <g clip-path="url(#p6398b777e2)">
     <use style="fill:#666666;stroke:#666666;" x="322.138203" xlink:href="#m940856b161" y="134.456144"/>
    </g>
   </g>
   <g id="line2d_39">
    <g clip-path="url(#p6398b777e2)">
     <use style="fill:#666666;stroke:#666666;" x="319.573887" xlink:href="#m940856b161" y="134.494022"/>
    </g>
   </g>
   <g id="line2d_40">
    <g clip-path="url(#p6398b777e2)">
     <use style="fill:#666666;stroke:#666666;" x="317.177151" xlink:href="#m940856b161" y="134.514616"/>
    </g>
   </g>
   <g id="line2d_41">
    <g clip-path="url(#p6398b777e2)">
     <use style="fill:#666666;stroke:#666666;" x="315.335035" xlink:href="#m940856b161" y="134.539359"/>
    </g>
   </g>
   <g id="line2d_42">
    <g clip-path="url(#p6398b777e2)">
     <use style="fill:#666666;stroke:#666666;" x="314.617004" xlink:href="#m940856b161" y="134.556306"/>
    </g>
   </g>
   <g id="line2d_43">
    <g clip-path="url(#p6398b777e2)">
     <use style="fill:#666666;stroke:#666666;" x="314.543762" xlink:href="#m940856b161" y="134.560451"/>
    </g>
   </g>
   <g id="line2d_44">
    <g clip-path="url(#p6398b777e2)">
     <use style="fill:#666666;stroke:#666666;" x="314.453057" xlink:href="#m940856b161" y="134.591746"/>
    </g>
   </g>
   <g id="line2d_45">
    <g clip-path="url(#p6398b777e2)">
     <use style="fill:#666666;stroke:#666666;" x="313.504765" xlink:href="#m940856b161" y="134.612996"/>
    </g>
   </g>
   <g id="line2d_46">
    <g clip-path="url(#p6398b777e2)">
     <use style="fill:#666666;stroke:#666666;" x="311.518924" xlink:href="#m940856b161" y="134.599023"/>
    </g>
   </g>
   <g id="line2d_47">
    <g clip-path="url(#p6398b777e2)">
     <use style="fill:#666666;stroke:#666666;" x="309.329025" xlink:href="#m940856b161" y="134.582554"/>
    </g>
   </g>
   <g id="line2d_48">
    <g clip-path="url(#p6398b777e2)">
     <use style="fill:#666666;stroke:#666666;" x="307.109792" xlink:href="#m940856b161" y="134.582523"/>
    </g>
   </g>
   <g id="line2d_49">
    <g clip-path="url(#p6398b777e2)">
     <use style="fill:#666666;stroke:#666666;" x="304.769746" xlink:href="#m940856b161" y="134.574524"/>
    </g>
   </g>
   <g id="line2d_50">
    <g clip-path="url(#p6398b777e2)">
     <use style="fill:#666666;stroke:#666666;" x="302.565544" xlink:href="#m940856b161" y="134.589595"/>
    </g>
   </g>
   <g id="line2d_51">
    <g clip-path="url(#p6398b777e2)">
     <use style="fill:#666666;stroke:#666666;" x="300.185301" xlink:href="#m940856b161" y="134.621235"/>
    </g>
   </g>
   <g id="line2d_52">
    <g clip-path="url(#p6398b777e2)">
     <use style="fill:#666666;stroke:#666666;" x="297.820321" xlink:href="#m940856b161" y="134.639582"/>
    </g>
   </g>
   <g id="line2d_53">
    <g clip-path="url(#p6398b777e2)">
     <use style="fill:#666666;stroke:#666666;" x="295.200888" xlink:href="#m940856b161" y="134.678848"/>
    </g>
   </g>
   <g id="line2d_54">
    <g clip-path="url(#p6398b777e2)">
     <use style="fill:#666666;stroke:#666666;" x="293.221783" xlink:href="#m940856b161" y="134.694476"/>
    </g>
   </g>
   <g id="line2d_55">
    <g clip-path="url(#p6398b777e2)">
     <use style="fill:#666666;stroke:#666666;" x="292.825777" xlink:href="#m940856b161" y="134.730117"/>
    </g>
   </g>
   <g id="line2d_56">
    <g clip-path="url(#p6398b777e2)">
     <use style="fill:#666666;stroke:#666666;" x="292.788676" xlink:href="#m940856b161" y="134.744911"/>
    </g>
   </g>
   <g id="line2d_57">
    <g clip-path="url(#p6398b777e2)">
     <use style="fill:#666666;stroke:#666666;" x="292.734737" xlink:href="#m940856b161" y="134.790474"/>
    </g>
   </g>
   <g id="line2d_58">
    <g clip-path="url(#p6398b777e2)">
     <use style="fill:#666666;stroke:#666666;" x="292.661351" xlink:href="#m940856b161" y="134.829699"/>
    </g>
   </g>
   <g id="line2d_59">
    <g clip-path="url(#p6398b777e2)">
     <use style="fill:#666666;stroke:#666666;" x="291.951458" xlink:href="#m940856b161" y="134.837551"/>
    </g>
   </g>
   <g id="line2d_60">
    <g clip-path="url(#p6398b777e2)">
     <use style="fill:#666666;stroke:#666666;" x="290.145589" xlink:href="#m940856b161" y="134.78326"/>
    </g>
   </g>
   <g id="line2d_61">
    <g clip-path="url(#p6398b777e2)">
     <use style="fill:#666666;stroke:#666666;" x="287.975721" xlink:href="#m940856b161" y="134.74936"/>
    </g>
   </g>
   <g id="line2d_62">
    <g clip-path="url(#p6398b777e2)">
     <use style="fill:#666666;stroke:#666666;" x="285.587886" xlink:href="#m940856b161" y="134.784078"/>
    </g>
   </g>
   <g id="line2d_63">
    <g clip-path="url(#p6398b777e2)">
     <use style="fill:#666666;stroke:#666666;" x="283.407489" xlink:href="#m940856b161" y="134.859777"/>
    </g>
   </g>
   <g id="line2d_64">
    <g clip-path="url(#p6398b777e2)">
     <use style="fill:#666666;stroke:#666666;" x="281.145392" xlink:href="#m940856b161" y="135.190253"/>
    </g>
   </g>
   <g id="line2d_65">
    <g clip-path="url(#p6398b777e2)">
     <use style="fill:#666666;stroke:#666666;" x="278.701855" xlink:href="#m940856b161" y="135.743006"/>
    </g>
   </g>
   <g id="line2d_66">
    <g clip-path="url(#p6398b777e2)">
     <use style="fill:#666666;stroke:#666666;" x="276.497764" xlink:href="#m940856b161" y="136.352049"/>
    </g>
   </g>
   <g id="line2d_67">
    <g clip-path="url(#p6398b777e2)">
     <use style="fill:#666666;stroke:#666666;" x="274.530976" xlink:href="#m940856b161" y="137.375055"/>
    </g>
   </g>
   <g id="line2d_68">
    <g clip-path="url(#p6398b777e2)">
     <use style="fill:#666666;stroke:#666666;" x="272.425759" xlink:href="#m940856b161" y="138.546871"/>
    </g>
   </g>
   <g id="line2d_69">
    <g clip-path="url(#p6398b777e2)">
     <use style="fill:#666666;stroke:#666666;" x="271.687484" xlink:href="#m940856b161" y="139.366355"/>
    </g>
   </g>
   <g id="line2d_70">
    <g clip-path="url(#p6398b777e2)">
     <use style="fill:#666666;stroke:#666666;" x="271.68909" xlink:href="#m940856b161" y="139.525023"/>
    </g>
   </g>
   <g id="line2d_71">
    <g clip-path="url(#p6398b777e2)">
     <use style="fill:#666666;stroke:#666666;" x="271.648441" xlink:href="#m940856b161" y="139.927447"/>
    </g>
   </g>
   <g id="line2d_72">
    <g clip-path="url(#p6398b777e2)">
     <use style="fill:#666666;stroke:#666666;" x="271.676325" xlink:href="#m940856b161" y="141.154452"/>
    </g>
   </g>
   <g id="line2d_73">
    <g clip-path="url(#p6398b777e2)">
     <use style="fill:#666666;stroke:#666666;" x="271.79607" xlink:href="#m940856b161" y="142.454124"/>
    </g>
   </g>
   <g id="line2d_74">
    <g clip-path="url(#p6398b777e2)">
     <use style="fill:#666666;stroke:#666666;" x="271.861052" xlink:href="#m940856b161" y="143.360834"/>
    </g>
   </g>
   <g id="line2d_75">
    <g clip-path="url(#p6398b777e2)">
     <use style="fill:#666666;stroke:#666666;" x="270.613978" xlink:href="#m940856b161" y="143.570827"/>
    </g>
   </g>
   <g id="line2d_76">
    <g clip-path="url(#p6398b777e2)">
     <use style="fill:#666666;stroke:#666666;" x="268.555905" xlink:href="#m940856b161" y="143.513624"/>
    </g>
   </g>
   <g id="line2d_77">
    <g clip-path="url(#p6398b777e2)">
     <use style="fill:#666666;stroke:#666666;" x="267.073945" xlink:href="#m940856b161" y="143.458607"/>
    </g>
   </g>
   <g id="line2d_78">
    <g clip-path="url(#p6398b777e2)">
     <use style="fill:#666666;stroke:#666666;" x="266.849165" xlink:href="#m940856b161" y="143.949112"/>
    </g>
   </g>
   <g id="line2d_79">
    <g clip-path="url(#p6398b777e2)">
     <use style="fill:#666666;stroke:#666666;" x="266.881379" xlink:href="#m940856b161" y="145.082527"/>
    </g>
   </g>
   <g id="line2d_80">
    <g clip-path="url(#p6398b777e2)">
     <use style="fill:#666666;stroke:#666666;" x="266.972331" xlink:href="#m940856b161" y="146.136247"/>
    </g>
   </g>
   <g id="line2d_81">
    <g clip-path="url(#p6398b777e2)">
     <use style="fill:#666666;stroke:#666666;" x="266.979907" xlink:href="#m940856b161" y="146.60697"/>
    </g>
   </g>
   <g id="line2d_82">
    <g clip-path="url(#p6398b777e2)">
     <use style="fill:#666666;stroke:#666666;" x="266.977235" xlink:href="#m940856b161" y="147.190503"/>
    </g>
   </g>
   <g id="line2d_83">
    <g clip-path="url(#p6398b777e2)">
     <use style="fill:#666666;stroke:#666666;" x="266.907624" xlink:href="#m940856b161" y="148.313166"/>
    </g>
   </g>
   <g id="line2d_84">
    <g clip-path="url(#p6398b777e2)">
     <use style="fill:#666666;stroke:#666666;" x="266.711298" xlink:href="#m940856b161" y="148.855571"/>
    </g>
   </g>
   <g id="line2d_85">
    <g clip-path="url(#p6398b777e2)">
     <use style="fill:#666666;stroke:#666666;" x="266.460547" xlink:href="#m940856b161" y="148.804985"/>
    </g>
   </g>
   <g id="line2d_86">
    <g clip-path="url(#p6398b777e2)">
     <use style="fill:#666666;stroke:#666666;" x="265.557656" xlink:href="#m940856b161" y="148.706987"/>
    </g>
   </g>
   <g id="line2d_87">
    <g clip-path="url(#p6398b777e2)">
     <use style="fill:#666666;stroke:#666666;" x="264.211459" xlink:href="#m940856b161" y="148.638061"/>
    </g>
   </g>
   <g id="line2d_88">
    <g clip-path="url(#p6398b777e2)">
     <use style="fill:#666666;stroke:#666666;" x="263.783323" xlink:href="#m940856b161" y="148.727775"/>
    </g>
   </g>
   <g id="line2d_89">
    <g clip-path="url(#p6398b777e2)">
     <use style="fill:#666666;stroke:#666666;" x="263.757524" xlink:href="#m940856b161" y="149.576813"/>
    </g>
   </g>
   <g id="line2d_90">
    <g clip-path="url(#p6398b777e2)">
     <use style="fill:#666666;stroke:#666666;" x="263.840805" xlink:href="#m940856b161" y="150.780143"/>
    </g>
   </g>
   <g id="line2d_91">
    <g clip-path="url(#p6398b777e2)">
     <use style="fill:#666666;stroke:#666666;" x="263.899942" xlink:href="#m940856b161" y="151.09716"/>
    </g>
   </g>
   <g id="line2d_92">
    <g clip-path="url(#p6398b777e2)">
     <use style="fill:#666666;stroke:#666666;" x="263.8426" xlink:href="#m940856b161" y="151.351389"/>
    </g>
   </g>
   <g id="line2d_93">
    <g clip-path="url(#p6398b777e2)">
     <use style="fill:#666666;stroke:#666666;" x="263.850063" xlink:href="#m940856b161" y="152.324625"/>
    </g>
   </g>
   <g id="line2d_94">
    <g clip-path="url(#p6398b777e2)">
     <use style="fill:#666666;stroke:#666666;" x="263.882217" xlink:href="#m940856b161" y="152.792"/>
    </g>
   </g>
   <g id="line2d_95">
    <g clip-path="url(#p6398b777e2)">
     <use style="fill:#666666;stroke:#666666;" x="263.962438" xlink:href="#m940856b161" y="152.765345"/>
    </g>
   </g>
   <g id="line2d_96">
    <g clip-path="url(#p6398b777e2)">
     <use style="fill:#666666;stroke:#666666;" x="265.263204" xlink:href="#m940856b161" y="152.783222"/>
    </g>
   </g>
   <g id="line2d_97">
    <g clip-path="url(#p6398b777e2)">
     <use style="fill:#666666;stroke:#666666;" x="267.908209" xlink:href="#m940856b161" y="152.839105"/>
    </g>
   </g>
   <g id="line2d_98">
    <g clip-path="url(#p6398b777e2)">
     <use style="fill:#666666;stroke:#666666;" x="270.58972" xlink:href="#m940856b161" y="152.907362"/>
    </g>
   </g>
   <g id="line2d_99">
    <g clip-path="url(#p6398b777e2)">
     <use style="fill:#666666;stroke:#666666;" x="272.949971" xlink:href="#m940856b161" y="152.966362"/>
    </g>
   </g>
   <g id="line2d_100">
    <g clip-path="url(#p6398b777e2)">
     <use style="fill:#666666;stroke:#666666;" x="275.480964" xlink:href="#m940856b161" y="153.037439"/>
    </g>
   </g>
   <g id="line2d_101">
    <g clip-path="url(#p6398b777e2)">
     <use style="fill:#666666;stroke:#666666;" x="278.073996" xlink:href="#m940856b161" y="153.170653"/>
    </g>
   </g>
   <g id="line2d_102">
    <g clip-path="url(#p6398b777e2)">
     <use style="fill:#666666;stroke:#666666;" x="280.648869" xlink:href="#m940856b161" y="153.306691"/>
    </g>
   </g>
   <g id="line2d_103">
    <g clip-path="url(#p6398b777e2)">
     <use style="fill:#666666;stroke:#666666;" x="283.260858" xlink:href="#m940856b161" y="153.4261"/>
    </g>
   </g>
   <g id="line2d_104">
    <g clip-path="url(#p6398b777e2)">
     <use style="fill:#666666;stroke:#666666;" x="285.751502" xlink:href="#m940856b161" y="153.494345"/>
    </g>
   </g>
   <g id="line2d_105">
    <g clip-path="url(#p6398b777e2)">
     <use style="fill:#666666;stroke:#666666;" x="288.220295" xlink:href="#m940856b161" y="153.489531"/>
    </g>
   </g>
   <g id="line2d_106">
    <g clip-path="url(#p6398b777e2)">
     <use style="fill:#666666;stroke:#666666;" x="290.465591" xlink:href="#m940856b161" y="153.529057"/>
    </g>
   </g>
   <g id="line2d_107">
    <g clip-path="url(#p6398b777e2)">
     <use style="fill:#666666;stroke:#666666;" x="292.739305" xlink:href="#m940856b161" y="153.604316"/>
    </g>
   </g>
   <g id="line2d_108">
    <g clip-path="url(#p6398b777e2)">
     <use style="fill:#666666;stroke:#666666;" x="295.065859" xlink:href="#m940856b161" y="153.648476"/>
    </g>
   </g>
   <g id="line2d_109">
    <g clip-path="url(#p6398b777e2)">
     <use style="fill:#666666;stroke:#666666;" x="297.505849" xlink:href="#m940856b161" y="153.632753"/>
    </g>
   </g>
   <g id="line2d_110">
    <g clip-path="url(#p6398b777e2)">
     <use style="fill:#666666;stroke:#666666;" x="300.027826" xlink:href="#m940856b161" y="153.606763"/>
    </g>
   </g>
   <g id="line2d_111">
    <g clip-path="url(#p6398b777e2)">
     <use style="fill:#666666;stroke:#666666;" x="302.566837" xlink:href="#m940856b161" y="153.676884"/>
    </g>
   </g>
   <g id="line2d_112">
    <g clip-path="url(#p6398b777e2)">
     <use style="fill:#666666;stroke:#666666;" x="305.056955" xlink:href="#m940856b161" y="153.675489"/>
    </g>
   </g>
   <g id="line2d_113">
    <g clip-path="url(#p6398b777e2)">
     <use style="fill:#666666;stroke:#666666;" x="307.158543" xlink:href="#m940856b161" y="153.362009"/>
    </g>
   </g>
   <g id="line2d_114">
    <g clip-path="url(#p6398b777e2)">
     <use style="fill:#666666;stroke:#666666;" x="307.282573" xlink:href="#m940856b161" y="153.218301"/>
    </g>
   </g>
   <g id="line2d_115">
    <g clip-path="url(#p6398b777e2)">
     <use style="fill:#666666;stroke:#666666;" x="307.31096" xlink:href="#m940856b161" y="153.211518"/>
    </g>
   </g>
   <g id="line2d_116">
    <g clip-path="url(#p6398b777e2)">
     <use style="fill:#666666;stroke:#666666;" x="307.35499" xlink:href="#m940856b161" y="153.238529"/>
    </g>
   </g>
   <g id="line2d_117">
    <g clip-path="url(#p6398b777e2)">
     <use style="fill:#666666;stroke:#666666;" x="307.380922" xlink:href="#m940856b161" y="153.245882"/>
    </g>
   </g>
   <g id="patch_3">
    <path d="M 57.6 307.584 
L 57.6 41.472 
" style="fill:none;stroke:#000000;stroke-linecap:square;stroke-linejoin:miter;stroke-width:0.8;"/>
   </g>
   <g id="patch_4">
    <path d="M 414.72 307.584 
L 414.72 41.472 
" style="fill:none;stroke:#000000;stroke-linecap:square;stroke-linejoin:miter;stroke-width:0.8;"/>
   </g>
   <g id="patch_5">
    <path d="M 57.6 307.584 
L 414.72 307.584 
" style="fill:none;stroke:#000000;stroke-linecap:square;stroke-linejoin:miter;stroke-width:0.8;"/>
   </g>
   <g id="patch_6">
    <path d="M 57.6 41.472 
L 414.72 41.472 
" style="fill:none;stroke:#000000;stroke-linecap:square;stroke-linejoin:miter;stroke-width:0.8;"/>
   </g>
  </g>
 </g>
 <defs>
  <clipPath id="p6398b777e2">
   <rect height="266.112" width="357.12" x="57.6" y="41.472"/>
  </clipPath>
 </defs>
</svg>
