<?xml version="1.0" encoding="utf-8" standalone="no"?>
<!DOCTYPE svg PUBLIC "-//W3C//DTD SVG 1.1//EN"
  "http://www.w3.org/Graphics/SVG/1.1/DTD/svg11.dtd">
<!-- Created with matplotlib (https://matplotlib.org/) -->
<svg height="345.6pt" version="1.1" viewBox="0 0 460.8 345.6" width="460.8pt" xmlns="http://www.w3.org/2000/svg" xmlns:xlink="http://www.w3.org/1999/xlink">
 <metadata>
  <rdf:RDF xmlns:cc="http://creativecommons.org/ns#" xmlns:dc="http://purl.org/dc/elements/1.1/" xmlns:rdf="http://www.w3.org/1999/02/22-rdf-syntax-ns#">
   <cc:Work>
    <dc:type rdf:resource="http://purl.org/dc/dcmitype/StillImage"/>
    <dc:date>2021-02-23T17:23:14.665514</dc:date>
    <dc:format>image/svg+xml</dc:format>
    <dc:creator>
     <cc:Agent>
      <dc:title>Matplotlib v3.3.3, https://matplotlib.org/</dc:title>
     </cc:Agent>
    </dc:creator>
   </cc:Work>
  </rdf:RDF>
 </metadata>
 <defs>
  <style type="text/css">*{stroke-linecap:butt;stroke-linejoin:round;}</style>
 </defs>
 <g id="figure_1">
  <g id="patch_1">
   <path d="M 0 345.6 
L 460.8 345.6 
L 460.8 0 
L 0 0 
z
" style="fill:#ffffff;"/>
  </g>
  <g id="axes_1">
   <g id="patch_2">
    <path d="M 57.6 307.584 
L 414.72 307.584 
L 414.72 41.472 
L 57.6 41.472 
z
" style="fill:#ffffff;"/>
   </g>
   <g id="matplotlib.axis_1">
    <g id="xtick_1">
     <g id="line2d_1">
      <defs>
       <path d="M 0 0 
L 0 3.5 
" id="m96c16ff264" style="stroke:#000000;stroke-width:0.8;"/>
      </defs>
      <g>
       <use style="stroke:#000000;stroke-width:0.8;" x="57.6" xlink:href="#m96c16ff264" y="307.584"/>
      </g>
     </g>
     <g id="text_1">
      <!-- −1.0 -->
      <g transform="translate(45.458594 322.182437)scale(0.1 -0.1)">
       <defs>
        <path d="M 10.59375 35.5 
L 73.1875 35.5 
L 73.1875 27.203125 
L 10.59375 27.203125 
z
" id="DejaVuSans-8722"/>
        <path d="M 12.40625 8.296875 
L 28.515625 8.296875 
L 28.515625 63.921875 
L 10.984375 60.40625 
L 10.984375 69.390625 
L 28.421875 72.90625 
L 38.28125 72.90625 
L 38.28125 8.296875 
L 54.390625 8.296875 
L 54.390625 0 
L 12.40625 0 
z
" id="DejaVuSans-49"/>
        <path d="M 10.6875 12.40625 
L 21 12.40625 
L 21 0 
L 10.6875 0 
z
" id="DejaVuSans-46"/>
        <path d="M 31.78125 66.40625 
Q 24.171875 66.40625 20.328125 58.90625 
Q 16.5 51.421875 16.5 36.375 
Q 16.5 21.390625 20.328125 13.890625 
Q 24.171875 6.390625 31.78125 6.390625 
Q 39.453125 6.390625 43.28125 13.890625 
Q 47.125 21.390625 47.125 36.375 
Q 47.125 51.421875 43.28125 58.90625 
Q 39.453125 66.40625 31.78125 66.40625 
z
M 31.78125 74.21875 
Q 44.046875 74.21875 50.515625 64.515625 
Q 56.984375 54.828125 56.984375 36.375 
Q 56.984375 17.96875 50.515625 8.265625 
Q 44.046875 -1.421875 31.78125 -1.421875 
Q 19.53125 -1.421875 13.0625 8.265625 
Q 6.59375 17.96875 6.59375 36.375 
Q 6.59375 54.828125 13.0625 64.515625 
Q 19.53125 74.21875 31.78125 74.21875 
z
" id="DejaVuSans-48"/>
       </defs>
       <use xlink:href="#DejaVuSans-8722"/>
       <use x="83.789062" xlink:href="#DejaVuSans-49"/>
       <use x="147.412109" xlink:href="#DejaVuSans-46"/>
       <use x="179.199219" xlink:href="#DejaVuSans-48"/>
      </g>
     </g>
    </g>
    <g id="xtick_2">
     <g id="line2d_2">
      <g>
       <use style="stroke:#000000;stroke-width:0.8;" x="129.024" xlink:href="#m96c16ff264" y="307.584"/>
      </g>
     </g>
     <g id="text_2">
      <!-- −0.8 -->
      <g transform="translate(116.882594 322.182437)scale(0.1 -0.1)">
       <defs>
        <path d="M 31.78125 34.625 
Q 24.75 34.625 20.71875 30.859375 
Q 16.703125 27.09375 16.703125 20.515625 
Q 16.703125 13.921875 20.71875 10.15625 
Q 24.75 6.390625 31.78125 6.390625 
Q 38.8125 6.390625 42.859375 10.171875 
Q 46.921875 13.96875 46.921875 20.515625 
Q 46.921875 27.09375 42.890625 30.859375 
Q 38.875 34.625 31.78125 34.625 
z
M 21.921875 38.8125 
Q 15.578125 40.375 12.03125 44.71875 
Q 8.5 49.078125 8.5 55.328125 
Q 8.5 64.0625 14.71875 69.140625 
Q 20.953125 74.21875 31.78125 74.21875 
Q 42.671875 74.21875 48.875 69.140625 
Q 55.078125 64.0625 55.078125 55.328125 
Q 55.078125 49.078125 51.53125 44.71875 
Q 48 40.375 41.703125 38.8125 
Q 48.828125 37.15625 52.796875 32.3125 
Q 56.78125 27.484375 56.78125 20.515625 
Q 56.78125 9.90625 50.3125 4.234375 
Q 43.84375 -1.421875 31.78125 -1.421875 
Q 19.734375 -1.421875 13.25 4.234375 
Q 6.78125 9.90625 6.78125 20.515625 
Q 6.78125 27.484375 10.78125 32.3125 
Q 14.796875 37.15625 21.921875 38.8125 
z
M 18.3125 54.390625 
Q 18.3125 48.734375 21.84375 45.5625 
Q 25.390625 42.390625 31.78125 42.390625 
Q 38.140625 42.390625 41.71875 45.5625 
Q 45.3125 48.734375 45.3125 54.390625 
Q 45.3125 60.0625 41.71875 63.234375 
Q 38.140625 66.40625 31.78125 66.40625 
Q 25.390625 66.40625 21.84375 63.234375 
Q 18.3125 60.0625 18.3125 54.390625 
z
" id="DejaVuSans-56"/>
       </defs>
       <use xlink:href="#DejaVuSans-8722"/>
       <use x="83.789062" xlink:href="#DejaVuSans-48"/>
       <use x="147.412109" xlink:href="#DejaVuSans-46"/>
       <use x="179.199219" xlink:href="#DejaVuSans-56"/>
      </g>
     </g>
    </g>
    <g id="xtick_3">
     <g id="line2d_3">
      <g>
       <use style="stroke:#000000;stroke-width:0.8;" x="200.448" xlink:href="#m96c16ff264" y="307.584"/>
      </g>
     </g>
     <g id="text_3">
      <!-- −0.6 -->
      <g transform="translate(188.306594 322.182437)scale(0.1 -0.1)">
       <defs>
        <path d="M 33.015625 40.375 
Q 26.375 40.375 22.484375 35.828125 
Q 18.609375 31.296875 18.609375 23.390625 
Q 18.609375 15.53125 22.484375 10.953125 
Q 26.375 6.390625 33.015625 6.390625 
Q 39.65625 6.390625 43.53125 10.953125 
Q 47.40625 15.53125 47.40625 23.390625 
Q 47.40625 31.296875 43.53125 35.828125 
Q 39.65625 40.375 33.015625 40.375 
z
M 52.59375 71.296875 
L 52.59375 62.3125 
Q 48.875 64.0625 45.09375 64.984375 
Q 41.3125 65.921875 37.59375 65.921875 
Q 27.828125 65.921875 22.671875 59.328125 
Q 17.53125 52.734375 16.796875 39.40625 
Q 19.671875 43.65625 24.015625 45.921875 
Q 28.375 48.1875 33.59375 48.1875 
Q 44.578125 48.1875 50.953125 41.515625 
Q 57.328125 34.859375 57.328125 23.390625 
Q 57.328125 12.15625 50.6875 5.359375 
Q 44.046875 -1.421875 33.015625 -1.421875 
Q 20.359375 -1.421875 13.671875 8.265625 
Q 6.984375 17.96875 6.984375 36.375 
Q 6.984375 53.65625 15.1875 63.9375 
Q 23.390625 74.21875 37.203125 74.21875 
Q 40.921875 74.21875 44.703125 73.484375 
Q 48.484375 72.75 52.59375 71.296875 
z
" id="DejaVuSans-54"/>
       </defs>
       <use xlink:href="#DejaVuSans-8722"/>
       <use x="83.789062" xlink:href="#DejaVuSans-48"/>
       <use x="147.412109" xlink:href="#DejaVuSans-46"/>
       <use x="179.199219" xlink:href="#DejaVuSans-54"/>
      </g>
     </g>
    </g>
    <g id="xtick_4">
     <g id="line2d_4">
      <g>
       <use style="stroke:#000000;stroke-width:0.8;" x="271.872" xlink:href="#m96c16ff264" y="307.584"/>
      </g>
     </g>
     <g id="text_4">
      <!-- −0.4 -->
      <g transform="translate(259.730594 322.182437)scale(0.1 -0.1)">
       <defs>
        <path d="M 37.796875 64.3125 
L 12.890625 25.390625 
L 37.796875 25.390625 
z
M 35.203125 72.90625 
L 47.609375 72.90625 
L 47.609375 25.390625 
L 58.015625 25.390625 
L 58.015625 17.1875 
L 47.609375 17.1875 
L 47.609375 0 
L 37.796875 0 
L 37.796875 17.1875 
L 4.890625 17.1875 
L 4.890625 26.703125 
z
" id="DejaVuSans-52"/>
       </defs>
       <use xlink:href="#DejaVuSans-8722"/>
       <use x="83.789062" xlink:href="#DejaVuSans-48"/>
       <use x="147.412109" xlink:href="#DejaVuSans-46"/>
       <use x="179.199219" xlink:href="#DejaVuSans-52"/>
      </g>
     </g>
    </g>
    <g id="xtick_5">
     <g id="line2d_5">
      <g>
       <use style="stroke:#000000;stroke-width:0.8;" x="343.296" xlink:href="#m96c16ff264" y="307.584"/>
      </g>
     </g>
     <g id="text_5">
      <!-- −0.2 -->
      <g transform="translate(331.154594 322.182437)scale(0.1 -0.1)">
       <defs>
        <path d="M 19.1875 8.296875 
L 53.609375 8.296875 
L 53.609375 0 
L 7.328125 0 
L 7.328125 8.296875 
Q 12.9375 14.109375 22.625 23.890625 
Q 32.328125 33.6875 34.8125 36.53125 
Q 39.546875 41.84375 41.421875 45.53125 
Q 43.3125 49.21875 43.3125 52.78125 
Q 43.3125 58.59375 39.234375 62.25 
Q 35.15625 65.921875 28.609375 65.921875 
Q 23.96875 65.921875 18.8125 64.3125 
Q 13.671875 62.703125 7.8125 59.421875 
L 7.8125 69.390625 
Q 13.765625 71.78125 18.9375 73 
Q 24.125 74.21875 28.421875 74.21875 
Q 39.75 74.21875 46.484375 68.546875 
Q 53.21875 62.890625 53.21875 53.421875 
Q 53.21875 48.921875 51.53125 44.890625 
Q 49.859375 40.875 45.40625 35.40625 
Q 44.1875 33.984375 37.640625 27.21875 
Q 31.109375 20.453125 19.1875 8.296875 
z
" id="DejaVuSans-50"/>
       </defs>
       <use xlink:href="#DejaVuSans-8722"/>
       <use x="83.789062" xlink:href="#DejaVuSans-48"/>
       <use x="147.412109" xlink:href="#DejaVuSans-46"/>
       <use x="179.199219" xlink:href="#DejaVuSans-50"/>
      </g>
     </g>
    </g>
    <g id="xtick_6">
     <g id="line2d_6">
      <g>
       <use style="stroke:#000000;stroke-width:0.8;" x="414.72" xlink:href="#m96c16ff264" y="307.584"/>
      </g>
     </g>
     <g id="text_6">
      <!-- 0.0 -->
      <g transform="translate(406.768438 322.182437)scale(0.1 -0.1)">
       <use xlink:href="#DejaVuSans-48"/>
       <use x="63.623047" xlink:href="#DejaVuSans-46"/>
       <use x="95.410156" xlink:href="#DejaVuSans-48"/>
      </g>
     </g>
    </g>
   </g>
   <g id="matplotlib.axis_2">
    <g id="ytick_1">
     <g id="line2d_7">
      <defs>
       <path d="M 0 0 
L -3.5 0 
" id="m1eba7840b9" style="stroke:#000000;stroke-width:0.8;"/>
      </defs>
      <g>
       <use style="stroke:#000000;stroke-width:0.8;" x="57.6" xlink:href="#m1eba7840b9" y="288.040914"/>
      </g>
     </g>
     <g id="text_7">
      <!-- 0.10 -->
      <g transform="translate(28.334375 291.840133)scale(0.1 -0.1)">
       <use xlink:href="#DejaVuSans-48"/>
       <use x="63.623047" xlink:href="#DejaVuSans-46"/>
       <use x="95.410156" xlink:href="#DejaVuSans-49"/>
       <use x="159.033203" xlink:href="#DejaVuSans-48"/>
      </g>
     </g>
    </g>
    <g id="ytick_2">
     <g id="line2d_8">
      <g>
       <use style="stroke:#000000;stroke-width:0.8;" x="57.6" xlink:href="#m1eba7840b9" y="232.292509"/>
      </g>
     </g>
     <g id="text_8">
      <!-- 0.15 -->
      <g transform="translate(28.334375 236.091727)scale(0.1 -0.1)">
       <defs>
        <path d="M 10.796875 72.90625 
L 49.515625 72.90625 
L 49.515625 64.59375 
L 19.828125 64.59375 
L 19.828125 46.734375 
Q 21.96875 47.46875 24.109375 47.828125 
Q 26.265625 48.1875 28.421875 48.1875 
Q 40.625 48.1875 47.75 41.5 
Q 54.890625 34.8125 54.890625 23.390625 
Q 54.890625 11.625 47.5625 5.09375 
Q 40.234375 -1.421875 26.90625 -1.421875 
Q 22.3125 -1.421875 17.546875 -0.640625 
Q 12.796875 0.140625 7.71875 1.703125 
L 7.71875 11.625 
Q 12.109375 9.234375 16.796875 8.0625 
Q 21.484375 6.890625 26.703125 6.890625 
Q 35.15625 6.890625 40.078125 11.328125 
Q 45.015625 15.765625 45.015625 23.390625 
Q 45.015625 31 40.078125 35.4375 
Q 35.15625 39.890625 26.703125 39.890625 
Q 22.75 39.890625 18.8125 39.015625 
Q 14.890625 38.140625 10.796875 36.28125 
z
" id="DejaVuSans-53"/>
       </defs>
       <use xlink:href="#DejaVuSans-48"/>
       <use x="63.623047" xlink:href="#DejaVuSans-46"/>
       <use x="95.410156" xlink:href="#DejaVuSans-49"/>
       <use x="159.033203" xlink:href="#DejaVuSans-53"/>
      </g>
     </g>
    </g>
    <g id="ytick_3">
     <g id="line2d_9">
      <g>
       <use style="stroke:#000000;stroke-width:0.8;" x="57.6" xlink:href="#m1eba7840b9" y="176.544103"/>
      </g>
     </g>
     <g id="text_9">
      <!-- 0.20 -->
      <g transform="translate(28.334375 180.343322)scale(0.1 -0.1)">
       <use xlink:href="#DejaVuSans-48"/>
       <use x="63.623047" xlink:href="#DejaVuSans-46"/>
       <use x="95.410156" xlink:href="#DejaVuSans-50"/>
       <use x="159.033203" xlink:href="#DejaVuSans-48"/>
      </g>
     </g>
    </g>
    <g id="ytick_4">
     <g id="line2d_10">
      <g>
       <use style="stroke:#000000;stroke-width:0.8;" x="57.6" xlink:href="#m1eba7840b9" y="120.795697"/>
      </g>
     </g>
     <g id="text_10">
      <!-- 0.25 -->
      <g transform="translate(28.334375 124.594916)scale(0.1 -0.1)">
       <use xlink:href="#DejaVuSans-48"/>
       <use x="63.623047" xlink:href="#DejaVuSans-46"/>
       <use x="95.410156" xlink:href="#DejaVuSans-50"/>
       <use x="159.033203" xlink:href="#DejaVuSans-53"/>
      </g>
     </g>
    </g>
    <g id="ytick_5">
     <g id="line2d_11">
      <g>
       <use style="stroke:#000000;stroke-width:0.8;" x="57.6" xlink:href="#m1eba7840b9" y="65.047292"/>
      </g>
     </g>
     <g id="text_11">
      <!-- 0.30 -->
      <g transform="translate(28.334375 68.84651)scale(0.1 -0.1)">
       <defs>
        <path d="M 40.578125 39.3125 
Q 47.65625 37.796875 51.625 33 
Q 55.609375 28.21875 55.609375 21.1875 
Q 55.609375 10.40625 48.1875 4.484375 
Q 40.765625 -1.421875 27.09375 -1.421875 
Q 22.515625 -1.421875 17.65625 -0.515625 
Q 12.796875 0.390625 7.625 2.203125 
L 7.625 11.71875 
Q 11.71875 9.328125 16.59375 8.109375 
Q 21.484375 6.890625 26.8125 6.890625 
Q 36.078125 6.890625 40.9375 10.546875 
Q 45.796875 14.203125 45.796875 21.1875 
Q 45.796875 27.640625 41.28125 31.265625 
Q 36.765625 34.90625 28.71875 34.90625 
L 20.21875 34.90625 
L 20.21875 43.015625 
L 29.109375 43.015625 
Q 36.375 43.015625 40.234375 45.921875 
Q 44.09375 48.828125 44.09375 54.296875 
Q 44.09375 59.90625 40.109375 62.90625 
Q 36.140625 65.921875 28.71875 65.921875 
Q 24.65625 65.921875 20.015625 65.03125 
Q 15.375 64.15625 9.8125 62.3125 
L 9.8125 71.09375 
Q 15.4375 72.65625 20.34375 73.4375 
Q 25.25 74.21875 29.59375 74.21875 
Q 40.828125 74.21875 47.359375 69.109375 
Q 53.90625 64.015625 53.90625 55.328125 
Q 53.90625 49.265625 50.4375 45.09375 
Q 46.96875 40.921875 40.578125 39.3125 
z
" id="DejaVuSans-51"/>
       </defs>
       <use xlink:href="#DejaVuSans-48"/>
       <use x="63.623047" xlink:href="#DejaVuSans-46"/>
       <use x="95.410156" xlink:href="#DejaVuSans-51"/>
       <use x="159.033203" xlink:href="#DejaVuSans-48"/>
      </g>
     </g>
    </g>
   </g>
   <g id="line2d_12">
    <defs>
     <path d="M 0 3 
C 0.795609 3 1.55874 2.683901 2.12132 2.12132 
C 2.683901 1.55874 3 0.795609 3 0 
C 3 -0.795609 2.683901 -1.55874 2.12132 -2.12132 
C 1.55874 -2.683901 0.795609 -3 0 -3 
C -0.795609 -3 -1.55874 -2.683901 -2.12132 -2.12132 
C -2.683901 -1.55874 -3 -0.795609 -3 0 
C -3 0.795609 -2.683901 1.55874 -2.12132 2.12132 
C -1.55874 2.683901 -0.795609 3 0 3 
z
" id="mee79032969" style="stroke:#666666;"/>
    </defs>
    <g clip-path="url(#p57629f6a8f)">
     <use style="fill:#666666;stroke:#666666;" x="254.688556" xlink:href="#mee79032969" y="53.568116"/>
    </g>
   </g>
   <g id="line2d_13">
    <g clip-path="url(#p57629f6a8f)">
     <use style="fill:#666666;stroke:#666666;" x="254.687979" xlink:href="#mee79032969" y="53.568258"/>
    </g>
   </g>
   <g id="line2d_14">
    <g clip-path="url(#p57629f6a8f)">
     <use style="fill:#666666;stroke:#666666;" x="254.688181" xlink:href="#mee79032969" y="53.568505"/>
    </g>
   </g>
   <g id="line2d_15">
    <g clip-path="url(#p57629f6a8f)">
     <use style="fill:#666666;stroke:#666666;" x="254.688979" xlink:href="#mee79032969" y="53.56825"/>
    </g>
   </g>
   <g id="line2d_16">
    <g clip-path="url(#p57629f6a8f)">
     <use style="fill:#666666;stroke:#666666;" x="254.688205" xlink:href="#mee79032969" y="53.568234"/>
    </g>
   </g>
   <g id="line2d_17">
    <g clip-path="url(#p57629f6a8f)">
     <use style="fill:#666666;stroke:#666666;" x="254.688463" xlink:href="#mee79032969" y="53.568"/>
    </g>
   </g>
   <g id="line2d_18">
    <g clip-path="url(#p57629f6a8f)">
     <use style="fill:#666666;stroke:#666666;" x="254.687806" xlink:href="#mee79032969" y="53.568963"/>
    </g>
   </g>
   <g id="line2d_19">
    <g clip-path="url(#p57629f6a8f)">
     <use style="fill:#666666;stroke:#666666;" x="254.687811" xlink:href="#mee79032969" y="53.569026"/>
    </g>
   </g>
   <g id="line2d_20">
    <g clip-path="url(#p57629f6a8f)">
     <use style="fill:#666666;stroke:#666666;" x="254.68774" xlink:href="#mee79032969" y="53.569362"/>
    </g>
   </g>
   <g id="line2d_21">
    <g clip-path="url(#p57629f6a8f)">
     <use style="fill:#666666;stroke:#666666;" x="255.132485" xlink:href="#mee79032969" y="53.83115"/>
    </g>
   </g>
   <g id="line2d_22">
    <g clip-path="url(#p57629f6a8f)">
     <use style="fill:#666666;stroke:#666666;" x="257.932841" xlink:href="#mee79032969" y="53.900782"/>
    </g>
   </g>
   <g id="line2d_23">
    <g clip-path="url(#p57629f6a8f)">
     <use style="fill:#666666;stroke:#666666;" x="261.450799" xlink:href="#mee79032969" y="53.762638"/>
    </g>
   </g>
   <g id="line2d_24">
    <g clip-path="url(#p57629f6a8f)">
     <use style="fill:#666666;stroke:#666666;" x="265.065042" xlink:href="#mee79032969" y="54.048947"/>
    </g>
   </g>
   <g id="line2d_25">
    <g clip-path="url(#p57629f6a8f)">
     <use style="fill:#666666;stroke:#666666;" x="265.87186" xlink:href="#mee79032969" y="54.20659"/>
    </g>
   </g>
   <g id="line2d_26">
    <g clip-path="url(#p57629f6a8f)">
     <use style="fill:#666666;stroke:#666666;" x="265.901913" xlink:href="#mee79032969" y="54.558608"/>
    </g>
   </g>
   <g id="line2d_27">
    <g clip-path="url(#p57629f6a8f)">
     <use style="fill:#666666;stroke:#666666;" x="265.792851" xlink:href="#mee79032969" y="54.531516"/>
    </g>
   </g>
   <g id="line2d_28">
    <g clip-path="url(#p57629f6a8f)">
     <use style="fill:#666666;stroke:#666666;" x="265.773198" xlink:href="#mee79032969" y="54.690229"/>
    </g>
   </g>
   <g id="line2d_29">
    <g clip-path="url(#p57629f6a8f)">
     <use style="fill:#666666;stroke:#666666;" x="265.750828" xlink:href="#mee79032969" y="54.79137"/>
    </g>
   </g>
   <g id="line2d_30">
    <g clip-path="url(#p57629f6a8f)">
     <use style="fill:#666666;stroke:#666666;" x="265.82089" xlink:href="#mee79032969" y="55.087374"/>
    </g>
   </g>
   <g id="line2d_31">
    <defs>
     <path d="M 0 3 
C 0.795609 3 1.55874 2.683901 2.12132 2.12132 
C 2.683901 1.55874 3 0.795609 3 0 
C 3 -0.795609 2.683901 -1.55874 2.12132 -2.12132 
C 1.55874 -2.683901 0.795609 -3 0 -3 
C -0.795609 -3 -1.55874 -2.683901 -2.12132 -2.12132 
C -2.683901 -1.55874 -3 -0.795609 -3 0 
C -3 0.795609 -2.683901 1.55874 -2.12132 2.12132 
C -1.55874 2.683901 -0.795609 3 0 3 
z
" id="md19ccaa2eb" style="stroke:#fd980e;"/>
    </defs>
    <g clip-path="url(#p57629f6a8f)">
     <use style="fill:#fd980e;stroke:#fd980e;" x="266.597814" xlink:href="#md19ccaa2eb" y="56.059259"/>
    </g>
   </g>
   <g id="line2d_32">
    <defs>
     <path d="M 0 3 
C 0.795609 3 1.55874 2.683901 2.12132 2.12132 
C 2.683901 1.55874 3 0.795609 3 0 
C 3 -0.795609 2.683901 -1.55874 2.12132 -2.12132 
C 1.55874 -2.683901 0.795609 -3 0 -3 
C -0.795609 -3 -1.55874 -2.683901 -2.12132 -2.12132 
C -2.683901 -1.55874 -3 -0.795609 -3 0 
C -3 0.795609 -2.683901 1.55874 -2.12132 2.12132 
C -1.55874 2.683901 -0.795609 3 0 3 
z
" id="m51519e275f" style="stroke:#fe980c;"/>
    </defs>
    <g clip-path="url(#p57629f6a8f)">
     <use style="fill:#fe980c;stroke:#fe980c;" x="269.41548" xlink:href="#m51519e275f" y="58.021755"/>
    </g>
   </g>
   <g id="line2d_33">
    <defs>
     <path d="M 0 3 
C 0.795609 3 1.55874 2.683901 2.12132 2.12132 
C 2.683901 1.55874 3 0.795609 3 0 
C 3 -0.795609 2.683901 -1.55874 2.12132 -2.12132 
C 1.55874 -2.683901 0.795609 -3 0 -3 
C -0.795609 -3 -1.55874 -2.683901 -2.12132 -2.12132 
C -2.683901 -1.55874 -3 -0.795609 -3 0 
C -3 0.795609 -2.683901 1.55874 -2.12132 2.12132 
C -1.55874 2.683901 -0.795609 3 0 3 
z
" id="m50410c671e" style="stroke:#fe990a;"/>
    </defs>
    <g clip-path="url(#p57629f6a8f)">
     <use style="fill:#fe990a;stroke:#fe990a;" x="272.489975" xlink:href="#m50410c671e" y="60.178249"/>
    </g>
   </g>
   <g id="line2d_34">
    <defs>
     <path d="M 0 3 
C 0.795609 3 1.55874 2.683901 2.12132 2.12132 
C 2.683901 1.55874 3 0.795609 3 0 
C 3 -0.795609 2.683901 -1.55874 2.12132 -2.12132 
C 1.55874 -2.683901 0.795609 -3 0 -3 
C -0.795609 -3 -1.55874 -2.683901 -2.12132 -2.12132 
C -2.683901 -1.55874 -3 -0.795609 -3 0 
C -3 0.795609 -2.683901 1.55874 -2.12132 2.12132 
C -1.55874 2.683901 -0.795609 3 0 3 
z
" id="m4263a0da8c" style="stroke:#ff9907;"/>
    </defs>
    <g clip-path="url(#p57629f6a8f)">
     <use style="fill:#ff9907;stroke:#ff9907;" x="275.471051" xlink:href="#m4263a0da8c" y="61.808585"/>
    </g>
   </g>
   <g id="line2d_35">
    <defs>
     <path d="M 0 3 
C 0.795609 3 1.55874 2.683901 2.12132 2.12132 
C 2.683901 1.55874 3 0.795609 3 0 
C 3 -0.795609 2.683901 -1.55874 2.12132 -2.12132 
C 1.55874 -2.683901 0.795609 -3 0 -3 
C -0.795609 -3 -1.55874 -2.683901 -2.12132 -2.12132 
C -2.683901 -1.55874 -3 -0.795609 -3 0 
C -3 0.795609 -2.683901 1.55874 -2.12132 2.12132 
C -1.55874 2.683901 -0.795609 3 0 3 
z
" id="mf7e1f5667d" style="stroke:#ff9900;"/>
    </defs>
    <g clip-path="url(#p57629f6a8f)">
     <use style="fill:#ff9900;stroke:#ff9900;" x="277.311541" xlink:href="#mf7e1f5667d" y="61.710094"/>
    </g>
   </g>
   <g id="line2d_36">
    <g clip-path="url(#p57629f6a8f)">
     <use style="fill:#ff9900;stroke:#ff9900;" x="277.911319" xlink:href="#mf7e1f5667d" y="61.614112"/>
    </g>
   </g>
   <g id="line2d_37">
    <g clip-path="url(#p57629f6a8f)">
     <use style="fill:#ff9900;stroke:#ff9900;" x="278.546844" xlink:href="#mf7e1f5667d" y="62.343016"/>
    </g>
   </g>
   <g id="line2d_38">
    <g clip-path="url(#p57629f6a8f)">
     <use style="fill:#ff9900;stroke:#ff9900;" x="279.135531" xlink:href="#mf7e1f5667d" y="62.97555"/>
    </g>
   </g>
   <g id="line2d_39">
    <g clip-path="url(#p57629f6a8f)">
     <use style="fill:#ff9900;stroke:#ff9900;" x="279.785147" xlink:href="#mf7e1f5667d" y="63.833929"/>
    </g>
   </g>
   <g id="line2d_40">
    <g clip-path="url(#p57629f6a8f)">
     <use style="fill:#ff9900;stroke:#ff9900;" x="280.422785" xlink:href="#mf7e1f5667d" y="64.871727"/>
    </g>
   </g>
   <g id="line2d_41">
    <g clip-path="url(#p57629f6a8f)">
     <use style="fill:#ff9900;stroke:#ff9900;" x="281.007761" xlink:href="#mf7e1f5667d" y="65.931245"/>
    </g>
   </g>
   <g id="line2d_42">
    <g clip-path="url(#p57629f6a8f)">
     <use style="fill:#ff9900;stroke:#ff9900;" x="281.599494" xlink:href="#mf7e1f5667d" y="66.921276"/>
    </g>
   </g>
   <g id="line2d_43">
    <g clip-path="url(#p57629f6a8f)">
     <use style="fill:#ff9900;stroke:#ff9900;" x="282.255641" xlink:href="#mf7e1f5667d" y="67.97624"/>
    </g>
   </g>
   <g id="line2d_44">
    <g clip-path="url(#p57629f6a8f)">
     <use style="fill:#ff9900;stroke:#ff9900;" x="282.813638" xlink:href="#mf7e1f5667d" y="68.79414"/>
    </g>
   </g>
   <g id="line2d_45">
    <g clip-path="url(#p57629f6a8f)">
     <use style="fill:#ff9900;stroke:#ff9900;" x="283.339451" xlink:href="#mf7e1f5667d" y="69.613256"/>
    </g>
   </g>
   <g id="line2d_46">
    <g clip-path="url(#p57629f6a8f)">
     <use style="fill:#ff9900;stroke:#ff9900;" x="283.869366" xlink:href="#mf7e1f5667d" y="70.676084"/>
    </g>
   </g>
   <g id="line2d_47">
    <g clip-path="url(#p57629f6a8f)">
     <use style="fill:#ff9900;stroke:#ff9900;" x="284.45595" xlink:href="#mf7e1f5667d" y="71.891182"/>
    </g>
   </g>
   <g id="line2d_48">
    <g clip-path="url(#p57629f6a8f)">
     <use style="fill:#ff9900;stroke:#ff9900;" x="284.954498" xlink:href="#mf7e1f5667d" y="72.924999"/>
    </g>
   </g>
   <g id="line2d_49">
    <g clip-path="url(#p57629f6a8f)">
     <use style="fill:#ff9900;stroke:#ff9900;" x="285.536393" xlink:href="#mf7e1f5667d" y="74.291055"/>
    </g>
   </g>
   <g id="line2d_50">
    <g clip-path="url(#p57629f6a8f)">
     <use style="fill:#ff9900;stroke:#ff9900;" x="286.171556" xlink:href="#mf7e1f5667d" y="75.840094"/>
    </g>
   </g>
   <g id="line2d_51">
    <g clip-path="url(#p57629f6a8f)">
     <use style="fill:#ff9900;stroke:#ff9900;" x="286.727443" xlink:href="#mf7e1f5667d" y="77.88685"/>
    </g>
   </g>
   <g id="line2d_52">
    <g clip-path="url(#p57629f6a8f)">
     <use style="fill:#ff9900;stroke:#ff9900;" x="287.312639" xlink:href="#mf7e1f5667d" y="80.043183"/>
    </g>
   </g>
   <g id="line2d_53">
    <g clip-path="url(#p57629f6a8f)">
     <use style="fill:#ff9900;stroke:#ff9900;" x="288.010028" xlink:href="#mf7e1f5667d" y="82.23083"/>
    </g>
   </g>
   <g id="line2d_54">
    <g clip-path="url(#p57629f6a8f)">
     <use style="fill:#ff9900;stroke:#ff9900;" x="288.839698" xlink:href="#mf7e1f5667d" y="84.585211"/>
    </g>
   </g>
   <g id="line2d_55">
    <g clip-path="url(#p57629f6a8f)">
     <use style="fill:#ff9900;stroke:#ff9900;" x="289.723805" xlink:href="#mf7e1f5667d" y="87.059625"/>
    </g>
   </g>
   <g id="line2d_56">
    <g clip-path="url(#p57629f6a8f)">
     <use style="fill:#ff9900;stroke:#ff9900;" x="290.528314" xlink:href="#mf7e1f5667d" y="89.535304"/>
    </g>
   </g>
   <g id="line2d_57">
    <g clip-path="url(#p57629f6a8f)">
     <use style="fill:#ff9900;stroke:#ff9900;" x="291.245696" xlink:href="#mf7e1f5667d" y="91.72971"/>
    </g>
   </g>
   <g id="line2d_58">
    <g clip-path="url(#p57629f6a8f)">
     <use style="fill:#ff9900;stroke:#ff9900;" x="292.059995" xlink:href="#mf7e1f5667d" y="94.065892"/>
    </g>
   </g>
   <g id="line2d_59">
    <g clip-path="url(#p57629f6a8f)">
     <use style="fill:#ff9900;stroke:#ff9900;" x="292.89552" xlink:href="#mf7e1f5667d" y="96.321457"/>
    </g>
   </g>
   <g id="line2d_60">
    <g clip-path="url(#p57629f6a8f)">
     <use style="fill:#ff9900;stroke:#ff9900;" x="293.53453" xlink:href="#mf7e1f5667d" y="97.983233"/>
    </g>
   </g>
   <g id="line2d_61">
    <g clip-path="url(#p57629f6a8f)">
     <use style="fill:#ff9900;stroke:#ff9900;" x="294.242707" xlink:href="#mf7e1f5667d" y="99.920075"/>
    </g>
   </g>
   <g id="line2d_62">
    <g clip-path="url(#p57629f6a8f)">
     <use style="fill:#ff9900;stroke:#ff9900;" x="295.062867" xlink:href="#mf7e1f5667d" y="102.000849"/>
    </g>
   </g>
   <g id="line2d_63">
    <g clip-path="url(#p57629f6a8f)">
     <use style="fill:#ff9900;stroke:#ff9900;" x="295.703484" xlink:href="#mf7e1f5667d" y="103.713759"/>
    </g>
   </g>
   <g id="line2d_64">
    <g clip-path="url(#p57629f6a8f)">
     <use style="fill:#ff9900;stroke:#ff9900;" x="296.548147" xlink:href="#mf7e1f5667d" y="105.668919"/>
    </g>
   </g>
   <g id="line2d_65">
    <g clip-path="url(#p57629f6a8f)">
     <use style="fill:#ff9900;stroke:#ff9900;" x="297.329349" xlink:href="#mf7e1f5667d" y="107.185468"/>
    </g>
   </g>
   <g id="line2d_66">
    <g clip-path="url(#p57629f6a8f)">
     <use style="fill:#ff9900;stroke:#ff9900;" x="298.21786" xlink:href="#mf7e1f5667d" y="108.935842"/>
    </g>
   </g>
   <g id="line2d_67">
    <g clip-path="url(#p57629f6a8f)">
     <use style="fill:#ff9900;stroke:#ff9900;" x="299.705728" xlink:href="#mf7e1f5667d" y="110.561902"/>
    </g>
   </g>
   <g id="line2d_68">
    <g clip-path="url(#p57629f6a8f)">
     <use style="fill:#ff9900;stroke:#ff9900;" x="302.286028" xlink:href="#mf7e1f5667d" y="112.182119"/>
    </g>
   </g>
   <g id="line2d_69">
    <g clip-path="url(#p57629f6a8f)">
     <use style="fill:#ff9900;stroke:#ff9900;" x="304.943295" xlink:href="#mf7e1f5667d" y="113.296932"/>
    </g>
   </g>
   <g id="line2d_70">
    <g clip-path="url(#p57629f6a8f)">
     <use style="fill:#ff9900;stroke:#ff9900;" x="307.722253" xlink:href="#mf7e1f5667d" y="114.515838"/>
    </g>
   </g>
   <g id="line2d_71">
    <g clip-path="url(#p57629f6a8f)">
     <use style="fill:#ff9900;stroke:#ff9900;" x="310.988107" xlink:href="#mf7e1f5667d" y="115.752911"/>
    </g>
   </g>
   <g id="line2d_72">
    <g clip-path="url(#p57629f6a8f)">
     <use style="fill:#ff9900;stroke:#ff9900;" x="314.40851" xlink:href="#mf7e1f5667d" y="117.226802"/>
    </g>
   </g>
   <g id="line2d_73">
    <g clip-path="url(#p57629f6a8f)">
     <use style="fill:#ff9900;stroke:#ff9900;" x="317.509591" xlink:href="#mf7e1f5667d" y="118.79457"/>
    </g>
   </g>
   <g id="line2d_74">
    <g clip-path="url(#p57629f6a8f)">
     <use style="fill:#ff9900;stroke:#ff9900;" x="320.643533" xlink:href="#mf7e1f5667d" y="120.431771"/>
    </g>
   </g>
   <g id="line2d_75">
    <g clip-path="url(#p57629f6a8f)">
     <use style="fill:#ff9900;stroke:#ff9900;" x="324.069757" xlink:href="#mf7e1f5667d" y="122.278467"/>
    </g>
   </g>
   <g id="line2d_76">
    <g clip-path="url(#p57629f6a8f)">
     <use style="fill:#ff9900;stroke:#ff9900;" x="327.271848" xlink:href="#mf7e1f5667d" y="124.174155"/>
    </g>
   </g>
   <g id="line2d_77">
    <g clip-path="url(#p57629f6a8f)">
     <use style="fill:#ff9900;stroke:#ff9900;" x="330.435755" xlink:href="#mf7e1f5667d" y="126.064807"/>
    </g>
   </g>
   <g id="line2d_78">
    <g clip-path="url(#p57629f6a8f)">
     <use style="fill:#ff9900;stroke:#ff9900;" x="333.636463" xlink:href="#mf7e1f5667d" y="127.903824"/>
    </g>
   </g>
   <g id="line2d_79">
    <g clip-path="url(#p57629f6a8f)">
     <use style="fill:#ff9900;stroke:#ff9900;" x="336.791266" xlink:href="#mf7e1f5667d" y="129.69729"/>
    </g>
   </g>
   <g id="line2d_80">
    <g clip-path="url(#p57629f6a8f)">
     <use style="fill:#ff9900;stroke:#ff9900;" x="339.959421" xlink:href="#mf7e1f5667d" y="132.974239"/>
    </g>
   </g>
   <g id="line2d_81">
    <g clip-path="url(#p57629f6a8f)">
     <use style="fill:#ff9900;stroke:#ff9900;" x="343.140257" xlink:href="#mf7e1f5667d" y="138.930729"/>
    </g>
   </g>
   <g id="line2d_82">
    <g clip-path="url(#p57629f6a8f)">
     <use style="fill:#ff9900;stroke:#ff9900;" x="346.694705" xlink:href="#mf7e1f5667d" y="147.495517"/>
    </g>
   </g>
   <g id="line2d_83">
    <g clip-path="url(#p57629f6a8f)">
     <use style="fill:#ff9900;stroke:#ff9900;" x="349.589608" xlink:href="#mf7e1f5667d" y="156.015075"/>
    </g>
   </g>
   <g id="line2d_84">
    <g clip-path="url(#p57629f6a8f)">
     <use style="fill:#ff9900;stroke:#ff9900;" x="351.212329" xlink:href="#mf7e1f5667d" y="166.156537"/>
    </g>
   </g>
   <g id="line2d_85">
    <g clip-path="url(#p57629f6a8f)">
     <use style="fill:#ff9900;stroke:#ff9900;" x="352.540499" xlink:href="#mf7e1f5667d" y="175.980714"/>
    </g>
   </g>
   <g id="line2d_86">
    <g clip-path="url(#p57629f6a8f)">
     <use style="fill:#ff9900;stroke:#ff9900;" x="353.638843" xlink:href="#mf7e1f5667d" y="184.739917"/>
    </g>
   </g>
   <g id="line2d_87">
    <g clip-path="url(#p57629f6a8f)">
     <use style="fill:#ff9900;stroke:#ff9900;" x="354.857582" xlink:href="#mf7e1f5667d" y="193.5714"/>
    </g>
   </g>
   <g id="line2d_88">
    <g clip-path="url(#p57629f6a8f)">
     <use style="fill:#ff9900;stroke:#ff9900;" x="357.620823" xlink:href="#mf7e1f5667d" y="202.720618"/>
    </g>
   </g>
   <g id="line2d_89">
    <g clip-path="url(#p57629f6a8f)">
     <use style="fill:#ff9900;stroke:#ff9900;" x="360.680319" xlink:href="#mf7e1f5667d" y="211.538293"/>
    </g>
   </g>
   <g id="line2d_90">
    <g clip-path="url(#p57629f6a8f)">
     <use style="fill:#ff9900;stroke:#ff9900;" x="363.753652" xlink:href="#mf7e1f5667d" y="220.652328"/>
    </g>
   </g>
   <g id="line2d_91">
    <g clip-path="url(#p57629f6a8f)">
     <use style="fill:#ff9900;stroke:#ff9900;" x="365.723866" xlink:href="#mf7e1f5667d" y="229.954747"/>
    </g>
   </g>
   <g id="line2d_92">
    <g clip-path="url(#p57629f6a8f)">
     <use style="fill:#ff9900;stroke:#ff9900;" x="366.849212" xlink:href="#mf7e1f5667d" y="239.49682"/>
    </g>
   </g>
   <g id="line2d_93">
    <g clip-path="url(#p57629f6a8f)">
     <use style="fill:#ff9900;stroke:#ff9900;" x="368.016355" xlink:href="#mf7e1f5667d" y="249.355702"/>
    </g>
   </g>
   <g id="line2d_94">
    <g clip-path="url(#p57629f6a8f)">
     <use style="fill:#ff9900;stroke:#ff9900;" x="369.134574" xlink:href="#mf7e1f5667d" y="258.574949"/>
    </g>
   </g>
   <g id="line2d_95">
    <g clip-path="url(#p57629f6a8f)">
     <use style="fill:#ff9900;stroke:#ff9900;" x="370.418862" xlink:href="#mf7e1f5667d" y="267.797151"/>
    </g>
   </g>
   <g id="line2d_96">
    <g clip-path="url(#p57629f6a8f)">
     <use style="fill:#ff9900;stroke:#ff9900;" x="371.741096" xlink:href="#mf7e1f5667d" y="276.644566"/>
    </g>
   </g>
   <g id="line2d_97">
    <g clip-path="url(#p57629f6a8f)">
     <use style="fill:#ff9900;stroke:#ff9900;" x="372.990359" xlink:href="#mf7e1f5667d" y="283.721763"/>
    </g>
   </g>
   <g id="line2d_98">
    <g clip-path="url(#p57629f6a8f)">
     <use style="fill:#ff9900;stroke:#ff9900;" x="373.996275" xlink:href="#mf7e1f5667d" y="288.763129"/>
    </g>
   </g>
   <g id="line2d_99">
    <g clip-path="url(#p57629f6a8f)">
     <use style="fill:#ff9900;stroke:#ff9900;" x="375.038225" xlink:href="#mf7e1f5667d" y="293.529371"/>
    </g>
   </g>
   <g id="line2d_100">
    <g clip-path="url(#p57629f6a8f)">
     <use style="fill:#ff9900;stroke:#ff9900;" x="375.912089" xlink:href="#mf7e1f5667d" y="295.488"/>
    </g>
   </g>
   <g id="patch_3">
    <path d="M 57.6 307.584 
L 57.6 41.472 
" style="fill:none;stroke:#000000;stroke-linecap:square;stroke-linejoin:miter;stroke-width:0.8;"/>
   </g>
   <g id="patch_4">
    <path d="M 414.72 307.584 
L 414.72 41.472 
" style="fill:none;stroke:#000000;stroke-linecap:square;stroke-linejoin:miter;stroke-width:0.8;"/>
   </g>
   <g id="patch_5">
    <path d="M 57.6 307.584 
L 414.72 307.584 
" style="fill:none;stroke:#000000;stroke-linecap:square;stroke-linejoin:miter;stroke-width:0.8;"/>
   </g>
   <g id="patch_6">
    <path d="M 57.6 41.472 
L 414.72 41.472 
" style="fill:none;stroke:#000000;stroke-linecap:square;stroke-linejoin:miter;stroke-width:0.8;"/>
   </g>
  </g>
 </g>
 <defs>
  <clipPath id="p57629f6a8f">
   <rect height="266.112" width="357.12" x="57.6" y="41.472"/>
  </clipPath>
 </defs>
</svg>
