<?xml version="1.0" encoding="UTF-8" standalone="no"?>
<svg
   xmlns:dc="http://purl.org/dc/elements/1.1/"
   xmlns:cc="http://creativecommons.org/ns#"
   xmlns:rdf="http://www.w3.org/1999/02/22-rdf-syntax-ns#"
   xmlns:svg="http://www.w3.org/2000/svg"
   xmlns="http://www.w3.org/2000/svg"
   xmlns:xlink="http://www.w3.org/1999/xlink"
   xmlns:sodipodi="http://sodipodi.sourceforge.net/DTD/sodipodi-0.dtd"
   xmlns:inkscape="http://www.inkscape.org/namespaces/inkscape"
   height="345.6pt"
   version="1.1"
   viewBox="0 0 460.8 345.6"
   width="460.8pt"
   id="svg1565"
   sodipodi:docname="likert.svg"
   inkscape:version="1.0.1 (1.0.1+r75)">
  <sodipodi:namedview
     pagecolor="#ffffff"
     bordercolor="#666666"
     borderopacity="1"
     objecttolerance="10"
     gridtolerance="10"
     guidetolerance="10"
     inkscape:pageopacity="0"
     inkscape:pageshadow="2"
     inkscape:window-width="1848"
     inkscape:window-height="1016"
     id="namedview1567"
     showgrid="false"
     inkscape:zoom="1.2352885"
     inkscape:cx="316.18936"
     inkscape:cy="219.1592"
     inkscape:window-x="1992"
     inkscape:window-y="27"
     inkscape:window-maximized="1"
     inkscape:current-layer="g2275" />
  <metadata
     id="metadata1253">
    <rdf:RDF>
      <cc:Work>
        <dc:type
           rdf:resource="http://purl.org/dc/dcmitype/StillImage" />
        <dc:date>2021-02-24T15:14:04.598113</dc:date>
        <dc:format>image/svg+xml</dc:format>
        <dc:creator>
          <cc:Agent>
            <dc:title>Matplotlib v3.3.3, https://matplotlib.org/</dc:title>
          </cc:Agent>
        </dc:creator>
      </cc:Work>
    </rdf:RDF>
  </metadata>
  <defs
     id="defs1257">
    <style
       type="text/css"
       id="style1255">*{stroke-linecap:butt;stroke-linejoin:round;}</style>
  </defs>
  <g
     id="matplotlib.axis_2">
    <g
       id="ytick_1">
      <g
         id="line2d_6">
        <defs
           id="defs1434">
          <path
             d="M 0,0 H -3.5"
             id="mcc9a468abc"
             style="stroke:#000000;stroke-width:0.8" />
        </defs>
        <g
           id="g1438">
          <use
             style="stroke:#000000;stroke-width:0.8"
             x="57.599998"
             xlink:href="#mcc9a468abc"
             y="307.58401"
             id="use1436"
             width="100%"
             height="100%" />
        </g>
      </g>
      <g
         id="text_6">
        <!-- 0 -->
        <g
           transform="matrix(0.1,0,0,-0.1,44.2375,311.38322)"
           id="g1446">
          <defs
             id="defs1442">
            <path
               d="m 31.78125,66.40625 q -7.609375,0 -11.453125,-7.5 Q 16.5,51.421875 16.5,36.375 q 0,-14.984375 3.828125,-22.484375 3.84375,-7.5 11.453125,-7.5 7.671875,0 11.5,7.5 3.84375,7.5 3.84375,22.484375 0,15.046875 -3.84375,22.53125 -3.828125,7.5 -11.5,7.5 z m 0,7.8125 q 12.265625,0 18.734375,-9.703125 6.46875,-9.6875 6.46875,-28.140625 0,-18.40625 -6.46875,-28.109375 -6.46875,-9.6875 -18.734375,-9.6875 -12.25,0 -18.71875,9.6875 Q 6.59375,17.96875 6.59375,36.375 q 0,18.453125 6.46875,28.140625 6.46875,9.703125 18.71875,9.703125 z"
               id="DejaVuSans-48" />
          </defs>
          <use
             xlink:href="#DejaVuSans-48"
             id="use1444"
             x="0"
             y="0"
             width="100%"
             height="100%" />
        </g>
      </g>
    </g>
    <g
       id="ytick_2">
      <g
         id="line2d_7">
        <g
           id="g1452">
          <use
             style="stroke:#000000;stroke-width:0.8"
             x="57.599998"
             xlink:href="#mcc9a468abc"
             y="267.63922"
             id="use1450"
             width="100%"
             height="100%" />
        </g>
      </g>
      <g
         id="text_7">
        <!-- 1 -->
        <g
           transform="matrix(0.1,0,0,-0.1,44.2375,271.43845)"
           id="g1460">
          <defs
             id="defs1456">
            <path
               d="m 12.40625,8.296875 h 16.109375 v 55.625 L 10.984375,60.40625 v 8.984375 l 17.4375,3.515625 H 38.28125 V 8.296875 H 54.390625 V 0 H 12.40625 Z"
               id="DejaVuSans-49" />
          </defs>
          <use
             xlink:href="#DejaVuSans-49"
             id="use1458"
             x="0"
             y="0"
             width="100%"
             height="100%" />
        </g>
      </g>
    </g>
    <g
       id="ytick_3">
      <g
         id="line2d_8">
        <g
           id="g1466">
          <use
             style="stroke:#000000;stroke-width:0.8"
             x="57.599998"
             xlink:href="#mcc9a468abc"
             y="227.69446"
             id="use1464"
             width="100%"
             height="100%" />
        </g>
      </g>
      <g
         id="text_8">
        <!-- 2 -->
        <g
           transform="matrix(0.1,0,0,-0.1,44.2375,231.49368)"
           id="g1474">
          <defs
             id="defs1470">
            <path
               d="M 19.1875,8.296875 H 53.609375 V 0 H 7.328125 v 8.296875 q 5.609375,5.8125 15.296875,15.59375 9.703125,9.796875 12.1875,12.640625 4.734375,5.3125 6.609375,9 1.890625,3.6875 1.890625,7.25 0,5.8125 -4.078125,9.46875 -4.078125,3.671875 -10.625,3.671875 -4.640625,0 -9.796875,-1.609375 -5.140625,-1.609375 -11,-4.890625 v 9.96875 Q 13.765625,71.78125 18.9375,73 q 5.1875,1.21875 9.484375,1.21875 11.328125,0 18.0625,-5.671875 6.734375,-5.65625 6.734375,-15.125 0,-4.5 -1.6875,-8.53125 Q 49.859375,40.875 45.40625,35.40625 44.1875,33.984375 37.640625,27.21875 31.109375,20.453125 19.1875,8.296875 Z"
               id="DejaVuSans-50" />
          </defs>
          <use
             xlink:href="#DejaVuSans-50"
             id="use1472"
             x="0"
             y="0"
             width="100%"
             height="100%" />
        </g>
      </g>
    </g>
    <g
       id="ytick_4">
      <g
         id="line2d_9">
        <g
           id="g1480">
          <use
             style="stroke:#000000;stroke-width:0.8"
             x="57.599998"
             xlink:href="#mcc9a468abc"
             y="187.74968"
             id="use1478"
             width="100%"
             height="100%" />
        </g>
      </g>
      <g
         id="text_9">
        <!-- 3 -->
        <g
           transform="matrix(0.1,0,0,-0.1,44.2375,191.5489)"
           id="g1488">
          <defs
             id="defs1484">
            <path
               d="M 40.578125,39.3125 Q 47.65625,37.796875 51.625,33 q 3.984375,-4.78125 3.984375,-11.8125 0,-10.78125 -7.421875,-16.703125 -7.421875,-5.90625 -21.09375,-5.90625 -4.578125,0 -9.4375,0.90625 -4.859375,0.90625 -10.03125,2.71875 v 9.515625 q 4.09375,-2.390625 8.96875,-3.609375 4.890625,-1.21875 10.21875,-1.21875 9.265625,0 14.125,3.65625 4.859375,3.65625 4.859375,10.640625 0,6.453125 -4.515625,10.078125 -4.515625,3.640625 -12.5625,3.640625 h -8.5 v 8.109375 h 8.890625 q 7.265625,0 11.125,2.90625 3.859375,2.90625 3.859375,8.375 0,5.609375 -3.984375,8.609375 -3.96875,3.015625 -11.390625,3.015625 -4.0625,0 -8.703125,-0.890625 Q 15.375,64.15625 9.8125,62.3125 v 8.78125 q 5.625,1.5625 10.53125,2.34375 4.90625,0.78125 9.25,0.78125 11.234375,0 17.765625,-5.109375 6.546875,-5.09375 6.546875,-13.78125 0,-6.0625 -3.46875,-10.234375 -3.46875,-4.171875 -9.859375,-5.78125 z"
               id="DejaVuSans-51" />
          </defs>
          <use
             xlink:href="#DejaVuSans-51"
             id="use1486"
             x="0"
             y="0"
             width="100%"
             height="100%" />
        </g>
      </g>
    </g>
    <g
       id="ytick_5">
      <g
         id="line2d_10">
        <g
           id="g1494">
          <use
             style="stroke:#000000;stroke-width:0.8"
             x="57.599998"
             xlink:href="#mcc9a468abc"
             y="147.80492"
             id="use1492"
             width="100%"
             height="100%" />
        </g>
      </g>
      <g
         id="text_10">
        <!-- 4 -->
        <g
           transform="matrix(0.1,0,0,-0.1,44.2375,151.60413)"
           id="g1502">
          <defs
             id="defs1498">
            <path
               d="M 37.796875,64.3125 12.890625,25.390625 h 24.90625 z m -2.59375,8.59375 h 12.40625 V 25.390625 h 10.40625 V 17.1875 H 47.609375 V 0 h -9.8125 V 17.1875 H 4.890625 v 9.515625 z"
               id="DejaVuSans-52" />
          </defs>
          <use
             xlink:href="#DejaVuSans-52"
             id="use1500"
             x="0"
             y="0"
             width="100%"
             height="100%" />
        </g>
      </g>
    </g>
    <g
       id="ytick_6">
      <g
         id="line2d_11">
        <g
           id="g1508">
          <use
             style="stroke:#000000;stroke-width:0.8"
             x="57.599998"
             xlink:href="#mcc9a468abc"
             y="107.86015"
             id="use1506"
             width="100%"
             height="100%" />
        </g>
      </g>
      <g
         id="text_11">
        <!-- 5 -->
        <g
           transform="matrix(0.1,0,0,-0.1,44.2375,111.65936)"
           id="g1516">
          <defs
             id="defs1512">
            <path
               d="m 10.796875,72.90625 h 38.71875 v -8.3125 h -29.6875 V 46.734375 q 2.140625,0.734375 4.28125,1.09375 2.15625,0.359375 4.3125,0.359375 Q 40.625,48.1875 47.75,41.5 54.890625,34.8125 54.890625,23.390625 54.890625,11.625 47.5625,5.09375 40.234375,-1.421875 26.90625,-1.421875 q -4.59375,0 -9.359375,0.78125 -4.75,0.78125 -9.828125,2.34375 V 11.625 q 4.390625,-2.390625 9.078125,-3.5625 4.6875,-1.171875 9.90625,-1.171875 8.453125,0 13.375,4.4375 4.9375,4.4375 4.9375,12.0625 0,7.609375 -4.9375,12.046875 -4.921875,4.453125 -13.375,4.453125 -3.953125,0 -7.890625,-0.875 -3.921875,-0.875 -8.015625,-2.734375 z"
               id="DejaVuSans-53" />
          </defs>
          <use
             xlink:href="#DejaVuSans-53"
             id="use1514"
             x="0"
             y="0"
             width="100%"
             height="100%" />
        </g>
      </g>
    </g>
    <g
       id="ytick_7">
      <g
         id="line2d_12">
        <g
           id="g1522">
          <use
             style="stroke:#000000;stroke-width:0.8"
             x="57.599998"
             xlink:href="#mcc9a468abc"
             y="67.915375"
             id="use1520"
             width="100%"
             height="100%" />
        </g>
      </g>
      <g
         id="text_12">
        <!-- 6 -->
        <g
           transform="matrix(0.1,0,0,-0.1,44.2375,71.71459)"
           id="g1530">
          <defs
             id="defs1526">
            <path
               d="m 33.015625,40.375 q -6.640625,0 -10.53125,-4.546875 -3.875,-4.53125 -3.875,-12.4375 0,-7.859375 3.875,-12.4375 3.890625,-4.5625 10.53125,-4.5625 6.640625,0 10.515625,4.5625 3.875,4.578125 3.875,12.4375 0,7.90625 -3.875,12.4375 Q 39.65625,40.375 33.015625,40.375 Z M 52.59375,71.296875 V 62.3125 q -3.71875,1.75 -7.5,2.671875 -3.78125,0.9375 -7.5,0.9375 -9.765625,0 -14.921875,-6.59375 -5.140625,-6.59375 -5.875,-19.921875 2.875,4.25 7.21875,6.515625 4.359375,2.265625 9.578125,2.265625 10.984375,0 17.359375,-6.671875 6.375,-6.65625 6.375,-18.125 0,-11.234375 -6.640625,-18.03125 -6.640625,-6.78125 -17.671875,-6.78125 -12.65625,0 -19.34375,9.6875 -6.6875,9.703125 -6.6875,28.109375 0,17.28125 8.203125,27.5625 8.203125,10.28125 22.015625,10.28125 3.71875,0 7.5,-0.734375 3.78125,-0.734375 7.890625,-2.1875 z"
               id="DejaVuSans-54" />
          </defs>
          <use
             xlink:href="#DejaVuSans-54"
             id="use1528"
             x="0"
             y="0"
             width="100%"
             height="100%" />
        </g>
      </g>
    </g>
  </g>
  <g
     id="g2275">
    <g
       id="xtick_1">
      <g
         id="line2d_1">
        <defs
           id="defs1281">
          <path
             d="M 0,0 V 3.5"
             id="mda8fe73c2b"
             style="stroke:#000000;stroke-width:0.8" />
        </defs>
        <g
           id="g1285">
          <use
             style="stroke:#000000;stroke-width:0.8"
             x="83.381393"
             xlink:href="#mda8fe73c2b"
             y="307.58401"
             id="use1283"
             width="100%"
             height="100%" />
        </g>
      </g>
      <g
         id="text_1">
        <!-- Recognize -->
        <g
           transform="matrix(0.1,0,0,-0.1,57.814203,322.18244)"
           id="g1316">
          <defs
             id="defs1296">
            <path
               d="m 44.390625,34.1875 q 3.171875,-1.078125 6.171875,-4.59375 3,-3.515625 6.03125,-9.671875 L 66.609375,0 H 56 l -9.3125,18.703125 q -3.625,7.328125 -7.015625,9.71875 -3.390625,2.390625 -9.25,2.390625 h -10.75 V 0 H 9.8125 v 72.90625 h 22.265625 q 12.5,0 18.65625,-5.234375 6.15625,-5.21875 6.15625,-15.765625 0,-6.890625 -3.203125,-11.4375 -3.203125,-4.53125 -9.296875,-6.28125 z m -24.71875,30.609375 v -25.875 h 12.40625 q 7.125,0 10.765625,3.296875 3.640625,3.296875 3.640625,9.6875 0,6.390625 -3.640625,9.640625 -3.640625,3.25 -10.765625,3.25 z"
               id="DejaVuSans-82" />
            <path
               d="m 56.203125,29.59375 v -4.390625 h -41.3125 q 0.59375,-9.28125 5.59375,-14.140625 5,-4.859375 13.9375,-4.859375 5.171875,0 10.03125,1.265625 4.859375,1.265625 9.65625,3.8125 v -8.5 q -4.84375,-2.046875 -9.921875,-3.125 -5.078125,-1.078125 -10.296875,-1.078125 -13.09375,0 -20.734375,7.609375 -7.640625,7.625 -7.640625,20.625 0,13.421875 7.25,21.296875 Q 20.015625,56 32.328125,56 q 11.03125,0 17.453125,-7.109375 6.421875,-7.09375 6.421875,-19.296875 z m -8.984375,2.640625 q -0.09375,7.359375 -4.125,11.75 -4.03125,4.40625 -10.671875,4.40625 -7.515625,0 -12.03125,-4.25 -4.515625,-4.25 -5.203125,-11.96875 z"
               id="DejaVuSans-101" />
            <path
               d="M 48.78125,52.59375 V 44.1875 q -3.8125,2.109375 -7.640625,3.15625 -3.828125,1.046875 -7.734375,1.046875 -8.75,0 -13.59375,-5.546875 -4.828125,-5.53125 -4.828125,-15.546875 0,-10.015625 4.828125,-15.5625 4.84375,-5.53125 13.59375,-5.53125 3.90625,0 7.734375,1.046875 3.828125,1.046875 7.640625,3.15625 v -8.3125 q -3.765625,-1.75 -7.796875,-2.625 -4.015625,-0.890625 -8.5625,-0.890625 -12.359375,0 -19.640625,7.765625 -7.265625,7.765625 -7.265625,20.953125 0,13.375 7.34375,21.03125 Q 20.21875,56 33.015625,56 q 4.140625,0 8.09375,-0.859375 3.953125,-0.84375 7.671875,-2.546875 z"
               id="DejaVuSans-99" />
            <path
               d="m 30.609375,48.390625 q -7.21875,0 -11.421875,-5.640625 -4.203125,-5.640625 -4.203125,-15.453125 0,-9.8125 4.171875,-15.453125 4.1875,-5.640625 11.453125,-5.640625 7.1875,0 11.375,5.65625 4.203125,5.671875 4.203125,15.4375 0,9.71875 -4.203125,15.40625 -4.1875,5.6875 -11.375,5.6875 z m 0,7.609375 q 11.71875,0 18.40625,-7.625 6.703125,-7.609375 6.703125,-21.078125 0,-13.421875 -6.703125,-21.078125 -6.6875,-7.640625 -18.40625,-7.640625 -11.765625,0 -18.4375,7.640625 -6.65625,7.65625 -6.65625,21.078125 0,13.46875 6.65625,21.078125 Q 18.84375,56 30.609375,56 Z"
               id="DejaVuSans-111" />
            <path
               d="m 45.40625,27.984375 q 0,9.765625 -4.03125,15.125 -4.015625,5.375 -11.296875,5.375 -7.21875,0 -11.25,-5.375 -4.03125,-5.359375 -4.03125,-15.125 0,-9.71875 4.03125,-15.09375 4.03125,-5.375 11.25,-5.375 7.28125,0 11.296875,5.375 4.03125,5.375 4.03125,15.09375 z M 54.390625,6.78125 q 0,-13.953125 -6.203125,-20.765625 -6.1875,-6.8125 -18.984375,-6.8125 -4.734375,0 -8.9375,0.703125 -4.203125,0.703125 -8.15625,2.171875 V -9.1875 q 3.953125,-2.140625 7.8125,-3.15625 3.859375,-1.03125 7.859375,-1.03125 8.84375,0 13.234375,4.609375 4.390625,4.609375 4.390625,13.9375 V 9.625 Q 42.625,4.78125 38.28125,2.390625 33.9375,0 27.875,0 17.828125,0 11.671875,7.65625 q -6.15625,7.671875 -6.15625,20.328125 0,12.6875 6.15625,20.34375 Q 17.828125,56 27.875,56 q 6.0625,0 10.40625,-2.390625 4.34375,-2.390625 7.125,-7.21875 V 54.6875 h 8.984375 z"
               id="DejaVuSans-103" />
            <path
               d="M 54.890625,33.015625 V 0 H 45.90625 v 32.71875 q 0,7.765625 -3.03125,11.609375 -3.03125,3.859375 -9.078125,3.859375 -7.28125,0 -11.484375,-4.640625 -4.203125,-4.625 -4.203125,-12.640625 V 0 h -9.03125 v 54.6875 h 9.03125 v -8.5 q 3.234375,4.9375 7.59375,7.375 4.375,2.4375 10.09375,2.4375 9.421875,0 14.25,-5.828125 4.84375,-5.828125 4.84375,-17.15625 z"
               id="DejaVuSans-110" />
            <path
               d="M 9.421875,54.6875 H 18.40625 V 0 H 9.421875 Z m 0,21.296875 H 18.40625 V 64.59375 H 9.421875 Z"
               id="DejaVuSans-105" />
            <path
               d="M 5.515625,54.6875 H 48.1875 V 46.484375 L 14.40625,7.171875 H 48.1875 V 0 H 4.296875 v 8.203125 l 33.796875,39.3125 H 5.515625 Z"
               id="DejaVuSans-122" />
          </defs>
          <use
             xlink:href="#DejaVuSans-82"
             id="use1298"
             x="0"
             y="0"
             width="100%"
             height="100%" />
          <use
             x="64.982422"
             xlink:href="#DejaVuSans-101"
             id="use1300"
             y="0"
             width="100%"
             height="100%" />
          <use
             x="126.50586"
             xlink:href="#DejaVuSans-99"
             id="use1302"
             y="0"
             width="100%"
             height="100%" />
          <use
             x="181.48633"
             xlink:href="#DejaVuSans-111"
             id="use1304"
             y="0"
             width="100%"
             height="100%" />
          <use
             x="242.66797"
             xlink:href="#DejaVuSans-103"
             id="use1306"
             y="0"
             width="100%"
             height="100%" />
          <use
             x="306.14453"
             xlink:href="#DejaVuSans-110"
             id="use1308"
             y="0"
             width="100%"
             height="100%" />
          <use
             x="369.52344"
             xlink:href="#DejaVuSans-105"
             id="use1310"
             y="0"
             width="100%"
             height="100%" />
          <use
             x="397.30664"
             xlink:href="#DejaVuSans-122"
             id="use1312"
             y="0"
             width="100%"
             height="100%" />
          <use
             x="449.79688"
             xlink:href="#DejaVuSans-101"
             id="use1314"
             y="0"
             width="100%"
             height="100%" />
        </g>
      </g>
    </g>
    <g
       id="g1955">
      <g
         id="patch_3"
         style="stroke-width:1.00062993;stroke-miterlimit:4;stroke-dasharray:none;stroke:none;stroke-opacity:1;fill:#ff9900;fill-opacity:1">
        <path
           clip-path="url(#p1f667f1acc)"
           d="M 73.832727,307.584 H 92.930053 V 79.898802 H 73.832727 Z"
           style="fill:#ff9900;stroke-width:1.00062993;stroke-miterlimit:4;stroke-dasharray:none;stroke:none;stroke-opacity:1;fill-opacity:1"
           id="path1265" />
      </g>
      <path
         clip-path="url(#p1f667f1acc)"
         d="M 83.38139,96.787313 V 63.010292"
         style="fill:none;stroke:#000000;stroke-width:1.5"
         id="path1535" />
    </g>
  </g>
  <g
     id="g2243"
     transform="translate(-6.955433,-1.5625e-5)">
    <g
       id="xtick_2"
       transform="translate(-16.232731,1.5625e-5)">
      <g
         id="line2d_2">
        <g
           id="g1322">
          <use
             style="stroke:#000000;stroke-width:0.8"
             x="159.77069"
             xlink:href="#mda8fe73c2b"
             y="307.58401"
             id="use1320"
             width="100%"
             height="100%" />
        </g>
      </g>
      <g
         id="text_2">
        <!-- Replicate -->
        <g
           transform="matrix(0.1,0,0,-0.1,136.64257,322.18244)"
           id="g1349">
          <defs
             id="defs1329">
            <path
               d="m 18.109375,8.203125 v -29 H 9.078125 V 54.6875 h 9.03125 v -8.296875 q 2.84375,4.875 7.15625,7.234375 Q 29.59375,56 35.59375,56 q 9.96875,0 16.1875,-7.90625 6.234375,-7.90625 6.234375,-20.796875 0,-12.890625 -6.234375,-20.8125 -6.21875,-7.90625 -16.1875,-7.90625 -6,0 -10.328125,2.375 -4.3125,2.375 -7.15625,7.25 z M 48.6875,27.296875 q 0,9.90625 -4.078125,15.546875 -4.078125,5.640625 -11.203125,5.640625 -7.140625,0 -11.21875,-5.640625 -4.078125,-5.640625 -4.078125,-15.546875 0,-9.90625 4.078125,-15.546875 4.078125,-5.640625 11.21875,-5.640625 7.125,0 11.203125,5.640625 4.078125,5.640625 4.078125,15.546875 z"
               id="DejaVuSans-112" />
            <path
               d="M 9.421875,75.984375 H 18.40625 V 0 H 9.421875 Z"
               id="DejaVuSans-108" />
            <path
               d="m 34.28125,27.484375 q -10.890625,0 -15.09375,-2.484375 -4.203125,-2.484375 -4.203125,-8.5 0,-4.78125 3.15625,-7.59375 3.15625,-2.796875 8.5625,-2.796875 7.484375,0 12,5.296875 4.515625,5.296875 4.515625,14.078125 v 2 z m 17.921875,3.71875 V 0 H 43.21875 v 8.296875 q -3.078125,-4.96875 -7.671875,-7.34375 -4.59375,-2.375 -11.234375,-2.375 -8.390625,0 -13.359375,4.71875 Q 6,8.015625 6,15.921875 q 0,9.21875 6.171875,13.90625 6.1875,4.6875 18.4375,4.6875 H 43.21875 v 0.890625 q 0,6.203125 -4.078125,9.59375 -4.078125,3.390625 -11.453125,3.390625 -4.6875,0 -9.140625,-1.125 -4.4375,-1.125 -8.53125,-3.375 v 8.3125 q 4.921875,1.90625 9.5625,2.84375 Q 24.21875,56 28.609375,56 q 11.875,0 17.734375,-6.15625 5.859375,-6.140625 5.859375,-18.640625 z"
               id="DejaVuSans-97" />
            <path
               d="M 18.3125,70.21875 V 54.6875 h 18.5 v -6.984375 h -18.5 v -29.6875 q 0,-6.6875 1.828125,-8.59375 1.828125,-1.90625 7.453125,-1.90625 H 36.8125 V 0 H 27.59375 Q 17.1875,0 13.234375,3.875 9.28125,7.765625 9.28125,18.015625 v 29.6875 H 2.6875 V 54.6875 h 6.59375 v 15.53125 z"
               id="DejaVuSans-116" />
          </defs>
          <use
             xlink:href="#DejaVuSans-82"
             id="use1331"
             x="0"
             y="0"
             width="100%"
             height="100%" />
          <use
             x="64.982422"
             xlink:href="#DejaVuSans-101"
             id="use1333"
             y="0"
             width="100%"
             height="100%" />
          <use
             x="126.50586"
             xlink:href="#DejaVuSans-112"
             id="use1335"
             y="0"
             width="100%"
             height="100%" />
          <use
             x="189.98242"
             xlink:href="#DejaVuSans-108"
             id="use1337"
             y="0"
             width="100%"
             height="100%" />
          <use
             x="217.76562"
             xlink:href="#DejaVuSans-105"
             id="use1339"
             y="0"
             width="100%"
             height="100%" />
          <use
             x="245.54883"
             xlink:href="#DejaVuSans-99"
             id="use1341"
             y="0"
             width="100%"
             height="100%" />
          <use
             x="300.5293"
             xlink:href="#DejaVuSans-97"
             id="use1343"
             y="0"
             width="100%"
             height="100%" />
          <use
             x="361.80859"
             xlink:href="#DejaVuSans-116"
             id="use1345"
             y="0"
             width="100%"
             height="100%" />
          <use
             x="401.01758"
             xlink:href="#DejaVuSans-101"
             id="use1347"
             y="0"
             width="100%"
             height="100%" />
        </g>
      </g>
    </g>
    <g
       id="g1960"
       transform="translate(-16.232731,1.5625e-5)">
      <g
         id="patch_4"
         style="fill:#ff9900;fill-opacity:1;stroke:none;stroke-width:1.00063;stroke-miterlimit:4;stroke-dasharray:none;stroke-opacity:1">
        <path
           clip-path="url(#p1f667f1acc)"
           d="m 150.22203,307.584 h 19.09733 V 87.887757 h -19.09733 z"
           style="fill:#ff9900;fill-opacity:1;stroke:none;stroke-width:1.00063;stroke-miterlimit:4;stroke-dasharray:none;stroke-opacity:1"
           id="path1268" />
      </g>
      <path
         clip-path="url(#p1f667f1acc)"
         d="M 159.77069,101.20151 V 74.574002"
         style="fill:none;stroke:#000000;stroke-width:1.5"
         id="path1537" />
    </g>
  </g>
  <g
     id="g2217"
     transform="translate(-17.561001,-2.598357)">
    <g
       id="xtick_3"
       transform="translate(-28.814954,2.598357)">
      <g
         id="line2d_3">
        <g
           id="g1355">
          <use
             style="stroke:#000000;stroke-width:0.8"
             x="236.16"
             xlink:href="#mda8fe73c2b"
             y="307.58401"
             id="use1353"
             width="100%"
             height="100%" />
        </g>
      </g>
      <g
         id="text_3">
        <!-- Improve -->
        <g
           transform="matrix(0.1,0,0,-0.1,215.60219,322.18244)"
           id="g1378">
          <defs
             id="defs1362">
            <path
               d="m 9.8125,72.90625 h 9.859375 V 0 H 9.8125 Z"
               id="DejaVuSans-73" />
            <path
               d="M 52,44.1875 Q 55.375,50.25 60.0625,53.125 64.75,56 71.09375,56 q 8.546875,0 13.1875,-5.984375 4.640625,-5.96875 4.640625,-17 V 0 h -9.03125 v 32.71875 q 0,7.859375 -2.796875,11.65625 -2.78125,3.8125 -8.484375,3.8125 -6.984375,0 -11.046875,-4.640625 -4.046875,-4.625 -4.046875,-12.640625 V 0 h -9.03125 v 32.71875 q 0,7.90625 -2.78125,11.6875 -2.78125,3.78125 -8.59375,3.78125 -6.890625,0 -10.953125,-4.65625 -4.046875,-4.65625 -4.046875,-12.625 V 0 h -9.03125 v 54.6875 h 9.03125 v -8.5 q 3.078125,5.03125 7.375,7.421875 Q 29.78125,56 35.6875,56 41.65625,56 45.828125,52.96875 50,49.953125 52,44.1875 Z"
               id="DejaVuSans-109" />
            <path
               d="m 41.109375,46.296875 q -1.515625,0.875 -3.296875,1.28125 Q 36.03125,48 33.890625,48 26.265625,48 22.1875,43.046875 18.109375,38.09375 18.109375,28.8125 V 0 h -9.03125 v 54.6875 h 9.03125 v -8.5 q 2.84375,4.984375 7.375,7.390625 Q 30.03125,56 36.53125,56 q 0.921875,0 2.046875,-0.125 1.125,-0.109375 2.484375,-0.359375 z"
               id="DejaVuSans-114" />
            <path
               d="M 2.984375,54.6875 H 12.5 L 29.59375,8.796875 46.6875,54.6875 h 9.515625 L 35.6875,0 H 23.484375 Z"
               id="DejaVuSans-118" />
          </defs>
          <use
             xlink:href="#DejaVuSans-73"
             id="use1364"
             x="0"
             y="0"
             width="100%"
             height="100%" />
          <use
             x="29.492188"
             xlink:href="#DejaVuSans-109"
             id="use1366"
             y="0"
             width="100%"
             height="100%" />
          <use
             x="126.9043"
             xlink:href="#DejaVuSans-112"
             id="use1368"
             y="0"
             width="100%"
             height="100%" />
          <use
             x="190.38086"
             xlink:href="#DejaVuSans-114"
             id="use1370"
             y="0"
             width="100%"
             height="100%" />
          <use
             x="229.24414"
             xlink:href="#DejaVuSans-111"
             id="use1372"
             y="0"
             width="100%"
             height="100%" />
          <use
             x="290.42578"
             xlink:href="#DejaVuSans-118"
             id="use1374"
             y="0"
             width="100%"
             height="100%" />
          <use
             x="349.60547"
             xlink:href="#DejaVuSans-101"
             id="use1376"
             y="0"
             width="100%"
             height="100%" />
        </g>
      </g>
    </g>
    <g
       id="g1965"
       transform="translate(-28.814954,2.598357)">
      <g
         id="patch_5"
         style="fill:#ff9900;fill-opacity:1;stroke:none;stroke-width:1.00063;stroke-miterlimit:4;stroke-dasharray:none;stroke-opacity:1">
        <path
           clip-path="url(#p1f667f1acc)"
           d="m 226.61134,307.584 h 19.09732 V 63.920894 h -19.09732 z"
           style="fill:#ff9900;fill-opacity:1;stroke:none;stroke-width:1.00063;stroke-miterlimit:4;stroke-dasharray:none;stroke-opacity:1"
           id="path1271" />
      </g>
      <path
         clip-path="url(#p1f667f1acc)"
         d="M 236.16,73.697788 V 54.144"
         style="fill:none;stroke:#000000;stroke-width:1.5"
         id="path1539" />
    </g>
  </g>
  <g
     id="g2315"
     transform="translate(-8.3949738,0.34887229)">
    <g
       id="patch_6"
       style="fill:#ff9900;fill-opacity:1;stroke:none;stroke-width:1.00063;stroke-miterlimit:4;stroke-dasharray:none;stroke-opacity:1"
       transform="translate(-61.286333,-0.34887229)">
      <path
         clip-path="url(#p1f667f1acc)"
         d="m 303.00064,307.584 h 19.09733 V 81.896041 h -19.09733 z"
         style="fill:#ff9900;fill-opacity:1;stroke:none;stroke-width:1.00063;stroke-miterlimit:4;stroke-dasharray:none;stroke-opacity:1"
         id="path1274" />
    </g>
    <g
       id="xtick_4"
       transform="translate(-61.286333,-0.34887229)">
      <g
         id="line2d_4">
        <g
           id="g1384">
          <use
             style="stroke:#000000;stroke-width:0.8"
             x="312.54932"
             xlink:href="#mda8fe73c2b"
             y="307.58401"
             id="use1382"
             width="100%"
             height="100%" />
        </g>
      </g>
      <g
         id="text_4">
        <!-- Deploy -->
        <g
           transform="matrix(0.1,0,0,-0.1,295.04071,322.18244)"
           id="g1403">
          <defs
             id="defs1389">
            <path
               d="M 19.671875,64.796875 V 8.109375 H 31.59375 q 15.09375,0 22.09375,6.828125 7,6.84375 7,21.59375 0,14.640625 -7,21.453125 -7,6.8125 -22.09375,6.8125 z M 9.8125,72.90625 h 20.265625 q 21.1875,0 31.09375,-8.8125 9.921875,-8.8125 9.921875,-27.5625 0,-18.859375 -9.96875,-27.703125 Q 51.171875,0 30.078125,0 H 9.8125 Z"
               id="DejaVuSans-68" />
            <path
               d="M 32.171875,-5.078125 Q 28.375,-14.84375 24.75,-17.8125 q -3.609375,-2.984375 -9.65625,-2.984375 h -7.1875 v 7.515625 h 5.28125 q 3.703125,0 5.75,1.765625 2.0625,1.75 4.546875,8.296875 L 25.09375,0.875 2.984375,54.6875 H 12.5 L 29.59375,11.921875 46.6875,54.6875 h 9.515625 z"
               id="DejaVuSans-121" />
          </defs>
          <use
             xlink:href="#DejaVuSans-68"
             id="use1391"
             x="0"
             y="0"
             width="100%"
             height="100%" />
          <use
             x="77.001953"
             xlink:href="#DejaVuSans-101"
             id="use1393"
             y="0"
             width="100%"
             height="100%" />
          <use
             x="138.52539"
             xlink:href="#DejaVuSans-112"
             id="use1395"
             y="0"
             width="100%"
             height="100%" />
          <use
             x="202.00195"
             xlink:href="#DejaVuSans-108"
             id="use1397"
             y="0"
             width="100%"
             height="100%" />
          <use
             x="229.78516"
             xlink:href="#DejaVuSans-111"
             id="use1399"
             y="0"
             width="100%"
             height="100%" />
          <use
             x="290.9668"
             xlink:href="#DejaVuSans-121"
             id="use1401"
             y="0"
             width="100%"
             height="100%" />
        </g>
      </g>
    </g>
    <path
       clip-path="url(#p1f667f1acc)"
       d="M 312.5493,97.369807 V 66.422275"
       style="fill:none;stroke:#000000;stroke-width:1.5"
       id="path1541"
       transform="translate(-61.286333,-0.34887229)" />
  </g>
  <g
     id="g2295"
     transform="translate(-1.2879503,-0.45303773)">
    <g
       id="patch_7"
       style="fill:#ff9900;fill-opacity:1;stroke:none;stroke-width:1.00063;stroke-miterlimit:4;stroke-dasharray:none;stroke-opacity:1"
       transform="translate(-91.73135,0.32804058)">
      <path
         clip-path="url(#p1f667f1acc)"
         d="m 379.38995,307.584 h 19.09732 V 91.882234 h -19.09732 z"
         style="fill:#ff9900;fill-opacity:1;stroke:none;stroke-width:1.00063;stroke-miterlimit:4;stroke-dasharray:none;stroke-opacity:1"
         id="path1277" />
    </g>
    <g
       id="xtick_5"
       transform="translate(-91.73135,0.32804058)">
      <g
         id="line2d_5">
        <g
           id="g1409">
          <use
             style="stroke:#000000;stroke-width:0.8"
             x="388.9386"
             xlink:href="#mda8fe73c2b"
             y="307.58401"
             id="use1407"
             width="100%"
             height="100%" />
        </g>
      </g>
      <g
         id="text_5">
        <!-- Prefer -->
        <g
           transform="matrix(0.1,0,0,-0.1,374.09955,322.18244)"
           id="g1428">
          <defs
             id="defs1414">
            <path
               d="M 19.671875,64.796875 V 37.40625 h 12.40625 q 6.890625,0 10.640625,3.5625 3.765625,3.5625 3.765625,10.15625 0,6.546875 -3.765625,10.109375 -3.75,3.5625 -10.640625,3.5625 z M 9.8125,72.90625 h 22.265625 q 12.265625,0 18.53125,-5.546875 6.28125,-5.546875 6.28125,-16.234375 0,-10.796875 -6.28125,-16.3125 -6.265625,-5.515625 -18.53125,-5.515625 H 19.671875 V 0 H 9.8125 Z"
               id="DejaVuSans-80" />
            <path
               d="M 37.109375,75.984375 V 68.5 h -8.59375 q -4.828125,0 -6.71875,-1.953125 -1.875,-1.953125 -1.875,-7.03125 V 54.6875 H 34.71875 V 47.703125 H 19.921875 V 0 h -9.03125 V 47.703125 H 2.296875 V 54.6875 h 8.59375 V 58.5 q 0,9.125 4.25,13.296875 4.25,4.1875 13.46875,4.1875 z"
               id="DejaVuSans-102" />
          </defs>
          <use
             xlink:href="#DejaVuSans-80"
             id="use1416"
             x="0"
             y="0"
             width="100%"
             height="100%" />
          <use
             x="58.552734"
             xlink:href="#DejaVuSans-114"
             id="use1418"
             y="0"
             width="100%"
             height="100%" />
          <use
             x="97.416016"
             xlink:href="#DejaVuSans-101"
             id="use1420"
             y="0"
             width="100%"
             height="100%" />
          <use
             x="158.93945"
             xlink:href="#DejaVuSans-102"
             id="use1422"
             y="0"
             width="100%"
             height="100%" />
          <use
             x="194.14453"
             xlink:href="#DejaVuSans-101"
             id="use1424"
             y="0"
             width="100%"
             height="100%" />
          <use
             x="255.66797"
             xlink:href="#DejaVuSans-114"
             id="use1426"
             y="0"
             width="100%"
             height="100%" />
        </g>
      </g>
    </g>
    <path
       clip-path="url(#p1f667f1acc)"
       d="M 388.93861,106.09284 V 77.671632"
       style="fill:none;stroke:#000000;stroke-width:1.5"
       id="path1543"
       transform="translate(-91.73135,0.32804058)" />
  </g>
  <g
     id="patch_8"
     style="stroke-width:1.00062993;stroke-miterlimit:4;stroke-dasharray:none">
    <path
       d="M 57.6,307.584 V 41.472"
       style="fill:none;stroke:#000000;stroke-width:1.00062993;stroke-linecap:square;stroke-linejoin:miter;stroke-miterlimit:4;stroke-dasharray:none"
       id="path1546" />
  </g>
  <defs
     id="defs1563">
    <clipPath
       id="p1f667f1acc">
      <rect
         height="266.112"
         width="357.12"
         x="57.6"
         y="41.472"
         id="rect1560" />
    </clipPath>
  </defs>
  <path
     style="fill:none;stroke:#000000;stroke-width:1.02897639;stroke-linecap:butt;stroke-linejoin:miter;stroke-opacity:1;stroke-miterlimit:4;stroke-dasharray:none"
     d="M 57.6,307.584 H 333.99038"
     id="path2327" />
  <text
     xml:space="preserve"
     style="font-size:30px;line-height:1.25;font-family:FreeSerif;-inkscape-font-specification:FreeSerif;stroke-width:0.75"
     x="18.228895"
     y="215.30727"
     id="text2331"><tspan
       sodipodi:role="line"
       id="tspan2329"
       x="18.228895"
       y="215.30727"
       style="stroke-width:0.75" /></text>
</svg>
