<?xml version="1.0" encoding="utf-8" standalone="no"?>
<!DOCTYPE svg PUBLIC "-//W3C//DTD SVG 1.1//EN"
  "http://www.w3.org/Graphics/SVG/1.1/DTD/svg11.dtd">
<!-- Created with matplotlib (https://matplotlib.org/) -->
<svg height="345.6pt" version="1.1" viewBox="0 0 460.8 345.6" width="460.8pt" xmlns="http://www.w3.org/2000/svg" xmlns:xlink="http://www.w3.org/1999/xlink">
 <metadata>
  <rdf:RDF xmlns:cc="http://creativecommons.org/ns#" xmlns:dc="http://purl.org/dc/elements/1.1/" xmlns:rdf="http://www.w3.org/1999/02/22-rdf-syntax-ns#">
   <cc:Work>
    <dc:type rdf:resource="http://purl.org/dc/dcmitype/StillImage"/>
    <dc:date>2021-03-02T16:44:22.990406</dc:date>
    <dc:format>image/svg+xml</dc:format>
    <dc:creator>
     <cc:Agent>
      <dc:title>Matplotlib v3.3.3, https://matplotlib.org/</dc:title>
     </cc:Agent>
    </dc:creator>
   </cc:Work>
  </rdf:RDF>
 </metadata>
 <defs>
  <style type="text/css">*{stroke-linecap:butt;stroke-linejoin:round;}</style>
 </defs>
 <g id="figure_1">
  <g id="patch_1">
   <path d="M 0 345.6 
L 460.8 345.6 
L 460.8 0 
L 0 0 
z
" style="fill:#ffffff;"/>
  </g>
  <g id="axes_1">
   <g id="patch_2">
    <path d="M 57.6 307.584 
L 414.72 307.584 
L 414.72 41.472 
L 57.6 41.472 
z
" style="fill:#ffffff;"/>
   </g>
   <g id="matplotlib.axis_1">
    <g id="xtick_1">
     <g id="line2d_1">
      <defs>
       <path d="M 0 0 
L 0 3.5 
" id="mfdc9c98dbc" style="stroke:#000000;stroke-width:0.8;"/>
      </defs>
      <g>
       <use style="stroke:#000000;stroke-width:0.8;" x="81.408" xlink:href="#mfdc9c98dbc" y="307.584"/>
      </g>
     </g>
     <g id="text_1">
      <!-- −1.4 -->
      <g transform="translate(69.266594 322.182437)scale(0.1 -0.1)">
       <defs>
        <path d="M 10.59375 35.5 
L 73.1875 35.5 
L 73.1875 27.203125 
L 10.59375 27.203125 
z
" id="DejaVuSans-8722"/>
        <path d="M 12.40625 8.296875 
L 28.515625 8.296875 
L 28.515625 63.921875 
L 10.984375 60.40625 
L 10.984375 69.390625 
L 28.421875 72.90625 
L 38.28125 72.90625 
L 38.28125 8.296875 
L 54.390625 8.296875 
L 54.390625 0 
L 12.40625 0 
z
" id="DejaVuSans-49"/>
        <path d="M 10.6875 12.40625 
L 21 12.40625 
L 21 0 
L 10.6875 0 
z
" id="DejaVuSans-46"/>
        <path d="M 37.796875 64.3125 
L 12.890625 25.390625 
L 37.796875 25.390625 
z
M 35.203125 72.90625 
L 47.609375 72.90625 
L 47.609375 25.390625 
L 58.015625 25.390625 
L 58.015625 17.1875 
L 47.609375 17.1875 
L 47.609375 0 
L 37.796875 0 
L 37.796875 17.1875 
L 4.890625 17.1875 
L 4.890625 26.703125 
z
" id="DejaVuSans-52"/>
       </defs>
       <use xlink:href="#DejaVuSans-8722"/>
       <use x="83.789062" xlink:href="#DejaVuSans-49"/>
       <use x="147.412109" xlink:href="#DejaVuSans-46"/>
       <use x="179.199219" xlink:href="#DejaVuSans-52"/>
      </g>
     </g>
    </g>
    <g id="xtick_2">
     <g id="line2d_2">
      <g>
       <use style="stroke:#000000;stroke-width:0.8;" x="129.024" xlink:href="#mfdc9c98dbc" y="307.584"/>
      </g>
     </g>
     <g id="text_2">
      <!-- −1.2 -->
      <g transform="translate(116.882594 322.182437)scale(0.1 -0.1)">
       <defs>
        <path d="M 19.1875 8.296875 
L 53.609375 8.296875 
L 53.609375 0 
L 7.328125 0 
L 7.328125 8.296875 
Q 12.9375 14.109375 22.625 23.890625 
Q 32.328125 33.6875 34.8125 36.53125 
Q 39.546875 41.84375 41.421875 45.53125 
Q 43.3125 49.21875 43.3125 52.78125 
Q 43.3125 58.59375 39.234375 62.25 
Q 35.15625 65.921875 28.609375 65.921875 
Q 23.96875 65.921875 18.8125 64.3125 
Q 13.671875 62.703125 7.8125 59.421875 
L 7.8125 69.390625 
Q 13.765625 71.78125 18.9375 73 
Q 24.125 74.21875 28.421875 74.21875 
Q 39.75 74.21875 46.484375 68.546875 
Q 53.21875 62.890625 53.21875 53.421875 
Q 53.21875 48.921875 51.53125 44.890625 
Q 49.859375 40.875 45.40625 35.40625 
Q 44.1875 33.984375 37.640625 27.21875 
Q 31.109375 20.453125 19.1875 8.296875 
z
" id="DejaVuSans-50"/>
       </defs>
       <use xlink:href="#DejaVuSans-8722"/>
       <use x="83.789062" xlink:href="#DejaVuSans-49"/>
       <use x="147.412109" xlink:href="#DejaVuSans-46"/>
       <use x="179.199219" xlink:href="#DejaVuSans-50"/>
      </g>
     </g>
    </g>
    <g id="xtick_3">
     <g id="line2d_3">
      <g>
       <use style="stroke:#000000;stroke-width:0.8;" x="176.64" xlink:href="#mfdc9c98dbc" y="307.584"/>
      </g>
     </g>
     <g id="text_3">
      <!-- −1.0 -->
      <g transform="translate(164.498594 322.182437)scale(0.1 -0.1)">
       <defs>
        <path d="M 31.78125 66.40625 
Q 24.171875 66.40625 20.328125 58.90625 
Q 16.5 51.421875 16.5 36.375 
Q 16.5 21.390625 20.328125 13.890625 
Q 24.171875 6.390625 31.78125 6.390625 
Q 39.453125 6.390625 43.28125 13.890625 
Q 47.125 21.390625 47.125 36.375 
Q 47.125 51.421875 43.28125 58.90625 
Q 39.453125 66.40625 31.78125 66.40625 
z
M 31.78125 74.21875 
Q 44.046875 74.21875 50.515625 64.515625 
Q 56.984375 54.828125 56.984375 36.375 
Q 56.984375 17.96875 50.515625 8.265625 
Q 44.046875 -1.421875 31.78125 -1.421875 
Q 19.53125 -1.421875 13.0625 8.265625 
Q 6.59375 17.96875 6.59375 36.375 
Q 6.59375 54.828125 13.0625 64.515625 
Q 19.53125 74.21875 31.78125 74.21875 
z
" id="DejaVuSans-48"/>
       </defs>
       <use xlink:href="#DejaVuSans-8722"/>
       <use x="83.789062" xlink:href="#DejaVuSans-49"/>
       <use x="147.412109" xlink:href="#DejaVuSans-46"/>
       <use x="179.199219" xlink:href="#DejaVuSans-48"/>
      </g>
     </g>
    </g>
    <g id="xtick_4">
     <g id="line2d_4">
      <g>
       <use style="stroke:#000000;stroke-width:0.8;" x="224.256" xlink:href="#mfdc9c98dbc" y="307.584"/>
      </g>
     </g>
     <g id="text_4">
      <!-- −0.8 -->
      <g transform="translate(212.114594 322.182437)scale(0.1 -0.1)">
       <defs>
        <path d="M 31.78125 34.625 
Q 24.75 34.625 20.71875 30.859375 
Q 16.703125 27.09375 16.703125 20.515625 
Q 16.703125 13.921875 20.71875 10.15625 
Q 24.75 6.390625 31.78125 6.390625 
Q 38.8125 6.390625 42.859375 10.171875 
Q 46.921875 13.96875 46.921875 20.515625 
Q 46.921875 27.09375 42.890625 30.859375 
Q 38.875 34.625 31.78125 34.625 
z
M 21.921875 38.8125 
Q 15.578125 40.375 12.03125 44.71875 
Q 8.5 49.078125 8.5 55.328125 
Q 8.5 64.0625 14.71875 69.140625 
Q 20.953125 74.21875 31.78125 74.21875 
Q 42.671875 74.21875 48.875 69.140625 
Q 55.078125 64.0625 55.078125 55.328125 
Q 55.078125 49.078125 51.53125 44.71875 
Q 48 40.375 41.703125 38.8125 
Q 48.828125 37.15625 52.796875 32.3125 
Q 56.78125 27.484375 56.78125 20.515625 
Q 56.78125 9.90625 50.3125 4.234375 
Q 43.84375 -1.421875 31.78125 -1.421875 
Q 19.734375 -1.421875 13.25 4.234375 
Q 6.78125 9.90625 6.78125 20.515625 
Q 6.78125 27.484375 10.78125 32.3125 
Q 14.796875 37.15625 21.921875 38.8125 
z
M 18.3125 54.390625 
Q 18.3125 48.734375 21.84375 45.5625 
Q 25.390625 42.390625 31.78125 42.390625 
Q 38.140625 42.390625 41.71875 45.5625 
Q 45.3125 48.734375 45.3125 54.390625 
Q 45.3125 60.0625 41.71875 63.234375 
Q 38.140625 66.40625 31.78125 66.40625 
Q 25.390625 66.40625 21.84375 63.234375 
Q 18.3125 60.0625 18.3125 54.390625 
z
" id="DejaVuSans-56"/>
       </defs>
       <use xlink:href="#DejaVuSans-8722"/>
       <use x="83.789062" xlink:href="#DejaVuSans-48"/>
       <use x="147.412109" xlink:href="#DejaVuSans-46"/>
       <use x="179.199219" xlink:href="#DejaVuSans-56"/>
      </g>
     </g>
    </g>
    <g id="xtick_5">
     <g id="line2d_5">
      <g>
       <use style="stroke:#000000;stroke-width:0.8;" x="271.872" xlink:href="#mfdc9c98dbc" y="307.584"/>
      </g>
     </g>
     <g id="text_5">
      <!-- −0.6 -->
      <g transform="translate(259.730594 322.182437)scale(0.1 -0.1)">
       <defs>
        <path d="M 33.015625 40.375 
Q 26.375 40.375 22.484375 35.828125 
Q 18.609375 31.296875 18.609375 23.390625 
Q 18.609375 15.53125 22.484375 10.953125 
Q 26.375 6.390625 33.015625 6.390625 
Q 39.65625 6.390625 43.53125 10.953125 
Q 47.40625 15.53125 47.40625 23.390625 
Q 47.40625 31.296875 43.53125 35.828125 
Q 39.65625 40.375 33.015625 40.375 
z
M 52.59375 71.296875 
L 52.59375 62.3125 
Q 48.875 64.0625 45.09375 64.984375 
Q 41.3125 65.921875 37.59375 65.921875 
Q 27.828125 65.921875 22.671875 59.328125 
Q 17.53125 52.734375 16.796875 39.40625 
Q 19.671875 43.65625 24.015625 45.921875 
Q 28.375 48.1875 33.59375 48.1875 
Q 44.578125 48.1875 50.953125 41.515625 
Q 57.328125 34.859375 57.328125 23.390625 
Q 57.328125 12.15625 50.6875 5.359375 
Q 44.046875 -1.421875 33.015625 -1.421875 
Q 20.359375 -1.421875 13.671875 8.265625 
Q 6.984375 17.96875 6.984375 36.375 
Q 6.984375 53.65625 15.1875 63.9375 
Q 23.390625 74.21875 37.203125 74.21875 
Q 40.921875 74.21875 44.703125 73.484375 
Q 48.484375 72.75 52.59375 71.296875 
z
" id="DejaVuSans-54"/>
       </defs>
       <use xlink:href="#DejaVuSans-8722"/>
       <use x="83.789062" xlink:href="#DejaVuSans-48"/>
       <use x="147.412109" xlink:href="#DejaVuSans-46"/>
       <use x="179.199219" xlink:href="#DejaVuSans-54"/>
      </g>
     </g>
    </g>
    <g id="xtick_6">
     <g id="line2d_6">
      <g>
       <use style="stroke:#000000;stroke-width:0.8;" x="319.488" xlink:href="#mfdc9c98dbc" y="307.584"/>
      </g>
     </g>
     <g id="text_6">
      <!-- −0.4 -->
      <g transform="translate(307.346594 322.182437)scale(0.1 -0.1)">
       <use xlink:href="#DejaVuSans-8722"/>
       <use x="83.789062" xlink:href="#DejaVuSans-48"/>
       <use x="147.412109" xlink:href="#DejaVuSans-46"/>
       <use x="179.199219" xlink:href="#DejaVuSans-52"/>
      </g>
     </g>
    </g>
    <g id="xtick_7">
     <g id="line2d_7">
      <g>
       <use style="stroke:#000000;stroke-width:0.8;" x="367.104" xlink:href="#mfdc9c98dbc" y="307.584"/>
      </g>
     </g>
     <g id="text_7">
      <!-- −0.2 -->
      <g transform="translate(354.962594 322.182437)scale(0.1 -0.1)">
       <use xlink:href="#DejaVuSans-8722"/>
       <use x="83.789062" xlink:href="#DejaVuSans-48"/>
       <use x="147.412109" xlink:href="#DejaVuSans-46"/>
       <use x="179.199219" xlink:href="#DejaVuSans-50"/>
      </g>
     </g>
    </g>
    <g id="xtick_8">
     <g id="line2d_8">
      <g>
       <use style="stroke:#000000;stroke-width:0.8;" x="414.72" xlink:href="#mfdc9c98dbc" y="307.584"/>
      </g>
     </g>
     <g id="text_8">
      <!-- 0.0 -->
      <g transform="translate(406.768438 322.182437)scale(0.1 -0.1)">
       <use xlink:href="#DejaVuSans-48"/>
       <use x="63.623047" xlink:href="#DejaVuSans-46"/>
       <use x="95.410156" xlink:href="#DejaVuSans-48"/>
      </g>
     </g>
    </g>
   </g>
   <g id="matplotlib.axis_2">
    <g id="ytick_1">
     <g id="line2d_9">
      <defs>
       <path d="M 0 0 
L -3.5 0 
" id="me8da83362f" style="stroke:#000000;stroke-width:0.8;"/>
      </defs>
      <g>
       <use style="stroke:#000000;stroke-width:0.8;" x="57.6" xlink:href="#me8da83362f" y="307.584"/>
      </g>
     </g>
     <g id="text_9">
      <!-- −1.0 -->
      <g transform="translate(26.317187 311.383219)scale(0.1 -0.1)">
       <use xlink:href="#DejaVuSans-8722"/>
       <use x="83.789062" xlink:href="#DejaVuSans-49"/>
       <use x="147.412109" xlink:href="#DejaVuSans-46"/>
       <use x="179.199219" xlink:href="#DejaVuSans-48"/>
      </g>
     </g>
    </g>
    <g id="ytick_2">
     <g id="line2d_10">
      <g>
       <use style="stroke:#000000;stroke-width:0.8;" x="57.6" xlink:href="#me8da83362f" y="254.3616"/>
      </g>
     </g>
     <g id="text_10">
      <!-- −0.5 -->
      <g transform="translate(26.317187 258.160819)scale(0.1 -0.1)">
       <defs>
        <path d="M 10.796875 72.90625 
L 49.515625 72.90625 
L 49.515625 64.59375 
L 19.828125 64.59375 
L 19.828125 46.734375 
Q 21.96875 47.46875 24.109375 47.828125 
Q 26.265625 48.1875 28.421875 48.1875 
Q 40.625 48.1875 47.75 41.5 
Q 54.890625 34.8125 54.890625 23.390625 
Q 54.890625 11.625 47.5625 5.09375 
Q 40.234375 -1.421875 26.90625 -1.421875 
Q 22.3125 -1.421875 17.546875 -0.640625 
Q 12.796875 0.140625 7.71875 1.703125 
L 7.71875 11.625 
Q 12.109375 9.234375 16.796875 8.0625 
Q 21.484375 6.890625 26.703125 6.890625 
Q 35.15625 6.890625 40.078125 11.328125 
Q 45.015625 15.765625 45.015625 23.390625 
Q 45.015625 31 40.078125 35.4375 
Q 35.15625 39.890625 26.703125 39.890625 
Q 22.75 39.890625 18.8125 39.015625 
Q 14.890625 38.140625 10.796875 36.28125 
z
" id="DejaVuSans-53"/>
       </defs>
       <use xlink:href="#DejaVuSans-8722"/>
       <use x="83.789062" xlink:href="#DejaVuSans-48"/>
       <use x="147.412109" xlink:href="#DejaVuSans-46"/>
       <use x="179.199219" xlink:href="#DejaVuSans-53"/>
      </g>
     </g>
    </g>
    <g id="ytick_3">
     <g id="line2d_11">
      <g>
       <use style="stroke:#000000;stroke-width:0.8;" x="57.6" xlink:href="#me8da83362f" y="201.1392"/>
      </g>
     </g>
     <g id="text_11">
      <!-- 0.0 -->
      <g transform="translate(34.696875 204.938419)scale(0.1 -0.1)">
       <use xlink:href="#DejaVuSans-48"/>
       <use x="63.623047" xlink:href="#DejaVuSans-46"/>
       <use x="95.410156" xlink:href="#DejaVuSans-48"/>
      </g>
     </g>
    </g>
    <g id="ytick_4">
     <g id="line2d_12">
      <g>
       <use style="stroke:#000000;stroke-width:0.8;" x="57.6" xlink:href="#me8da83362f" y="147.9168"/>
      </g>
     </g>
     <g id="text_12">
      <!-- 0.5 -->
      <g transform="translate(34.696875 151.716019)scale(0.1 -0.1)">
       <use xlink:href="#DejaVuSans-48"/>
       <use x="63.623047" xlink:href="#DejaVuSans-46"/>
       <use x="95.410156" xlink:href="#DejaVuSans-53"/>
      </g>
     </g>
    </g>
    <g id="ytick_5">
     <g id="line2d_13">
      <g>
       <use style="stroke:#000000;stroke-width:0.8;" x="57.6" xlink:href="#me8da83362f" y="94.6944"/>
      </g>
     </g>
     <g id="text_13">
      <!-- 1.0 -->
      <g transform="translate(34.696875 98.493619)scale(0.1 -0.1)">
       <use xlink:href="#DejaVuSans-49"/>
       <use x="63.623047" xlink:href="#DejaVuSans-46"/>
       <use x="95.410156" xlink:href="#DejaVuSans-48"/>
      </g>
     </g>
    </g>
    <g id="ytick_6">
     <g id="line2d_14">
      <g>
       <use style="stroke:#000000;stroke-width:0.8;" x="57.6" xlink:href="#me8da83362f" y="41.472"/>
      </g>
     </g>
     <g id="text_14">
      <!-- 1.5 -->
      <g transform="translate(34.696875 45.271219)scale(0.1 -0.1)">
       <use xlink:href="#DejaVuSans-49"/>
       <use x="63.623047" xlink:href="#DejaVuSans-46"/>
       <use x="95.410156" xlink:href="#DejaVuSans-53"/>
      </g>
     </g>
    </g>
   </g>
   <g id="line2d_15">
    <defs>
     <path d="M 0 3 
C 0.795609 3 1.55874 2.683901 2.12132 2.12132 
C 2.683901 1.55874 3 0.795609 3 0 
C 3 -0.795609 2.683901 -1.55874 2.12132 -2.12132 
C 1.55874 -2.683901 0.795609 -3 0 -3 
C -0.795609 -3 -1.55874 -2.683901 -2.12132 -2.12132 
C -2.683901 -1.55874 -3 -0.795609 -3 0 
C -3 0.795609 -2.683901 1.55874 -2.12132 2.12132 
C -1.55874 2.683901 -0.795609 3 0 3 
z
" id="mf9ef7f2177" style="stroke:#666666;"/>
    </defs>
    <g clip-path="url(#p6ac1c21615)">
     <use style="fill:#666666;stroke:#666666;" x="341.057256" xlink:href="#mf9ef7f2177" y="148.676514"/>
    </g>
   </g>
   <g id="line2d_16">
    <g clip-path="url(#p6ac1c21615)">
     <use style="fill:#666666;stroke:#666666;" x="341.057437" xlink:href="#mf9ef7f2177" y="148.676943"/>
    </g>
   </g>
   <g id="line2d_17">
    <g clip-path="url(#p6ac1c21615)">
     <use style="fill:#666666;stroke:#666666;" x="341.057225" xlink:href="#mf9ef7f2177" y="148.676672"/>
    </g>
   </g>
   <g id="line2d_18">
    <g clip-path="url(#p6ac1c21615)">
     <use style="fill:#666666;stroke:#666666;" x="341.057476" xlink:href="#mf9ef7f2177" y="148.676734"/>
    </g>
   </g>
   <g id="line2d_19">
    <g clip-path="url(#p6ac1c21615)">
     <use style="fill:#666666;stroke:#666666;" x="341.057108" xlink:href="#mf9ef7f2177" y="148.67661"/>
    </g>
   </g>
   <g id="line2d_20">
    <g clip-path="url(#p6ac1c21615)">
     <use style="fill:#666666;stroke:#666666;" x="341.057312" xlink:href="#mf9ef7f2177" y="148.676601"/>
    </g>
   </g>
   <g id="line2d_21">
    <g clip-path="url(#p6ac1c21615)">
     <use style="fill:#666666;stroke:#666666;" x="340.98762" xlink:href="#mf9ef7f2177" y="148.530282"/>
    </g>
   </g>
   <g id="line2d_22">
    <g clip-path="url(#p6ac1c21615)">
     <use style="fill:#666666;stroke:#666666;" x="341.037355" xlink:href="#mf9ef7f2177" y="147.661995"/>
    </g>
   </g>
   <g id="line2d_23">
    <g clip-path="url(#p6ac1c21615)">
     <use style="fill:#666666;stroke:#666666;" x="341.101759" xlink:href="#mf9ef7f2177" y="146.575593"/>
    </g>
   </g>
   <g id="line2d_24">
    <g clip-path="url(#p6ac1c21615)">
     <use style="fill:#666666;stroke:#666666;" x="341.184003" xlink:href="#mf9ef7f2177" y="145.476028"/>
    </g>
   </g>
   <g id="line2d_25">
    <g clip-path="url(#p6ac1c21615)">
     <use style="fill:#666666;stroke:#666666;" x="341.206212" xlink:href="#mf9ef7f2177" y="144.40916"/>
    </g>
   </g>
   <g id="line2d_26">
    <g clip-path="url(#p6ac1c21615)">
     <use style="fill:#666666;stroke:#666666;" x="341.236968" xlink:href="#mf9ef7f2177" y="143.313149"/>
    </g>
   </g>
   <g id="line2d_27">
    <g clip-path="url(#p6ac1c21615)">
     <use style="fill:#666666;stroke:#666666;" x="341.285283" xlink:href="#mf9ef7f2177" y="142.124414"/>
    </g>
   </g>
   <g id="line2d_28">
    <g clip-path="url(#p6ac1c21615)">
     <use style="fill:#666666;stroke:#666666;" x="341.277419" xlink:href="#mf9ef7f2177" y="140.953028"/>
    </g>
   </g>
   <g id="line2d_29">
    <g clip-path="url(#p6ac1c21615)">
     <use style="fill:#666666;stroke:#666666;" x="341.324986" xlink:href="#mf9ef7f2177" y="139.799911"/>
    </g>
   </g>
   <g id="line2d_30">
    <g clip-path="url(#p6ac1c21615)">
     <use style="fill:#666666;stroke:#666666;" x="341.352038" xlink:href="#mf9ef7f2177" y="138.628685"/>
    </g>
   </g>
   <g id="line2d_31">
    <g clip-path="url(#p6ac1c21615)">
     <use style="fill:#666666;stroke:#666666;" x="341.342744" xlink:href="#mf9ef7f2177" y="137.563998"/>
    </g>
   </g>
   <g id="line2d_32">
    <g clip-path="url(#p6ac1c21615)">
     <use style="fill:#666666;stroke:#666666;" x="341.410171" xlink:href="#mf9ef7f2177" y="136.401046"/>
    </g>
   </g>
   <g id="line2d_33">
    <g clip-path="url(#p6ac1c21615)">
     <use style="fill:#666666;stroke:#666666;" x="341.387976" xlink:href="#mf9ef7f2177" y="135.325669"/>
    </g>
   </g>
   <g id="line2d_34">
    <defs>
     <path d="M 0 3 
C 0.795609 3 1.55874 2.683901 2.12132 2.12132 
C 2.683901 1.55874 3 0.795609 3 0 
C 3 -0.795609 2.683901 -1.55874 2.12132 -2.12132 
C 1.55874 -2.683901 0.795609 -3 0 -3 
C -0.795609 -3 -1.55874 -2.683901 -2.12132 -2.12132 
C -2.683901 -1.55874 -3 -0.795609 -3 0 
C -3 0.795609 -2.683901 1.55874 -2.12132 2.12132 
C -1.55874 2.683901 -0.795609 3 0 3 
z
" id="m2065bb2614" style="stroke:#de8c37;"/>
    </defs>
    <g clip-path="url(#p6ac1c21615)">
     <use style="fill:#de8c37;stroke:#de8c37;" x="341.088942" xlink:href="#m2065bb2614" y="134.347205"/>
    </g>
   </g>
   <g id="line2d_35">
    <defs>
     <path d="M 0 3 
C 0.795609 3 1.55874 2.683901 2.12132 2.12132 
C 2.683901 1.55874 3 0.795609 3 0 
C 3 -0.795609 2.683901 -1.55874 2.12132 -2.12132 
C 1.55874 -2.683901 0.795609 -3 0 -3 
C -0.795609 -3 -1.55874 -2.683901 -2.12132 -2.12132 
C -2.683901 -1.55874 -3 -0.795609 -3 0 
C -3 0.795609 -2.683901 1.55874 -2.12132 2.12132 
C -1.55874 2.683901 -0.795609 3 0 3 
z
" id="mc8f6c45318" style="stroke:#df8c36;"/>
    </defs>
    <g clip-path="url(#p6ac1c21615)">
     <use style="fill:#df8c36;stroke:#df8c36;" x="340.295962" xlink:href="#mc8f6c45318" y="133.64268"/>
    </g>
   </g>
   <g id="line2d_36">
    <defs>
     <path d="M 0 3 
C 0.795609 3 1.55874 2.683901 2.12132 2.12132 
C 2.683901 1.55874 3 0.795609 3 0 
C 3 -0.795609 2.683901 -1.55874 2.12132 -2.12132 
C 1.55874 -2.683901 0.795609 -3 0 -3 
C -0.795609 -3 -1.55874 -2.683901 -2.12132 -2.12132 
C -2.683901 -1.55874 -3 -0.795609 -3 0 
C -3 0.795609 -2.683901 1.55874 -2.12132 2.12132 
C -1.55874 2.683901 -0.795609 3 0 3 
z
" id="m07d2207caf" style="stroke:#df8d36;"/>
    </defs>
    <g clip-path="url(#p6ac1c21615)">
     <use style="fill:#df8d36;stroke:#df8d36;" x="339.530657" xlink:href="#m07d2207caf" y="133.169868"/>
    </g>
   </g>
   <g id="line2d_37">
    <g clip-path="url(#p6ac1c21615)">
     <use style="fill:#df8d36;stroke:#df8d36;" x="338.785468" xlink:href="#m07d2207caf" y="133.213762"/>
    </g>
   </g>
   <g id="line2d_38">
    <g clip-path="url(#p6ac1c21615)">
     <use style="fill:#df8d36;stroke:#df8d36;" x="337.840124" xlink:href="#m07d2207caf" y="133.29327"/>
    </g>
   </g>
   <g id="line2d_39">
    <defs>
     <path d="M 0 3 
C 0.795609 3 1.55874 2.683901 2.12132 2.12132 
C 2.683901 1.55874 3 0.795609 3 0 
C 3 -0.795609 2.683901 -1.55874 2.12132 -2.12132 
C 1.55874 -2.683901 0.795609 -3 0 -3 
C -0.795609 -3 -1.55874 -2.683901 -2.12132 -2.12132 
C -2.683901 -1.55874 -3 -0.795609 -3 0 
C -3 0.795609 -2.683901 1.55874 -2.12132 2.12132 
C -1.55874 2.683901 -0.795609 3 0 3 
z
" id="m462b319aa3" style="stroke:#e08d35;"/>
    </defs>
    <g clip-path="url(#p6ac1c21615)">
     <use style="fill:#e08d35;stroke:#e08d35;" x="336.815116" xlink:href="#m462b319aa3" y="133.324731"/>
    </g>
   </g>
   <g id="line2d_40">
    <g clip-path="url(#p6ac1c21615)">
     <use style="fill:#e08d35;stroke:#e08d35;" x="335.740645" xlink:href="#m462b319aa3" y="133.34777"/>
    </g>
   </g>
   <g id="line2d_41">
    <g clip-path="url(#p6ac1c21615)">
     <use style="fill:#e08d35;stroke:#e08d35;" x="334.705743" xlink:href="#m462b319aa3" y="133.345468"/>
    </g>
   </g>
   <g id="line2d_42">
    <defs>
     <path d="M 0 3 
C 0.795609 3 1.55874 2.683901 2.12132 2.12132 
C 2.683901 1.55874 3 0.795609 3 0 
C 3 -0.795609 2.683901 -1.55874 2.12132 -2.12132 
C 1.55874 -2.683901 0.795609 -3 0 -3 
C -0.795609 -3 -1.55874 -2.683901 -2.12132 -2.12132 
C -2.683901 -1.55874 -3 -0.795609 -3 0 
C -3 0.795609 -2.683901 1.55874 -2.12132 2.12132 
C -1.55874 2.683901 -0.795609 3 0 3 
z
" id="m2c4b1dbd4a" style="stroke:#e18d35;"/>
    </defs>
    <g clip-path="url(#p6ac1c21615)">
     <use style="fill:#e18d35;stroke:#e18d35;" x="333.944276" xlink:href="#m2c4b1dbd4a" y="133.349284"/>
    </g>
   </g>
   <g id="line2d_43">
    <g clip-path="url(#p6ac1c21615)">
     <use style="fill:#e18d35;stroke:#e18d35;" x="333.42564" xlink:href="#m2c4b1dbd4a" y="133.36747"/>
    </g>
   </g>
   <g id="line2d_44">
    <defs>
     <path d="M 0 3 
C 0.795609 3 1.55874 2.683901 2.12132 2.12132 
C 2.683901 1.55874 3 0.795609 3 0 
C 3 -0.795609 2.683901 -1.55874 2.12132 -2.12132 
C 1.55874 -2.683901 0.795609 -3 0 -3 
C -0.795609 -3 -1.55874 -2.683901 -2.12132 -2.12132 
C -2.683901 -1.55874 -3 -0.795609 -3 0 
C -3 0.795609 -2.683901 1.55874 -2.12132 2.12132 
C -1.55874 2.683901 -0.795609 3 0 3 
z
" id="mba98e5132e" style="stroke:#e18d34;"/>
    </defs>
    <g clip-path="url(#p6ac1c21615)">
     <use style="fill:#e18d34;stroke:#e18d34;" x="332.886548" xlink:href="#mba98e5132e" y="133.365093"/>
    </g>
   </g>
   <g id="line2d_45">
    <g clip-path="url(#p6ac1c21615)">
     <use style="fill:#e18d34;stroke:#e18d34;" x="332.371244" xlink:href="#mba98e5132e" y="133.384372"/>
    </g>
   </g>
   <g id="line2d_46">
    <defs>
     <path d="M 0 3 
C 0.795609 3 1.55874 2.683901 2.12132 2.12132 
C 2.683901 1.55874 3 0.795609 3 0 
C 3 -0.795609 2.683901 -1.55874 2.12132 -2.12132 
C 1.55874 -2.683901 0.795609 -3 0 -3 
C -0.795609 -3 -1.55874 -2.683901 -2.12132 -2.12132 
C -2.683901 -1.55874 -3 -0.795609 -3 0 
C -3 0.795609 -2.683901 1.55874 -2.12132 2.12132 
C -1.55874 2.683901 -0.795609 3 0 3 
z
" id="mcf80771dba" style="stroke:#e28e34;"/>
    </defs>
    <g clip-path="url(#p6ac1c21615)">
     <use style="fill:#e28e34;stroke:#e28e34;" x="331.359284" xlink:href="#mcf80771dba" y="133.365603"/>
    </g>
   </g>
   <g id="line2d_47">
    <defs>
     <path d="M 0 3 
C 0.795609 3 1.55874 2.683901 2.12132 2.12132 
C 2.683901 1.55874 3 0.795609 3 0 
C 3 -0.795609 2.683901 -1.55874 2.12132 -2.12132 
C 1.55874 -2.683901 0.795609 -3 0 -3 
C -0.795609 -3 -1.55874 -2.683901 -2.12132 -2.12132 
C -2.683901 -1.55874 -3 -0.795609 -3 0 
C -3 0.795609 -2.683901 1.55874 -2.12132 2.12132 
C -1.55874 2.683901 -0.795609 3 0 3 
z
" id="mc6df98be12" style="stroke:#e28e33;"/>
    </defs>
    <g clip-path="url(#p6ac1c21615)">
     <use style="fill:#e28e33;stroke:#e28e33;" x="329.786385" xlink:href="#mc6df98be12" y="133.360985"/>
    </g>
   </g>
   <g id="line2d_48">
    <defs>
     <path d="M 0 3 
C 0.795609 3 1.55874 2.683901 2.12132 2.12132 
C 2.683901 1.55874 3 0.795609 3 0 
C 3 -0.795609 2.683901 -1.55874 2.12132 -2.12132 
C 1.55874 -2.683901 0.795609 -3 0 -3 
C -0.795609 -3 -1.55874 -2.683901 -2.12132 -2.12132 
C -2.683901 -1.55874 -3 -0.795609 -3 0 
C -3 0.795609 -2.683901 1.55874 -2.12132 2.12132 
C -1.55874 2.683901 -0.795609 3 0 3 
z
" id="m0f0e334a57" style="stroke:#e38e33;"/>
    </defs>
    <g clip-path="url(#p6ac1c21615)">
     <use style="fill:#e38e33;stroke:#e38e33;" x="328.014148" xlink:href="#m0f0e334a57" y="133.380877"/>
    </g>
   </g>
   <g id="line2d_49">
    <defs>
     <path d="M 0 3 
C 0.795609 3 1.55874 2.683901 2.12132 2.12132 
C 2.683901 1.55874 3 0.795609 3 0 
C 3 -0.795609 2.683901 -1.55874 2.12132 -2.12132 
C 1.55874 -2.683901 0.795609 -3 0 -3 
C -0.795609 -3 -1.55874 -2.683901 -2.12132 -2.12132 
C -2.683901 -1.55874 -3 -0.795609 -3 0 
C -3 0.795609 -2.683901 1.55874 -2.12132 2.12132 
C -1.55874 2.683901 -0.795609 3 0 3 
z
" id="m3f492dccdb" style="stroke:#e48e32;"/>
    </defs>
    <g clip-path="url(#p6ac1c21615)">
     <use style="fill:#e48e32;stroke:#e48e32;" x="326.036493" xlink:href="#m3f492dccdb" y="133.390275"/>
    </g>
   </g>
   <g id="line2d_50">
    <defs>
     <path d="M 0 3 
C 0.795609 3 1.55874 2.683901 2.12132 2.12132 
C 2.683901 1.55874 3 0.795609 3 0 
C 3 -0.795609 2.683901 -1.55874 2.12132 -2.12132 
C 1.55874 -2.683901 0.795609 -3 0 -3 
C -0.795609 -3 -1.55874 -2.683901 -2.12132 -2.12132 
C -2.683901 -1.55874 -3 -0.795609 -3 0 
C -3 0.795609 -2.683901 1.55874 -2.12132 2.12132 
C -1.55874 2.683901 -0.795609 3 0 3 
z
" id="ma4be52c5ef" style="stroke:#e48f31;"/>
    </defs>
    <g clip-path="url(#p6ac1c21615)">
     <use style="fill:#e48f31;stroke:#e48f31;" x="323.85045" xlink:href="#ma4be52c5ef" y="133.410199"/>
    </g>
   </g>
   <g id="line2d_51">
    <defs>
     <path d="M 0 3 
C 0.795609 3 1.55874 2.683901 2.12132 2.12132 
C 2.683901 1.55874 3 0.795609 3 0 
C 3 -0.795609 2.683901 -1.55874 2.12132 -2.12132 
C 1.55874 -2.683901 0.795609 -3 0 -3 
C -0.795609 -3 -1.55874 -2.683901 -2.12132 -2.12132 
C -2.683901 -1.55874 -3 -0.795609 -3 0 
C -3 0.795609 -2.683901 1.55874 -2.12132 2.12132 
C -1.55874 2.683901 -0.795609 3 0 3 
z
" id="m0d0686a23a" style="stroke:#e58f31;"/>
    </defs>
    <g clip-path="url(#p6ac1c21615)">
     <use style="fill:#e58f31;stroke:#e58f31;" x="321.826878" xlink:href="#m0d0686a23a" y="133.42599"/>
    </g>
   </g>
   <g id="line2d_52">
    <defs>
     <path d="M 0 3 
C 0.795609 3 1.55874 2.683901 2.12132 2.12132 
C 2.683901 1.55874 3 0.795609 3 0 
C 3 -0.795609 2.683901 -1.55874 2.12132 -2.12132 
C 1.55874 -2.683901 0.795609 -3 0 -3 
C -0.795609 -3 -1.55874 -2.683901 -2.12132 -2.12132 
C -2.683901 -1.55874 -3 -0.795609 -3 0 
C -3 0.795609 -2.683901 1.55874 -2.12132 2.12132 
C -1.55874 2.683901 -0.795609 3 0 3 
z
" id="mcf9fadd6d0" style="stroke:#e68f30;"/>
    </defs>
    <g clip-path="url(#p6ac1c21615)">
     <use style="fill:#e68f30;stroke:#e68f30;" x="319.821927" xlink:href="#mcf9fadd6d0" y="133.454921"/>
    </g>
   </g>
   <g id="line2d_53">
    <defs>
     <path d="M 0 3 
C 0.795609 3 1.55874 2.683901 2.12132 2.12132 
C 2.683901 1.55874 3 0.795609 3 0 
C 3 -0.795609 2.683901 -1.55874 2.12132 -2.12132 
C 1.55874 -2.683901 0.795609 -3 0 -3 
C -0.795609 -3 -1.55874 -2.683901 -2.12132 -2.12132 
C -2.683901 -1.55874 -3 -0.795609 -3 0 
C -3 0.795609 -2.683901 1.55874 -2.12132 2.12132 
C -1.55874 2.683901 -0.795609 3 0 3 
z
" id="m7deb8d5f65" style="stroke:#e7902f;"/>
    </defs>
    <g clip-path="url(#p6ac1c21615)">
     <use style="fill:#e7902f;stroke:#e7902f;" x="317.604448" xlink:href="#m7deb8d5f65" y="133.475569"/>
    </g>
   </g>
   <g id="line2d_54">
    <defs>
     <path d="M 0 3 
C 0.795609 3 1.55874 2.683901 2.12132 2.12132 
C 2.683901 1.55874 3 0.795609 3 0 
C 3 -0.795609 2.683901 -1.55874 2.12132 -2.12132 
C 1.55874 -2.683901 0.795609 -3 0 -3 
C -0.795609 -3 -1.55874 -2.683901 -2.12132 -2.12132 
C -2.683901 -1.55874 -3 -0.795609 -3 0 
C -3 0.795609 -2.683901 1.55874 -2.12132 2.12132 
C -1.55874 2.683901 -0.795609 3 0 3 
z
" id="m87fde04259" style="stroke:#e8902e;"/>
    </defs>
    <g clip-path="url(#p6ac1c21615)">
     <use style="fill:#e8902e;stroke:#e8902e;" x="315.586699" xlink:href="#m87fde04259" y="133.506983"/>
    </g>
   </g>
   <g id="line2d_55">
    <defs>
     <path d="M 0 3 
C 0.795609 3 1.55874 2.683901 2.12132 2.12132 
C 2.683901 1.55874 3 0.795609 3 0 
C 3 -0.795609 2.683901 -1.55874 2.12132 -2.12132 
C 1.55874 -2.683901 0.795609 -3 0 -3 
C -0.795609 -3 -1.55874 -2.683901 -2.12132 -2.12132 
C -2.683901 -1.55874 -3 -0.795609 -3 0 
C -3 0.795609 -2.683901 1.55874 -2.12132 2.12132 
C -1.55874 2.683901 -0.795609 3 0 3 
z
" id="md9aa73ac25" style="stroke:#e9902e;"/>
    </defs>
    <g clip-path="url(#p6ac1c21615)">
     <use style="fill:#e9902e;stroke:#e9902e;" x="313.569238" xlink:href="#md9aa73ac25" y="133.527385"/>
    </g>
   </g>
   <g id="line2d_56">
    <defs>
     <path d="M 0 3 
C 0.795609 3 1.55874 2.683901 2.12132 2.12132 
C 2.683901 1.55874 3 0.795609 3 0 
C 3 -0.795609 2.683901 -1.55874 2.12132 -2.12132 
C 1.55874 -2.683901 0.795609 -3 0 -3 
C -0.795609 -3 -1.55874 -2.683901 -2.12132 -2.12132 
C -2.683901 -1.55874 -3 -0.795609 -3 0 
C -3 0.795609 -2.683901 1.55874 -2.12132 2.12132 
C -1.55874 2.683901 -0.795609 3 0 3 
z
" id="m336a5ab782" style="stroke:#ea912d;"/>
    </defs>
    <g clip-path="url(#p6ac1c21615)">
     <use style="fill:#ea912d;stroke:#ea912d;" x="311.309095" xlink:href="#m336a5ab782" y="133.564401"/>
    </g>
   </g>
   <g id="line2d_57">
    <defs>
     <path d="M 0 3 
C 0.795609 3 1.55874 2.683901 2.12132 2.12132 
C 2.683901 1.55874 3 0.795609 3 0 
C 3 -0.795609 2.683901 -1.55874 2.12132 -2.12132 
C 1.55874 -2.683901 0.795609 -3 0 -3 
C -0.795609 -3 -1.55874 -2.683901 -2.12132 -2.12132 
C -2.683901 -1.55874 -3 -0.795609 -3 0 
C -3 0.795609 -2.683901 1.55874 -2.12132 2.12132 
C -1.55874 2.683901 -0.795609 3 0 3 
z
" id="m9f6617dfdf" style="stroke:#eb912c;"/>
    </defs>
    <g clip-path="url(#p6ac1c21615)">
     <use style="fill:#eb912c;stroke:#eb912c;" x="309.062653" xlink:href="#m9f6617dfdf" y="133.594446"/>
    </g>
   </g>
   <g id="line2d_58">
    <defs>
     <path d="M 0 3 
C 0.795609 3 1.55874 2.683901 2.12132 2.12132 
C 2.683901 1.55874 3 0.795609 3 0 
C 3 -0.795609 2.683901 -1.55874 2.12132 -2.12132 
C 1.55874 -2.683901 0.795609 -3 0 -3 
C -0.795609 -3 -1.55874 -2.683901 -2.12132 -2.12132 
C -2.683901 -1.55874 -3 -0.795609 -3 0 
C -3 0.795609 -2.683901 1.55874 -2.12132 2.12132 
C -1.55874 2.683901 -0.795609 3 0 3 
z
" id="m4c9f0775cc" style="stroke:#eb912b;"/>
    </defs>
    <g clip-path="url(#p6ac1c21615)">
     <use style="fill:#eb912b;stroke:#eb912b;" x="306.801061" xlink:href="#m4c9f0775cc" y="133.630218"/>
    </g>
   </g>
   <g id="line2d_59">
    <defs>
     <path d="M 0 3 
C 0.795609 3 1.55874 2.683901 2.12132 2.12132 
C 2.683901 1.55874 3 0.795609 3 0 
C 3 -0.795609 2.683901 -1.55874 2.12132 -2.12132 
C 1.55874 -2.683901 0.795609 -3 0 -3 
C -0.795609 -3 -1.55874 -2.683901 -2.12132 -2.12132 
C -2.683901 -1.55874 -3 -0.795609 -3 0 
C -3 0.795609 -2.683901 1.55874 -2.12132 2.12132 
C -1.55874 2.683901 -0.795609 3 0 3 
z
" id="mc4fc39d332" style="stroke:#ec922a;"/>
    </defs>
    <g clip-path="url(#p6ac1c21615)">
     <use style="fill:#ec922a;stroke:#ec922a;" x="304.87181" xlink:href="#mc4fc39d332" y="133.836327"/>
    </g>
   </g>
   <g id="line2d_60">
    <defs>
     <path d="M 0 3 
C 0.795609 3 1.55874 2.683901 2.12132 2.12132 
C 2.683901 1.55874 3 0.795609 3 0 
C 3 -0.795609 2.683901 -1.55874 2.12132 -2.12132 
C 1.55874 -2.683901 0.795609 -3 0 -3 
C -0.795609 -3 -1.55874 -2.683901 -2.12132 -2.12132 
C -2.683901 -1.55874 -3 -0.795609 -3 0 
C -3 0.795609 -2.683901 1.55874 -2.12132 2.12132 
C -1.55874 2.683901 -0.795609 3 0 3 
z
" id="m8c28f443f8" style="stroke:#ed9229;"/>
    </defs>
    <g clip-path="url(#p6ac1c21615)">
     <use style="fill:#ed9229;stroke:#ed9229;" x="302.937792" xlink:href="#m8c28f443f8" y="134.403067"/>
    </g>
   </g>
   <g id="line2d_61">
    <defs>
     <path d="M 0 3 
C 0.795609 3 1.55874 2.683901 2.12132 2.12132 
C 2.683901 1.55874 3 0.795609 3 0 
C 3 -0.795609 2.683901 -1.55874 2.12132 -2.12132 
C 1.55874 -2.683901 0.795609 -3 0 -3 
C -0.795609 -3 -1.55874 -2.683901 -2.12132 -2.12132 
C -2.683901 -1.55874 -3 -0.795609 -3 0 
C -3 0.795609 -2.683901 1.55874 -2.12132 2.12132 
C -1.55874 2.683901 -0.795609 3 0 3 
z
" id="m9250779238" style="stroke:#ee9228;"/>
    </defs>
    <g clip-path="url(#p6ac1c21615)">
     <use style="fill:#ee9228;stroke:#ee9228;" x="301.054037" xlink:href="#m9250779238" y="135.077941"/>
    </g>
   </g>
   <g id="line2d_62">
    <g clip-path="url(#p6ac1c21615)">
     <use style="fill:#ee9228;stroke:#ee9228;" x="299.07194" xlink:href="#m9250779238" y="135.754723"/>
    </g>
   </g>
   <g id="line2d_63">
    <defs>
     <path d="M 0 3 
C 0.795609 3 1.55874 2.683901 2.12132 2.12132 
C 2.683901 1.55874 3 0.795609 3 0 
C 3 -0.795609 2.683901 -1.55874 2.12132 -2.12132 
C 1.55874 -2.683901 0.795609 -3 0 -3 
C -0.795609 -3 -1.55874 -2.683901 -2.12132 -2.12132 
C -2.683901 -1.55874 -3 -0.795609 -3 0 
C -3 0.795609 -2.683901 1.55874 -2.12132 2.12132 
C -1.55874 2.683901 -0.795609 3 0 3 
z
" id="m65665f5061" style="stroke:#ef9327;"/>
    </defs>
    <g clip-path="url(#p6ac1c21615)">
     <use style="fill:#ef9327;stroke:#ef9327;" x="297.155725" xlink:href="#m65665f5061" y="136.339997"/>
    </g>
   </g>
   <g id="line2d_64">
    <defs>
     <path d="M 0 3 
C 0.795609 3 1.55874 2.683901 2.12132 2.12132 
C 2.683901 1.55874 3 0.795609 3 0 
C 3 -0.795609 2.683901 -1.55874 2.12132 -2.12132 
C 1.55874 -2.683901 0.795609 -3 0 -3 
C -0.795609 -3 -1.55874 -2.683901 -2.12132 -2.12132 
C -2.683901 -1.55874 -3 -0.795609 -3 0 
C -3 0.795609 -2.683901 1.55874 -2.12132 2.12132 
C -1.55874 2.683901 -0.795609 3 0 3 
z
" id="m97cb14dfb8" style="stroke:#f09326;"/>
    </defs>
    <g clip-path="url(#p6ac1c21615)">
     <use style="fill:#f09326;stroke:#f09326;" x="295.252428" xlink:href="#m97cb14dfb8" y="136.850985"/>
    </g>
   </g>
   <g id="line2d_65">
    <defs>
     <path d="M 0 3 
C 0.795609 3 1.55874 2.683901 2.12132 2.12132 
C 2.683901 1.55874 3 0.795609 3 0 
C 3 -0.795609 2.683901 -1.55874 2.12132 -2.12132 
C 1.55874 -2.683901 0.795609 -3 0 -3 
C -0.795609 -3 -1.55874 -2.683901 -2.12132 -2.12132 
C -2.683901 -1.55874 -3 -0.795609 -3 0 
C -3 0.795609 -2.683901 1.55874 -2.12132 2.12132 
C -1.55874 2.683901 -0.795609 3 0 3 
z
" id="m2b1cbcb2ba" style="stroke:#f09325;"/>
    </defs>
    <g clip-path="url(#p6ac1c21615)">
     <use style="fill:#f09325;stroke:#f09325;" x="293.426768" xlink:href="#m2b1cbcb2ba" y="137.331894"/>
    </g>
   </g>
   <g id="line2d_66">
    <defs>
     <path d="M 0 3 
C 0.795609 3 1.55874 2.683901 2.12132 2.12132 
C 2.683901 1.55874 3 0.795609 3 0 
C 3 -0.795609 2.683901 -1.55874 2.12132 -2.12132 
C 1.55874 -2.683901 0.795609 -3 0 -3 
C -0.795609 -3 -1.55874 -2.683901 -2.12132 -2.12132 
C -2.683901 -1.55874 -3 -0.795609 -3 0 
C -3 0.795609 -2.683901 1.55874 -2.12132 2.12132 
C -1.55874 2.683901 -0.795609 3 0 3 
z
" id="md2bca6101c" style="stroke:#f19424;"/>
    </defs>
    <g clip-path="url(#p6ac1c21615)">
     <use style="fill:#f19424;stroke:#f19424;" x="291.600566" xlink:href="#md2bca6101c" y="137.873923"/>
    </g>
   </g>
   <g id="line2d_67">
    <defs>
     <path d="M 0 3 
C 0.795609 3 1.55874 2.683901 2.12132 2.12132 
C 2.683901 1.55874 3 0.795609 3 0 
C 3 -0.795609 2.683901 -1.55874 2.12132 -2.12132 
C 1.55874 -2.683901 0.795609 -3 0 -3 
C -0.795609 -3 -1.55874 -2.683901 -2.12132 -2.12132 
C -2.683901 -1.55874 -3 -0.795609 -3 0 
C -3 0.795609 -2.683901 1.55874 -2.12132 2.12132 
C -1.55874 2.683901 -0.795609 3 0 3 
z
" id="m4979e4be5f" style="stroke:#f29424;"/>
    </defs>
    <g clip-path="url(#p6ac1c21615)">
     <use style="fill:#f29424;stroke:#f29424;" x="289.86766" xlink:href="#m4979e4be5f" y="138.515726"/>
    </g>
   </g>
   <g id="line2d_68">
    <defs>
     <path d="M 0 3 
C 0.795609 3 1.55874 2.683901 2.12132 2.12132 
C 2.683901 1.55874 3 0.795609 3 0 
C 3 -0.795609 2.683901 -1.55874 2.12132 -2.12132 
C 1.55874 -2.683901 0.795609 -3 0 -3 
C -0.795609 -3 -1.55874 -2.683901 -2.12132 -2.12132 
C -2.683901 -1.55874 -3 -0.795609 -3 0 
C -3 0.795609 -2.683901 1.55874 -2.12132 2.12132 
C -1.55874 2.683901 -0.795609 3 0 3 
z
" id="m17ffccd2db" style="stroke:#f29423;"/>
    </defs>
    <g clip-path="url(#p6ac1c21615)">
     <use style="fill:#f29423;stroke:#f29423;" x="288.116244" xlink:href="#m17ffccd2db" y="139.194571"/>
    </g>
   </g>
   <g id="line2d_69">
    <defs>
     <path d="M 0 3 
C 0.795609 3 1.55874 2.683901 2.12132 2.12132 
C 2.683901 1.55874 3 0.795609 3 0 
C 3 -0.795609 2.683901 -1.55874 2.12132 -2.12132 
C 1.55874 -2.683901 0.795609 -3 0 -3 
C -0.795609 -3 -1.55874 -2.683901 -2.12132 -2.12132 
C -2.683901 -1.55874 -3 -0.795609 -3 0 
C -3 0.795609 -2.683901 1.55874 -2.12132 2.12132 
C -1.55874 2.683901 -0.795609 3 0 3 
z
" id="mb8335235a7" style="stroke:#f39422;"/>
    </defs>
    <g clip-path="url(#p6ac1c21615)">
     <use style="fill:#f39422;stroke:#f39422;" x="286.232044" xlink:href="#mb8335235a7" y="139.908317"/>
    </g>
   </g>
   <g id="line2d_70">
    <defs>
     <path d="M 0 3 
C 0.795609 3 1.55874 2.683901 2.12132 2.12132 
C 2.683901 1.55874 3 0.795609 3 0 
C 3 -0.795609 2.683901 -1.55874 2.12132 -2.12132 
C 1.55874 -2.683901 0.795609 -3 0 -3 
C -0.795609 -3 -1.55874 -2.683901 -2.12132 -2.12132 
C -2.683901 -1.55874 -3 -0.795609 -3 0 
C -3 0.795609 -2.683901 1.55874 -2.12132 2.12132 
C -1.55874 2.683901 -0.795609 3 0 3 
z
" id="mfc4f02bba9" style="stroke:#f49421;"/>
    </defs>
    <g clip-path="url(#p6ac1c21615)">
     <use style="fill:#f49421;stroke:#f49421;" x="284.518633" xlink:href="#mfc4f02bba9" y="140.533499"/>
    </g>
   </g>
   <g id="line2d_71">
    <defs>
     <path d="M 0 3 
C 0.795609 3 1.55874 2.683901 2.12132 2.12132 
C 2.683901 1.55874 3 0.795609 3 0 
C 3 -0.795609 2.683901 -1.55874 2.12132 -2.12132 
C 1.55874 -2.683901 0.795609 -3 0 -3 
C -0.795609 -3 -1.55874 -2.683901 -2.12132 -2.12132 
C -2.683901 -1.55874 -3 -0.795609 -3 0 
C -3 0.795609 -2.683901 1.55874 -2.12132 2.12132 
C -1.55874 2.683901 -0.795609 3 0 3 
z
" id="m4aadce513b" style="stroke:#f49520;"/>
    </defs>
    <g clip-path="url(#p6ac1c21615)">
     <use style="fill:#f49520;stroke:#f49520;" x="282.879616" xlink:href="#m4aadce513b" y="141.193453"/>
    </g>
   </g>
   <g id="line2d_72">
    <defs>
     <path d="M 0 3 
C 0.795609 3 1.55874 2.683901 2.12132 2.12132 
C 2.683901 1.55874 3 0.795609 3 0 
C 3 -0.795609 2.683901 -1.55874 2.12132 -2.12132 
C 1.55874 -2.683901 0.795609 -3 0 -3 
C -0.795609 -3 -1.55874 -2.683901 -2.12132 -2.12132 
C -2.683901 -1.55874 -3 -0.795609 -3 0 
C -3 0.795609 -2.683901 1.55874 -2.12132 2.12132 
C -1.55874 2.683901 -0.795609 3 0 3 
z
" id="mfc4bd26b70" style="stroke:#f59520;"/>
    </defs>
    <g clip-path="url(#p6ac1c21615)">
     <use style="fill:#f59520;stroke:#f59520;" x="281.353682" xlink:href="#mfc4bd26b70" y="141.865084"/>
    </g>
   </g>
   <g id="line2d_73">
    <defs>
     <path d="M 0 3 
C 0.795609 3 1.55874 2.683901 2.12132 2.12132 
C 2.683901 1.55874 3 0.795609 3 0 
C 3 -0.795609 2.683901 -1.55874 2.12132 -2.12132 
C 1.55874 -2.683901 0.795609 -3 0 -3 
C -0.795609 -3 -1.55874 -2.683901 -2.12132 -2.12132 
C -2.683901 -1.55874 -3 -0.795609 -3 0 
C -3 0.795609 -2.683901 1.55874 -2.12132 2.12132 
C -1.55874 2.683901 -0.795609 3 0 3 
z
" id="m673af34b9d" style="stroke:#f5951f;"/>
    </defs>
    <g clip-path="url(#p6ac1c21615)">
     <use style="fill:#f5951f;stroke:#f5951f;" x="279.653217" xlink:href="#m673af34b9d" y="142.586868"/>
    </g>
   </g>
   <g id="line2d_74">
    <defs>
     <path d="M 0 3 
C 0.795609 3 1.55874 2.683901 2.12132 2.12132 
C 2.683901 1.55874 3 0.795609 3 0 
C 3 -0.795609 2.683901 -1.55874 2.12132 -2.12132 
C 1.55874 -2.683901 0.795609 -3 0 -3 
C -0.795609 -3 -1.55874 -2.683901 -2.12132 -2.12132 
C -2.683901 -1.55874 -3 -0.795609 -3 0 
C -3 0.795609 -2.683901 1.55874 -2.12132 2.12132 
C -1.55874 2.683901 -0.795609 3 0 3 
z
" id="mcdc852a070" style="stroke:#f6951e;"/>
    </defs>
    <g clip-path="url(#p6ac1c21615)">
     <use style="fill:#f6951e;stroke:#f6951e;" x="277.994092" xlink:href="#mcdc852a070" y="143.318621"/>
    </g>
   </g>
   <g id="line2d_75">
    <defs>
     <path d="M 0 3 
C 0.795609 3 1.55874 2.683901 2.12132 2.12132 
C 2.683901 1.55874 3 0.795609 3 0 
C 3 -0.795609 2.683901 -1.55874 2.12132 -2.12132 
C 1.55874 -2.683901 0.795609 -3 0 -3 
C -0.795609 -3 -1.55874 -2.683901 -2.12132 -2.12132 
C -2.683901 -1.55874 -3 -0.795609 -3 0 
C -3 0.795609 -2.683901 1.55874 -2.12132 2.12132 
C -1.55874 2.683901 -0.795609 3 0 3 
z
" id="md46480760e" style="stroke:#f6961d;"/>
    </defs>
    <g clip-path="url(#p6ac1c21615)">
     <use style="fill:#f6961d;stroke:#f6961d;" x="276.412903" xlink:href="#md46480760e" y="144.069391"/>
    </g>
   </g>
   <g id="line2d_76">
    <defs>
     <path d="M 0 3 
C 0.795609 3 1.55874 2.683901 2.12132 2.12132 
C 2.683901 1.55874 3 0.795609 3 0 
C 3 -0.795609 2.683901 -1.55874 2.12132 -2.12132 
C 1.55874 -2.683901 0.795609 -3 0 -3 
C -0.795609 -3 -1.55874 -2.683901 -2.12132 -2.12132 
C -2.683901 -1.55874 -3 -0.795609 -3 0 
C -3 0.795609 -2.683901 1.55874 -2.12132 2.12132 
C -1.55874 2.683901 -0.795609 3 0 3 
z
" id="m9684a383e0" style="stroke:#f7961c;"/>
    </defs>
    <g clip-path="url(#p6ac1c21615)">
     <use style="fill:#f7961c;stroke:#f7961c;" x="274.998306" xlink:href="#m9684a383e0" y="144.741138"/>
    </g>
   </g>
   <g id="line2d_77">
    <g clip-path="url(#p6ac1c21615)">
     <use style="fill:#f7961c;stroke:#f7961c;" x="273.568494" xlink:href="#m9684a383e0" y="145.426764"/>
    </g>
   </g>
   <g id="line2d_78">
    <defs>
     <path d="M 0 3 
C 0.795609 3 1.55874 2.683901 2.12132 2.12132 
C 2.683901 1.55874 3 0.795609 3 0 
C 3 -0.795609 2.683901 -1.55874 2.12132 -2.12132 
C 1.55874 -2.683901 0.795609 -3 0 -3 
C -0.795609 -3 -1.55874 -2.683901 -2.12132 -2.12132 
C -2.683901 -1.55874 -3 -0.795609 -3 0 
C -3 0.795609 -2.683901 1.55874 -2.12132 2.12132 
C -1.55874 2.683901 -0.795609 3 0 3 
z
" id="m6f3bf69261" style="stroke:#f7961b;"/>
    </defs>
    <g clip-path="url(#p6ac1c21615)">
     <use style="fill:#f7961b;stroke:#f7961b;" x="272.105206" xlink:href="#m6f3bf69261" y="146.144678"/>
    </g>
   </g>
   <g id="line2d_79">
    <defs>
     <path d="M 0 3 
C 0.795609 3 1.55874 2.683901 2.12132 2.12132 
C 2.683901 1.55874 3 0.795609 3 0 
C 3 -0.795609 2.683901 -1.55874 2.12132 -2.12132 
C 1.55874 -2.683901 0.795609 -3 0 -3 
C -0.795609 -3 -1.55874 -2.683901 -2.12132 -2.12132 
C -2.683901 -1.55874 -3 -0.795609 -3 0 
C -3 0.795609 -2.683901 1.55874 -2.12132 2.12132 
C -1.55874 2.683901 -0.795609 3 0 3 
z
" id="mf35ebe9a79" style="stroke:#f8961a;"/>
    </defs>
    <g clip-path="url(#p6ac1c21615)">
     <use style="fill:#f8961a;stroke:#f8961a;" x="270.844987" xlink:href="#mf35ebe9a79" y="146.806088"/>
    </g>
   </g>
   <g id="line2d_80">
    <defs>
     <path d="M 0 3 
C 0.795609 3 1.55874 2.683901 2.12132 2.12132 
C 2.683901 1.55874 3 0.795609 3 0 
C 3 -0.795609 2.683901 -1.55874 2.12132 -2.12132 
C 1.55874 -2.683901 0.795609 -3 0 -3 
C -0.795609 -3 -1.55874 -2.683901 -2.12132 -2.12132 
C -2.683901 -1.55874 -3 -0.795609 -3 0 
C -3 0.795609 -2.683901 1.55874 -2.12132 2.12132 
C -1.55874 2.683901 -0.795609 3 0 3 
z
" id="md923338b92" style="stroke:#f89619;"/>
    </defs>
    <g clip-path="url(#p6ac1c21615)">
     <use style="fill:#f89619;stroke:#f89619;" x="269.509927" xlink:href="#md923338b92" y="147.536528"/>
    </g>
   </g>
   <g id="line2d_81">
    <defs>
     <path d="M 0 3 
C 0.795609 3 1.55874 2.683901 2.12132 2.12132 
C 2.683901 1.55874 3 0.795609 3 0 
C 3 -0.795609 2.683901 -1.55874 2.12132 -2.12132 
C 1.55874 -2.683901 0.795609 -3 0 -3 
C -0.795609 -3 -1.55874 -2.683901 -2.12132 -2.12132 
C -2.683901 -1.55874 -3 -0.795609 -3 0 
C -3 0.795609 -2.683901 1.55874 -2.12132 2.12132 
C -1.55874 2.683901 -0.795609 3 0 3 
z
" id="mfcaa8ca600" style="stroke:#f99619;"/>
    </defs>
    <g clip-path="url(#p6ac1c21615)">
     <use style="fill:#f99619;stroke:#f99619;" x="268.216255" xlink:href="#mfcaa8ca600" y="148.209108"/>
    </g>
   </g>
   <g id="line2d_82">
    <defs>
     <path d="M 0 3 
C 0.795609 3 1.55874 2.683901 2.12132 2.12132 
C 2.683901 1.55874 3 0.795609 3 0 
C 3 -0.795609 2.683901 -1.55874 2.12132 -2.12132 
C 1.55874 -2.683901 0.795609 -3 0 -3 
C -0.795609 -3 -1.55874 -2.683901 -2.12132 -2.12132 
C -2.683901 -1.55874 -3 -0.795609 -3 0 
C -3 0.795609 -2.683901 1.55874 -2.12132 2.12132 
C -1.55874 2.683901 -0.795609 3 0 3 
z
" id="m7fa2af1a17" style="stroke:#f99718;"/>
    </defs>
    <g clip-path="url(#p6ac1c21615)">
     <use style="fill:#f99718;stroke:#f99718;" x="267.33708" xlink:href="#m7fa2af1a17" y="148.823045"/>
    </g>
   </g>
   <g id="line2d_83">
    <g clip-path="url(#p6ac1c21615)">
     <use style="fill:#f99718;stroke:#f99718;" x="267.149757" xlink:href="#m7fa2af1a17" y="149.023413"/>
    </g>
   </g>
   <g id="line2d_84">
    <g clip-path="url(#p6ac1c21615)">
     <use style="fill:#f99718;stroke:#f99718;" x="267.175448" xlink:href="#m7fa2af1a17" y="149.055738"/>
    </g>
   </g>
   <g id="line2d_85">
    <g clip-path="url(#p6ac1c21615)">
     <use style="fill:#f99718;stroke:#f99718;" x="267.216634" xlink:href="#m7fa2af1a17" y="149.161294"/>
    </g>
   </g>
   <g id="line2d_86">
    <g clip-path="url(#p6ac1c21615)">
     <use style="fill:#f99718;stroke:#f99718;" x="267.295037" xlink:href="#m7fa2af1a17" y="149.357677"/>
    </g>
   </g>
   <g id="line2d_87">
    <g clip-path="url(#p6ac1c21615)">
     <use style="fill:#f99619;stroke:#f99619;" x="267.381542" xlink:href="#mfcaa8ca600" y="149.672545"/>
    </g>
   </g>
   <g id="line2d_88">
    <g clip-path="url(#p6ac1c21615)">
     <use style="fill:#f99619;stroke:#f99619;" x="267.421787" xlink:href="#mfcaa8ca600" y="150.399513"/>
    </g>
   </g>
   <g id="line2d_89">
    <g clip-path="url(#p6ac1c21615)">
     <use style="fill:#f89619;stroke:#f89619;" x="267.670998" xlink:href="#md923338b92" y="151.279839"/>
    </g>
   </g>
   <g id="line2d_90">
    <g clip-path="url(#p6ac1c21615)">
     <use style="fill:#f8961a;stroke:#f8961a;" x="267.863844" xlink:href="#mf35ebe9a79" y="152.058248"/>
    </g>
   </g>
   <g id="line2d_91">
    <g clip-path="url(#p6ac1c21615)">
     <use style="fill:#f8961a;stroke:#f8961a;" x="268.10513" xlink:href="#mf35ebe9a79" y="152.664105"/>
    </g>
   </g>
   <g id="line2d_92">
    <g clip-path="url(#p6ac1c21615)">
     <use style="fill:#f8961a;stroke:#f8961a;" x="268.38212" xlink:href="#mf35ebe9a79" y="152.869049"/>
    </g>
   </g>
   <g id="line2d_93">
    <g clip-path="url(#p6ac1c21615)">
     <use style="fill:#f7961b;stroke:#f7961b;" x="269.168415" xlink:href="#m6f3bf69261" y="152.958059"/>
    </g>
   </g>
   <g id="line2d_94">
    <g clip-path="url(#p6ac1c21615)">
     <use style="fill:#f7961c;stroke:#f7961c;" x="270.589878" xlink:href="#m9684a383e0" y="153.075327"/>
    </g>
   </g>
   <g id="line2d_95">
    <g clip-path="url(#p6ac1c21615)">
     <use style="fill:#f6961d;stroke:#f6961d;" x="272.258921" xlink:href="#md46480760e" y="153.20275"/>
    </g>
   </g>
   <g id="line2d_96">
    <g clip-path="url(#p6ac1c21615)">
     <use style="fill:#f6951e;stroke:#f6951e;" x="273.790653" xlink:href="#mcdc852a070" y="153.321234"/>
    </g>
   </g>
   <g id="line2d_97">
    <g clip-path="url(#p6ac1c21615)">
     <use style="fill:#f5951f;stroke:#f5951f;" x="275.360365" xlink:href="#m673af34b9d" y="153.459235"/>
    </g>
   </g>
   <g id="line2d_98">
    <g clip-path="url(#p6ac1c21615)">
     <use style="fill:#f49520;stroke:#f49520;" x="276.835131" xlink:href="#m4aadce513b" y="153.558567"/>
    </g>
   </g>
   <g id="line2d_99">
    <defs>
     <path d="M 0 3 
C 0.795609 3 1.55874 2.683901 2.12132 2.12132 
C 2.683901 1.55874 3 0.795609 3 0 
C 3 -0.795609 2.683901 -1.55874 2.12132 -2.12132 
C 1.55874 -2.683901 0.795609 -3 0 -3 
C -0.795609 -3 -1.55874 -2.683901 -2.12132 -2.12132 
C -2.683901 -1.55874 -3 -0.795609 -3 0 
C -3 0.795609 -2.683901 1.55874 -2.12132 2.12132 
C -1.55874 2.683901 -0.795609 3 0 3 
z
" id="ma7ff38d82b" style="stroke:#f49521;"/>
    </defs>
    <g clip-path="url(#p6ac1c21615)">
     <use style="fill:#f49521;stroke:#f49521;" x="278.483772" xlink:href="#ma7ff38d82b" y="153.661689"/>
    </g>
   </g>
   <g id="line2d_100">
    <g clip-path="url(#p6ac1c21615)">
     <use style="fill:#f39422;stroke:#f39422;" x="279.962195" xlink:href="#mb8335235a7" y="153.793926"/>
    </g>
   </g>
   <g id="line2d_101">
    <g clip-path="url(#p6ac1c21615)">
     <use style="fill:#f39422;stroke:#f39422;" x="281.385678" xlink:href="#mb8335235a7" y="153.928614"/>
    </g>
   </g>
   <g id="line2d_102">
    <g clip-path="url(#p6ac1c21615)">
     <use style="fill:#f29423;stroke:#f29423;" x="282.826758" xlink:href="#m17ffccd2db" y="154.083901"/>
    </g>
   </g>
   <g id="line2d_103">
    <g clip-path="url(#p6ac1c21615)">
     <use style="fill:#f19424;stroke:#f19424;" x="284.335865" xlink:href="#md2bca6101c" y="154.275862"/>
    </g>
   </g>
   <g id="line2d_104">
    <defs>
     <path d="M 0 3 
C 0.795609 3 1.55874 2.683901 2.12132 2.12132 
C 2.683901 1.55874 3 0.795609 3 0 
C 3 -0.795609 2.683901 -1.55874 2.12132 -2.12132 
C 1.55874 -2.683901 0.795609 -3 0 -3 
C -0.795609 -3 -1.55874 -2.683901 -2.12132 -2.12132 
C -2.683901 -1.55874 -3 -0.795609 -3 0 
C -3 0.795609 -2.683901 1.55874 -2.12132 2.12132 
C -1.55874 2.683901 -0.795609 3 0 3 
z
" id="m6698a42a80" style="stroke:#f19325;"/>
    </defs>
    <g clip-path="url(#p6ac1c21615)">
     <use style="fill:#f19325;stroke:#f19325;" x="285.847734" xlink:href="#m6698a42a80" y="154.490557"/>
    </g>
   </g>
   <g id="line2d_105">
    <g clip-path="url(#p6ac1c21615)">
     <use style="fill:#f09325;stroke:#f09325;" x="287.281357" xlink:href="#m2b1cbcb2ba" y="154.604085"/>
    </g>
   </g>
   <g id="line2d_106">
    <defs>
     <path d="M 0 3 
C 0.795609 3 1.55874 2.683901 2.12132 2.12132 
C 2.683901 1.55874 3 0.795609 3 0 
C 3 -0.795609 2.683901 -1.55874 2.12132 -2.12132 
C 1.55874 -2.683901 0.795609 -3 0 -3 
C -0.795609 -3 -1.55874 -2.683901 -2.12132 -2.12132 
C -2.683901 -1.55874 -3 -0.795609 -3 0 
C -3 0.795609 -2.683901 1.55874 -2.12132 2.12132 
C -1.55874 2.683901 -0.795609 3 0 3 
z
" id="m61b9e14e1b" style="stroke:#ef9326;"/>
    </defs>
    <g clip-path="url(#p6ac1c21615)">
     <use style="fill:#ef9326;stroke:#ef9326;" x="288.844714" xlink:href="#m61b9e14e1b" y="154.649586"/>
    </g>
   </g>
   <g id="line2d_107">
    <g clip-path="url(#p6ac1c21615)">
     <use style="fill:#ef9327;stroke:#ef9327;" x="290.420861" xlink:href="#m65665f5061" y="154.769531"/>
    </g>
   </g>
   <g id="line2d_108">
    <g clip-path="url(#p6ac1c21615)">
     <use style="fill:#ee9228;stroke:#ee9228;" x="291.914766" xlink:href="#m9250779238" y="154.880039"/>
    </g>
   </g>
   <g id="line2d_109">
    <g clip-path="url(#p6ac1c21615)">
     <use style="fill:#ee9228;stroke:#ee9228;" x="293.439191" xlink:href="#m9250779238" y="154.500104"/>
    </g>
   </g>
   <g id="line2d_110">
    <g clip-path="url(#p6ac1c21615)">
     <use style="fill:#ed9229;stroke:#ed9229;" x="295.049108" xlink:href="#m8c28f443f8" y="153.920804"/>
    </g>
   </g>
   <g id="line2d_111">
    <defs>
     <path d="M 0 3 
C 0.795609 3 1.55874 2.683901 2.12132 2.12132 
C 2.683901 1.55874 3 0.795609 3 0 
C 3 -0.795609 2.683901 -1.55874 2.12132 -2.12132 
C 1.55874 -2.683901 0.795609 -3 0 -3 
C -0.795609 -3 -1.55874 -2.683901 -2.12132 -2.12132 
C -2.683901 -1.55874 -3 -0.795609 -3 0 
C -3 0.795609 -2.683901 1.55874 -2.12132 2.12132 
C -1.55874 2.683901 -0.795609 3 0 3 
z
" id="mdc32c8b5be" style="stroke:#ed922a;"/>
    </defs>
    <g clip-path="url(#p6ac1c21615)">
     <use style="fill:#ed922a;stroke:#ed922a;" x="296.570126" xlink:href="#mdc32c8b5be" y="153.342086"/>
    </g>
   </g>
   <g id="line2d_112">
    <g clip-path="url(#p6ac1c21615)">
     <use style="fill:#ec922a;stroke:#ec922a;" x="298.011454" xlink:href="#mc4fc39d332" y="152.760834"/>
    </g>
   </g>
   <g id="line2d_113">
    <g clip-path="url(#p6ac1c21615)">
     <use style="fill:#eb912b;stroke:#eb912b;" x="299.692662" xlink:href="#m4c9f0775cc" y="152.307543"/>
    </g>
   </g>
   <g id="line2d_114">
    <g clip-path="url(#p6ac1c21615)">
     <use style="fill:#eb912c;stroke:#eb912c;" x="301.864773" xlink:href="#m9f6617dfdf" y="151.520326"/>
    </g>
   </g>
   <g id="line2d_115">
    <defs>
     <path d="M 0 3 
C 0.795609 3 1.55874 2.683901 2.12132 2.12132 
C 2.683901 1.55874 3 0.795609 3 0 
C 3 -0.795609 2.683901 -1.55874 2.12132 -2.12132 
C 1.55874 -2.683901 0.795609 -3 0 -3 
C -0.795609 -3 -1.55874 -2.683901 -2.12132 -2.12132 
C -2.683901 -1.55874 -3 -0.795609 -3 0 
C -3 0.795609 -2.683901 1.55874 -2.12132 2.12132 
C -1.55874 2.683901 -0.795609 3 0 3 
z
" id="m31aca7e0c0" style="stroke:#ea912c;"/>
    </defs>
    <g clip-path="url(#p6ac1c21615)">
     <use style="fill:#ea912c;stroke:#ea912c;" x="303.784887" xlink:href="#m31aca7e0c0" y="150.574877"/>
    </g>
   </g>
   <g id="line2d_116">
    <defs>
     <path d="M 0 3 
C 0.795609 3 1.55874 2.683901 2.12132 2.12132 
C 2.683901 1.55874 3 0.795609 3 0 
C 3 -0.795609 2.683901 -1.55874 2.12132 -2.12132 
C 1.55874 -2.683901 0.795609 -3 0 -3 
C -0.795609 -3 -1.55874 -2.683901 -2.12132 -2.12132 
C -2.683901 -1.55874 -3 -0.795609 -3 0 
C -3 0.795609 -2.683901 1.55874 -2.12132 2.12132 
C -1.55874 2.683901 -0.795609 3 0 3 
z
" id="m6930aea164" style="stroke:#e9912d;"/>
    </defs>
    <g clip-path="url(#p6ac1c21615)">
     <use style="fill:#e9912d;stroke:#e9912d;" x="305.496708" xlink:href="#m6930aea164" y="149.792558"/>
    </g>
   </g>
   <g id="line2d_117">
    <defs>
     <path d="M 0 3 
C 0.795609 3 1.55874 2.683901 2.12132 2.12132 
C 2.683901 1.55874 3 0.795609 3 0 
C 3 -0.795609 2.683901 -1.55874 2.12132 -2.12132 
C 1.55874 -2.683901 0.795609 -3 0 -3 
C -0.795609 -3 -1.55874 -2.683901 -2.12132 -2.12132 
C -2.683901 -1.55874 -3 -0.795609 -3 0 
C -3 0.795609 -2.683901 1.55874 -2.12132 2.12132 
C -1.55874 2.683901 -0.795609 3 0 3 
z
" id="meeed7dc81b" style="stroke:#e9902d;"/>
    </defs>
    <g clip-path="url(#p6ac1c21615)">
     <use style="fill:#e9902d;stroke:#e9902d;" x="306.930372" xlink:href="#meeed7dc81b" y="149.210784"/>
    </g>
   </g>
   <g id="line2d_118">
    <g clip-path="url(#p6ac1c21615)">
     <use style="fill:#e8902e;stroke:#e8902e;" x="308.250053" xlink:href="#m87fde04259" y="148.702363"/>
    </g>
   </g>
   <g id="line2d_119">
    <g clip-path="url(#p6ac1c21615)">
     <use style="fill:#e8902e;stroke:#e8902e;" x="309.557317" xlink:href="#m87fde04259" y="148.273179"/>
    </g>
   </g>
   <g id="line2d_120">
    <g clip-path="url(#p6ac1c21615)">
     <use style="fill:#e7902f;stroke:#e7902f;" x="310.903903" xlink:href="#m7deb8d5f65" y="148.168057"/>
    </g>
   </g>
   <g id="line2d_121">
    <defs>
     <path d="M 0 3 
C 0.795609 3 1.55874 2.683901 2.12132 2.12132 
C 2.683901 1.55874 3 0.795609 3 0 
C 3 -0.795609 2.683901 -1.55874 2.12132 -2.12132 
C 1.55874 -2.683901 0.795609 -3 0 -3 
C -0.795609 -3 -1.55874 -2.683901 -2.12132 -2.12132 
C -2.683901 -1.55874 -3 -0.795609 -3 0 
C -3 0.795609 -2.683901 1.55874 -2.12132 2.12132 
C -1.55874 2.683901 -0.795609 3 0 3 
z
" id="ma151b24933" style="stroke:#e78f30;"/>
    </defs>
    <g clip-path="url(#p6ac1c21615)">
     <use style="fill:#e78f30;stroke:#e78f30;" x="312.402729" xlink:href="#ma151b24933" y="148.257975"/>
    </g>
   </g>
   <g id="line2d_122">
    <g clip-path="url(#p6ac1c21615)">
     <use style="fill:#e68f30;stroke:#e68f30;" x="313.866798" xlink:href="#mcf9fadd6d0" y="148.36657"/>
    </g>
   </g>
   <g id="patch_3">
    <path d="M 57.6 307.584 
L 57.6 41.472 
" style="fill:none;stroke:#000000;stroke-linecap:square;stroke-linejoin:miter;stroke-width:0.8;"/>
   </g>
   <g id="patch_4">
    <path d="M 414.72 307.584 
L 414.72 41.472 
" style="fill:none;stroke:#000000;stroke-linecap:square;stroke-linejoin:miter;stroke-width:0.8;"/>
   </g>
   <g id="patch_5">
    <path d="M 57.6 307.584 
L 414.72 307.584 
" style="fill:none;stroke:#000000;stroke-linecap:square;stroke-linejoin:miter;stroke-width:0.8;"/>
   </g>
   <g id="patch_6">
    <path d="M 57.6 41.472 
L 414.72 41.472 
" style="fill:none;stroke:#000000;stroke-linecap:square;stroke-linejoin:miter;stroke-width:0.8;"/>
   </g>
  </g>
 </g>
 <defs>
  <clipPath id="p6ac1c21615">
   <rect height="266.112" width="357.12" x="57.6" y="41.472"/>
  </clipPath>
 </defs>
</svg>
