<?xml version="1.0" encoding="utf-8" standalone="no"?>
<!DOCTYPE svg PUBLIC "-//W3C//DTD SVG 1.1//EN"
  "http://www.w3.org/Graphics/SVG/1.1/DTD/svg11.dtd">
<!-- Created with matplotlib (https://matplotlib.org/) -->
<svg height="345.6pt" version="1.1" viewBox="0 0 460.8 345.6" width="460.8pt" xmlns="http://www.w3.org/2000/svg" xmlns:xlink="http://www.w3.org/1999/xlink">
 <metadata>
  <rdf:RDF xmlns:cc="http://creativecommons.org/ns#" xmlns:dc="http://purl.org/dc/elements/1.1/" xmlns:rdf="http://www.w3.org/1999/02/22-rdf-syntax-ns#">
   <cc:Work>
    <dc:type rdf:resource="http://purl.org/dc/dcmitype/StillImage"/>
    <dc:date>2021-02-23T17:29:04.303061</dc:date>
    <dc:format>image/svg+xml</dc:format>
    <dc:creator>
     <cc:Agent>
      <dc:title>Matplotlib v3.3.3, https://matplotlib.org/</dc:title>
     </cc:Agent>
    </dc:creator>
   </cc:Work>
  </rdf:RDF>
 </metadata>
 <defs>
  <style type="text/css">*{stroke-linecap:butt;stroke-linejoin:round;}</style>
 </defs>
 <g id="figure_1">
  <g id="patch_1">
   <path d="M 0 345.6 
L 460.8 345.6 
L 460.8 0 
L 0 0 
z
" style="fill:#ffffff;"/>
  </g>
  <g id="axes_1">
   <g id="patch_2">
    <path d="M 57.6 307.584 
L 414.72 307.584 
L 414.72 41.472 
L 57.6 41.472 
z
" style="fill:#ffffff;"/>
   </g>
   <g id="matplotlib.axis_1">
    <g id="xtick_1">
     <g id="line2d_1">
      <defs>
       <path d="M 0 0 
L 0 3.5 
" id="mc760e8d4ee" style="stroke:#000000;stroke-width:0.8;"/>
      </defs>
      <g>
       <use style="stroke:#000000;stroke-width:0.8;" x="57.6" xlink:href="#mc760e8d4ee" y="307.584"/>
      </g>
     </g>
     <g id="text_1">
      <!-- −1.0 -->
      <g transform="translate(45.458594 322.182437)scale(0.1 -0.1)">
       <defs>
        <path d="M 10.59375 35.5 
L 73.1875 35.5 
L 73.1875 27.203125 
L 10.59375 27.203125 
z
" id="DejaVuSans-8722"/>
        <path d="M 12.40625 8.296875 
L 28.515625 8.296875 
L 28.515625 63.921875 
L 10.984375 60.40625 
L 10.984375 69.390625 
L 28.421875 72.90625 
L 38.28125 72.90625 
L 38.28125 8.296875 
L 54.390625 8.296875 
L 54.390625 0 
L 12.40625 0 
z
" id="DejaVuSans-49"/>
        <path d="M 10.6875 12.40625 
L 21 12.40625 
L 21 0 
L 10.6875 0 
z
" id="DejaVuSans-46"/>
        <path d="M 31.78125 66.40625 
Q 24.171875 66.40625 20.328125 58.90625 
Q 16.5 51.421875 16.5 36.375 
Q 16.5 21.390625 20.328125 13.890625 
Q 24.171875 6.390625 31.78125 6.390625 
Q 39.453125 6.390625 43.28125 13.890625 
Q 47.125 21.390625 47.125 36.375 
Q 47.125 51.421875 43.28125 58.90625 
Q 39.453125 66.40625 31.78125 66.40625 
z
M 31.78125 74.21875 
Q 44.046875 74.21875 50.515625 64.515625 
Q 56.984375 54.828125 56.984375 36.375 
Q 56.984375 17.96875 50.515625 8.265625 
Q 44.046875 -1.421875 31.78125 -1.421875 
Q 19.53125 -1.421875 13.0625 8.265625 
Q 6.59375 17.96875 6.59375 36.375 
Q 6.59375 54.828125 13.0625 64.515625 
Q 19.53125 74.21875 31.78125 74.21875 
z
" id="DejaVuSans-48"/>
       </defs>
       <use xlink:href="#DejaVuSans-8722"/>
       <use x="83.789062" xlink:href="#DejaVuSans-49"/>
       <use x="147.412109" xlink:href="#DejaVuSans-46"/>
       <use x="179.199219" xlink:href="#DejaVuSans-48"/>
      </g>
     </g>
    </g>
    <g id="xtick_2">
     <g id="line2d_2">
      <g>
       <use style="stroke:#000000;stroke-width:0.8;" x="129.024" xlink:href="#mc760e8d4ee" y="307.584"/>
      </g>
     </g>
     <g id="text_2">
      <!-- −0.8 -->
      <g transform="translate(116.882594 322.182437)scale(0.1 -0.1)">
       <defs>
        <path d="M 31.78125 34.625 
Q 24.75 34.625 20.71875 30.859375 
Q 16.703125 27.09375 16.703125 20.515625 
Q 16.703125 13.921875 20.71875 10.15625 
Q 24.75 6.390625 31.78125 6.390625 
Q 38.8125 6.390625 42.859375 10.171875 
Q 46.921875 13.96875 46.921875 20.515625 
Q 46.921875 27.09375 42.890625 30.859375 
Q 38.875 34.625 31.78125 34.625 
z
M 21.921875 38.8125 
Q 15.578125 40.375 12.03125 44.71875 
Q 8.5 49.078125 8.5 55.328125 
Q 8.5 64.0625 14.71875 69.140625 
Q 20.953125 74.21875 31.78125 74.21875 
Q 42.671875 74.21875 48.875 69.140625 
Q 55.078125 64.0625 55.078125 55.328125 
Q 55.078125 49.078125 51.53125 44.71875 
Q 48 40.375 41.703125 38.8125 
Q 48.828125 37.15625 52.796875 32.3125 
Q 56.78125 27.484375 56.78125 20.515625 
Q 56.78125 9.90625 50.3125 4.234375 
Q 43.84375 -1.421875 31.78125 -1.421875 
Q 19.734375 -1.421875 13.25 4.234375 
Q 6.78125 9.90625 6.78125 20.515625 
Q 6.78125 27.484375 10.78125 32.3125 
Q 14.796875 37.15625 21.921875 38.8125 
z
M 18.3125 54.390625 
Q 18.3125 48.734375 21.84375 45.5625 
Q 25.390625 42.390625 31.78125 42.390625 
Q 38.140625 42.390625 41.71875 45.5625 
Q 45.3125 48.734375 45.3125 54.390625 
Q 45.3125 60.0625 41.71875 63.234375 
Q 38.140625 66.40625 31.78125 66.40625 
Q 25.390625 66.40625 21.84375 63.234375 
Q 18.3125 60.0625 18.3125 54.390625 
z
" id="DejaVuSans-56"/>
       </defs>
       <use xlink:href="#DejaVuSans-8722"/>
       <use x="83.789062" xlink:href="#DejaVuSans-48"/>
       <use x="147.412109" xlink:href="#DejaVuSans-46"/>
       <use x="179.199219" xlink:href="#DejaVuSans-56"/>
      </g>
     </g>
    </g>
    <g id="xtick_3">
     <g id="line2d_3">
      <g>
       <use style="stroke:#000000;stroke-width:0.8;" x="200.448" xlink:href="#mc760e8d4ee" y="307.584"/>
      </g>
     </g>
     <g id="text_3">
      <!-- −0.6 -->
      <g transform="translate(188.306594 322.182437)scale(0.1 -0.1)">
       <defs>
        <path d="M 33.015625 40.375 
Q 26.375 40.375 22.484375 35.828125 
Q 18.609375 31.296875 18.609375 23.390625 
Q 18.609375 15.53125 22.484375 10.953125 
Q 26.375 6.390625 33.015625 6.390625 
Q 39.65625 6.390625 43.53125 10.953125 
Q 47.40625 15.53125 47.40625 23.390625 
Q 47.40625 31.296875 43.53125 35.828125 
Q 39.65625 40.375 33.015625 40.375 
z
M 52.59375 71.296875 
L 52.59375 62.3125 
Q 48.875 64.0625 45.09375 64.984375 
Q 41.3125 65.921875 37.59375 65.921875 
Q 27.828125 65.921875 22.671875 59.328125 
Q 17.53125 52.734375 16.796875 39.40625 
Q 19.671875 43.65625 24.015625 45.921875 
Q 28.375 48.1875 33.59375 48.1875 
Q 44.578125 48.1875 50.953125 41.515625 
Q 57.328125 34.859375 57.328125 23.390625 
Q 57.328125 12.15625 50.6875 5.359375 
Q 44.046875 -1.421875 33.015625 -1.421875 
Q 20.359375 -1.421875 13.671875 8.265625 
Q 6.984375 17.96875 6.984375 36.375 
Q 6.984375 53.65625 15.1875 63.9375 
Q 23.390625 74.21875 37.203125 74.21875 
Q 40.921875 74.21875 44.703125 73.484375 
Q 48.484375 72.75 52.59375 71.296875 
z
" id="DejaVuSans-54"/>
       </defs>
       <use xlink:href="#DejaVuSans-8722"/>
       <use x="83.789062" xlink:href="#DejaVuSans-48"/>
       <use x="147.412109" xlink:href="#DejaVuSans-46"/>
       <use x="179.199219" xlink:href="#DejaVuSans-54"/>
      </g>
     </g>
    </g>
    <g id="xtick_4">
     <g id="line2d_4">
      <g>
       <use style="stroke:#000000;stroke-width:0.8;" x="271.872" xlink:href="#mc760e8d4ee" y="307.584"/>
      </g>
     </g>
     <g id="text_4">
      <!-- −0.4 -->
      <g transform="translate(259.730594 322.182437)scale(0.1 -0.1)">
       <defs>
        <path d="M 37.796875 64.3125 
L 12.890625 25.390625 
L 37.796875 25.390625 
z
M 35.203125 72.90625 
L 47.609375 72.90625 
L 47.609375 25.390625 
L 58.015625 25.390625 
L 58.015625 17.1875 
L 47.609375 17.1875 
L 47.609375 0 
L 37.796875 0 
L 37.796875 17.1875 
L 4.890625 17.1875 
L 4.890625 26.703125 
z
" id="DejaVuSans-52"/>
       </defs>
       <use xlink:href="#DejaVuSans-8722"/>
       <use x="83.789062" xlink:href="#DejaVuSans-48"/>
       <use x="147.412109" xlink:href="#DejaVuSans-46"/>
       <use x="179.199219" xlink:href="#DejaVuSans-52"/>
      </g>
     </g>
    </g>
    <g id="xtick_5">
     <g id="line2d_5">
      <g>
       <use style="stroke:#000000;stroke-width:0.8;" x="343.296" xlink:href="#mc760e8d4ee" y="307.584"/>
      </g>
     </g>
     <g id="text_5">
      <!-- −0.2 -->
      <g transform="translate(331.154594 322.182437)scale(0.1 -0.1)">
       <defs>
        <path d="M 19.1875 8.296875 
L 53.609375 8.296875 
L 53.609375 0 
L 7.328125 0 
L 7.328125 8.296875 
Q 12.9375 14.109375 22.625 23.890625 
Q 32.328125 33.6875 34.8125 36.53125 
Q 39.546875 41.84375 41.421875 45.53125 
Q 43.3125 49.21875 43.3125 52.78125 
Q 43.3125 58.59375 39.234375 62.25 
Q 35.15625 65.921875 28.609375 65.921875 
Q 23.96875 65.921875 18.8125 64.3125 
Q 13.671875 62.703125 7.8125 59.421875 
L 7.8125 69.390625 
Q 13.765625 71.78125 18.9375 73 
Q 24.125 74.21875 28.421875 74.21875 
Q 39.75 74.21875 46.484375 68.546875 
Q 53.21875 62.890625 53.21875 53.421875 
Q 53.21875 48.921875 51.53125 44.890625 
Q 49.859375 40.875 45.40625 35.40625 
Q 44.1875 33.984375 37.640625 27.21875 
Q 31.109375 20.453125 19.1875 8.296875 
z
" id="DejaVuSans-50"/>
       </defs>
       <use xlink:href="#DejaVuSans-8722"/>
       <use x="83.789062" xlink:href="#DejaVuSans-48"/>
       <use x="147.412109" xlink:href="#DejaVuSans-46"/>
       <use x="179.199219" xlink:href="#DejaVuSans-50"/>
      </g>
     </g>
    </g>
    <g id="xtick_6">
     <g id="line2d_6">
      <g>
       <use style="stroke:#000000;stroke-width:0.8;" x="414.72" xlink:href="#mc760e8d4ee" y="307.584"/>
      </g>
     </g>
     <g id="text_6">
      <!-- 0.0 -->
      <g transform="translate(406.768438 322.182437)scale(0.1 -0.1)">
       <use xlink:href="#DejaVuSans-48"/>
       <use x="63.623047" xlink:href="#DejaVuSans-46"/>
       <use x="95.410156" xlink:href="#DejaVuSans-48"/>
      </g>
     </g>
    </g>
   </g>
   <g id="matplotlib.axis_2">
    <g id="ytick_1">
     <g id="line2d_7">
      <defs>
       <path d="M 0 0 
L -3.5 0 
" id="mf452bf4fc8" style="stroke:#000000;stroke-width:0.8;"/>
      </defs>
      <g>
       <use style="stroke:#000000;stroke-width:0.8;" x="57.6" xlink:href="#mf452bf4fc8" y="289.260076"/>
      </g>
     </g>
     <g id="text_7">
      <!-- 0.075 -->
      <g transform="translate(21.971875 293.059295)scale(0.1 -0.1)">
       <defs>
        <path d="M 8.203125 72.90625 
L 55.078125 72.90625 
L 55.078125 68.703125 
L 28.609375 0 
L 18.3125 0 
L 43.21875 64.59375 
L 8.203125 64.59375 
z
" id="DejaVuSans-55"/>
        <path d="M 10.796875 72.90625 
L 49.515625 72.90625 
L 49.515625 64.59375 
L 19.828125 64.59375 
L 19.828125 46.734375 
Q 21.96875 47.46875 24.109375 47.828125 
Q 26.265625 48.1875 28.421875 48.1875 
Q 40.625 48.1875 47.75 41.5 
Q 54.890625 34.8125 54.890625 23.390625 
Q 54.890625 11.625 47.5625 5.09375 
Q 40.234375 -1.421875 26.90625 -1.421875 
Q 22.3125 -1.421875 17.546875 -0.640625 
Q 12.796875 0.140625 7.71875 1.703125 
L 7.71875 11.625 
Q 12.109375 9.234375 16.796875 8.0625 
Q 21.484375 6.890625 26.703125 6.890625 
Q 35.15625 6.890625 40.078125 11.328125 
Q 45.015625 15.765625 45.015625 23.390625 
Q 45.015625 31 40.078125 35.4375 
Q 35.15625 39.890625 26.703125 39.890625 
Q 22.75 39.890625 18.8125 39.015625 
Q 14.890625 38.140625 10.796875 36.28125 
z
" id="DejaVuSans-53"/>
       </defs>
       <use xlink:href="#DejaVuSans-48"/>
       <use x="63.623047" xlink:href="#DejaVuSans-46"/>
       <use x="95.410156" xlink:href="#DejaVuSans-48"/>
       <use x="159.033203" xlink:href="#DejaVuSans-55"/>
       <use x="222.65625" xlink:href="#DejaVuSans-53"/>
      </g>
     </g>
    </g>
    <g id="ytick_2">
     <g id="line2d_8">
      <g>
       <use style="stroke:#000000;stroke-width:0.8;" x="57.6" xlink:href="#mf452bf4fc8" y="258.214974"/>
      </g>
     </g>
     <g id="text_8">
      <!-- 0.100 -->
      <g transform="translate(21.971875 262.014193)scale(0.1 -0.1)">
       <use xlink:href="#DejaVuSans-48"/>
       <use x="63.623047" xlink:href="#DejaVuSans-46"/>
       <use x="95.410156" xlink:href="#DejaVuSans-49"/>
       <use x="159.033203" xlink:href="#DejaVuSans-48"/>
       <use x="222.65625" xlink:href="#DejaVuSans-48"/>
      </g>
     </g>
    </g>
    <g id="ytick_3">
     <g id="line2d_9">
      <g>
       <use style="stroke:#000000;stroke-width:0.8;" x="57.6" xlink:href="#mf452bf4fc8" y="227.169872"/>
      </g>
     </g>
     <g id="text_9">
      <!-- 0.125 -->
      <g transform="translate(21.971875 230.969091)scale(0.1 -0.1)">
       <use xlink:href="#DejaVuSans-48"/>
       <use x="63.623047" xlink:href="#DejaVuSans-46"/>
       <use x="95.410156" xlink:href="#DejaVuSans-49"/>
       <use x="159.033203" xlink:href="#DejaVuSans-50"/>
       <use x="222.65625" xlink:href="#DejaVuSans-53"/>
      </g>
     </g>
    </g>
    <g id="ytick_4">
     <g id="line2d_10">
      <g>
       <use style="stroke:#000000;stroke-width:0.8;" x="57.6" xlink:href="#mf452bf4fc8" y="196.12477"/>
      </g>
     </g>
     <g id="text_10">
      <!-- 0.150 -->
      <g transform="translate(21.971875 199.923989)scale(0.1 -0.1)">
       <use xlink:href="#DejaVuSans-48"/>
       <use x="63.623047" xlink:href="#DejaVuSans-46"/>
       <use x="95.410156" xlink:href="#DejaVuSans-49"/>
       <use x="159.033203" xlink:href="#DejaVuSans-53"/>
       <use x="222.65625" xlink:href="#DejaVuSans-48"/>
      </g>
     </g>
    </g>
    <g id="ytick_5">
     <g id="line2d_11">
      <g>
       <use style="stroke:#000000;stroke-width:0.8;" x="57.6" xlink:href="#mf452bf4fc8" y="165.079668"/>
      </g>
     </g>
     <g id="text_11">
      <!-- 0.175 -->
      <g transform="translate(21.971875 168.878887)scale(0.1 -0.1)">
       <use xlink:href="#DejaVuSans-48"/>
       <use x="63.623047" xlink:href="#DejaVuSans-46"/>
       <use x="95.410156" xlink:href="#DejaVuSans-49"/>
       <use x="159.033203" xlink:href="#DejaVuSans-55"/>
       <use x="222.65625" xlink:href="#DejaVuSans-53"/>
      </g>
     </g>
    </g>
    <g id="ytick_6">
     <g id="line2d_12">
      <g>
       <use style="stroke:#000000;stroke-width:0.8;" x="57.6" xlink:href="#mf452bf4fc8" y="134.034566"/>
      </g>
     </g>
     <g id="text_12">
      <!-- 0.200 -->
      <g transform="translate(21.971875 137.833785)scale(0.1 -0.1)">
       <use xlink:href="#DejaVuSans-48"/>
       <use x="63.623047" xlink:href="#DejaVuSans-46"/>
       <use x="95.410156" xlink:href="#DejaVuSans-50"/>
       <use x="159.033203" xlink:href="#DejaVuSans-48"/>
       <use x="222.65625" xlink:href="#DejaVuSans-48"/>
      </g>
     </g>
    </g>
    <g id="ytick_7">
     <g id="line2d_13">
      <g>
       <use style="stroke:#000000;stroke-width:0.8;" x="57.6" xlink:href="#mf452bf4fc8" y="102.989464"/>
      </g>
     </g>
     <g id="text_13">
      <!-- 0.225 -->
      <g transform="translate(21.971875 106.788683)scale(0.1 -0.1)">
       <use xlink:href="#DejaVuSans-48"/>
       <use x="63.623047" xlink:href="#DejaVuSans-46"/>
       <use x="95.410156" xlink:href="#DejaVuSans-50"/>
       <use x="159.033203" xlink:href="#DejaVuSans-50"/>
       <use x="222.65625" xlink:href="#DejaVuSans-53"/>
      </g>
     </g>
    </g>
    <g id="ytick_8">
     <g id="line2d_14">
      <g>
       <use style="stroke:#000000;stroke-width:0.8;" x="57.6" xlink:href="#mf452bf4fc8" y="71.944362"/>
      </g>
     </g>
     <g id="text_14">
      <!-- 0.250 -->
      <g transform="translate(21.971875 75.743581)scale(0.1 -0.1)">
       <use xlink:href="#DejaVuSans-48"/>
       <use x="63.623047" xlink:href="#DejaVuSans-46"/>
       <use x="95.410156" xlink:href="#DejaVuSans-50"/>
       <use x="159.033203" xlink:href="#DejaVuSans-53"/>
       <use x="222.65625" xlink:href="#DejaVuSans-48"/>
      </g>
     </g>
    </g>
   </g>
   <g id="line2d_15">
    <defs>
     <path d="M 0 3 
C 0.795609 3 1.55874 2.683901 2.12132 2.12132 
C 2.683901 1.55874 3 0.795609 3 0 
C 3 -0.795609 2.683901 -1.55874 2.12132 -2.12132 
C 1.55874 -2.683901 0.795609 -3 0 -3 
C -0.795609 -3 -1.55874 -2.683901 -2.12132 -2.12132 
C -2.683901 -1.55874 -3 -0.795609 -3 0 
C -3 0.795609 -2.683901 1.55874 -2.12132 2.12132 
C -1.55874 2.683901 -0.795609 3 0 3 
z
" id="mdefa638eb9" style="stroke:#666666;"/>
    </defs>
    <g clip-path="url(#pc52daf7e92)">
     <use style="fill:#666666;stroke:#666666;" x="222.737837" xlink:href="#mdefa638eb9" y="53.568586"/>
    </g>
   </g>
   <g id="line2d_16">
    <g clip-path="url(#pc52daf7e92)">
     <use style="fill:#666666;stroke:#666666;" x="222.73809" xlink:href="#mdefa638eb9" y="53.568354"/>
    </g>
   </g>
   <g id="line2d_17">
    <g clip-path="url(#pc52daf7e92)">
     <use style="fill:#666666;stroke:#666666;" x="222.737619" xlink:href="#mdefa638eb9" y="53.568"/>
    </g>
   </g>
   <g id="line2d_18">
    <g clip-path="url(#pc52daf7e92)">
     <use style="fill:#666666;stroke:#666666;" x="222.737116" xlink:href="#mdefa638eb9" y="53.568804"/>
    </g>
   </g>
   <g id="line2d_19">
    <g clip-path="url(#pc52daf7e92)">
     <use style="fill:#666666;stroke:#666666;" x="222.737504" xlink:href="#mdefa638eb9" y="53.568606"/>
    </g>
   </g>
   <g id="line2d_20">
    <g clip-path="url(#pc52daf7e92)">
     <use style="fill:#666666;stroke:#666666;" x="222.789566" xlink:href="#mdefa638eb9" y="53.884635"/>
    </g>
   </g>
   <g id="line2d_21">
    <g clip-path="url(#pc52daf7e92)">
     <use style="fill:#666666;stroke:#666666;" x="222.814991" xlink:href="#mdefa638eb9" y="54.469269"/>
    </g>
   </g>
   <g id="line2d_22">
    <g clip-path="url(#pc52daf7e92)">
     <use style="fill:#666666;stroke:#666666;" x="222.81594" xlink:href="#mdefa638eb9" y="55.167351"/>
    </g>
   </g>
   <g id="line2d_23">
    <g clip-path="url(#pc52daf7e92)">
     <use style="fill:#666666;stroke:#666666;" x="222.876971" xlink:href="#mdefa638eb9" y="55.596211"/>
    </g>
   </g>
   <g id="line2d_24">
    <g clip-path="url(#pc52daf7e92)">
     <use style="fill:#666666;stroke:#666666;" x="222.821701" xlink:href="#mdefa638eb9" y="55.84235"/>
    </g>
   </g>
   <g id="line2d_25">
    <g clip-path="url(#pc52daf7e92)">
     <use style="fill:#666666;stroke:#666666;" x="222.92966" xlink:href="#mdefa638eb9" y="56.132809"/>
    </g>
   </g>
   <g id="line2d_26">
    <g clip-path="url(#pc52daf7e92)">
     <use style="fill:#666666;stroke:#666666;" x="224.256264" xlink:href="#mdefa638eb9" y="56.045197"/>
    </g>
   </g>
   <g id="line2d_27">
    <g clip-path="url(#pc52daf7e92)">
     <use style="fill:#666666;stroke:#666666;" x="227.561381" xlink:href="#mdefa638eb9" y="55.970824"/>
    </g>
   </g>
   <g id="line2d_28">
    <g clip-path="url(#pc52daf7e92)">
     <use style="fill:#666666;stroke:#666666;" x="231.024719" xlink:href="#mdefa638eb9" y="56.21508"/>
    </g>
   </g>
   <g id="line2d_29">
    <g clip-path="url(#pc52daf7e92)">
     <use style="fill:#666666;stroke:#666666;" x="235.03926" xlink:href="#mdefa638eb9" y="56.528247"/>
    </g>
   </g>
   <g id="line2d_30">
    <g clip-path="url(#pc52daf7e92)">
     <use style="fill:#666666;stroke:#666666;" x="238.676364" xlink:href="#mdefa638eb9" y="57.054655"/>
    </g>
   </g>
   <g id="line2d_31">
    <g clip-path="url(#pc52daf7e92)">
     <use style="fill:#666666;stroke:#666666;" x="242.063889" xlink:href="#mdefa638eb9" y="57.329278"/>
    </g>
   </g>
   <g id="line2d_32">
    <g clip-path="url(#pc52daf7e92)">
     <use style="fill:#666666;stroke:#666666;" x="243.214026" xlink:href="#mdefa638eb9" y="57.841823"/>
    </g>
   </g>
   <g id="line2d_33">
    <g clip-path="url(#pc52daf7e92)">
     <use style="fill:#666666;stroke:#666666;" x="243.818469" xlink:href="#mdefa638eb9" y="58.205365"/>
    </g>
   </g>
   <g id="line2d_34">
    <defs>
     <path d="M 0 3 
C 0.795609 3 1.55874 2.683901 2.12132 2.12132 
C 2.683901 1.55874 3 0.795609 3 0 
C 3 -0.795609 2.683901 -1.55874 2.12132 -2.12132 
C 1.55874 -2.683901 0.795609 -3 0 -3 
C -0.795609 -3 -1.55874 -2.683901 -2.12132 -2.12132 
C -2.683901 -1.55874 -3 -0.795609 -3 0 
C -3 0.795609 -2.683901 1.55874 -2.12132 2.12132 
C -1.55874 2.683901 -0.795609 3 0 3 
z
" id="m9f8bb77d3b" style="stroke:#ff9900;"/>
    </defs>
    <g clip-path="url(#pc52daf7e92)">
     <use style="fill:#ff9900;stroke:#ff9900;" x="244.143673" xlink:href="#m9f8bb77d3b" y="58.599939"/>
    </g>
   </g>
   <g id="line2d_35">
    <g clip-path="url(#pc52daf7e92)">
     <use style="fill:#ff9900;stroke:#ff9900;" x="244.653782" xlink:href="#m9f8bb77d3b" y="59.692096"/>
    </g>
   </g>
   <g id="line2d_36">
    <g clip-path="url(#pc52daf7e92)">
     <use style="fill:#ff9900;stroke:#ff9900;" x="245.271649" xlink:href="#m9f8bb77d3b" y="61.129871"/>
    </g>
   </g>
   <g id="line2d_37">
    <g clip-path="url(#pc52daf7e92)">
     <use style="fill:#ff9900;stroke:#ff9900;" x="245.910427" xlink:href="#m9f8bb77d3b" y="63.235226"/>
    </g>
   </g>
   <g id="line2d_38">
    <g clip-path="url(#pc52daf7e92)">
     <use style="fill:#ff9900;stroke:#ff9900;" x="246.260278" xlink:href="#m9f8bb77d3b" y="64.416772"/>
    </g>
   </g>
   <g id="line2d_39">
    <g clip-path="url(#pc52daf7e92)">
     <use style="fill:#ff9900;stroke:#ff9900;" x="246.495004" xlink:href="#m9f8bb77d3b" y="65.238577"/>
    </g>
   </g>
   <g id="line2d_40">
    <g clip-path="url(#pc52daf7e92)">
     <use style="fill:#ff9900;stroke:#ff9900;" x="246.970262" xlink:href="#m9f8bb77d3b" y="66.459371"/>
    </g>
   </g>
   <g id="line2d_41">
    <g clip-path="url(#pc52daf7e92)">
     <use style="fill:#ff9900;stroke:#ff9900;" x="247.47827" xlink:href="#m9f8bb77d3b" y="67.480502"/>
    </g>
   </g>
   <g id="line2d_42">
    <g clip-path="url(#pc52daf7e92)">
     <use style="fill:#ff9900;stroke:#ff9900;" x="248.043951" xlink:href="#m9f8bb77d3b" y="68.683575"/>
    </g>
   </g>
   <g id="line2d_43">
    <g clip-path="url(#pc52daf7e92)">
     <use style="fill:#ff9900;stroke:#ff9900;" x="248.626351" xlink:href="#m9f8bb77d3b" y="69.892049"/>
    </g>
   </g>
   <g id="line2d_44">
    <g clip-path="url(#pc52daf7e92)">
     <use style="fill:#ff9900;stroke:#ff9900;" x="249.14442" xlink:href="#m9f8bb77d3b" y="70.987351"/>
    </g>
   </g>
   <g id="line2d_45">
    <g clip-path="url(#pc52daf7e92)">
     <use style="fill:#ff9900;stroke:#ff9900;" x="249.64058" xlink:href="#m9f8bb77d3b" y="72.268129"/>
    </g>
   </g>
   <g id="line2d_46">
    <g clip-path="url(#pc52daf7e92)">
     <use style="fill:#ff9900;stroke:#ff9900;" x="250.15832" xlink:href="#m9f8bb77d3b" y="73.678013"/>
    </g>
   </g>
   <g id="line2d_47">
    <g clip-path="url(#pc52daf7e92)">
     <use style="fill:#ff9900;stroke:#ff9900;" x="250.705769" xlink:href="#m9f8bb77d3b" y="74.875353"/>
    </g>
   </g>
   <g id="line2d_48">
    <g clip-path="url(#pc52daf7e92)">
     <use style="fill:#ff9900;stroke:#ff9900;" x="251.975518" xlink:href="#m9f8bb77d3b" y="75.918015"/>
    </g>
   </g>
   <g id="line2d_49">
    <g clip-path="url(#pc52daf7e92)">
     <use style="fill:#ff9900;stroke:#ff9900;" x="254.798469" xlink:href="#m9f8bb77d3b" y="77.054325"/>
    </g>
   </g>
   <g id="line2d_50">
    <g clip-path="url(#pc52daf7e92)">
     <use style="fill:#ff9900;stroke:#ff9900;" x="257.801196" xlink:href="#m9f8bb77d3b" y="78.425789"/>
    </g>
   </g>
   <g id="line2d_51">
    <g clip-path="url(#pc52daf7e92)">
     <use style="fill:#ff9900;stroke:#ff9900;" x="260.739562" xlink:href="#m9f8bb77d3b" y="79.738644"/>
    </g>
   </g>
   <g id="line2d_52">
    <g clip-path="url(#pc52daf7e92)">
     <use style="fill:#ff9900;stroke:#ff9900;" x="263.793188" xlink:href="#m9f8bb77d3b" y="81.10533"/>
    </g>
   </g>
   <g id="line2d_53">
    <g clip-path="url(#pc52daf7e92)">
     <use style="fill:#ff9900;stroke:#ff9900;" x="266.585397" xlink:href="#m9f8bb77d3b" y="82.495049"/>
    </g>
   </g>
   <g id="line2d_54">
    <g clip-path="url(#pc52daf7e92)">
     <use style="fill:#ff9900;stroke:#ff9900;" x="268.622982" xlink:href="#m9f8bb77d3b" y="84.158419"/>
    </g>
   </g>
   <g id="line2d_55">
    <g clip-path="url(#pc52daf7e92)">
     <use style="fill:#ff9900;stroke:#ff9900;" x="269.097879" xlink:href="#m9f8bb77d3b" y="85.223174"/>
    </g>
   </g>
   <g id="line2d_56">
    <g clip-path="url(#pc52daf7e92)">
     <use style="fill:#ff9900;stroke:#ff9900;" x="269.616865" xlink:href="#m9f8bb77d3b" y="86.615893"/>
    </g>
   </g>
   <g id="line2d_57">
    <g clip-path="url(#pc52daf7e92)">
     <use style="fill:#ff9900;stroke:#ff9900;" x="270.188356" xlink:href="#m9f8bb77d3b" y="87.870069"/>
    </g>
   </g>
   <g id="line2d_58">
    <g clip-path="url(#pc52daf7e92)">
     <use style="fill:#ff9900;stroke:#ff9900;" x="270.818475" xlink:href="#m9f8bb77d3b" y="89.377071"/>
    </g>
   </g>
   <g id="line2d_59">
    <g clip-path="url(#pc52daf7e92)">
     <use style="fill:#ff9900;stroke:#ff9900;" x="271.291778" xlink:href="#m9f8bb77d3b" y="90.76955"/>
    </g>
   </g>
   <g id="line2d_60">
    <defs>
     <path d="M 0 3 
C 0.795609 3 1.55874 2.683901 2.12132 2.12132 
C 2.683901 1.55874 3 0.795609 3 0 
C 3 -0.795609 2.683901 -1.55874 2.12132 -2.12132 
C 1.55874 -2.683901 0.795609 -3 0 -3 
C -0.795609 -3 -1.55874 -2.683901 -2.12132 -2.12132 
C -2.683901 -1.55874 -3 -0.795609 -3 0 
C -3 0.795609 -2.683901 1.55874 -2.12132 2.12132 
C -1.55874 2.683901 -0.795609 3 0 3 
z
" id="me131e8e8b1" style="stroke:#ff9902;"/>
    </defs>
    <g clip-path="url(#pc52daf7e92)">
     <use style="fill:#ff9902;stroke:#ff9902;" x="271.703331" xlink:href="#me131e8e8b1" y="92.132127"/>
    </g>
   </g>
   <g id="line2d_61">
    <defs>
     <path d="M 0 3 
C 0.795609 3 1.55874 2.683901 2.12132 2.12132 
C 2.683901 1.55874 3 0.795609 3 0 
C 3 -0.795609 2.683901 -1.55874 2.12132 -2.12132 
C 1.55874 -2.683901 0.795609 -3 0 -3 
C -0.795609 -3 -1.55874 -2.683901 -2.12132 -2.12132 
C -2.683901 -1.55874 -3 -0.795609 -3 0 
C -3 0.795609 -2.683901 1.55874 -2.12132 2.12132 
C -1.55874 2.683901 -0.795609 3 0 3 
z
" id="me4d8c4c3ed" style="stroke:#ff9904;"/>
    </defs>
    <g clip-path="url(#pc52daf7e92)">
     <use style="fill:#ff9904;stroke:#ff9904;" x="272.16437" xlink:href="#me4d8c4c3ed" y="93.559101"/>
    </g>
   </g>
   <g id="line2d_62">
    <g clip-path="url(#pc52daf7e92)">
     <use style="fill:#ff9904;stroke:#ff9904;" x="272.747937" xlink:href="#me4d8c4c3ed" y="95.061731"/>
    </g>
   </g>
   <g id="line2d_63">
    <defs>
     <path d="M 0 3 
C 0.795609 3 1.55874 2.683901 2.12132 2.12132 
C 2.683901 1.55874 3 0.795609 3 0 
C 3 -0.795609 2.683901 -1.55874 2.12132 -2.12132 
C 1.55874 -2.683901 0.795609 -3 0 -3 
C -0.795609 -3 -1.55874 -2.683901 -2.12132 -2.12132 
C -2.683901 -1.55874 -3 -0.795609 -3 0 
C -3 0.795609 -2.683901 1.55874 -2.12132 2.12132 
C -1.55874 2.683901 -0.795609 3 0 3 
z
" id="mba8e90c787" style="stroke:#ff9905;"/>
    </defs>
    <g clip-path="url(#pc52daf7e92)">
     <use style="fill:#ff9905;stroke:#ff9905;" x="273.416749" xlink:href="#mba8e90c787" y="96.956156"/>
    </g>
   </g>
   <g id="line2d_64">
    <defs>
     <path d="M 0 3 
C 0.795609 3 1.55874 2.683901 2.12132 2.12132 
C 2.683901 1.55874 3 0.795609 3 0 
C 3 -0.795609 2.683901 -1.55874 2.12132 -2.12132 
C 1.55874 -2.683901 0.795609 -3 0 -3 
C -0.795609 -3 -1.55874 -2.683901 -2.12132 -2.12132 
C -2.683901 -1.55874 -3 -0.795609 -3 0 
C -3 0.795609 -2.683901 1.55874 -2.12132 2.12132 
C -1.55874 2.683901 -0.795609 3 0 3 
z
" id="mf8f34e99ee" style="stroke:#fe9907;"/>
    </defs>
    <g clip-path="url(#pc52daf7e92)">
     <use style="fill:#fe9907;stroke:#fe9907;" x="274.375325" xlink:href="#mf8f34e99ee" y="101.249485"/>
    </g>
   </g>
   <g id="line2d_65">
    <defs>
     <path d="M 0 3 
C 0.795609 3 1.55874 2.683901 2.12132 2.12132 
C 2.683901 1.55874 3 0.795609 3 0 
C 3 -0.795609 2.683901 -1.55874 2.12132 -2.12132 
C 1.55874 -2.683901 0.795609 -3 0 -3 
C -0.795609 -3 -1.55874 -2.683901 -2.12132 -2.12132 
C -2.683901 -1.55874 -3 -0.795609 -3 0 
C -3 0.795609 -2.683901 1.55874 -2.12132 2.12132 
C -1.55874 2.683901 -0.795609 3 0 3 
z
" id="m8205fce5c4" style="stroke:#fe9909;"/>
    </defs>
    <g clip-path="url(#pc52daf7e92)">
     <use style="fill:#fe9909;stroke:#fe9909;" x="275.278342" xlink:href="#m8205fce5c4" y="106.568091"/>
    </g>
   </g>
   <g id="line2d_66">
    <defs>
     <path d="M 0 3 
C 0.795609 3 1.55874 2.683901 2.12132 2.12132 
C 2.683901 1.55874 3 0.795609 3 0 
C 3 -0.795609 2.683901 -1.55874 2.12132 -2.12132 
C 1.55874 -2.683901 0.795609 -3 0 -3 
C -0.795609 -3 -1.55874 -2.683901 -2.12132 -2.12132 
C -2.683901 -1.55874 -3 -0.795609 -3 0 
C -3 0.795609 -2.683901 1.55874 -2.12132 2.12132 
C -1.55874 2.683901 -0.795609 3 0 3 
z
" id="mb2f5a9f7c7" style="stroke:#fe990a;"/>
    </defs>
    <g clip-path="url(#pc52daf7e92)">
     <use style="fill:#fe990a;stroke:#fe990a;" x="275.814023" xlink:href="#mb2f5a9f7c7" y="111.420842"/>
    </g>
   </g>
   <g id="line2d_67">
    <defs>
     <path d="M 0 3 
C 0.795609 3 1.55874 2.683901 2.12132 2.12132 
C 2.683901 1.55874 3 0.795609 3 0 
C 3 -0.795609 2.683901 -1.55874 2.12132 -2.12132 
C 1.55874 -2.683901 0.795609 -3 0 -3 
C -0.795609 -3 -1.55874 -2.683901 -2.12132 -2.12132 
C -2.683901 -1.55874 -3 -0.795609 -3 0 
C -3 0.795609 -2.683901 1.55874 -2.12132 2.12132 
C -1.55874 2.683901 -0.795609 3 0 3 
z
" id="m930706e8c4" style="stroke:#fe980b;"/>
    </defs>
    <g clip-path="url(#pc52daf7e92)">
     <use style="fill:#fe980b;stroke:#fe980b;" x="276.241049" xlink:href="#m930706e8c4" y="116.415149"/>
    </g>
   </g>
   <g id="line2d_68">
    <defs>
     <path d="M 0 3 
C 0.795609 3 1.55874 2.683901 2.12132 2.12132 
C 2.683901 1.55874 3 0.795609 3 0 
C 3 -0.795609 2.683901 -1.55874 2.12132 -2.12132 
C 1.55874 -2.683901 0.795609 -3 0 -3 
C -0.795609 -3 -1.55874 -2.683901 -2.12132 -2.12132 
C -2.683901 -1.55874 -3 -0.795609 -3 0 
C -3 0.795609 -2.683901 1.55874 -2.12132 2.12132 
C -1.55874 2.683901 -0.795609 3 0 3 
z
" id="macf2f1eed1" style="stroke:#fd980c;"/>
    </defs>
    <g clip-path="url(#pc52daf7e92)">
     <use style="fill:#fd980c;stroke:#fd980c;" x="276.677811" xlink:href="#macf2f1eed1" y="121.800064"/>
    </g>
   </g>
   <g id="line2d_69">
    <defs>
     <path d="M 0 3 
C 0.795609 3 1.55874 2.683901 2.12132 2.12132 
C 2.683901 1.55874 3 0.795609 3 0 
C 3 -0.795609 2.683901 -1.55874 2.12132 -2.12132 
C 1.55874 -2.683901 0.795609 -3 0 -3 
C -0.795609 -3 -1.55874 -2.683901 -2.12132 -2.12132 
C -2.683901 -1.55874 -3 -0.795609 -3 0 
C -3 0.795609 -2.683901 1.55874 -2.12132 2.12132 
C -1.55874 2.683901 -0.795609 3 0 3 
z
" id="m825c11d12d" style="stroke:#fd980d;"/>
    </defs>
    <g clip-path="url(#pc52daf7e92)">
     <use style="fill:#fd980d;stroke:#fd980d;" x="277.135773" xlink:href="#m825c11d12d" y="126.203277"/>
    </g>
   </g>
   <g id="line2d_70">
    <g clip-path="url(#pc52daf7e92)">
     <use style="fill:#fd980d;stroke:#fd980d;" x="277.555399" xlink:href="#m825c11d12d" y="127.513449"/>
    </g>
   </g>
   <g id="line2d_71">
    <defs>
     <path d="M 0 3 
C 0.795609 3 1.55874 2.683901 2.12132 2.12132 
C 2.683901 1.55874 3 0.795609 3 0 
C 3 -0.795609 2.683901 -1.55874 2.12132 -2.12132 
C 1.55874 -2.683901 0.795609 -3 0 -3 
C -0.795609 -3 -1.55874 -2.683901 -2.12132 -2.12132 
C -2.683901 -1.55874 -3 -0.795609 -3 0 
C -3 0.795609 -2.683901 1.55874 -2.12132 2.12132 
C -1.55874 2.683901 -0.795609 3 0 3 
z
" id="m730d2de3f4" style="stroke:#fd980e;"/>
    </defs>
    <g clip-path="url(#pc52daf7e92)">
     <use style="fill:#fd980e;stroke:#fd980e;" x="277.917017" xlink:href="#m730d2de3f4" y="128.489711"/>
    </g>
   </g>
   <g id="line2d_72">
    <g clip-path="url(#pc52daf7e92)">
     <use style="fill:#fd980e;stroke:#fd980e;" x="278.31757" xlink:href="#m730d2de3f4" y="129.776759"/>
    </g>
   </g>
   <g id="line2d_73">
    <g clip-path="url(#pc52daf7e92)">
     <use style="fill:#fd980e;stroke:#fd980e;" x="278.742688" xlink:href="#m730d2de3f4" y="130.962618"/>
    </g>
   </g>
   <g id="line2d_74">
    <g clip-path="url(#pc52daf7e92)">
     <use style="fill:#fd980e;stroke:#fd980e;" x="279.131542" xlink:href="#m730d2de3f4" y="131.841475"/>
    </g>
   </g>
   <g id="line2d_75">
    <defs>
     <path d="M 0 3 
C 0.795609 3 1.55874 2.683901 2.12132 2.12132 
C 2.683901 1.55874 3 0.795609 3 0 
C 3 -0.795609 2.683901 -1.55874 2.12132 -2.12132 
C 1.55874 -2.683901 0.795609 -3 0 -3 
C -0.795609 -3 -1.55874 -2.683901 -2.12132 -2.12132 
C -2.683901 -1.55874 -3 -0.795609 -3 0 
C -3 0.795609 -2.683901 1.55874 -2.12132 2.12132 
C -1.55874 2.683901 -0.795609 3 0 3 
z
" id="meb6ea049f8" style="stroke:#fd980f;"/>
    </defs>
    <g clip-path="url(#pc52daf7e92)">
     <use style="fill:#fd980f;stroke:#fd980f;" x="279.44205" xlink:href="#meb6ea049f8" y="132.922614"/>
    </g>
   </g>
   <g id="line2d_76">
    <g clip-path="url(#pc52daf7e92)">
     <use style="fill:#fd980f;stroke:#fd980f;" x="280.036151" xlink:href="#meb6ea049f8" y="134.141205"/>
    </g>
   </g>
   <g id="line2d_77">
    <g clip-path="url(#pc52daf7e92)">
     <use style="fill:#fd980f;stroke:#fd980f;" x="282.228018" xlink:href="#meb6ea049f8" y="135.198758"/>
    </g>
   </g>
   <g id="line2d_78">
    <g clip-path="url(#pc52daf7e92)">
     <use style="fill:#fd980f;stroke:#fd980f;" x="284.993482" xlink:href="#meb6ea049f8" y="136.433569"/>
    </g>
   </g>
   <g id="line2d_79">
    <g clip-path="url(#pc52daf7e92)">
     <use style="fill:#fd980f;stroke:#fd980f;" x="287.670214" xlink:href="#meb6ea049f8" y="137.695161"/>
    </g>
   </g>
   <g id="line2d_80">
    <g clip-path="url(#pc52daf7e92)">
     <use style="fill:#fd980f;stroke:#fd980f;" x="290.396926" xlink:href="#meb6ea049f8" y="138.77011"/>
    </g>
   </g>
   <g id="line2d_81">
    <g clip-path="url(#pc52daf7e92)">
     <use style="fill:#fd980f;stroke:#fd980f;" x="293.121094" xlink:href="#meb6ea049f8" y="140.079821"/>
    </g>
   </g>
   <g id="line2d_82">
    <g clip-path="url(#pc52daf7e92)">
     <use style="fill:#fd980f;stroke:#fd980f;" x="296.039198" xlink:href="#meb6ea049f8" y="141.465942"/>
    </g>
   </g>
   <g id="line2d_83">
    <g clip-path="url(#pc52daf7e92)">
     <use style="fill:#fd980f;stroke:#fd980f;" x="298.737467" xlink:href="#meb6ea049f8" y="143.005864"/>
    </g>
   </g>
   <g id="line2d_84">
    <g clip-path="url(#pc52daf7e92)">
     <use style="fill:#fd980f;stroke:#fd980f;" x="301.723606" xlink:href="#meb6ea049f8" y="144.626332"/>
    </g>
   </g>
   <g id="line2d_85">
    <g clip-path="url(#pc52daf7e92)">
     <use style="fill:#fd980f;stroke:#fd980f;" x="304.338852" xlink:href="#meb6ea049f8" y="145.927154"/>
    </g>
   </g>
   <g id="line2d_86">
    <defs>
     <path d="M 0 3 
C 0.795609 3 1.55874 2.683901 2.12132 2.12132 
C 2.683901 1.55874 3 0.795609 3 0 
C 3 -0.795609 2.683901 -1.55874 2.12132 -2.12132 
C 1.55874 -2.683901 0.795609 -3 0 -3 
C -0.795609 -3 -1.55874 -2.683901 -2.12132 -2.12132 
C -2.683901 -1.55874 -3 -0.795609 -3 0 
C -3 0.795609 -2.683901 1.55874 -2.12132 2.12132 
C -1.55874 2.683901 -0.795609 3 0 3 
z
" id="m1bcffda572" style="stroke:#fc9810;"/>
    </defs>
    <g clip-path="url(#pc52daf7e92)">
     <use style="fill:#fc9810;stroke:#fc9810;" x="305.892984" xlink:href="#m1bcffda572" y="147.224026"/>
    </g>
   </g>
   <g id="line2d_87">
    <g clip-path="url(#pc52daf7e92)">
     <use style="fill:#fc9810;stroke:#fc9810;" x="306.443454" xlink:href="#m1bcffda572" y="148.598662"/>
    </g>
   </g>
   <g id="line2d_88">
    <g clip-path="url(#pc52daf7e92)">
     <use style="fill:#fc9810;stroke:#fc9810;" x="306.890466" xlink:href="#m1bcffda572" y="149.804798"/>
    </g>
   </g>
   <g id="line2d_89">
    <g clip-path="url(#pc52daf7e92)">
     <use style="fill:#fc9810;stroke:#fc9810;" x="307.187299" xlink:href="#m1bcffda572" y="150.621999"/>
    </g>
   </g>
   <g id="line2d_90">
    <defs>
     <path d="M 0 3 
C 0.795609 3 1.55874 2.683901 2.12132 2.12132 
C 2.683901 1.55874 3 0.795609 3 0 
C 3 -0.795609 2.683901 -1.55874 2.12132 -2.12132 
C 1.55874 -2.683901 0.795609 -3 0 -3 
C -0.795609 -3 -1.55874 -2.683901 -2.12132 -2.12132 
C -2.683901 -1.55874 -3 -0.795609 -3 0 
C -3 0.795609 -2.683901 1.55874 -2.12132 2.12132 
C -1.55874 2.683901 -0.795609 3 0 3 
z
" id="med67b8a578" style="stroke:#fc9811;"/>
    </defs>
    <g clip-path="url(#pc52daf7e92)">
     <use style="fill:#fc9811;stroke:#fc9811;" x="307.53556" xlink:href="#med67b8a578" y="151.827633"/>
    </g>
   </g>
   <g id="line2d_91">
    <g clip-path="url(#pc52daf7e92)">
     <use style="fill:#fc9811;stroke:#fc9811;" x="307.910995" xlink:href="#med67b8a578" y="153.033061"/>
    </g>
   </g>
   <g id="line2d_92">
    <g clip-path="url(#pc52daf7e92)">
     <use style="fill:#fc9811;stroke:#fc9811;" x="308.577917" xlink:href="#med67b8a578" y="153.824853"/>
    </g>
   </g>
   <g id="line2d_93">
    <g clip-path="url(#pc52daf7e92)">
     <use style="fill:#fc9811;stroke:#fc9811;" x="310.752627" xlink:href="#med67b8a578" y="154.835895"/>
    </g>
   </g>
   <g id="line2d_94">
    <g clip-path="url(#pc52daf7e92)">
     <use style="fill:#fc9811;stroke:#fc9811;" x="313.329839" xlink:href="#med67b8a578" y="156.168232"/>
    </g>
   </g>
   <g id="line2d_95">
    <g clip-path="url(#pc52daf7e92)">
     <use style="fill:#fc9811;stroke:#fc9811;" x="316.054307" xlink:href="#med67b8a578" y="157.444143"/>
    </g>
   </g>
   <g id="line2d_96">
    <g clip-path="url(#pc52daf7e92)">
     <use style="fill:#fc9811;stroke:#fc9811;" x="318.719055" xlink:href="#med67b8a578" y="158.339305"/>
    </g>
   </g>
   <g id="line2d_97">
    <g clip-path="url(#pc52daf7e92)">
     <use style="fill:#fc9811;stroke:#fc9811;" x="321.426791" xlink:href="#med67b8a578" y="159.530237"/>
    </g>
   </g>
   <g id="line2d_98">
    <defs>
     <path d="M 0 3 
C 0.795609 3 1.55874 2.683901 2.12132 2.12132 
C 2.683901 1.55874 3 0.795609 3 0 
C 3 -0.795609 2.683901 -1.55874 2.12132 -2.12132 
C 1.55874 -2.683901 0.795609 -3 0 -3 
C -0.795609 -3 -1.55874 -2.683901 -2.12132 -2.12132 
C -2.683901 -1.55874 -3 -0.795609 -3 0 
C -3 0.795609 -2.683901 1.55874 -2.12132 2.12132 
C -1.55874 2.683901 -0.795609 3 0 3 
z
" id="mf16b911110" style="stroke:#fc9812;"/>
    </defs>
    <g clip-path="url(#pc52daf7e92)">
     <use style="fill:#fc9812;stroke:#fc9812;" x="323.203716" xlink:href="#mf16b911110" y="160.632948"/>
    </g>
   </g>
   <g id="line2d_99">
    <g clip-path="url(#pc52daf7e92)">
     <use style="fill:#fc9812;stroke:#fc9812;" x="323.730972" xlink:href="#mf16b911110" y="161.537028"/>
    </g>
   </g>
   <g id="line2d_100">
    <g clip-path="url(#pc52daf7e92)">
     <use style="fill:#fc9812;stroke:#fc9812;" x="324.150578" xlink:href="#mf16b911110" y="162.594579"/>
    </g>
   </g>
   <g id="line2d_101">
    <g clip-path="url(#pc52daf7e92)">
     <use style="fill:#fc9812;stroke:#fc9812;" x="324.440389" xlink:href="#mf16b911110" y="163.502605"/>
    </g>
   </g>
   <g id="line2d_102">
    <g clip-path="url(#pc52daf7e92)">
     <use style="fill:#fc9812;stroke:#fc9812;" x="324.733197" xlink:href="#mf16b911110" y="164.238765"/>
    </g>
   </g>
   <g id="line2d_103">
    <defs>
     <path d="M 0 3 
C 0.795609 3 1.55874 2.683901 2.12132 2.12132 
C 2.683901 1.55874 3 0.795609 3 0 
C 3 -0.795609 2.683901 -1.55874 2.12132 -2.12132 
C 1.55874 -2.683901 0.795609 -3 0 -3 
C -0.795609 -3 -1.55874 -2.683901 -2.12132 -2.12132 
C -2.683901 -1.55874 -3 -0.795609 -3 0 
C -3 0.795609 -2.683901 1.55874 -2.12132 2.12132 
C -1.55874 2.683901 -0.795609 3 0 3 
z
" id="mecf2f0a333" style="stroke:#fb9813;"/>
    </defs>
    <g clip-path="url(#pc52daf7e92)">
     <use style="fill:#fb9813;stroke:#fb9813;" x="325.113357" xlink:href="#mecf2f0a333" y="165.343123"/>
    </g>
   </g>
   <g id="line2d_104">
    <g clip-path="url(#pc52daf7e92)">
     <use style="fill:#fb9813;stroke:#fb9813;" x="325.46981" xlink:href="#mecf2f0a333" y="166.649491"/>
    </g>
   </g>
   <g id="line2d_105">
    <g clip-path="url(#pc52daf7e92)">
     <use style="fill:#fb9813;stroke:#fb9813;" x="325.810177" xlink:href="#mecf2f0a333" y="167.566238"/>
    </g>
   </g>
   <g id="line2d_106">
    <g clip-path="url(#pc52daf7e92)">
     <use style="fill:#fb9813;stroke:#fb9813;" x="327.495335" xlink:href="#mecf2f0a333" y="168.308128"/>
    </g>
   </g>
   <g id="line2d_107">
    <g clip-path="url(#pc52daf7e92)">
     <use style="fill:#fb9813;stroke:#fb9813;" x="330.408405" xlink:href="#mecf2f0a333" y="169.615888"/>
    </g>
   </g>
   <g id="line2d_108">
    <defs>
     <path d="M 0 3 
C 0.795609 3 1.55874 2.683901 2.12132 2.12132 
C 2.683901 1.55874 3 0.795609 3 0 
C 3 -0.795609 2.683901 -1.55874 2.12132 -2.12132 
C 1.55874 -2.683901 0.795609 -3 0 -3 
C -0.795609 -3 -1.55874 -2.683901 -2.12132 -2.12132 
C -2.683901 -1.55874 -3 -0.795609 -3 0 
C -3 0.795609 -2.683901 1.55874 -2.12132 2.12132 
C -1.55874 2.683901 -0.795609 3 0 3 
z
" id="mba81ee3ed1" style="stroke:#fb9713;"/>
    </defs>
    <g clip-path="url(#pc52daf7e92)">
     <use style="fill:#fb9713;stroke:#fb9713;" x="333.071824" xlink:href="#mba81ee3ed1" y="170.684509"/>
    </g>
   </g>
   <g id="line2d_109">
    <g clip-path="url(#pc52daf7e92)">
     <use style="fill:#fb9713;stroke:#fb9713;" x="335.782536" xlink:href="#mba81ee3ed1" y="171.752948"/>
    </g>
   </g>
   <g id="line2d_110">
    <g clip-path="url(#pc52daf7e92)">
     <use style="fill:#fb9713;stroke:#fb9713;" x="338.348402" xlink:href="#mba81ee3ed1" y="172.92902"/>
    </g>
   </g>
   <g id="line2d_111">
    <defs>
     <path d="M 0 3 
C 0.795609 3 1.55874 2.683901 2.12132 2.12132 
C 2.683901 1.55874 3 0.795609 3 0 
C 3 -0.795609 2.683901 -1.55874 2.12132 -2.12132 
C 1.55874 -2.683901 0.795609 -3 0 -3 
C -0.795609 -3 -1.55874 -2.683901 -2.12132 -2.12132 
C -2.683901 -1.55874 -3 -0.795609 -3 0 
C -3 0.795609 -2.683901 1.55874 -2.12132 2.12132 
C -1.55874 2.683901 -0.795609 3 0 3 
z
" id="m32cadd514c" style="stroke:#fb9714;"/>
    </defs>
    <g clip-path="url(#pc52daf7e92)">
     <use style="fill:#fb9714;stroke:#fb9714;" x="339.734451" xlink:href="#m32cadd514c" y="173.996784"/>
    </g>
   </g>
   <g id="line2d_112">
    <g clip-path="url(#pc52daf7e92)">
     <use style="fill:#fb9714;stroke:#fb9714;" x="340.209932" xlink:href="#m32cadd514c" y="175.053755"/>
    </g>
   </g>
   <g id="line2d_113">
    <g clip-path="url(#pc52daf7e92)">
     <use style="fill:#fb9714;stroke:#fb9714;" x="340.584189" xlink:href="#m32cadd514c" y="176.041836"/>
    </g>
   </g>
   <g id="line2d_114">
    <g clip-path="url(#pc52daf7e92)">
     <use style="fill:#fb9714;stroke:#fb9714;" x="340.796721" xlink:href="#m32cadd514c" y="176.46763"/>
    </g>
   </g>
   <g id="line2d_115">
    <g clip-path="url(#pc52daf7e92)">
     <use style="fill:#fb9714;stroke:#fb9714;" x="341.117255" xlink:href="#m32cadd514c" y="177.520224"/>
    </g>
   </g>
   <g id="line2d_116">
    <defs>
     <path d="M 0 3 
C 0.795609 3 1.55874 2.683901 2.12132 2.12132 
C 2.683901 1.55874 3 0.795609 3 0 
C 3 -0.795609 2.683901 -1.55874 2.12132 -2.12132 
C 1.55874 -2.683901 0.795609 -3 0 -3 
C -0.795609 -3 -1.55874 -2.683901 -2.12132 -2.12132 
C -2.683901 -1.55874 -3 -0.795609 -3 0 
C -3 0.795609 -2.683901 1.55874 -2.12132 2.12132 
C -1.55874 2.683901 -0.795609 3 0 3 
z
" id="mea9b9d4137" style="stroke:#fb9715;"/>
    </defs>
    <g clip-path="url(#pc52daf7e92)">
     <use style="fill:#fb9715;stroke:#fb9715;" x="341.428491" xlink:href="#mea9b9d4137" y="178.731085"/>
    </g>
   </g>
   <g id="line2d_117">
    <g clip-path="url(#pc52daf7e92)">
     <use style="fill:#fb9715;stroke:#fb9715;" x="341.764645" xlink:href="#mea9b9d4137" y="179.59716"/>
    </g>
   </g>
   <g id="line2d_118">
    <g clip-path="url(#pc52daf7e92)">
     <use style="fill:#fb9715;stroke:#fb9715;" x="342.582638" xlink:href="#mea9b9d4137" y="180.188333"/>
    </g>
   </g>
   <g id="line2d_119">
    <defs>
     <path d="M 0 3 
C 0.795609 3 1.55874 2.683901 2.12132 2.12132 
C 2.683901 1.55874 3 0.795609 3 0 
C 3 -0.795609 2.683901 -1.55874 2.12132 -2.12132 
C 1.55874 -2.683901 0.795609 -3 0 -3 
C -0.795609 -3 -1.55874 -2.683901 -2.12132 -2.12132 
C -2.683901 -1.55874 -3 -0.795609 -3 0 
C -3 0.795609 -2.683901 1.55874 -2.12132 2.12132 
C -1.55874 2.683901 -0.795609 3 0 3 
z
" id="m0ef09666af" style="stroke:#fa9715;"/>
    </defs>
    <g clip-path="url(#pc52daf7e92)">
     <use style="fill:#fa9715;stroke:#fa9715;" x="344.973456" xlink:href="#m0ef09666af" y="181.147601"/>
    </g>
   </g>
   <g id="line2d_120">
    <g clip-path="url(#pc52daf7e92)">
     <use style="fill:#fa9715;stroke:#fa9715;" x="347.599764" xlink:href="#m0ef09666af" y="182.505598"/>
    </g>
   </g>
   <g id="line2d_121">
    <g clip-path="url(#pc52daf7e92)">
     <use style="fill:#fa9715;stroke:#fa9715;" x="350.114839" xlink:href="#m0ef09666af" y="183.894522"/>
    </g>
   </g>
   <g id="line2d_122">
    <g clip-path="url(#pc52daf7e92)">
     <use style="fill:#fa9715;stroke:#fa9715;" x="351.090756" xlink:href="#m0ef09666af" y="184.942652"/>
    </g>
   </g>
   <g id="line2d_123">
    <defs>
     <path d="M 0 3 
C 0.795609 3 1.55874 2.683901 2.12132 2.12132 
C 2.683901 1.55874 3 0.795609 3 0 
C 3 -0.795609 2.683901 -1.55874 2.12132 -2.12132 
C 1.55874 -2.683901 0.795609 -3 0 -3 
C -0.795609 -3 -1.55874 -2.683901 -2.12132 -2.12132 
C -2.683901 -1.55874 -3 -0.795609 -3 0 
C -3 0.795609 -2.683901 1.55874 -2.12132 2.12132 
C -1.55874 2.683901 -0.795609 3 0 3 
z
" id="m297e538aef" style="stroke:#fa9716;"/>
    </defs>
    <g clip-path="url(#pc52daf7e92)">
     <use style="fill:#fa9716;stroke:#fa9716;" x="351.545911" xlink:href="#m297e538aef" y="185.992726"/>
    </g>
   </g>
   <g id="line2d_124">
    <g clip-path="url(#pc52daf7e92)">
     <use style="fill:#fa9716;stroke:#fa9716;" x="351.887959" xlink:href="#m297e538aef" y="186.873726"/>
    </g>
   </g>
   <g id="line2d_125">
    <g clip-path="url(#pc52daf7e92)">
     <use style="fill:#fa9716;stroke:#fa9716;" x="352.194126" xlink:href="#m297e538aef" y="187.475047"/>
    </g>
   </g>
   <g id="line2d_126">
    <g clip-path="url(#pc52daf7e92)">
     <use style="fill:#fa9716;stroke:#fa9716;" x="352.53571" xlink:href="#m297e538aef" y="188.511927"/>
    </g>
   </g>
   <g id="line2d_127">
    <g clip-path="url(#pc52daf7e92)">
     <use style="fill:#fa9716;stroke:#fa9716;" x="352.848882" xlink:href="#m297e538aef" y="189.654713"/>
    </g>
   </g>
   <g id="line2d_128">
    <g clip-path="url(#pc52daf7e92)">
     <use style="fill:#fa9716;stroke:#fa9716;" x="353.113161" xlink:href="#m297e538aef" y="190.235932"/>
    </g>
   </g>
   <g id="line2d_129">
    <defs>
     <path d="M 0 3 
C 0.795609 3 1.55874 2.683901 2.12132 2.12132 
C 2.683901 1.55874 3 0.795609 3 0 
C 3 -0.795609 2.683901 -1.55874 2.12132 -2.12132 
C 1.55874 -2.683901 0.795609 -3 0 -3 
C -0.795609 -3 -1.55874 -2.683901 -2.12132 -2.12132 
C -2.683901 -1.55874 -3 -0.795609 -3 0 
C -3 0.795609 -2.683901 1.55874 -2.12132 2.12132 
C -1.55874 2.683901 -0.795609 3 0 3 
z
" id="m7a47b5681f" style="stroke:#fa9717;"/>
    </defs>
    <g clip-path="url(#pc52daf7e92)">
     <use style="fill:#fa9717;stroke:#fa9717;" x="353.395306" xlink:href="#m7a47b5681f" y="190.822479"/>
    </g>
   </g>
   <g id="line2d_130">
    <defs>
     <path d="M 0 3 
C 0.795609 3 1.55874 2.683901 2.12132 2.12132 
C 2.683901 1.55874 3 0.795609 3 0 
C 3 -0.795609 2.683901 -1.55874 2.12132 -2.12132 
C 1.55874 -2.683901 0.795609 -3 0 -3 
C -0.795609 -3 -1.55874 -2.683901 -2.12132 -2.12132 
C -2.683901 -1.55874 -3 -0.795609 -3 0 
C -3 0.795609 -2.683901 1.55874 -2.12132 2.12132 
C -1.55874 2.683901 -0.795609 3 0 3 
z
" id="m1e1e54fea8" style="stroke:#f99718;"/>
    </defs>
    <g clip-path="url(#pc52daf7e92)">
     <use style="fill:#f99718;stroke:#f99718;" x="353.936406" xlink:href="#m1e1e54fea8" y="194.461906"/>
    </g>
   </g>
   <g id="line2d_131">
    <defs>
     <path d="M 0 3 
C 0.795609 3 1.55874 2.683901 2.12132 2.12132 
C 2.683901 1.55874 3 0.795609 3 0 
C 3 -0.795609 2.683901 -1.55874 2.12132 -2.12132 
C 1.55874 -2.683901 0.795609 -3 0 -3 
C -0.795609 -3 -1.55874 -2.683901 -2.12132 -2.12132 
C -2.683901 -1.55874 -3 -0.795609 -3 0 
C -3 0.795609 -2.683901 1.55874 -2.12132 2.12132 
C -1.55874 2.683901 -0.795609 3 0 3 
z
" id="md49f0fbaff" style="stroke:#f89619;"/>
    </defs>
    <g clip-path="url(#pc52daf7e92)">
     <use style="fill:#f89619;stroke:#f89619;" x="354.589617" xlink:href="#md49f0fbaff" y="200.879563"/>
    </g>
   </g>
   <g id="line2d_132">
    <defs>
     <path d="M 0 3 
C 0.795609 3 1.55874 2.683901 2.12132 2.12132 
C 2.683901 1.55874 3 0.795609 3 0 
C 3 -0.795609 2.683901 -1.55874 2.12132 -2.12132 
C 1.55874 -2.683901 0.795609 -3 0 -3 
C -0.795609 -3 -1.55874 -2.683901 -2.12132 -2.12132 
C -2.683901 -1.55874 -3 -0.795609 -3 0 
C -3 0.795609 -2.683901 1.55874 -2.12132 2.12132 
C -1.55874 2.683901 -0.795609 3 0 3 
z
" id="mdb52502310" style="stroke:#f8961b;"/>
    </defs>
    <g clip-path="url(#pc52daf7e92)">
     <use style="fill:#f8961b;stroke:#f8961b;" x="354.974855" xlink:href="#mdb52502310" y="205.194092"/>
    </g>
   </g>
   <g id="line2d_133">
    <defs>
     <path d="M 0 3 
C 0.795609 3 1.55874 2.683901 2.12132 2.12132 
C 2.683901 1.55874 3 0.795609 3 0 
C 3 -0.795609 2.683901 -1.55874 2.12132 -2.12132 
C 1.55874 -2.683901 0.795609 -3 0 -3 
C -0.795609 -3 -1.55874 -2.683901 -2.12132 -2.12132 
C -2.683901 -1.55874 -3 -0.795609 -3 0 
C -3 0.795609 -2.683901 1.55874 -2.12132 2.12132 
C -1.55874 2.683901 -0.795609 3 0 3 
z
" id="mb9a0ac1499" style="stroke:#f7961b;"/>
    </defs>
    <g clip-path="url(#pc52daf7e92)">
     <use style="fill:#f7961b;stroke:#f7961b;" x="355.199126" xlink:href="#mb9a0ac1499" y="208.150523"/>
    </g>
   </g>
   <g id="line2d_134">
    <defs>
     <path d="M 0 3 
C 0.795609 3 1.55874 2.683901 2.12132 2.12132 
C 2.683901 1.55874 3 0.795609 3 0 
C 3 -0.795609 2.683901 -1.55874 2.12132 -2.12132 
C 1.55874 -2.683901 0.795609 -3 0 -3 
C -0.795609 -3 -1.55874 -2.683901 -2.12132 -2.12132 
C -2.683901 -1.55874 -3 -0.795609 -3 0 
C -3 0.795609 -2.683901 1.55874 -2.12132 2.12132 
C -1.55874 2.683901 -0.795609 3 0 3 
z
" id="m2886e6ab49" style="stroke:#f7961c;"/>
    </defs>
    <g clip-path="url(#pc52daf7e92)">
     <use style="fill:#f7961c;stroke:#f7961c;" x="355.442477" xlink:href="#m2886e6ab49" y="211.14287"/>
    </g>
   </g>
   <g id="line2d_135">
    <g clip-path="url(#pc52daf7e92)">
     <use style="fill:#f7961c;stroke:#f7961c;" x="355.58002" xlink:href="#m2886e6ab49" y="211.432496"/>
    </g>
   </g>
   <g id="line2d_136">
    <defs>
     <path d="M 0 3 
C 0.795609 3 1.55874 2.683901 2.12132 2.12132 
C 2.683901 1.55874 3 0.795609 3 0 
C 3 -0.795609 2.683901 -1.55874 2.12132 -2.12132 
C 1.55874 -2.683901 0.795609 -3 0 -3 
C -0.795609 -3 -1.55874 -2.683901 -2.12132 -2.12132 
C -2.683901 -1.55874 -3 -0.795609 -3 0 
C -3 0.795609 -2.683901 1.55874 -2.12132 2.12132 
C -1.55874 2.683901 -0.795609 3 0 3 
z
" id="mab365b5765" style="stroke:#f6961c;"/>
    </defs>
    <g clip-path="url(#pc52daf7e92)">
     <use style="fill:#f6961c;stroke:#f6961c;" x="355.765038" xlink:href="#mab365b5765" y="212.505525"/>
    </g>
   </g>
   <g id="line2d_137">
    <defs>
     <path d="M 0 3 
C 0.795609 3 1.55874 2.683901 2.12132 2.12132 
C 2.683901 1.55874 3 0.795609 3 0 
C 3 -0.795609 2.683901 -1.55874 2.12132 -2.12132 
C 1.55874 -2.683901 0.795609 -3 0 -3 
C -0.795609 -3 -1.55874 -2.683901 -2.12132 -2.12132 
C -2.683901 -1.55874 -3 -0.795609 -3 0 
C -3 0.795609 -2.683901 1.55874 -2.12132 2.12132 
C -1.55874 2.683901 -0.795609 3 0 3 
z
" id="m125ccbfe68" style="stroke:#f6961d;"/>
    </defs>
    <g clip-path="url(#pc52daf7e92)">
     <use style="fill:#f6961d;stroke:#f6961d;" x="355.980934" xlink:href="#m125ccbfe68" y="214.044337"/>
    </g>
   </g>
   <g id="line2d_138">
    <g clip-path="url(#pc52daf7e92)">
     <use style="fill:#f6961d;stroke:#f6961d;" x="356.182884" xlink:href="#m125ccbfe68" y="215.163751"/>
    </g>
   </g>
   <g id="line2d_139">
    <g clip-path="url(#pc52daf7e92)">
     <use style="fill:#f6961d;stroke:#f6961d;" x="356.456987" xlink:href="#m125ccbfe68" y="216.054036"/>
    </g>
   </g>
   <g id="line2d_140">
    <defs>
     <path d="M 0 3 
C 0.795609 3 1.55874 2.683901 2.12132 2.12132 
C 2.683901 1.55874 3 0.795609 3 0 
C 3 -0.795609 2.683901 -1.55874 2.12132 -2.12132 
C 1.55874 -2.683901 0.795609 -3 0 -3 
C -0.795609 -3 -1.55874 -2.683901 -2.12132 -2.12132 
C -2.683901 -1.55874 -3 -0.795609 -3 0 
C -3 0.795609 -2.683901 1.55874 -2.12132 2.12132 
C -1.55874 2.683901 -0.795609 3 0 3 
z
" id="m33719a412e" style="stroke:#f6951d;"/>
    </defs>
    <g clip-path="url(#pc52daf7e92)">
     <use style="fill:#f6951d;stroke:#f6951d;" x="356.746887" xlink:href="#m33719a412e" y="217.108055"/>
    </g>
   </g>
   <g id="line2d_141">
    <g clip-path="url(#pc52daf7e92)">
     <use style="fill:#f6951d;stroke:#f6951d;" x="357.050697" xlink:href="#m33719a412e" y="218.04197"/>
    </g>
   </g>
   <g id="line2d_142">
    <defs>
     <path d="M 0 3 
C 0.795609 3 1.55874 2.683901 2.12132 2.12132 
C 2.683901 1.55874 3 0.795609 3 0 
C 3 -0.795609 2.683901 -1.55874 2.12132 -2.12132 
C 1.55874 -2.683901 0.795609 -3 0 -3 
C -0.795609 -3 -1.55874 -2.683901 -2.12132 -2.12132 
C -2.683901 -1.55874 -3 -0.795609 -3 0 
C -3 0.795609 -2.683901 1.55874 -2.12132 2.12132 
C -1.55874 2.683901 -0.795609 3 0 3 
z
" id="m12d07abe50" style="stroke:#f6951e;"/>
    </defs>
    <g clip-path="url(#pc52daf7e92)">
     <use style="fill:#f6951e;stroke:#f6951e;" x="357.404236" xlink:href="#m12d07abe50" y="219.066986"/>
    </g>
   </g>
   <g id="line2d_143">
    <defs>
     <path d="M 0 3 
C 0.795609 3 1.55874 2.683901 2.12132 2.12132 
C 2.683901 1.55874 3 0.795609 3 0 
C 3 -0.795609 2.683901 -1.55874 2.12132 -2.12132 
C 1.55874 -2.683901 0.795609 -3 0 -3 
C -0.795609 -3 -1.55874 -2.683901 -2.12132 -2.12132 
C -2.683901 -1.55874 -3 -0.795609 -3 0 
C -3 0.795609 -2.683901 1.55874 -2.12132 2.12132 
C -1.55874 2.683901 -0.795609 3 0 3 
z
" id="m4da2e4f3c7" style="stroke:#f5951e;"/>
    </defs>
    <g clip-path="url(#pc52daf7e92)">
     <use style="fill:#f5951e;stroke:#f5951e;" x="357.955693" xlink:href="#m4da2e4f3c7" y="221.600075"/>
    </g>
   </g>
   <g id="line2d_144">
    <defs>
     <path d="M 0 3 
C 0.795609 3 1.55874 2.683901 2.12132 2.12132 
C 2.683901 1.55874 3 0.795609 3 0 
C 3 -0.795609 2.683901 -1.55874 2.12132 -2.12132 
C 1.55874 -2.683901 0.795609 -3 0 -3 
C -0.795609 -3 -1.55874 -2.683901 -2.12132 -2.12132 
C -2.683901 -1.55874 -3 -0.795609 -3 0 
C -3 0.795609 -2.683901 1.55874 -2.12132 2.12132 
C -1.55874 2.683901 -0.795609 3 0 3 
z
" id="m07c08deed3" style="stroke:#f5951f;"/>
    </defs>
    <g clip-path="url(#pc52daf7e92)">
     <use style="fill:#f5951f;stroke:#f5951f;" x="358.604835" xlink:href="#m07c08deed3" y="226.481274"/>
    </g>
   </g>
   <g id="line2d_145">
    <defs>
     <path d="M 0 3 
C 0.795609 3 1.55874 2.683901 2.12132 2.12132 
C 2.683901 1.55874 3 0.795609 3 0 
C 3 -0.795609 2.683901 -1.55874 2.12132 -2.12132 
C 1.55874 -2.683901 0.795609 -3 0 -3 
C -0.795609 -3 -1.55874 -2.683901 -2.12132 -2.12132 
C -2.683901 -1.55874 -3 -0.795609 -3 0 
C -3 0.795609 -2.683901 1.55874 -2.12132 2.12132 
C -1.55874 2.683901 -0.795609 3 0 3 
z
" id="me36fad1296" style="stroke:#f49521;"/>
    </defs>
    <g clip-path="url(#pc52daf7e92)">
     <use style="fill:#f49521;stroke:#f49521;" x="359.02724" xlink:href="#me36fad1296" y="233.136513"/>
    </g>
   </g>
   <g id="line2d_146">
    <defs>
     <path d="M 0 3 
C 0.795609 3 1.55874 2.683901 2.12132 2.12132 
C 2.683901 1.55874 3 0.795609 3 0 
C 3 -0.795609 2.683901 -1.55874 2.12132 -2.12132 
C 1.55874 -2.683901 0.795609 -3 0 -3 
C -0.795609 -3 -1.55874 -2.683901 -2.12132 -2.12132 
C -2.683901 -1.55874 -3 -0.795609 -3 0 
C -3 0.795609 -2.683901 1.55874 -2.12132 2.12132 
C -1.55874 2.683901 -0.795609 3 0 3 
z
" id="m1a3b5a2a80" style="stroke:#f39422;"/>
    </defs>
    <g clip-path="url(#pc52daf7e92)">
     <use style="fill:#f39422;stroke:#f39422;" x="359.213778" xlink:href="#m1a3b5a2a80" y="241.13558"/>
    </g>
   </g>
   <g id="line2d_147">
    <defs>
     <path d="M 0 3 
C 0.795609 3 1.55874 2.683901 2.12132 2.12132 
C 2.683901 1.55874 3 0.795609 3 0 
C 3 -0.795609 2.683901 -1.55874 2.12132 -2.12132 
C 1.55874 -2.683901 0.795609 -3 0 -3 
C -0.795609 -3 -1.55874 -2.683901 -2.12132 -2.12132 
C -2.683901 -1.55874 -3 -0.795609 -3 0 
C -3 0.795609 -2.683901 1.55874 -2.12132 2.12132 
C -1.55874 2.683901 -0.795609 3 0 3 
z
" id="mb6b074479e" style="stroke:#f29423;"/>
    </defs>
    <g clip-path="url(#pc52daf7e92)">
     <use style="fill:#f29423;stroke:#f29423;" x="359.720894" xlink:href="#mb6b074479e" y="249.346951"/>
    </g>
   </g>
   <g id="line2d_148">
    <defs>
     <path d="M 0 3 
C 0.795609 3 1.55874 2.683901 2.12132 2.12132 
C 2.683901 1.55874 3 0.795609 3 0 
C 3 -0.795609 2.683901 -1.55874 2.12132 -2.12132 
C 1.55874 -2.683901 0.795609 -3 0 -3 
C -0.795609 -3 -1.55874 -2.683901 -2.12132 -2.12132 
C -2.683901 -1.55874 -3 -0.795609 -3 0 
C -3 0.795609 -2.683901 1.55874 -2.12132 2.12132 
C -1.55874 2.683901 -0.795609 3 0 3 
z
" id="mb96927b0a9" style="stroke:#f29424;"/>
    </defs>
    <g clip-path="url(#pc52daf7e92)">
     <use style="fill:#f29424;stroke:#f29424;" x="361.755227" xlink:href="#mb96927b0a9" y="252.634246"/>
    </g>
   </g>
   <g id="line2d_149">
    <defs>
     <path d="M 0 3 
C 0.795609 3 1.55874 2.683901 2.12132 2.12132 
C 2.683901 1.55874 3 0.795609 3 0 
C 3 -0.795609 2.683901 -1.55874 2.12132 -2.12132 
C 1.55874 -2.683901 0.795609 -3 0 -3 
C -0.795609 -3 -1.55874 -2.683901 -2.12132 -2.12132 
C -2.683901 -1.55874 -3 -0.795609 -3 0 
C -3 0.795609 -2.683901 1.55874 -2.12132 2.12132 
C -1.55874 2.683901 -0.795609 3 0 3 
z
" id="mdd6530fc7b" style="stroke:#f19424;"/>
    </defs>
    <g clip-path="url(#pc52daf7e92)">
     <use style="fill:#f19424;stroke:#f19424;" x="364.255595" xlink:href="#mdd6530fc7b" y="255.141302"/>
    </g>
   </g>
   <g id="line2d_150">
    <g clip-path="url(#pc52daf7e92)">
     <use style="fill:#f19424;stroke:#f19424;" x="366.860226" xlink:href="#mdd6530fc7b" y="257.403574"/>
    </g>
   </g>
   <g id="line2d_151">
    <g clip-path="url(#pc52daf7e92)">
     <use style="fill:#f19424;stroke:#f19424;" x="369.565504" xlink:href="#mdd6530fc7b" y="259.549086"/>
    </g>
   </g>
   <g id="line2d_152">
    <defs>
     <path d="M 0 3 
C 0.795609 3 1.55874 2.683901 2.12132 2.12132 
C 2.683901 1.55874 3 0.795609 3 0 
C 3 -0.795609 2.683901 -1.55874 2.12132 -2.12132 
C 1.55874 -2.683901 0.795609 -3 0 -3 
C -0.795609 -3 -1.55874 -2.683901 -2.12132 -2.12132 
C -2.683901 -1.55874 -3 -0.795609 -3 0 
C -3 0.795609 -2.683901 1.55874 -2.12132 2.12132 
C -1.55874 2.683901 -0.795609 3 0 3 
z
" id="mea05d3d321" style="stroke:#f19325;"/>
    </defs>
    <g clip-path="url(#pc52daf7e92)">
     <use style="fill:#f19325;stroke:#f19325;" x="372.258075" xlink:href="#mea05d3d321" y="263.122455"/>
    </g>
   </g>
   <g id="line2d_153">
    <defs>
     <path d="M 0 3 
C 0.795609 3 1.55874 2.683901 2.12132 2.12132 
C 2.683901 1.55874 3 0.795609 3 0 
C 3 -0.795609 2.683901 -1.55874 2.12132 -2.12132 
C 1.55874 -2.683901 0.795609 -3 0 -3 
C -0.795609 -3 -1.55874 -2.683901 -2.12132 -2.12132 
C -2.683901 -1.55874 -3 -0.795609 -3 0 
C -3 0.795609 -2.683901 1.55874 -2.12132 2.12132 
C -1.55874 2.683901 -0.795609 3 0 3 
z
" id="ma4a21ebfd6" style="stroke:#f09326;"/>
    </defs>
    <g clip-path="url(#pc52daf7e92)">
     <use style="fill:#f09326;stroke:#f09326;" x="374.845975" xlink:href="#ma4a21ebfd6" y="268.423707"/>
    </g>
   </g>
   <g id="line2d_154">
    <g clip-path="url(#pc52daf7e92)">
     <use style="fill:#f09326;stroke:#f09326;" x="376.663562" xlink:href="#ma4a21ebfd6" y="270.529578"/>
    </g>
   </g>
   <g id="line2d_155">
    <g clip-path="url(#pc52daf7e92)">
     <use style="fill:#f09326;stroke:#f09326;" x="377.460672" xlink:href="#ma4a21ebfd6" y="272.182279"/>
    </g>
   </g>
   <g id="line2d_156">
    <defs>
     <path d="M 0 3 
C 0.795609 3 1.55874 2.683901 2.12132 2.12132 
C 2.683901 1.55874 3 0.795609 3 0 
C 3 -0.795609 2.683901 -1.55874 2.12132 -2.12132 
C 1.55874 -2.683901 0.795609 -3 0 -3 
C -0.795609 -3 -1.55874 -2.683901 -2.12132 -2.12132 
C -2.683901 -1.55874 -3 -0.795609 -3 0 
C -3 0.795609 -2.683901 1.55874 -2.12132 2.12132 
C -1.55874 2.683901 -0.795609 3 0 3 
z
" id="mff88c70404" style="stroke:#ef9326;"/>
    </defs>
    <g clip-path="url(#pc52daf7e92)">
     <use style="fill:#ef9326;stroke:#ef9326;" x="377.822729" xlink:href="#mff88c70404" y="273.723763"/>
    </g>
   </g>
   <g id="line2d_157">
    <g clip-path="url(#pc52daf7e92)">
     <use style="fill:#ef9326;stroke:#ef9326;" x="378.136206" xlink:href="#mff88c70404" y="274.972744"/>
    </g>
   </g>
   <g id="line2d_158">
    <defs>
     <path d="M 0 3 
C 0.795609 3 1.55874 2.683901 2.12132 2.12132 
C 2.683901 1.55874 3 0.795609 3 0 
C 3 -0.795609 2.683901 -1.55874 2.12132 -2.12132 
C 1.55874 -2.683901 0.795609 -3 0 -3 
C -0.795609 -3 -1.55874 -2.683901 -2.12132 -2.12132 
C -2.683901 -1.55874 -3 -0.795609 -3 0 
C -3 0.795609 -2.683901 1.55874 -2.12132 2.12132 
C -1.55874 2.683901 -0.795609 3 0 3 
z
" id="mf2e6530be4" style="stroke:#ef9327;"/>
    </defs>
    <g clip-path="url(#pc52daf7e92)">
     <use style="fill:#ef9327;stroke:#ef9327;" x="378.497631" xlink:href="#mf2e6530be4" y="276.349761"/>
    </g>
   </g>
   <g id="line2d_159">
    <g clip-path="url(#pc52daf7e92)">
     <use style="fill:#ef9327;stroke:#ef9327;" x="378.787876" xlink:href="#mf2e6530be4" y="277.83303"/>
    </g>
   </g>
   <g id="line2d_160">
    <g clip-path="url(#pc52daf7e92)">
     <use style="fill:#ef9327;stroke:#ef9327;" x="379.037416" xlink:href="#mf2e6530be4" y="279.277547"/>
    </g>
   </g>
   <g id="line2d_161">
    <g clip-path="url(#pc52daf7e92)">
     <use style="fill:#ef9327;stroke:#ef9327;" x="379.256992" xlink:href="#mf2e6530be4" y="280.815078"/>
    </g>
   </g>
   <g id="line2d_162">
    <g clip-path="url(#pc52daf7e92)">
     <use style="fill:#ef9327;stroke:#ef9327;" x="379.365865" xlink:href="#mf2e6530be4" y="282.076664"/>
    </g>
   </g>
   <g id="line2d_163">
    <defs>
     <path d="M 0 3 
C 0.795609 3 1.55874 2.683901 2.12132 2.12132 
C 2.683901 1.55874 3 0.795609 3 0 
C 3 -0.795609 2.683901 -1.55874 2.12132 -2.12132 
C 1.55874 -2.683901 0.795609 -3 0 -3 
C -0.795609 -3 -1.55874 -2.683901 -2.12132 -2.12132 
C -2.683901 -1.55874 -3 -0.795609 -3 0 
C -3 0.795609 -2.683901 1.55874 -2.12132 2.12132 
C -1.55874 2.683901 -0.795609 3 0 3 
z
" id="m4d2c1f38b7" style="stroke:#ee9228;"/>
    </defs>
    <g clip-path="url(#pc52daf7e92)">
     <use style="fill:#ee9228;stroke:#ee9228;" x="379.440733" xlink:href="#m4d2c1f38b7" y="284.21028"/>
    </g>
   </g>
   <g id="line2d_164">
    <g clip-path="url(#pc52daf7e92)">
     <use style="fill:#ee9228;stroke:#ee9228;" x="379.448189" xlink:href="#m4d2c1f38b7" y="285.945175"/>
    </g>
   </g>
   <g id="line2d_165">
    <g clip-path="url(#pc52daf7e92)">
     <use style="fill:#ee9228;stroke:#ee9228;" x="379.423765" xlink:href="#m4d2c1f38b7" y="287.50044"/>
    </g>
   </g>
   <g id="line2d_166">
    <g clip-path="url(#pc52daf7e92)">
     <use style="fill:#ee9228;stroke:#ee9228;" x="379.426652" xlink:href="#m4d2c1f38b7" y="289.311521"/>
    </g>
   </g>
   <g id="line2d_167">
    <g clip-path="url(#pc52daf7e92)">
     <use style="fill:#ee9228;stroke:#ee9228;" x="379.422881" xlink:href="#m4d2c1f38b7" y="290.934426"/>
    </g>
   </g>
   <g id="line2d_168">
    <defs>
     <path d="M 0 3 
C 0.795609 3 1.55874 2.683901 2.12132 2.12132 
C 2.683901 1.55874 3 0.795609 3 0 
C 3 -0.795609 2.683901 -1.55874 2.12132 -2.12132 
C 1.55874 -2.683901 0.795609 -3 0 -3 
C -0.795609 -3 -1.55874 -2.683901 -2.12132 -2.12132 
C -2.683901 -1.55874 -3 -0.795609 -3 0 
C -3 0.795609 -2.683901 1.55874 -2.12132 2.12132 
C -1.55874 2.683901 -0.795609 3 0 3 
z
" id="m351807bd09" style="stroke:#ed9229;"/>
    </defs>
    <g clip-path="url(#pc52daf7e92)">
     <use style="fill:#ed9229;stroke:#ed9229;" x="379.398596" xlink:href="#m351807bd09" y="292.243224"/>
    </g>
   </g>
   <g id="line2d_169">
    <g clip-path="url(#pc52daf7e92)">
     <use style="fill:#ed9229;stroke:#ed9229;" x="379.3836" xlink:href="#m351807bd09" y="293.617617"/>
    </g>
   </g>
   <g id="line2d_170">
    <g clip-path="url(#pc52daf7e92)">
     <use style="fill:#ed9229;stroke:#ed9229;" x="379.389112" xlink:href="#m351807bd09" y="295.488"/>
    </g>
   </g>
   <g id="patch_3">
    <path d="M 57.6 307.584 
L 57.6 41.472 
" style="fill:none;stroke:#000000;stroke-linecap:square;stroke-linejoin:miter;stroke-width:0.8;"/>
   </g>
   <g id="patch_4">
    <path d="M 414.72 307.584 
L 414.72 41.472 
" style="fill:none;stroke:#000000;stroke-linecap:square;stroke-linejoin:miter;stroke-width:0.8;"/>
   </g>
   <g id="patch_5">
    <path d="M 57.6 307.584 
L 414.72 307.584 
" style="fill:none;stroke:#000000;stroke-linecap:square;stroke-linejoin:miter;stroke-width:0.8;"/>
   </g>
   <g id="patch_6">
    <path d="M 57.6 41.472 
L 414.72 41.472 
" style="fill:none;stroke:#000000;stroke-linecap:square;stroke-linejoin:miter;stroke-width:0.8;"/>
   </g>
  </g>
 </g>
 <defs>
  <clipPath id="pc52daf7e92">
   <rect height="266.112" width="357.12" x="57.6" y="41.472"/>
  </clipPath>
 </defs>
</svg>
