<?xml version="1.0" encoding="utf-8" standalone="no"?>
<!DOCTYPE svg PUBLIC "-//W3C//DTD SVG 1.1//EN"
  "http://www.w3.org/Graphics/SVG/1.1/DTD/svg11.dtd">
<!-- Created with matplotlib (https://matplotlib.org/) -->
<svg height="345.6pt" version="1.1" viewBox="0 0 460.8 345.6" width="460.8pt" xmlns="http://www.w3.org/2000/svg" xmlns:xlink="http://www.w3.org/1999/xlink">
 <metadata>
  <rdf:RDF xmlns:cc="http://creativecommons.org/ns#" xmlns:dc="http://purl.org/dc/elements/1.1/" xmlns:rdf="http://www.w3.org/1999/02/22-rdf-syntax-ns#">
   <cc:Work>
    <dc:type rdf:resource="http://purl.org/dc/dcmitype/StillImage"/>
    <dc:date>2021-02-23T17:30:04.786754</dc:date>
    <dc:format>image/svg+xml</dc:format>
    <dc:creator>
     <cc:Agent>
      <dc:title>Matplotlib v3.3.3, https://matplotlib.org/</dc:title>
     </cc:Agent>
    </dc:creator>
   </cc:Work>
  </rdf:RDF>
 </metadata>
 <defs>
  <style type="text/css">*{stroke-linecap:butt;stroke-linejoin:round;}</style>
 </defs>
 <g id="figure_1">
  <g id="patch_1">
   <path d="M 0 345.6 
L 460.8 345.6 
L 460.8 0 
L 0 0 
z
" style="fill:#ffffff;"/>
  </g>
  <g id="axes_1">
   <g id="patch_2">
    <path d="M 57.6 307.584 
L 414.72 307.584 
L 414.72 41.472 
L 57.6 41.472 
z
" style="fill:#ffffff;"/>
   </g>
   <g id="matplotlib.axis_1">
    <g id="xtick_1">
     <g id="line2d_1">
      <defs>
       <path d="M 0 0 
L 0 3.5 
" id="m64f8db549b" style="stroke:#000000;stroke-width:0.8;"/>
      </defs>
      <g>
       <use style="stroke:#000000;stroke-width:0.8;" x="57.6" xlink:href="#m64f8db549b" y="307.584"/>
      </g>
     </g>
     <g id="text_1">
      <!-- −1.0 -->
      <g transform="translate(45.458594 322.182437)scale(0.1 -0.1)">
       <defs>
        <path d="M 10.59375 35.5 
L 73.1875 35.5 
L 73.1875 27.203125 
L 10.59375 27.203125 
z
" id="DejaVuSans-8722"/>
        <path d="M 12.40625 8.296875 
L 28.515625 8.296875 
L 28.515625 63.921875 
L 10.984375 60.40625 
L 10.984375 69.390625 
L 28.421875 72.90625 
L 38.28125 72.90625 
L 38.28125 8.296875 
L 54.390625 8.296875 
L 54.390625 0 
L 12.40625 0 
z
" id="DejaVuSans-49"/>
        <path d="M 10.6875 12.40625 
L 21 12.40625 
L 21 0 
L 10.6875 0 
z
" id="DejaVuSans-46"/>
        <path d="M 31.78125 66.40625 
Q 24.171875 66.40625 20.328125 58.90625 
Q 16.5 51.421875 16.5 36.375 
Q 16.5 21.390625 20.328125 13.890625 
Q 24.171875 6.390625 31.78125 6.390625 
Q 39.453125 6.390625 43.28125 13.890625 
Q 47.125 21.390625 47.125 36.375 
Q 47.125 51.421875 43.28125 58.90625 
Q 39.453125 66.40625 31.78125 66.40625 
z
M 31.78125 74.21875 
Q 44.046875 74.21875 50.515625 64.515625 
Q 56.984375 54.828125 56.984375 36.375 
Q 56.984375 17.96875 50.515625 8.265625 
Q 44.046875 -1.421875 31.78125 -1.421875 
Q 19.53125 -1.421875 13.0625 8.265625 
Q 6.59375 17.96875 6.59375 36.375 
Q 6.59375 54.828125 13.0625 64.515625 
Q 19.53125 74.21875 31.78125 74.21875 
z
" id="DejaVuSans-48"/>
       </defs>
       <use xlink:href="#DejaVuSans-8722"/>
       <use x="83.789062" xlink:href="#DejaVuSans-49"/>
       <use x="147.412109" xlink:href="#DejaVuSans-46"/>
       <use x="179.199219" xlink:href="#DejaVuSans-48"/>
      </g>
     </g>
    </g>
    <g id="xtick_2">
     <g id="line2d_2">
      <g>
       <use style="stroke:#000000;stroke-width:0.8;" x="129.024" xlink:href="#m64f8db549b" y="307.584"/>
      </g>
     </g>
     <g id="text_2">
      <!-- −0.8 -->
      <g transform="translate(116.882594 322.182437)scale(0.1 -0.1)">
       <defs>
        <path d="M 31.78125 34.625 
Q 24.75 34.625 20.71875 30.859375 
Q 16.703125 27.09375 16.703125 20.515625 
Q 16.703125 13.921875 20.71875 10.15625 
Q 24.75 6.390625 31.78125 6.390625 
Q 38.8125 6.390625 42.859375 10.171875 
Q 46.921875 13.96875 46.921875 20.515625 
Q 46.921875 27.09375 42.890625 30.859375 
Q 38.875 34.625 31.78125 34.625 
z
M 21.921875 38.8125 
Q 15.578125 40.375 12.03125 44.71875 
Q 8.5 49.078125 8.5 55.328125 
Q 8.5 64.0625 14.71875 69.140625 
Q 20.953125 74.21875 31.78125 74.21875 
Q 42.671875 74.21875 48.875 69.140625 
Q 55.078125 64.0625 55.078125 55.328125 
Q 55.078125 49.078125 51.53125 44.71875 
Q 48 40.375 41.703125 38.8125 
Q 48.828125 37.15625 52.796875 32.3125 
Q 56.78125 27.484375 56.78125 20.515625 
Q 56.78125 9.90625 50.3125 4.234375 
Q 43.84375 -1.421875 31.78125 -1.421875 
Q 19.734375 -1.421875 13.25 4.234375 
Q 6.78125 9.90625 6.78125 20.515625 
Q 6.78125 27.484375 10.78125 32.3125 
Q 14.796875 37.15625 21.921875 38.8125 
z
M 18.3125 54.390625 
Q 18.3125 48.734375 21.84375 45.5625 
Q 25.390625 42.390625 31.78125 42.390625 
Q 38.140625 42.390625 41.71875 45.5625 
Q 45.3125 48.734375 45.3125 54.390625 
Q 45.3125 60.0625 41.71875 63.234375 
Q 38.140625 66.40625 31.78125 66.40625 
Q 25.390625 66.40625 21.84375 63.234375 
Q 18.3125 60.0625 18.3125 54.390625 
z
" id="DejaVuSans-56"/>
       </defs>
       <use xlink:href="#DejaVuSans-8722"/>
       <use x="83.789062" xlink:href="#DejaVuSans-48"/>
       <use x="147.412109" xlink:href="#DejaVuSans-46"/>
       <use x="179.199219" xlink:href="#DejaVuSans-56"/>
      </g>
     </g>
    </g>
    <g id="xtick_3">
     <g id="line2d_3">
      <g>
       <use style="stroke:#000000;stroke-width:0.8;" x="200.448" xlink:href="#m64f8db549b" y="307.584"/>
      </g>
     </g>
     <g id="text_3">
      <!-- −0.6 -->
      <g transform="translate(188.306594 322.182437)scale(0.1 -0.1)">
       <defs>
        <path d="M 33.015625 40.375 
Q 26.375 40.375 22.484375 35.828125 
Q 18.609375 31.296875 18.609375 23.390625 
Q 18.609375 15.53125 22.484375 10.953125 
Q 26.375 6.390625 33.015625 6.390625 
Q 39.65625 6.390625 43.53125 10.953125 
Q 47.40625 15.53125 47.40625 23.390625 
Q 47.40625 31.296875 43.53125 35.828125 
Q 39.65625 40.375 33.015625 40.375 
z
M 52.59375 71.296875 
L 52.59375 62.3125 
Q 48.875 64.0625 45.09375 64.984375 
Q 41.3125 65.921875 37.59375 65.921875 
Q 27.828125 65.921875 22.671875 59.328125 
Q 17.53125 52.734375 16.796875 39.40625 
Q 19.671875 43.65625 24.015625 45.921875 
Q 28.375 48.1875 33.59375 48.1875 
Q 44.578125 48.1875 50.953125 41.515625 
Q 57.328125 34.859375 57.328125 23.390625 
Q 57.328125 12.15625 50.6875 5.359375 
Q 44.046875 -1.421875 33.015625 -1.421875 
Q 20.359375 -1.421875 13.671875 8.265625 
Q 6.984375 17.96875 6.984375 36.375 
Q 6.984375 53.65625 15.1875 63.9375 
Q 23.390625 74.21875 37.203125 74.21875 
Q 40.921875 74.21875 44.703125 73.484375 
Q 48.484375 72.75 52.59375 71.296875 
z
" id="DejaVuSans-54"/>
       </defs>
       <use xlink:href="#DejaVuSans-8722"/>
       <use x="83.789062" xlink:href="#DejaVuSans-48"/>
       <use x="147.412109" xlink:href="#DejaVuSans-46"/>
       <use x="179.199219" xlink:href="#DejaVuSans-54"/>
      </g>
     </g>
    </g>
    <g id="xtick_4">
     <g id="line2d_4">
      <g>
       <use style="stroke:#000000;stroke-width:0.8;" x="271.872" xlink:href="#m64f8db549b" y="307.584"/>
      </g>
     </g>
     <g id="text_4">
      <!-- −0.4 -->
      <g transform="translate(259.730594 322.182437)scale(0.1 -0.1)">
       <defs>
        <path d="M 37.796875 64.3125 
L 12.890625 25.390625 
L 37.796875 25.390625 
z
M 35.203125 72.90625 
L 47.609375 72.90625 
L 47.609375 25.390625 
L 58.015625 25.390625 
L 58.015625 17.1875 
L 47.609375 17.1875 
L 47.609375 0 
L 37.796875 0 
L 37.796875 17.1875 
L 4.890625 17.1875 
L 4.890625 26.703125 
z
" id="DejaVuSans-52"/>
       </defs>
       <use xlink:href="#DejaVuSans-8722"/>
       <use x="83.789062" xlink:href="#DejaVuSans-48"/>
       <use x="147.412109" xlink:href="#DejaVuSans-46"/>
       <use x="179.199219" xlink:href="#DejaVuSans-52"/>
      </g>
     </g>
    </g>
    <g id="xtick_5">
     <g id="line2d_5">
      <g>
       <use style="stroke:#000000;stroke-width:0.8;" x="343.296" xlink:href="#m64f8db549b" y="307.584"/>
      </g>
     </g>
     <g id="text_5">
      <!-- −0.2 -->
      <g transform="translate(331.154594 322.182437)scale(0.1 -0.1)">
       <defs>
        <path d="M 19.1875 8.296875 
L 53.609375 8.296875 
L 53.609375 0 
L 7.328125 0 
L 7.328125 8.296875 
Q 12.9375 14.109375 22.625 23.890625 
Q 32.328125 33.6875 34.8125 36.53125 
Q 39.546875 41.84375 41.421875 45.53125 
Q 43.3125 49.21875 43.3125 52.78125 
Q 43.3125 58.59375 39.234375 62.25 
Q 35.15625 65.921875 28.609375 65.921875 
Q 23.96875 65.921875 18.8125 64.3125 
Q 13.671875 62.703125 7.8125 59.421875 
L 7.8125 69.390625 
Q 13.765625 71.78125 18.9375 73 
Q 24.125 74.21875 28.421875 74.21875 
Q 39.75 74.21875 46.484375 68.546875 
Q 53.21875 62.890625 53.21875 53.421875 
Q 53.21875 48.921875 51.53125 44.890625 
Q 49.859375 40.875 45.40625 35.40625 
Q 44.1875 33.984375 37.640625 27.21875 
Q 31.109375 20.453125 19.1875 8.296875 
z
" id="DejaVuSans-50"/>
       </defs>
       <use xlink:href="#DejaVuSans-8722"/>
       <use x="83.789062" xlink:href="#DejaVuSans-48"/>
       <use x="147.412109" xlink:href="#DejaVuSans-46"/>
       <use x="179.199219" xlink:href="#DejaVuSans-50"/>
      </g>
     </g>
    </g>
    <g id="xtick_6">
     <g id="line2d_6">
      <g>
       <use style="stroke:#000000;stroke-width:0.8;" x="414.72" xlink:href="#m64f8db549b" y="307.584"/>
      </g>
     </g>
     <g id="text_6">
      <!-- 0.0 -->
      <g transform="translate(406.768438 322.182437)scale(0.1 -0.1)">
       <use xlink:href="#DejaVuSans-48"/>
       <use x="63.623047" xlink:href="#DejaVuSans-46"/>
       <use x="95.410156" xlink:href="#DejaVuSans-48"/>
      </g>
     </g>
    </g>
   </g>
   <g id="matplotlib.axis_2">
    <g id="ytick_1">
     <g id="line2d_7">
      <defs>
       <path d="M 0 0 
L -3.5 0 
" id="m600f99a258" style="stroke:#000000;stroke-width:0.8;"/>
      </defs>
      <g>
       <use style="stroke:#000000;stroke-width:0.8;" x="57.6" xlink:href="#m600f99a258" y="271.026754"/>
      </g>
     </g>
     <g id="text_7">
      <!-- 0.10 -->
      <g transform="translate(28.334375 274.825973)scale(0.1 -0.1)">
       <use xlink:href="#DejaVuSans-48"/>
       <use x="63.623047" xlink:href="#DejaVuSans-46"/>
       <use x="95.410156" xlink:href="#DejaVuSans-49"/>
       <use x="159.033203" xlink:href="#DejaVuSans-48"/>
      </g>
     </g>
    </g>
    <g id="ytick_2">
     <g id="line2d_8">
      <g>
       <use style="stroke:#000000;stroke-width:0.8;" x="57.6" xlink:href="#m600f99a258" y="220.316529"/>
      </g>
     </g>
     <g id="text_8">
      <!-- 0.15 -->
      <g transform="translate(28.334375 224.115747)scale(0.1 -0.1)">
       <defs>
        <path d="M 10.796875 72.90625 
L 49.515625 72.90625 
L 49.515625 64.59375 
L 19.828125 64.59375 
L 19.828125 46.734375 
Q 21.96875 47.46875 24.109375 47.828125 
Q 26.265625 48.1875 28.421875 48.1875 
Q 40.625 48.1875 47.75 41.5 
Q 54.890625 34.8125 54.890625 23.390625 
Q 54.890625 11.625 47.5625 5.09375 
Q 40.234375 -1.421875 26.90625 -1.421875 
Q 22.3125 -1.421875 17.546875 -0.640625 
Q 12.796875 0.140625 7.71875 1.703125 
L 7.71875 11.625 
Q 12.109375 9.234375 16.796875 8.0625 
Q 21.484375 6.890625 26.703125 6.890625 
Q 35.15625 6.890625 40.078125 11.328125 
Q 45.015625 15.765625 45.015625 23.390625 
Q 45.015625 31 40.078125 35.4375 
Q 35.15625 39.890625 26.703125 39.890625 
Q 22.75 39.890625 18.8125 39.015625 
Q 14.890625 38.140625 10.796875 36.28125 
z
" id="DejaVuSans-53"/>
       </defs>
       <use xlink:href="#DejaVuSans-48"/>
       <use x="63.623047" xlink:href="#DejaVuSans-46"/>
       <use x="95.410156" xlink:href="#DejaVuSans-49"/>
       <use x="159.033203" xlink:href="#DejaVuSans-53"/>
      </g>
     </g>
    </g>
    <g id="ytick_3">
     <g id="line2d_9">
      <g>
       <use style="stroke:#000000;stroke-width:0.8;" x="57.6" xlink:href="#m600f99a258" y="169.606303"/>
      </g>
     </g>
     <g id="text_9">
      <!-- 0.20 -->
      <g transform="translate(28.334375 173.405522)scale(0.1 -0.1)">
       <use xlink:href="#DejaVuSans-48"/>
       <use x="63.623047" xlink:href="#DejaVuSans-46"/>
       <use x="95.410156" xlink:href="#DejaVuSans-50"/>
       <use x="159.033203" xlink:href="#DejaVuSans-48"/>
      </g>
     </g>
    </g>
    <g id="ytick_4">
     <g id="line2d_10">
      <g>
       <use style="stroke:#000000;stroke-width:0.8;" x="57.6" xlink:href="#m600f99a258" y="118.896078"/>
      </g>
     </g>
     <g id="text_10">
      <!-- 0.25 -->
      <g transform="translate(28.334375 122.695297)scale(0.1 -0.1)">
       <use xlink:href="#DejaVuSans-48"/>
       <use x="63.623047" xlink:href="#DejaVuSans-46"/>
       <use x="95.410156" xlink:href="#DejaVuSans-50"/>
       <use x="159.033203" xlink:href="#DejaVuSans-53"/>
      </g>
     </g>
    </g>
    <g id="ytick_5">
     <g id="line2d_11">
      <g>
       <use style="stroke:#000000;stroke-width:0.8;" x="57.6" xlink:href="#m600f99a258" y="68.185853"/>
      </g>
     </g>
     <g id="text_11">
      <!-- 0.30 -->
      <g transform="translate(28.334375 71.985072)scale(0.1 -0.1)">
       <defs>
        <path d="M 40.578125 39.3125 
Q 47.65625 37.796875 51.625 33 
Q 55.609375 28.21875 55.609375 21.1875 
Q 55.609375 10.40625 48.1875 4.484375 
Q 40.765625 -1.421875 27.09375 -1.421875 
Q 22.515625 -1.421875 17.65625 -0.515625 
Q 12.796875 0.390625 7.625 2.203125 
L 7.625 11.71875 
Q 11.71875 9.328125 16.59375 8.109375 
Q 21.484375 6.890625 26.8125 6.890625 
Q 36.078125 6.890625 40.9375 10.546875 
Q 45.796875 14.203125 45.796875 21.1875 
Q 45.796875 27.640625 41.28125 31.265625 
Q 36.765625 34.90625 28.71875 34.90625 
L 20.21875 34.90625 
L 20.21875 43.015625 
L 29.109375 43.015625 
Q 36.375 43.015625 40.234375 45.921875 
Q 44.09375 48.828125 44.09375 54.296875 
Q 44.09375 59.90625 40.109375 62.90625 
Q 36.140625 65.921875 28.71875 65.921875 
Q 24.65625 65.921875 20.015625 65.03125 
Q 15.375 64.15625 9.8125 62.3125 
L 9.8125 71.09375 
Q 15.4375 72.65625 20.34375 73.4375 
Q 25.25 74.21875 29.59375 74.21875 
Q 40.828125 74.21875 47.359375 69.109375 
Q 53.90625 64.015625 53.90625 55.328125 
Q 53.90625 49.265625 50.4375 45.09375 
Q 46.96875 40.921875 40.578125 39.3125 
z
" id="DejaVuSans-51"/>
       </defs>
       <use xlink:href="#DejaVuSans-48"/>
       <use x="63.623047" xlink:href="#DejaVuSans-46"/>
       <use x="95.410156" xlink:href="#DejaVuSans-51"/>
       <use x="159.033203" xlink:href="#DejaVuSans-48"/>
      </g>
     </g>
    </g>
   </g>
   <g id="line2d_12">
    <defs>
     <path d="M 0 3 
C 0.795609 3 1.55874 2.683901 2.12132 2.12132 
C 2.683901 1.55874 3 0.795609 3 0 
C 3 -0.795609 2.683901 -1.55874 2.12132 -2.12132 
C 1.55874 -2.683901 0.795609 -3 0 -3 
C -0.795609 -3 -1.55874 -2.683901 -2.12132 -2.12132 
C -2.683901 -1.55874 -3 -0.795609 -3 0 
C -3 0.795609 -2.683901 1.55874 -2.12132 2.12132 
C -1.55874 2.683901 -0.795609 3 0 3 
z
" id="mfa7256f600" style="stroke:#666666;"/>
    </defs>
    <g clip-path="url(#p86fc295ceb)">
     <use style="fill:#666666;stroke:#666666;" x="228.562814" xlink:href="#mfa7256f600" y="78.729812"/>
    </g>
   </g>
   <g id="line2d_13">
    <g clip-path="url(#p86fc295ceb)">
     <use style="fill:#666666;stroke:#666666;" x="228.56326" xlink:href="#mfa7256f600" y="78.728572"/>
    </g>
   </g>
   <g id="line2d_14">
    <g clip-path="url(#p86fc295ceb)">
     <use style="fill:#666666;stroke:#666666;" x="228.563511" xlink:href="#mfa7256f600" y="78.729173"/>
    </g>
   </g>
   <g id="line2d_15">
    <g clip-path="url(#p86fc295ceb)">
     <use style="fill:#666666;stroke:#666666;" x="228.562566" xlink:href="#mfa7256f600" y="78.728353"/>
    </g>
   </g>
   <g id="line2d_16">
    <g clip-path="url(#p86fc295ceb)">
     <use style="fill:#666666;stroke:#666666;" x="228.563121" xlink:href="#mfa7256f600" y="78.728916"/>
    </g>
   </g>
   <g id="line2d_17">
    <g clip-path="url(#p86fc295ceb)">
     <use style="fill:#666666;stroke:#666666;" x="228.563469" xlink:href="#mfa7256f600" y="78.729005"/>
    </g>
   </g>
   <g id="line2d_18">
    <g clip-path="url(#p86fc295ceb)">
     <use style="fill:#666666;stroke:#666666;" x="228.562565" xlink:href="#mfa7256f600" y="78.728337"/>
    </g>
   </g>
   <g id="line2d_19">
    <g clip-path="url(#p86fc295ceb)">
     <use style="fill:#666666;stroke:#666666;" x="228.562958" xlink:href="#mfa7256f600" y="78.729449"/>
    </g>
   </g>
   <g id="line2d_20">
    <g clip-path="url(#p86fc295ceb)">
     <use style="fill:#666666;stroke:#666666;" x="228.562704" xlink:href="#mfa7256f600" y="78.73017"/>
    </g>
   </g>
   <g id="line2d_21">
    <g clip-path="url(#p86fc295ceb)">
     <use style="fill:#666666;stroke:#666666;" x="228.562748" xlink:href="#mfa7256f600" y="78.729815"/>
    </g>
   </g>
   <g id="line2d_22">
    <g clip-path="url(#p86fc295ceb)">
     <use style="fill:#666666;stroke:#666666;" x="228.715777" xlink:href="#mfa7256f600" y="78.896947"/>
    </g>
   </g>
   <g id="line2d_23">
    <g clip-path="url(#p86fc295ceb)">
     <use style="fill:#666666;stroke:#666666;" x="230.716509" xlink:href="#mfa7256f600" y="79.319174"/>
    </g>
   </g>
   <g id="line2d_24">
    <g clip-path="url(#p86fc295ceb)">
     <use style="fill:#666666;stroke:#666666;" x="234.111102" xlink:href="#mfa7256f600" y="79.159274"/>
    </g>
   </g>
   <g id="line2d_25">
    <g clip-path="url(#p86fc295ceb)">
     <use style="fill:#666666;stroke:#666666;" x="238.12326" xlink:href="#mfa7256f600" y="79.281447"/>
    </g>
   </g>
   <g id="line2d_26">
    <g clip-path="url(#p86fc295ceb)">
     <use style="fill:#666666;stroke:#666666;" x="241.745244" xlink:href="#mfa7256f600" y="79.287228"/>
    </g>
   </g>
   <g id="line2d_27">
    <g clip-path="url(#p86fc295ceb)">
     <use style="fill:#666666;stroke:#666666;" x="245.673964" xlink:href="#mfa7256f600" y="79.568661"/>
    </g>
   </g>
   <g id="line2d_28">
    <g clip-path="url(#p86fc295ceb)">
     <use style="fill:#666666;stroke:#666666;" x="249.614857" xlink:href="#mfa7256f600" y="79.580429"/>
    </g>
   </g>
   <g id="line2d_29">
    <g clip-path="url(#p86fc295ceb)">
     <use style="fill:#666666;stroke:#666666;" x="253.529503" xlink:href="#mfa7256f600" y="79.648573"/>
    </g>
   </g>
   <g id="line2d_30">
    <g clip-path="url(#p86fc295ceb)">
     <use style="fill:#666666;stroke:#666666;" x="257.174949" xlink:href="#mfa7256f600" y="77.904136"/>
    </g>
   </g>
   <g id="line2d_31">
    <g clip-path="url(#p86fc295ceb)">
     <use style="fill:#666666;stroke:#666666;" x="260.569484" xlink:href="#mfa7256f600" y="72.694917"/>
    </g>
   </g>
   <g id="line2d_32">
    <g clip-path="url(#p86fc295ceb)">
     <use style="fill:#666666;stroke:#666666;" x="263.964445" xlink:href="#mfa7256f600" y="64.829001"/>
    </g>
   </g>
   <g id="line2d_33">
    <g clip-path="url(#p86fc295ceb)">
     <use style="fill:#666666;stroke:#666666;" x="267.885921" xlink:href="#mfa7256f600" y="56.477054"/>
    </g>
   </g>
   <g id="line2d_34">
    <g clip-path="url(#p86fc295ceb)">
     <use style="fill:#666666;stroke:#666666;" x="271.607972" xlink:href="#mfa7256f600" y="53.568"/>
    </g>
   </g>
   <g id="line2d_35">
    <g clip-path="url(#p86fc295ceb)">
     <use style="fill:#666666;stroke:#666666;" x="275.315594" xlink:href="#mfa7256f600" y="53.824119"/>
    </g>
   </g>
   <g id="line2d_36">
    <g clip-path="url(#p86fc295ceb)">
     <use style="fill:#666666;stroke:#666666;" x="278.936442" xlink:href="#mfa7256f600" y="54.35431"/>
    </g>
   </g>
   <g id="line2d_37">
    <g clip-path="url(#p86fc295ceb)">
     <use style="fill:#666666;stroke:#666666;" x="282.884097" xlink:href="#mfa7256f600" y="54.665113"/>
    </g>
   </g>
   <g id="line2d_38">
    <g clip-path="url(#p86fc295ceb)">
     <use style="fill:#666666;stroke:#666666;" x="286.551676" xlink:href="#mfa7256f600" y="55.000784"/>
    </g>
   </g>
   <g id="line2d_39">
    <g clip-path="url(#p86fc295ceb)">
     <use style="fill:#666666;stroke:#666666;" x="290.174631" xlink:href="#mfa7256f600" y="55.567894"/>
    </g>
   </g>
   <g id="line2d_40">
    <g clip-path="url(#p86fc295ceb)">
     <use style="fill:#666666;stroke:#666666;" x="293.731578" xlink:href="#mfa7256f600" y="56.007103"/>
    </g>
   </g>
   <g id="line2d_41">
    <g clip-path="url(#p86fc295ceb)">
     <use style="fill:#666666;stroke:#666666;" x="297.352974" xlink:href="#mfa7256f600" y="57.320733"/>
    </g>
   </g>
   <g id="line2d_42">
    <g clip-path="url(#p86fc295ceb)">
     <use style="fill:#666666;stroke:#666666;" x="301.279177" xlink:href="#mfa7256f600" y="59.509907"/>
    </g>
   </g>
   <g id="line2d_43">
    <g clip-path="url(#p86fc295ceb)">
     <use style="fill:#666666;stroke:#666666;" x="304.818441" xlink:href="#mfa7256f600" y="61.565689"/>
    </g>
   </g>
   <g id="line2d_44">
    <g clip-path="url(#p86fc295ceb)">
     <use style="fill:#666666;stroke:#666666;" x="308.410813" xlink:href="#mfa7256f600" y="63.9694"/>
    </g>
   </g>
   <g id="line2d_45">
    <g clip-path="url(#p86fc295ceb)">
     <use style="fill:#666666;stroke:#666666;" x="311.998146" xlink:href="#mfa7256f600" y="66.720357"/>
    </g>
   </g>
   <g id="line2d_46">
    <g clip-path="url(#p86fc295ceb)">
     <use style="fill:#666666;stroke:#666666;" x="315.594428" xlink:href="#mfa7256f600" y="70.206881"/>
    </g>
   </g>
   <g id="line2d_47">
    <g clip-path="url(#p86fc295ceb)">
     <use style="fill:#666666;stroke:#666666;" x="319.192455" xlink:href="#mfa7256f600" y="74.118091"/>
    </g>
   </g>
   <g id="line2d_48">
    <g clip-path="url(#p86fc295ceb)">
     <use style="fill:#666666;stroke:#666666;" x="322.549428" xlink:href="#mfa7256f600" y="78.57996"/>
    </g>
   </g>
   <g id="line2d_49">
    <g clip-path="url(#p86fc295ceb)">
     <use style="fill:#666666;stroke:#666666;" x="325.177025" xlink:href="#mfa7256f600" y="83.60468"/>
    </g>
   </g>
   <g id="line2d_50">
    <g clip-path="url(#p86fc295ceb)">
     <use style="fill:#666666;stroke:#666666;" x="327.165608" xlink:href="#mfa7256f600" y="88.554425"/>
    </g>
   </g>
   <g id="line2d_51">
    <g clip-path="url(#p86fc295ceb)">
     <use style="fill:#666666;stroke:#666666;" x="329.151882" xlink:href="#mfa7256f600" y="94.144522"/>
    </g>
   </g>
   <g id="line2d_52">
    <g clip-path="url(#p86fc295ceb)">
     <use style="fill:#666666;stroke:#666666;" x="331.230443" xlink:href="#mfa7256f600" y="100.520486"/>
    </g>
   </g>
   <g id="line2d_53">
    <g clip-path="url(#p86fc295ceb)">
     <use style="fill:#666666;stroke:#666666;" x="333.110229" xlink:href="#mfa7256f600" y="106.315567"/>
    </g>
   </g>
   <g id="line2d_54">
    <g clip-path="url(#p86fc295ceb)">
     <use style="fill:#666666;stroke:#666666;" x="335.105307" xlink:href="#mfa7256f600" y="112.695666"/>
    </g>
   </g>
   <g id="line2d_55">
    <g clip-path="url(#p86fc295ceb)">
     <use style="fill:#666666;stroke:#666666;" x="337.065619" xlink:href="#mfa7256f600" y="119.021761"/>
    </g>
   </g>
   <g id="line2d_56">
    <g clip-path="url(#p86fc295ceb)">
     <use style="fill:#666666;stroke:#666666;" x="339.201953" xlink:href="#mfa7256f600" y="126.979563"/>
    </g>
   </g>
   <g id="line2d_57">
    <g clip-path="url(#p86fc295ceb)">
     <use style="fill:#666666;stroke:#666666;" x="341.066192" xlink:href="#mfa7256f600" y="134.668863"/>
    </g>
   </g>
   <g id="line2d_58">
    <g clip-path="url(#p86fc295ceb)">
     <use style="fill:#666666;stroke:#666666;" x="343.057843" xlink:href="#mfa7256f600" y="143.187368"/>
    </g>
   </g>
   <g id="line2d_59">
    <g clip-path="url(#p86fc295ceb)">
     <use style="fill:#666666;stroke:#666666;" x="344.860932" xlink:href="#mfa7256f600" y="152.087459"/>
    </g>
   </g>
   <g id="line2d_60">
    <g clip-path="url(#p86fc295ceb)">
     <use style="fill:#666666;stroke:#666666;" x="345.361622" xlink:href="#mfa7256f600" y="159.894105"/>
    </g>
   </g>
   <g id="line2d_61">
    <g clip-path="url(#p86fc295ceb)">
     <use style="fill:#666666;stroke:#666666;" x="345.621519" xlink:href="#mfa7256f600" y="165.129975"/>
    </g>
   </g>
   <g id="line2d_62">
    <g clip-path="url(#p86fc295ceb)">
     <use style="fill:#666666;stroke:#666666;" x="345.703362" xlink:href="#mfa7256f600" y="166.81626"/>
    </g>
   </g>
   <g id="line2d_63">
    <g clip-path="url(#p86fc295ceb)">
     <use style="fill:#666666;stroke:#666666;" x="345.682941" xlink:href="#mfa7256f600" y="167.574761"/>
    </g>
   </g>
   <g id="line2d_64">
    <g clip-path="url(#p86fc295ceb)">
     <use style="fill:#666666;stroke:#666666;" x="345.688346" xlink:href="#mfa7256f600" y="167.647467"/>
    </g>
   </g>
   <g id="line2d_65">
    <g clip-path="url(#p86fc295ceb)">
     <use style="fill:#666666;stroke:#666666;" x="345.689433" xlink:href="#mfa7256f600" y="167.683123"/>
    </g>
   </g>
   <g id="line2d_66">
    <g clip-path="url(#p86fc295ceb)">
     <use style="fill:#666666;stroke:#666666;" x="345.654981" xlink:href="#mfa7256f600" y="171.244649"/>
    </g>
   </g>
   <g id="line2d_67">
    <g clip-path="url(#p86fc295ceb)">
     <use style="fill:#666666;stroke:#666666;" x="345.607234" xlink:href="#mfa7256f600" y="180.566983"/>
    </g>
   </g>
   <g id="line2d_68">
    <g clip-path="url(#p86fc295ceb)">
     <use style="fill:#666666;stroke:#666666;" x="345.500298" xlink:href="#mfa7256f600" y="190.520929"/>
    </g>
   </g>
   <g id="line2d_69">
    <g clip-path="url(#p86fc295ceb)">
     <use style="fill:#666666;stroke:#666666;" x="345.520802" xlink:href="#mfa7256f600" y="198.487057"/>
    </g>
   </g>
   <g id="line2d_70">
    <g clip-path="url(#p86fc295ceb)">
     <use style="fill:#666666;stroke:#666666;" x="345.662298" xlink:href="#mfa7256f600" y="199.768391"/>
    </g>
   </g>
   <g id="line2d_71">
    <g clip-path="url(#p86fc295ceb)">
     <use style="fill:#666666;stroke:#666666;" x="345.666708" xlink:href="#mfa7256f600" y="200.014582"/>
    </g>
   </g>
   <g id="line2d_72">
    <g clip-path="url(#p86fc295ceb)">
     <use style="fill:#666666;stroke:#666666;" x="345.674038" xlink:href="#mfa7256f600" y="200.094649"/>
    </g>
   </g>
   <g id="line2d_73">
    <g clip-path="url(#p86fc295ceb)">
     <use style="fill:#666666;stroke:#666666;" x="345.786319" xlink:href="#mfa7256f600" y="201.217084"/>
    </g>
   </g>
   <g id="line2d_74">
    <g clip-path="url(#p86fc295ceb)">
     <use style="fill:#666666;stroke:#666666;" x="345.864024" xlink:href="#mfa7256f600" y="204.565435"/>
    </g>
   </g>
   <g id="line2d_75">
    <g clip-path="url(#p86fc295ceb)">
     <use style="fill:#666666;stroke:#666666;" x="345.895903" xlink:href="#mfa7256f600" y="210.534015"/>
    </g>
   </g>
   <g id="line2d_76">
    <g clip-path="url(#p86fc295ceb)">
     <use style="fill:#666666;stroke:#666666;" x="345.924432" xlink:href="#mfa7256f600" y="216.180273"/>
    </g>
   </g>
   <g id="line2d_77">
    <g clip-path="url(#p86fc295ceb)">
     <use style="fill:#666666;stroke:#666666;" x="347.597102" xlink:href="#mfa7256f600" y="223.853632"/>
    </g>
   </g>
   <g id="line2d_78">
    <g clip-path="url(#p86fc295ceb)">
     <use style="fill:#666666;stroke:#666666;" x="351.174354" xlink:href="#mfa7256f600" y="234.56581"/>
    </g>
   </g>
   <g id="line2d_79">
    <g clip-path="url(#p86fc295ceb)">
     <use style="fill:#666666;stroke:#666666;" x="354.689809" xlink:href="#mfa7256f600" y="245.976682"/>
    </g>
   </g>
   <g id="line2d_80">
    <g clip-path="url(#p86fc295ceb)">
     <use style="fill:#666666;stroke:#666666;" x="358.352344" xlink:href="#mfa7256f600" y="257.053594"/>
    </g>
   </g>
   <g id="line2d_81">
    <g clip-path="url(#p86fc295ceb)">
     <use style="fill:#666666;stroke:#666666;" x="361.799486" xlink:href="#mfa7256f600" y="267.244322"/>
    </g>
   </g>
   <g id="line2d_82">
    <g clip-path="url(#p86fc295ceb)">
     <use style="fill:#666666;stroke:#666666;" x="364.895161" xlink:href="#mfa7256f600" y="276.298531"/>
    </g>
   </g>
   <g id="line2d_83">
    <g clip-path="url(#p86fc295ceb)">
     <use style="fill:#666666;stroke:#666666;" x="365.453853" xlink:href="#mfa7256f600" y="277.399112"/>
    </g>
   </g>
   <g id="line2d_84">
    <g clip-path="url(#p86fc295ceb)">
     <use style="fill:#666666;stroke:#666666;" x="365.585214" xlink:href="#mfa7256f600" y="277.599533"/>
    </g>
   </g>
   <g id="line2d_85">
    <g clip-path="url(#p86fc295ceb)">
     <use style="fill:#666666;stroke:#666666;" x="365.648375" xlink:href="#mfa7256f600" y="277.702271"/>
    </g>
   </g>
   <g id="line2d_86">
    <g clip-path="url(#p86fc295ceb)">
     <use style="fill:#666666;stroke:#666666;" x="365.764574" xlink:href="#mfa7256f600" y="278.347784"/>
    </g>
   </g>
   <g id="line2d_87">
    <g clip-path="url(#p86fc295ceb)">
     <use style="fill:#666666;stroke:#666666;" x="365.884664" xlink:href="#mfa7256f600" y="281.822553"/>
    </g>
   </g>
   <g id="line2d_88">
    <g clip-path="url(#p86fc295ceb)">
     <use style="fill:#666666;stroke:#666666;" x="366.194914" xlink:href="#mfa7256f600" y="287.170733"/>
    </g>
   </g>
   <g id="line2d_89">
    <g clip-path="url(#p86fc295ceb)">
     <use style="fill:#666666;stroke:#666666;" x="367.856065" xlink:href="#mfa7256f600" y="291.779296"/>
    </g>
   </g>
   <g id="line2d_90">
    <g clip-path="url(#p86fc295ceb)">
     <use style="fill:#666666;stroke:#666666;" x="370.093755" xlink:href="#mfa7256f600" y="293.385349"/>
    </g>
   </g>
   <g id="line2d_91">
    <g clip-path="url(#p86fc295ceb)">
     <use style="fill:#666666;stroke:#666666;" x="372.290712" xlink:href="#mfa7256f600" y="294.234245"/>
    </g>
   </g>
   <g id="line2d_92">
    <g clip-path="url(#p86fc295ceb)">
     <use style="fill:#666666;stroke:#666666;" x="374.13668" xlink:href="#mfa7256f600" y="295.017527"/>
    </g>
   </g>
   <g id="line2d_93">
    <g clip-path="url(#p86fc295ceb)">
     <use style="fill:#666666;stroke:#666666;" x="374.53152" xlink:href="#mfa7256f600" y="295.269171"/>
    </g>
   </g>
   <g id="line2d_94">
    <g clip-path="url(#p86fc295ceb)">
     <use style="fill:#666666;stroke:#666666;" x="374.593362" xlink:href="#mfa7256f600" y="295.464587"/>
    </g>
   </g>
   <g id="line2d_95">
    <g clip-path="url(#p86fc295ceb)">
     <use style="fill:#666666;stroke:#666666;" x="374.603483" xlink:href="#mfa7256f600" y="295.452581"/>
    </g>
   </g>
   <g id="line2d_96">
    <g clip-path="url(#p86fc295ceb)">
     <use style="fill:#666666;stroke:#666666;" x="374.607494" xlink:href="#mfa7256f600" y="295.4703"/>
    </g>
   </g>
   <g id="line2d_97">
    <g clip-path="url(#p86fc295ceb)">
     <use style="fill:#666666;stroke:#666666;" x="374.610626" xlink:href="#mfa7256f600" y="295.469946"/>
    </g>
   </g>
   <g id="line2d_98">
    <g clip-path="url(#p86fc295ceb)">
     <use style="fill:#666666;stroke:#666666;" x="374.612155" xlink:href="#mfa7256f600" y="295.473838"/>
    </g>
   </g>
   <g id="line2d_99">
    <g clip-path="url(#p86fc295ceb)">
     <use style="fill:#666666;stroke:#666666;" x="374.613284" xlink:href="#mfa7256f600" y="295.477559"/>
    </g>
   </g>
   <g id="line2d_100">
    <g clip-path="url(#p86fc295ceb)">
     <use style="fill:#666666;stroke:#666666;" x="374.614162" xlink:href="#mfa7256f600" y="295.484501"/>
    </g>
   </g>
   <g id="line2d_101">
    <g clip-path="url(#p86fc295ceb)">
     <use style="fill:#666666;stroke:#666666;" x="374.614644" xlink:href="#mfa7256f600" y="295.488"/>
    </g>
   </g>
   <g id="patch_3">
    <path d="M 57.6 307.584 
L 57.6 41.472 
" style="fill:none;stroke:#000000;stroke-linecap:square;stroke-linejoin:miter;stroke-width:0.8;"/>
   </g>
   <g id="patch_4">
    <path d="M 414.72 307.584 
L 414.72 41.472 
" style="fill:none;stroke:#000000;stroke-linecap:square;stroke-linejoin:miter;stroke-width:0.8;"/>
   </g>
   <g id="patch_5">
    <path d="M 57.6 307.584 
L 414.72 307.584 
" style="fill:none;stroke:#000000;stroke-linecap:square;stroke-linejoin:miter;stroke-width:0.8;"/>
   </g>
   <g id="patch_6">
    <path d="M 57.6 41.472 
L 414.72 41.472 
" style="fill:none;stroke:#000000;stroke-linecap:square;stroke-linejoin:miter;stroke-width:0.8;"/>
   </g>
  </g>
 </g>
 <defs>
  <clipPath id="p86fc295ceb">
   <rect height="266.112" width="357.12" x="57.6" y="41.472"/>
  </clipPath>
 </defs>
</svg>
