<?xml version="1.0" encoding="utf-8" standalone="no"?>
<!DOCTYPE svg PUBLIC "-//W3C//DTD SVG 1.1//EN"
  "http://www.w3.org/Graphics/SVG/1.1/DTD/svg11.dtd">
<!-- Created with matplotlib (https://matplotlib.org/) -->
<svg height="345.6pt" version="1.1" viewBox="0 0 460.8 345.6" width="460.8pt" xmlns="http://www.w3.org/2000/svg" xmlns:xlink="http://www.w3.org/1999/xlink">
 <metadata>
  <rdf:RDF xmlns:cc="http://creativecommons.org/ns#" xmlns:dc="http://purl.org/dc/elements/1.1/" xmlns:rdf="http://www.w3.org/1999/02/22-rdf-syntax-ns#">
   <cc:Work>
    <dc:type rdf:resource="http://purl.org/dc/dcmitype/StillImage"/>
    <dc:date>2021-02-23T15:28:40.110772</dc:date>
    <dc:format>image/svg+xml</dc:format>
    <dc:creator>
     <cc:Agent>
      <dc:title>Matplotlib v3.3.3, https://matplotlib.org/</dc:title>
     </cc:Agent>
    </dc:creator>
   </cc:Work>
  </rdf:RDF>
 </metadata>
 <defs>
  <style type="text/css">*{stroke-linecap:butt;stroke-linejoin:round;}</style>
 </defs>
 <g id="figure_1">
  <g id="patch_1">
   <path d="M 0 345.6 
L 460.8 345.6 
L 460.8 0 
L 0 0 
z
" style="fill:#ffffff;"/>
  </g>
  <g id="axes_1">
   <g id="patch_2">
    <path d="M 57.6 307.584 
L 414.72 307.584 
L 414.72 41.472 
L 57.6 41.472 
z
" style="fill:#ffffff;"/>
   </g>
   <g id="matplotlib.axis_1">
    <g id="xtick_1">
     <g id="line2d_1">
      <defs>
       <path d="M 0 0 
L 0 3.5 
" id="mea9825373b" style="stroke:#000000;stroke-width:0.8;"/>
      </defs>
      <g>
       <use style="stroke:#000000;stroke-width:0.8;" x="71.292447" xlink:href="#mea9825373b" y="307.584"/>
      </g>
     </g>
     <g id="text_1">
      <!-- −0.45 -->
      <g transform="translate(55.969791 322.182437)scale(0.1 -0.1)">
       <defs>
        <path d="M 10.59375 35.5 
L 73.1875 35.5 
L 73.1875 27.203125 
L 10.59375 27.203125 
z
" id="DejaVuSans-8722"/>
        <path d="M 31.78125 66.40625 
Q 24.171875 66.40625 20.328125 58.90625 
Q 16.5 51.421875 16.5 36.375 
Q 16.5 21.390625 20.328125 13.890625 
Q 24.171875 6.390625 31.78125 6.390625 
Q 39.453125 6.390625 43.28125 13.890625 
Q 47.125 21.390625 47.125 36.375 
Q 47.125 51.421875 43.28125 58.90625 
Q 39.453125 66.40625 31.78125 66.40625 
z
M 31.78125 74.21875 
Q 44.046875 74.21875 50.515625 64.515625 
Q 56.984375 54.828125 56.984375 36.375 
Q 56.984375 17.96875 50.515625 8.265625 
Q 44.046875 -1.421875 31.78125 -1.421875 
Q 19.53125 -1.421875 13.0625 8.265625 
Q 6.59375 17.96875 6.59375 36.375 
Q 6.59375 54.828125 13.0625 64.515625 
Q 19.53125 74.21875 31.78125 74.21875 
z
" id="DejaVuSans-48"/>
        <path d="M 10.6875 12.40625 
L 21 12.40625 
L 21 0 
L 10.6875 0 
z
" id="DejaVuSans-46"/>
        <path d="M 37.796875 64.3125 
L 12.890625 25.390625 
L 37.796875 25.390625 
z
M 35.203125 72.90625 
L 47.609375 72.90625 
L 47.609375 25.390625 
L 58.015625 25.390625 
L 58.015625 17.1875 
L 47.609375 17.1875 
L 47.609375 0 
L 37.796875 0 
L 37.796875 17.1875 
L 4.890625 17.1875 
L 4.890625 26.703125 
z
" id="DejaVuSans-52"/>
        <path d="M 10.796875 72.90625 
L 49.515625 72.90625 
L 49.515625 64.59375 
L 19.828125 64.59375 
L 19.828125 46.734375 
Q 21.96875 47.46875 24.109375 47.828125 
Q 26.265625 48.1875 28.421875 48.1875 
Q 40.625 48.1875 47.75 41.5 
Q 54.890625 34.8125 54.890625 23.390625 
Q 54.890625 11.625 47.5625 5.09375 
Q 40.234375 -1.421875 26.90625 -1.421875 
Q 22.3125 -1.421875 17.546875 -0.640625 
Q 12.796875 0.140625 7.71875 1.703125 
L 7.71875 11.625 
Q 12.109375 9.234375 16.796875 8.0625 
Q 21.484375 6.890625 26.703125 6.890625 
Q 35.15625 6.890625 40.078125 11.328125 
Q 45.015625 15.765625 45.015625 23.390625 
Q 45.015625 31 40.078125 35.4375 
Q 35.15625 39.890625 26.703125 39.890625 
Q 22.75 39.890625 18.8125 39.015625 
Q 14.890625 38.140625 10.796875 36.28125 
z
" id="DejaVuSans-53"/>
       </defs>
       <use xlink:href="#DejaVuSans-8722"/>
       <use x="83.789062" xlink:href="#DejaVuSans-48"/>
       <use x="147.412109" xlink:href="#DejaVuSans-46"/>
       <use x="179.199219" xlink:href="#DejaVuSans-52"/>
       <use x="242.822266" xlink:href="#DejaVuSans-53"/>
      </g>
     </g>
    </g>
    <g id="xtick_2">
     <g id="line2d_2">
      <g>
       <use style="stroke:#000000;stroke-width:0.8;" x="119.495537" xlink:href="#mea9825373b" y="307.584"/>
      </g>
     </g>
     <g id="text_2">
      <!-- −0.40 -->
      <g transform="translate(104.172881 322.182437)scale(0.1 -0.1)">
       <use xlink:href="#DejaVuSans-8722"/>
       <use x="83.789062" xlink:href="#DejaVuSans-48"/>
       <use x="147.412109" xlink:href="#DejaVuSans-46"/>
       <use x="179.199219" xlink:href="#DejaVuSans-52"/>
       <use x="242.822266" xlink:href="#DejaVuSans-48"/>
      </g>
     </g>
    </g>
    <g id="xtick_3">
     <g id="line2d_3">
      <g>
       <use style="stroke:#000000;stroke-width:0.8;" x="167.698627" xlink:href="#mea9825373b" y="307.584"/>
      </g>
     </g>
     <g id="text_3">
      <!-- −0.35 -->
      <g transform="translate(152.375971 322.182437)scale(0.1 -0.1)">
       <defs>
        <path d="M 40.578125 39.3125 
Q 47.65625 37.796875 51.625 33 
Q 55.609375 28.21875 55.609375 21.1875 
Q 55.609375 10.40625 48.1875 4.484375 
Q 40.765625 -1.421875 27.09375 -1.421875 
Q 22.515625 -1.421875 17.65625 -0.515625 
Q 12.796875 0.390625 7.625 2.203125 
L 7.625 11.71875 
Q 11.71875 9.328125 16.59375 8.109375 
Q 21.484375 6.890625 26.8125 6.890625 
Q 36.078125 6.890625 40.9375 10.546875 
Q 45.796875 14.203125 45.796875 21.1875 
Q 45.796875 27.640625 41.28125 31.265625 
Q 36.765625 34.90625 28.71875 34.90625 
L 20.21875 34.90625 
L 20.21875 43.015625 
L 29.109375 43.015625 
Q 36.375 43.015625 40.234375 45.921875 
Q 44.09375 48.828125 44.09375 54.296875 
Q 44.09375 59.90625 40.109375 62.90625 
Q 36.140625 65.921875 28.71875 65.921875 
Q 24.65625 65.921875 20.015625 65.03125 
Q 15.375 64.15625 9.8125 62.3125 
L 9.8125 71.09375 
Q 15.4375 72.65625 20.34375 73.4375 
Q 25.25 74.21875 29.59375 74.21875 
Q 40.828125 74.21875 47.359375 69.109375 
Q 53.90625 64.015625 53.90625 55.328125 
Q 53.90625 49.265625 50.4375 45.09375 
Q 46.96875 40.921875 40.578125 39.3125 
z
" id="DejaVuSans-51"/>
       </defs>
       <use xlink:href="#DejaVuSans-8722"/>
       <use x="83.789062" xlink:href="#DejaVuSans-48"/>
       <use x="147.412109" xlink:href="#DejaVuSans-46"/>
       <use x="179.199219" xlink:href="#DejaVuSans-51"/>
       <use x="242.822266" xlink:href="#DejaVuSans-53"/>
      </g>
     </g>
    </g>
    <g id="xtick_4">
     <g id="line2d_4">
      <g>
       <use style="stroke:#000000;stroke-width:0.8;" x="215.901717" xlink:href="#mea9825373b" y="307.584"/>
      </g>
     </g>
     <g id="text_4">
      <!-- −0.30 -->
      <g transform="translate(200.579061 322.182437)scale(0.1 -0.1)">
       <use xlink:href="#DejaVuSans-8722"/>
       <use x="83.789062" xlink:href="#DejaVuSans-48"/>
       <use x="147.412109" xlink:href="#DejaVuSans-46"/>
       <use x="179.199219" xlink:href="#DejaVuSans-51"/>
       <use x="242.822266" xlink:href="#DejaVuSans-48"/>
      </g>
     </g>
    </g>
    <g id="xtick_5">
     <g id="line2d_5">
      <g>
       <use style="stroke:#000000;stroke-width:0.8;" x="264.104807" xlink:href="#mea9825373b" y="307.584"/>
      </g>
     </g>
     <g id="text_5">
      <!-- −0.25 -->
      <g transform="translate(248.78215 322.182437)scale(0.1 -0.1)">
       <defs>
        <path d="M 19.1875 8.296875 
L 53.609375 8.296875 
L 53.609375 0 
L 7.328125 0 
L 7.328125 8.296875 
Q 12.9375 14.109375 22.625 23.890625 
Q 32.328125 33.6875 34.8125 36.53125 
Q 39.546875 41.84375 41.421875 45.53125 
Q 43.3125 49.21875 43.3125 52.78125 
Q 43.3125 58.59375 39.234375 62.25 
Q 35.15625 65.921875 28.609375 65.921875 
Q 23.96875 65.921875 18.8125 64.3125 
Q 13.671875 62.703125 7.8125 59.421875 
L 7.8125 69.390625 
Q 13.765625 71.78125 18.9375 73 
Q 24.125 74.21875 28.421875 74.21875 
Q 39.75 74.21875 46.484375 68.546875 
Q 53.21875 62.890625 53.21875 53.421875 
Q 53.21875 48.921875 51.53125 44.890625 
Q 49.859375 40.875 45.40625 35.40625 
Q 44.1875 33.984375 37.640625 27.21875 
Q 31.109375 20.453125 19.1875 8.296875 
z
" id="DejaVuSans-50"/>
       </defs>
       <use xlink:href="#DejaVuSans-8722"/>
       <use x="83.789062" xlink:href="#DejaVuSans-48"/>
       <use x="147.412109" xlink:href="#DejaVuSans-46"/>
       <use x="179.199219" xlink:href="#DejaVuSans-50"/>
       <use x="242.822266" xlink:href="#DejaVuSans-53"/>
      </g>
     </g>
    </g>
    <g id="xtick_6">
     <g id="line2d_6">
      <g>
       <use style="stroke:#000000;stroke-width:0.8;" x="312.307897" xlink:href="#mea9825373b" y="307.584"/>
      </g>
     </g>
     <g id="text_6">
      <!-- −0.20 -->
      <g transform="translate(296.98524 322.182437)scale(0.1 -0.1)">
       <use xlink:href="#DejaVuSans-8722"/>
       <use x="83.789062" xlink:href="#DejaVuSans-48"/>
       <use x="147.412109" xlink:href="#DejaVuSans-46"/>
       <use x="179.199219" xlink:href="#DejaVuSans-50"/>
       <use x="242.822266" xlink:href="#DejaVuSans-48"/>
      </g>
     </g>
    </g>
    <g id="xtick_7">
     <g id="line2d_7">
      <g>
       <use style="stroke:#000000;stroke-width:0.8;" x="360.510987" xlink:href="#mea9825373b" y="307.584"/>
      </g>
     </g>
     <g id="text_7">
      <!-- −0.15 -->
      <g transform="translate(345.18833 322.182437)scale(0.1 -0.1)">
       <defs>
        <path d="M 12.40625 8.296875 
L 28.515625 8.296875 
L 28.515625 63.921875 
L 10.984375 60.40625 
L 10.984375 69.390625 
L 28.421875 72.90625 
L 38.28125 72.90625 
L 38.28125 8.296875 
L 54.390625 8.296875 
L 54.390625 0 
L 12.40625 0 
z
" id="DejaVuSans-49"/>
       </defs>
       <use xlink:href="#DejaVuSans-8722"/>
       <use x="83.789062" xlink:href="#DejaVuSans-48"/>
       <use x="147.412109" xlink:href="#DejaVuSans-46"/>
       <use x="179.199219" xlink:href="#DejaVuSans-49"/>
       <use x="242.822266" xlink:href="#DejaVuSans-53"/>
      </g>
     </g>
    </g>
    <g id="xtick_8">
     <g id="line2d_8">
      <g>
       <use style="stroke:#000000;stroke-width:0.8;" x="408.714077" xlink:href="#mea9825373b" y="307.584"/>
      </g>
     </g>
     <g id="text_8">
      <!-- −0.10 -->
      <g transform="translate(393.39142 322.182437)scale(0.1 -0.1)">
       <use xlink:href="#DejaVuSans-8722"/>
       <use x="83.789062" xlink:href="#DejaVuSans-48"/>
       <use x="147.412109" xlink:href="#DejaVuSans-46"/>
       <use x="179.199219" xlink:href="#DejaVuSans-49"/>
       <use x="242.822266" xlink:href="#DejaVuSans-48"/>
      </g>
     </g>
    </g>
   </g>
   <g id="matplotlib.axis_2">
    <g id="ytick_1">
     <g id="line2d_9">
      <defs>
       <path d="M 0 0 
L -3.5 0 
" id="m973bdf9661" style="stroke:#000000;stroke-width:0.8;"/>
      </defs>
      <g>
       <use style="stroke:#000000;stroke-width:0.8;" x="57.6" xlink:href="#m973bdf9661" y="302.157096"/>
      </g>
     </g>
     <g id="text_9">
      <!-- 0.05 -->
      <g transform="translate(28.334375 305.956314)scale(0.1 -0.1)">
       <use xlink:href="#DejaVuSans-48"/>
       <use x="63.623047" xlink:href="#DejaVuSans-46"/>
       <use x="95.410156" xlink:href="#DejaVuSans-48"/>
       <use x="159.033203" xlink:href="#DejaVuSans-53"/>
      </g>
     </g>
    </g>
    <g id="ytick_2">
     <g id="line2d_10">
      <g>
       <use style="stroke:#000000;stroke-width:0.8;" x="57.6" xlink:href="#m973bdf9661" y="255.158229"/>
      </g>
     </g>
     <g id="text_10">
      <!-- 0.10 -->
      <g transform="translate(28.334375 258.957448)scale(0.1 -0.1)">
       <use xlink:href="#DejaVuSans-48"/>
       <use x="63.623047" xlink:href="#DejaVuSans-46"/>
       <use x="95.410156" xlink:href="#DejaVuSans-49"/>
       <use x="159.033203" xlink:href="#DejaVuSans-48"/>
      </g>
     </g>
    </g>
    <g id="ytick_3">
     <g id="line2d_11">
      <g>
       <use style="stroke:#000000;stroke-width:0.8;" x="57.6" xlink:href="#m973bdf9661" y="208.159362"/>
      </g>
     </g>
     <g id="text_11">
      <!-- 0.15 -->
      <g transform="translate(28.334375 211.958581)scale(0.1 -0.1)">
       <use xlink:href="#DejaVuSans-48"/>
       <use x="63.623047" xlink:href="#DejaVuSans-46"/>
       <use x="95.410156" xlink:href="#DejaVuSans-49"/>
       <use x="159.033203" xlink:href="#DejaVuSans-53"/>
      </g>
     </g>
    </g>
    <g id="ytick_4">
     <g id="line2d_12">
      <g>
       <use style="stroke:#000000;stroke-width:0.8;" x="57.6" xlink:href="#m973bdf9661" y="161.160496"/>
      </g>
     </g>
     <g id="text_12">
      <!-- 0.20 -->
      <g transform="translate(28.334375 164.959714)scale(0.1 -0.1)">
       <use xlink:href="#DejaVuSans-48"/>
       <use x="63.623047" xlink:href="#DejaVuSans-46"/>
       <use x="95.410156" xlink:href="#DejaVuSans-50"/>
       <use x="159.033203" xlink:href="#DejaVuSans-48"/>
      </g>
     </g>
    </g>
    <g id="ytick_5">
     <g id="line2d_13">
      <g>
       <use style="stroke:#000000;stroke-width:0.8;" x="57.6" xlink:href="#m973bdf9661" y="114.161629"/>
      </g>
     </g>
     <g id="text_13">
      <!-- 0.25 -->
      <g transform="translate(28.334375 117.960848)scale(0.1 -0.1)">
       <use xlink:href="#DejaVuSans-48"/>
       <use x="63.623047" xlink:href="#DejaVuSans-46"/>
       <use x="95.410156" xlink:href="#DejaVuSans-50"/>
       <use x="159.033203" xlink:href="#DejaVuSans-53"/>
      </g>
     </g>
    </g>
    <g id="ytick_6">
     <g id="line2d_14">
      <g>
       <use style="stroke:#000000;stroke-width:0.8;" x="57.6" xlink:href="#m973bdf9661" y="67.162762"/>
      </g>
     </g>
     <g id="text_14">
      <!-- 0.30 -->
      <g transform="translate(28.334375 70.961981)scale(0.1 -0.1)">
       <use xlink:href="#DejaVuSans-48"/>
       <use x="63.623047" xlink:href="#DejaVuSans-46"/>
       <use x="95.410156" xlink:href="#DejaVuSans-51"/>
       <use x="159.033203" xlink:href="#DejaVuSans-48"/>
      </g>
     </g>
    </g>
   </g>
   <g id="line2d_15">
    <defs>
     <path d="M 0 3 
C 0.795609 3 1.55874 2.683901 2.12132 2.12132 
C 2.683901 1.55874 3 0.795609 3 0 
C 3 -0.795609 2.683901 -1.55874 2.12132 -2.12132 
C 1.55874 -2.683901 0.795609 -3 0 -3 
C -0.795609 -3 -1.55874 -2.683901 -2.12132 -2.12132 
C -2.683901 -1.55874 -3 -0.795609 -3 0 
C -3 0.795609 -2.683901 1.55874 -2.12132 2.12132 
C -1.55874 2.683901 -0.795609 3 0 3 
z
" id="mc9b59a902f" style="stroke:#666666;"/>
    </defs>
    <g clip-path="url(#p6183ace0b2)">
     <use style="fill:#666666;stroke:#666666;" x="76.864451" xlink:href="#mc9b59a902f" y="53.569329"/>
    </g>
   </g>
   <g id="line2d_16">
    <g clip-path="url(#p6183ace0b2)">
     <use style="fill:#666666;stroke:#666666;" x="76.864891" xlink:href="#mc9b59a902f" y="53.570494"/>
    </g>
   </g>
   <g id="line2d_17">
    <g clip-path="url(#p6183ace0b2)">
     <use style="fill:#666666;stroke:#666666;" x="76.865407" xlink:href="#mc9b59a902f" y="53.569213"/>
    </g>
   </g>
   <g id="line2d_18">
    <g clip-path="url(#p6183ace0b2)">
     <use style="fill:#666666;stroke:#666666;" x="76.865154" xlink:href="#mc9b59a902f" y="53.568"/>
    </g>
   </g>
   <g id="line2d_19">
    <g clip-path="url(#p6183ace0b2)">
     <use style="fill:#666666;stroke:#666666;" x="76.864417" xlink:href="#mc9b59a902f" y="53.568199"/>
    </g>
   </g>
   <g id="line2d_20">
    <g clip-path="url(#p6183ace0b2)">
     <use style="fill:#666666;stroke:#666666;" x="76.865012" xlink:href="#mc9b59a902f" y="53.569501"/>
    </g>
   </g>
   <g id="line2d_21">
    <g clip-path="url(#p6183ace0b2)">
     <use style="fill:#666666;stroke:#666666;" x="76.867248" xlink:href="#mc9b59a902f" y="53.570217"/>
    </g>
   </g>
   <g id="line2d_22">
    <g clip-path="url(#p6183ace0b2)">
     <use style="fill:#666666;stroke:#666666;" x="76.866324" xlink:href="#mc9b59a902f" y="53.570091"/>
    </g>
   </g>
   <g id="line2d_23">
    <g clip-path="url(#p6183ace0b2)">
     <use style="fill:#666666;stroke:#666666;" x="76.865893" xlink:href="#mc9b59a902f" y="53.56853"/>
    </g>
   </g>
   <g id="line2d_24">
    <g clip-path="url(#p6183ace0b2)">
     <use style="fill:#666666;stroke:#666666;" x="76.865948" xlink:href="#mc9b59a902f" y="53.569365"/>
    </g>
   </g>
   <g id="line2d_25">
    <g clip-path="url(#p6183ace0b2)">
     <use style="fill:#666666;stroke:#666666;" x="76.865453" xlink:href="#mc9b59a902f" y="53.569433"/>
    </g>
   </g>
   <g id="line2d_26">
    <g clip-path="url(#p6183ace0b2)">
     <use style="fill:#666666;stroke:#666666;" x="76.864191" xlink:href="#mc9b59a902f" y="53.568875"/>
    </g>
   </g>
   <g id="line2d_27">
    <g clip-path="url(#p6183ace0b2)">
     <use style="fill:#666666;stroke:#666666;" x="76.866007" xlink:href="#mc9b59a902f" y="53.568728"/>
    </g>
   </g>
   <g id="line2d_28">
    <g clip-path="url(#p6183ace0b2)">
     <use style="fill:#666666;stroke:#666666;" x="76.906495" xlink:href="#mc9b59a902f" y="53.62577"/>
    </g>
   </g>
   <g id="line2d_29">
    <g clip-path="url(#p6183ace0b2)">
     <use style="fill:#666666;stroke:#666666;" x="77.369929" xlink:href="#mc9b59a902f" y="53.984256"/>
    </g>
   </g>
   <g id="line2d_30">
    <g clip-path="url(#p6183ace0b2)">
     <use style="fill:#666666;stroke:#666666;" x="78.149758" xlink:href="#mc9b59a902f" y="54.523703"/>
    </g>
   </g>
   <g id="line2d_31">
    <g clip-path="url(#p6183ace0b2)">
     <use style="fill:#666666;stroke:#666666;" x="78.674849" xlink:href="#mc9b59a902f" y="55.019912"/>
    </g>
   </g>
   <g id="line2d_32">
    <g clip-path="url(#p6183ace0b2)">
     <use style="fill:#666666;stroke:#666666;" x="78.799736" xlink:href="#mc9b59a902f" y="55.306191"/>
    </g>
   </g>
   <g id="line2d_33">
    <g clip-path="url(#p6183ace0b2)">
     <use style="fill:#666666;stroke:#666666;" x="78.79454" xlink:href="#mc9b59a902f" y="55.628354"/>
    </g>
   </g>
   <g id="line2d_34">
    <defs>
     <path d="M 0 3 
C 0.795609 3 1.55874 2.683901 2.12132 2.12132 
C 2.683901 1.55874 3 0.795609 3 0 
C 3 -0.795609 2.683901 -1.55874 2.12132 -2.12132 
C 1.55874 -2.683901 0.795609 -3 0 -3 
C -0.795609 -3 -1.55874 -2.683901 -2.12132 -2.12132 
C -2.683901 -1.55874 -3 -0.795609 -3 0 
C -3 0.795609 -2.683901 1.55874 -2.12132 2.12132 
C -1.55874 2.683901 -0.795609 3 0 3 
z
" id="md9dec5dea2" style="stroke:#e68f30;"/>
    </defs>
    <g clip-path="url(#p6183ace0b2)">
     <use style="fill:#e68f30;stroke:#e68f30;" x="78.909846" xlink:href="#md9dec5dea2" y="56.150312"/>
    </g>
   </g>
   <g id="line2d_35">
    <g clip-path="url(#p6183ace0b2)">
     <use style="fill:#e68f30;stroke:#e68f30;" x="78.336747" xlink:href="#md9dec5dea2" y="57.695942"/>
    </g>
   </g>
   <g id="line2d_36">
    <g clip-path="url(#p6183ace0b2)">
     <use style="fill:#e68f30;stroke:#e68f30;" x="77.683358" xlink:href="#md9dec5dea2" y="60.70141"/>
    </g>
   </g>
   <g id="line2d_37">
    <g clip-path="url(#p6183ace0b2)">
     <use style="fill:#e68f30;stroke:#e68f30;" x="76.622755" xlink:href="#md9dec5dea2" y="65.159255"/>
    </g>
   </g>
   <g id="line2d_38">
    <defs>
     <path d="M 0 3 
C 0.795609 3 1.55874 2.683901 2.12132 2.12132 
C 2.683901 1.55874 3 0.795609 3 0 
C 3 -0.795609 2.683901 -1.55874 2.12132 -2.12132 
C 1.55874 -2.683901 0.795609 -3 0 -3 
C -0.795609 -3 -1.55874 -2.683901 -2.12132 -2.12132 
C -2.683901 -1.55874 -3 -0.795609 -3 0 
C -3 0.795609 -2.683901 1.55874 -2.12132 2.12132 
C -1.55874 2.683901 -0.795609 3 0 3 
z
" id="m881187072b" style="stroke:#e68f31;"/>
    </defs>
    <g clip-path="url(#p6183ace0b2)">
     <use style="fill:#e68f31;stroke:#e68f31;" x="75.938783" xlink:href="#m881187072b" y="69.372292"/>
    </g>
   </g>
   <g id="line2d_39">
    <defs>
     <path d="M 0 3 
C 0.795609 3 1.55874 2.683901 2.12132 2.12132 
C 2.683901 1.55874 3 0.795609 3 0 
C 3 -0.795609 2.683901 -1.55874 2.12132 -2.12132 
C 1.55874 -2.683901 0.795609 -3 0 -3 
C -0.795609 -3 -1.55874 -2.683901 -2.12132 -2.12132 
C -2.683901 -1.55874 -3 -0.795609 -3 0 
C -3 0.795609 -2.683901 1.55874 -2.12132 2.12132 
C -1.55874 2.683901 -0.795609 3 0 3 
z
" id="m6175a3c660" style="stroke:#e58f31;"/>
    </defs>
    <g clip-path="url(#p6183ace0b2)">
     <use style="fill:#e58f31;stroke:#e58f31;" x="75.810209" xlink:href="#m6175a3c660" y="73.239599"/>
    </g>
   </g>
   <g id="line2d_40">
    <g clip-path="url(#p6183ace0b2)">
     <use style="fill:#e58f31;stroke:#e58f31;" x="75.589285" xlink:href="#m6175a3c660" y="76.327669"/>
    </g>
   </g>
   <g id="line2d_41">
    <g clip-path="url(#p6183ace0b2)">
     <use style="fill:#e58f31;stroke:#e58f31;" x="75.167143" xlink:href="#m6175a3c660" y="79.412475"/>
    </g>
   </g>
   <g id="line2d_42">
    <g clip-path="url(#p6183ace0b2)">
     <use style="fill:#e58f31;stroke:#e58f31;" x="74.726605" xlink:href="#m6175a3c660" y="82.929788"/>
    </g>
   </g>
   <g id="line2d_43">
    <defs>
     <path d="M 0 3 
C 0.795609 3 1.55874 2.683901 2.12132 2.12132 
C 2.683901 1.55874 3 0.795609 3 0 
C 3 -0.795609 2.683901 -1.55874 2.12132 -2.12132 
C 1.55874 -2.683901 0.795609 -3 0 -3 
C -0.795609 -3 -1.55874 -2.683901 -2.12132 -2.12132 
C -2.683901 -1.55874 -3 -0.795609 -3 0 
C -3 0.795609 -2.683901 1.55874 -2.12132 2.12132 
C -1.55874 2.683901 -0.795609 3 0 3 
z
" id="mab725d9c35" style="stroke:#e48f32;"/>
    </defs>
    <g clip-path="url(#p6183ace0b2)">
     <use style="fill:#e48f32;stroke:#e48f32;" x="74.468646" xlink:href="#mab725d9c35" y="87.381341"/>
    </g>
   </g>
   <g id="line2d_44">
    <defs>
     <path d="M 0 3 
C 0.795609 3 1.55874 2.683901 2.12132 2.12132 
C 2.683901 1.55874 3 0.795609 3 0 
C 3 -0.795609 2.683901 -1.55874 2.12132 -2.12132 
C 1.55874 -2.683901 0.795609 -3 0 -3 
C -0.795609 -3 -1.55874 -2.683901 -2.12132 -2.12132 
C -2.683901 -1.55874 -3 -0.795609 -3 0 
C -3 0.795609 -2.683901 1.55874 -2.12132 2.12132 
C -1.55874 2.683901 -0.795609 3 0 3 
z
" id="m647c9cd0a9" style="stroke:#e48e32;"/>
    </defs>
    <g clip-path="url(#p6183ace0b2)">
     <use style="fill:#e48e32;stroke:#e48e32;" x="74.509943" xlink:href="#m647c9cd0a9" y="92.951875"/>
    </g>
   </g>
   <g id="line2d_45">
    <defs>
     <path d="M 0 3 
C 0.795609 3 1.55874 2.683901 2.12132 2.12132 
C 2.683901 1.55874 3 0.795609 3 0 
C 3 -0.795609 2.683901 -1.55874 2.12132 -2.12132 
C 1.55874 -2.683901 0.795609 -3 0 -3 
C -0.795609 -3 -1.55874 -2.683901 -2.12132 -2.12132 
C -2.683901 -1.55874 -3 -0.795609 -3 0 
C -3 0.795609 -2.683901 1.55874 -2.12132 2.12132 
C -1.55874 2.683901 -0.795609 3 0 3 
z
" id="me3eb069915" style="stroke:#e38e33;"/>
    </defs>
    <g clip-path="url(#p6183ace0b2)">
     <use style="fill:#e38e33;stroke:#e38e33;" x="73.896753" xlink:href="#me3eb069915" y="99.505514"/>
    </g>
   </g>
   <g id="line2d_46">
    <defs>
     <path d="M 0 3 
C 0.795609 3 1.55874 2.683901 2.12132 2.12132 
C 2.683901 1.55874 3 0.795609 3 0 
C 3 -0.795609 2.683901 -1.55874 2.12132 -2.12132 
C 1.55874 -2.683901 0.795609 -3 0 -3 
C -0.795609 -3 -1.55874 -2.683901 -2.12132 -2.12132 
C -2.683901 -1.55874 -3 -0.795609 -3 0 
C -3 0.795609 -2.683901 1.55874 -2.12132 2.12132 
C -1.55874 2.683901 -0.795609 3 0 3 
z
" id="mdc3bf0104d" style="stroke:#e28e34;"/>
    </defs>
    <g clip-path="url(#p6183ace0b2)">
     <use style="fill:#e28e34;stroke:#e28e34;" x="73.832727" xlink:href="#mdc3bf0104d" y="107.184957"/>
    </g>
   </g>
   <g id="line2d_47">
    <defs>
     <path d="M 0 3 
C 0.795609 3 1.55874 2.683901 2.12132 2.12132 
C 2.683901 1.55874 3 0.795609 3 0 
C 3 -0.795609 2.683901 -1.55874 2.12132 -2.12132 
C 1.55874 -2.683901 0.795609 -3 0 -3 
C -0.795609 -3 -1.55874 -2.683901 -2.12132 -2.12132 
C -2.683901 -1.55874 -3 -0.795609 -3 0 
C -3 0.795609 -2.683901 1.55874 -2.12132 2.12132 
C -1.55874 2.683901 -0.795609 3 0 3 
z
" id="m107dea7ff4" style="stroke:#e08d35;"/>
    </defs>
    <g clip-path="url(#p6183ace0b2)">
     <use style="fill:#e08d35;stroke:#e08d35;" x="74.116528" xlink:href="#m107dea7ff4" y="115.107128"/>
    </g>
   </g>
   <g id="line2d_48">
    <defs>
     <path d="M 0 3 
C 0.795609 3 1.55874 2.683901 2.12132 2.12132 
C 2.683901 1.55874 3 0.795609 3 0 
C 3 -0.795609 2.683901 -1.55874 2.12132 -2.12132 
C 1.55874 -2.683901 0.795609 -3 0 -3 
C -0.795609 -3 -1.55874 -2.683901 -2.12132 -2.12132 
C -2.683901 -1.55874 -3 -0.795609 -3 0 
C -3 0.795609 -2.683901 1.55874 -2.12132 2.12132 
C -1.55874 2.683901 -0.795609 3 0 3 
z
" id="m4d7cd025ea" style="stroke:#df8d36;"/>
    </defs>
    <g clip-path="url(#p6183ace0b2)">
     <use style="fill:#df8d36;stroke:#df8d36;" x="74.47079" xlink:href="#m4d7cd025ea" y="122.415024"/>
    </g>
   </g>
   <g id="line2d_49">
    <defs>
     <path d="M 0 3 
C 0.795609 3 1.55874 2.683901 2.12132 2.12132 
C 2.683901 1.55874 3 0.795609 3 0 
C 3 -0.795609 2.683901 -1.55874 2.12132 -2.12132 
C 1.55874 -2.683901 0.795609 -3 0 -3 
C -0.795609 -3 -1.55874 -2.683901 -2.12132 -2.12132 
C -2.683901 -1.55874 -3 -0.795609 -3 0 
C -3 0.795609 -2.683901 1.55874 -2.12132 2.12132 
C -1.55874 2.683901 -0.795609 3 0 3 
z
" id="mc13a893395" style="stroke:#df8c36;"/>
    </defs>
    <g clip-path="url(#p6183ace0b2)">
     <use style="fill:#df8c36;stroke:#df8c36;" x="75.404158" xlink:href="#mc13a893395" y="128.620997"/>
    </g>
   </g>
   <g id="line2d_50">
    <defs>
     <path d="M 0 3 
C 0.795609 3 1.55874 2.683901 2.12132 2.12132 
C 2.683901 1.55874 3 0.795609 3 0 
C 3 -0.795609 2.683901 -1.55874 2.12132 -2.12132 
C 1.55874 -2.683901 0.795609 -3 0 -3 
C -0.795609 -3 -1.55874 -2.683901 -2.12132 -2.12132 
C -2.683901 -1.55874 -3 -0.795609 -3 0 
C -3 0.795609 -2.683901 1.55874 -2.12132 2.12132 
C -1.55874 2.683901 -0.795609 3 0 3 
z
" id="mfbc16cfcca" style="stroke:#de8c37;"/>
    </defs>
    <g clip-path="url(#p6183ace0b2)">
     <use style="fill:#de8c37;stroke:#de8c37;" x="76.809868" xlink:href="#mfbc16cfcca" y="134.924901"/>
    </g>
   </g>
   <g id="line2d_51">
    <defs>
     <path d="M 0 3 
C 0.795609 3 1.55874 2.683901 2.12132 2.12132 
C 2.683901 1.55874 3 0.795609 3 0 
C 3 -0.795609 2.683901 -1.55874 2.12132 -2.12132 
C 1.55874 -2.683901 0.795609 -3 0 -3 
C -0.795609 -3 -1.55874 -2.683901 -2.12132 -2.12132 
C -2.683901 -1.55874 -3 -0.795609 -3 0 
C -3 0.795609 -2.683901 1.55874 -2.12132 2.12132 
C -1.55874 2.683901 -0.795609 3 0 3 
z
" id="mb9f8967bb6" style="stroke:#dd8c37;"/>
    </defs>
    <g clip-path="url(#p6183ace0b2)">
     <use style="fill:#dd8c37;stroke:#dd8c37;" x="77.717838" xlink:href="#mb9f8967bb6" y="139.783018"/>
    </g>
   </g>
   <g id="line2d_52">
    <g clip-path="url(#p6183ace0b2)">
     <use style="fill:#dd8c37;stroke:#dd8c37;" x="78.46921" xlink:href="#mb9f8967bb6" y="143.651293"/>
    </g>
   </g>
   <g id="line2d_53">
    <defs>
     <path d="M 0 3 
C 0.795609 3 1.55874 2.683901 2.12132 2.12132 
C 2.683901 1.55874 3 0.795609 3 0 
C 3 -0.795609 2.683901 -1.55874 2.12132 -2.12132 
C 1.55874 -2.683901 0.795609 -3 0 -3 
C -0.795609 -3 -1.55874 -2.683901 -2.12132 -2.12132 
C -2.683901 -1.55874 -3 -0.795609 -3 0 
C -3 0.795609 -2.683901 1.55874 -2.12132 2.12132 
C -1.55874 2.683901 -0.795609 3 0 3 
z
" id="mace5a12cfa" style="stroke:#dd8c38;"/>
    </defs>
    <g clip-path="url(#p6183ace0b2)">
     <use style="fill:#dd8c38;stroke:#dd8c38;" x="79.489636" xlink:href="#mace5a12cfa" y="148.057264"/>
    </g>
   </g>
   <g id="line2d_54">
    <defs>
     <path d="M 0 3 
C 0.795609 3 1.55874 2.683901 2.12132 2.12132 
C 2.683901 1.55874 3 0.795609 3 0 
C 3 -0.795609 2.683901 -1.55874 2.12132 -2.12132 
C 1.55874 -2.683901 0.795609 -3 0 -3 
C -0.795609 -3 -1.55874 -2.683901 -2.12132 -2.12132 
C -2.683901 -1.55874 -3 -0.795609 -3 0 
C -3 0.795609 -2.683901 1.55874 -2.12132 2.12132 
C -1.55874 2.683901 -0.795609 3 0 3 
z
" id="mf4e59fd538" style="stroke:#dc8b39;"/>
    </defs>
    <g clip-path="url(#p6183ace0b2)">
     <use style="fill:#dc8b39;stroke:#dc8b39;" x="80.288533" xlink:href="#mf4e59fd538" y="154.811205"/>
    </g>
   </g>
   <g id="line2d_55">
    <defs>
     <path d="M 0 3 
C 0.795609 3 1.55874 2.683901 2.12132 2.12132 
C 2.683901 1.55874 3 0.795609 3 0 
C 3 -0.795609 2.683901 -1.55874 2.12132 -2.12132 
C 1.55874 -2.683901 0.795609 -3 0 -3 
C -0.795609 -3 -1.55874 -2.683901 -2.12132 -2.12132 
C -2.683901 -1.55874 -3 -0.795609 -3 0 
C -3 0.795609 -2.683901 1.55874 -2.12132 2.12132 
C -1.55874 2.683901 -0.795609 3 0 3 
z
" id="mdb4470085f" style="stroke:#da8b3a;"/>
    </defs>
    <g clip-path="url(#p6183ace0b2)">
     <use style="fill:#da8b3a;stroke:#da8b3a;" x="81.144539" xlink:href="#mdb4470085f" y="162.74192"/>
    </g>
   </g>
   <g id="line2d_56">
    <defs>
     <path d="M 0 3 
C 0.795609 3 1.55874 2.683901 2.12132 2.12132 
C 2.683901 1.55874 3 0.795609 3 0 
C 3 -0.795609 2.683901 -1.55874 2.12132 -2.12132 
C 1.55874 -2.683901 0.795609 -3 0 -3 
C -0.795609 -3 -1.55874 -2.683901 -2.12132 -2.12132 
C -2.683901 -1.55874 -3 -0.795609 -3 0 
C -3 0.795609 -2.683901 1.55874 -2.12132 2.12132 
C -1.55874 2.683901 -0.795609 3 0 3 
z
" id="m367ec15beb" style="stroke:#d98a3b;"/>
    </defs>
    <g clip-path="url(#p6183ace0b2)">
     <use style="fill:#d98a3b;stroke:#d98a3b;" x="82.111772" xlink:href="#m367ec15beb" y="171.158873"/>
    </g>
   </g>
   <g id="line2d_57">
    <defs>
     <path d="M 0 3 
C 0.795609 3 1.55874 2.683901 2.12132 2.12132 
C 2.683901 1.55874 3 0.795609 3 0 
C 3 -0.795609 2.683901 -1.55874 2.12132 -2.12132 
C 1.55874 -2.683901 0.795609 -3 0 -3 
C -0.795609 -3 -1.55874 -2.683901 -2.12132 -2.12132 
C -2.683901 -1.55874 -3 -0.795609 -3 0 
C -3 0.795609 -2.683901 1.55874 -2.12132 2.12132 
C -1.55874 2.683901 -0.795609 3 0 3 
z
" id="m4672437518" style="stroke:#d78a3c;"/>
    </defs>
    <g clip-path="url(#p6183ace0b2)">
     <use style="fill:#d78a3c;stroke:#d78a3c;" x="83.462622" xlink:href="#m4672437518" y="180.60004"/>
    </g>
   </g>
   <g id="line2d_58">
    <defs>
     <path d="M 0 3 
C 0.795609 3 1.55874 2.683901 2.12132 2.12132 
C 2.683901 1.55874 3 0.795609 3 0 
C 3 -0.795609 2.683901 -1.55874 2.12132 -2.12132 
C 1.55874 -2.683901 0.795609 -3 0 -3 
C -0.795609 -3 -1.55874 -2.683901 -2.12132 -2.12132 
C -2.683901 -1.55874 -3 -0.795609 -3 0 
C -3 0.795609 -2.683901 1.55874 -2.12132 2.12132 
C -1.55874 2.683901 -0.795609 3 0 3 
z
" id="m1bf859c097" style="stroke:#d6893d;"/>
    </defs>
    <g clip-path="url(#p6183ace0b2)">
     <use style="fill:#d6893d;stroke:#d6893d;" x="84.81111" xlink:href="#m1bf859c097" y="190.100314"/>
    </g>
   </g>
   <g id="line2d_59">
    <defs>
     <path d="M 0 3 
C 0.795609 3 1.55874 2.683901 2.12132 2.12132 
C 2.683901 1.55874 3 0.795609 3 0 
C 3 -0.795609 2.683901 -1.55874 2.12132 -2.12132 
C 1.55874 -2.683901 0.795609 -3 0 -3 
C -0.795609 -3 -1.55874 -2.683901 -2.12132 -2.12132 
C -2.683901 -1.55874 -3 -0.795609 -3 0 
C -3 0.795609 -2.683901 1.55874 -2.12132 2.12132 
C -1.55874 2.683901 -0.795609 3 0 3 
z
" id="m98680c32b8" style="stroke:#d4883e;"/>
    </defs>
    <g clip-path="url(#p6183ace0b2)">
     <use style="fill:#d4883e;stroke:#d4883e;" x="85.999996" xlink:href="#m98680c32b8" y="199.536311"/>
    </g>
   </g>
   <g id="line2d_60">
    <defs>
     <path d="M 0 3 
C 0.795609 3 1.55874 2.683901 2.12132 2.12132 
C 2.683901 1.55874 3 0.795609 3 0 
C 3 -0.795609 2.683901 -1.55874 2.12132 -2.12132 
C 1.55874 -2.683901 0.795609 -3 0 -3 
C -0.795609 -3 -1.55874 -2.683901 -2.12132 -2.12132 
C -2.683901 -1.55874 -3 -0.795609 -3 0 
C -3 0.795609 -2.683901 1.55874 -2.12132 2.12132 
C -1.55874 2.683901 -0.795609 3 0 3 
z
" id="m16a44c7509" style="stroke:#d2883f;"/>
    </defs>
    <g clip-path="url(#p6183ace0b2)">
     <use style="fill:#d2883f;stroke:#d2883f;" x="87.655953" xlink:href="#m16a44c7509" y="209.082156"/>
    </g>
   </g>
   <g id="line2d_61">
    <defs>
     <path d="M 0 3 
C 0.795609 3 1.55874 2.683901 2.12132 2.12132 
C 2.683901 1.55874 3 0.795609 3 0 
C 3 -0.795609 2.683901 -1.55874 2.12132 -2.12132 
C 1.55874 -2.683901 0.795609 -3 0 -3 
C -0.795609 -3 -1.55874 -2.683901 -2.12132 -2.12132 
C -2.683901 -1.55874 -3 -0.795609 -3 0 
C -3 0.795609 -2.683901 1.55874 -2.12132 2.12132 
C -1.55874 2.683901 -0.795609 3 0 3 
z
" id="ma6289abbff" style="stroke:#d18740;"/>
    </defs>
    <g clip-path="url(#p6183ace0b2)">
     <use style="fill:#d18740;stroke:#d18740;" x="89.132659" xlink:href="#ma6289abbff" y="217.863261"/>
    </g>
   </g>
   <g id="line2d_62">
    <defs>
     <path d="M 0 3 
C 0.795609 3 1.55874 2.683901 2.12132 2.12132 
C 2.683901 1.55874 3 0.795609 3 0 
C 3 -0.795609 2.683901 -1.55874 2.12132 -2.12132 
C 1.55874 -2.683901 0.795609 -3 0 -3 
C -0.795609 -3 -1.55874 -2.683901 -2.12132 -2.12132 
C -2.683901 -1.55874 -3 -0.795609 -3 0 
C -3 0.795609 -2.683901 1.55874 -2.12132 2.12132 
C -1.55874 2.683901 -0.795609 3 0 3 
z
" id="m5c232104ae" style="stroke:#cf8741;"/>
    </defs>
    <g clip-path="url(#p6183ace0b2)">
     <use style="fill:#cf8741;stroke:#cf8741;" x="90.588867" xlink:href="#m5c232104ae" y="225.24365"/>
    </g>
   </g>
   <g id="line2d_63">
    <defs>
     <path d="M 0 3 
C 0.795609 3 1.55874 2.683901 2.12132 2.12132 
C 2.683901 1.55874 3 0.795609 3 0 
C 3 -0.795609 2.683901 -1.55874 2.12132 -2.12132 
C 1.55874 -2.683901 0.795609 -3 0 -3 
C -0.795609 -3 -1.55874 -2.683901 -2.12132 -2.12132 
C -2.683901 -1.55874 -3 -0.795609 -3 0 
C -3 0.795609 -2.683901 1.55874 -2.12132 2.12132 
C -1.55874 2.683901 -0.795609 3 0 3 
z
" id="mfec546f819" style="stroke:#ce8642;"/>
    </defs>
    <g clip-path="url(#p6183ace0b2)">
     <use style="fill:#ce8642;stroke:#ce8642;" x="92.115823" xlink:href="#mfec546f819" y="233.016263"/>
    </g>
   </g>
   <g id="line2d_64">
    <defs>
     <path d="M 0 3 
C 0.795609 3 1.55874 2.683901 2.12132 2.12132 
C 2.683901 1.55874 3 0.795609 3 0 
C 3 -0.795609 2.683901 -1.55874 2.12132 -2.12132 
C 1.55874 -2.683901 0.795609 -3 0 -3 
C -0.795609 -3 -1.55874 -2.683901 -2.12132 -2.12132 
C -2.683901 -1.55874 -3 -0.795609 -3 0 
C -3 0.795609 -2.683901 1.55874 -2.12132 2.12132 
C -1.55874 2.683901 -0.795609 3 0 3 
z
" id="m2c49990bee" style="stroke:#cd8642;"/>
    </defs>
    <g clip-path="url(#p6183ace0b2)">
     <use style="fill:#cd8642;stroke:#cd8642;" x="93.700054" xlink:href="#m2c49990bee" y="240.860003"/>
    </g>
   </g>
   <g id="line2d_65">
    <defs>
     <path d="M 0 3 
C 0.795609 3 1.55874 2.683901 2.12132 2.12132 
C 2.683901 1.55874 3 0.795609 3 0 
C 3 -0.795609 2.683901 -1.55874 2.12132 -2.12132 
C 1.55874 -2.683901 0.795609 -3 0 -3 
C -0.795609 -3 -1.55874 -2.683901 -2.12132 -2.12132 
C -2.683901 -1.55874 -3 -0.795609 -3 0 
C -3 0.795609 -2.683901 1.55874 -2.12132 2.12132 
C -1.55874 2.683901 -0.795609 3 0 3 
z
" id="mf1b7cfb097" style="stroke:#cb8543;"/>
    </defs>
    <g clip-path="url(#p6183ace0b2)">
     <use style="fill:#cb8543;stroke:#cb8543;" x="95.356105" xlink:href="#mf1b7cfb097" y="249.121603"/>
    </g>
   </g>
   <g id="line2d_66">
    <defs>
     <path d="M 0 3 
C 0.795609 3 1.55874 2.683901 2.12132 2.12132 
C 2.683901 1.55874 3 0.795609 3 0 
C 3 -0.795609 2.683901 -1.55874 2.12132 -2.12132 
C 1.55874 -2.683901 0.795609 -3 0 -3 
C -0.795609 -3 -1.55874 -2.683901 -2.12132 -2.12132 
C -2.683901 -1.55874 -3 -0.795609 -3 0 
C -3 0.795609 -2.683901 1.55874 -2.12132 2.12132 
C -1.55874 2.683901 -0.795609 3 0 3 
z
" id="m94a36360de" style="stroke:#ca8544;"/>
    </defs>
    <g clip-path="url(#p6183ace0b2)">
     <use style="fill:#ca8544;stroke:#ca8544;" x="97.101508" xlink:href="#m94a36360de" y="254.645045"/>
    </g>
   </g>
   <g id="line2d_67">
    <g clip-path="url(#p6183ace0b2)">
     <use style="fill:#ca8544;stroke:#ca8544;" x="98.839503" xlink:href="#m94a36360de" y="256.930662"/>
    </g>
   </g>
   <g id="line2d_68">
    <g clip-path="url(#p6183ace0b2)">
     <use style="fill:#ca8544;stroke:#ca8544;" x="99.980115" xlink:href="#m94a36360de" y="258.318704"/>
    </g>
   </g>
   <g id="line2d_69">
    <g clip-path="url(#p6183ace0b2)">
     <use style="fill:#ca8544;stroke:#ca8544;" x="101.353529" xlink:href="#m94a36360de" y="259.834793"/>
    </g>
   </g>
   <g id="line2d_70">
    <g clip-path="url(#p6183ace0b2)">
     <use style="fill:#ca8544;stroke:#ca8544;" x="103.164701" xlink:href="#m94a36360de" y="263.434621"/>
    </g>
   </g>
   <g id="line2d_71">
    <defs>
     <path d="M 0 3 
C 0.795609 3 1.55874 2.683901 2.12132 2.12132 
C 2.683901 1.55874 3 0.795609 3 0 
C 3 -0.795609 2.683901 -1.55874 2.12132 -2.12132 
C 1.55874 -2.683901 0.795609 -3 0 -3 
C -0.795609 -3 -1.55874 -2.683901 -2.12132 -2.12132 
C -2.683901 -1.55874 -3 -0.795609 -3 0 
C -3 0.795609 -2.683901 1.55874 -2.12132 2.12132 
C -1.55874 2.683901 -0.795609 3 0 3 
z
" id="mb12726f1d9" style="stroke:#c98544;"/>
    </defs>
    <g clip-path="url(#p6183ace0b2)">
     <use style="fill:#c98544;stroke:#c98544;" x="104.897613" xlink:href="#mb12726f1d9" y="266.651364"/>
    </g>
   </g>
   <g id="line2d_72">
    <g clip-path="url(#p6183ace0b2)">
     <use style="fill:#c98544;stroke:#c98544;" x="106.124277" xlink:href="#mb12726f1d9" y="268.081538"/>
    </g>
   </g>
   <g id="line2d_73">
    <g clip-path="url(#p6183ace0b2)">
     <use style="fill:#c98544;stroke:#c98544;" x="107.471786" xlink:href="#mb12726f1d9" y="269.246344"/>
    </g>
   </g>
   <g id="line2d_74">
    <g clip-path="url(#p6183ace0b2)">
     <use style="fill:#c98544;stroke:#c98544;" x="109.042375" xlink:href="#mb12726f1d9" y="269.445733"/>
    </g>
   </g>
   <g id="line2d_75">
    <g clip-path="url(#p6183ace0b2)">
     <use style="fill:#ca8544;stroke:#ca8544;" x="111.398089" xlink:href="#m94a36360de" y="269.718977"/>
    </g>
   </g>
   <g id="line2d_76">
    <g clip-path="url(#p6183ace0b2)">
     <use style="fill:#ca8544;stroke:#ca8544;" x="112.716938" xlink:href="#m94a36360de" y="270.49093"/>
    </g>
   </g>
   <g id="line2d_77">
    <defs>
     <path d="M 0 3 
C 0.795609 3 1.55874 2.683901 2.12132 2.12132 
C 2.683901 1.55874 3 0.795609 3 0 
C 3 -0.795609 2.683901 -1.55874 2.12132 -2.12132 
C 1.55874 -2.683901 0.795609 -3 0 -3 
C -0.795609 -3 -1.55874 -2.683901 -2.12132 -2.12132 
C -2.683901 -1.55874 -3 -0.795609 -3 0 
C -3 0.795609 -2.683901 1.55874 -2.12132 2.12132 
C -1.55874 2.683901 -0.795609 3 0 3 
z
" id="mb5fe0ee2f2" style="stroke:#cb8544;"/>
    </defs>
    <g clip-path="url(#p6183ace0b2)">
     <use style="fill:#cb8544;stroke:#cb8544;" x="116.721428" xlink:href="#mb5fe0ee2f2" y="271.119238"/>
    </g>
   </g>
   <g id="line2d_78">
    <defs>
     <path d="M 0 3 
C 0.795609 3 1.55874 2.683901 2.12132 2.12132 
C 2.683901 1.55874 3 0.795609 3 0 
C 3 -0.795609 2.683901 -1.55874 2.12132 -2.12132 
C 1.55874 -2.683901 0.795609 -3 0 -3 
C -0.795609 -3 -1.55874 -2.683901 -2.12132 -2.12132 
C -2.683901 -1.55874 -3 -0.795609 -3 0 
C -3 0.795609 -2.683901 1.55874 -2.12132 2.12132 
C -1.55874 2.683901 -0.795609 3 0 3 
z
" id="m5800d92345" style="stroke:#cc8643;"/>
    </defs>
    <g clip-path="url(#p6183ace0b2)">
     <use style="fill:#cc8643;stroke:#cc8643;" x="124.621334" xlink:href="#m5800d92345" y="271.876101"/>
    </g>
   </g>
   <g id="line2d_79">
    <g clip-path="url(#p6183ace0b2)">
     <use style="fill:#cd8642;stroke:#cd8642;" x="132.263431" xlink:href="#m2c49990bee" y="272.783819"/>
    </g>
   </g>
   <g id="line2d_80">
    <defs>
     <path d="M 0 3 
C 0.795609 3 1.55874 2.683901 2.12132 2.12132 
C 2.683901 1.55874 3 0.795609 3 0 
C 3 -0.795609 2.683901 -1.55874 2.12132 -2.12132 
C 1.55874 -2.683901 0.795609 -3 0 -3 
C -0.795609 -3 -1.55874 -2.683901 -2.12132 -2.12132 
C -2.683901 -1.55874 -3 -0.795609 -3 0 
C -3 0.795609 -2.683901 1.55874 -2.12132 2.12132 
C -1.55874 2.683901 -0.795609 3 0 3 
z
" id="ma1030779ce" style="stroke:#ce8641;"/>
    </defs>
    <g clip-path="url(#p6183ace0b2)">
     <use style="fill:#ce8641;stroke:#ce8641;" x="138.562872" xlink:href="#ma1030779ce" y="273.953827"/>
    </g>
   </g>
   <g id="line2d_81">
    <g clip-path="url(#p6183ace0b2)">
     <use style="fill:#cf8741;stroke:#cf8741;" x="145.33404" xlink:href="#m5c232104ae" y="275.178242"/>
    </g>
   </g>
   <g id="line2d_82">
    <defs>
     <path d="M 0 3 
C 0.795609 3 1.55874 2.683901 2.12132 2.12132 
C 2.683901 1.55874 3 0.795609 3 0 
C 3 -0.795609 2.683901 -1.55874 2.12132 -2.12132 
C 1.55874 -2.683901 0.795609 -3 0 -3 
C -0.795609 -3 -1.55874 -2.683901 -2.12132 -2.12132 
C -2.683901 -1.55874 -3 -0.795609 -3 0 
C -3 0.795609 -2.683901 1.55874 -2.12132 2.12132 
C -1.55874 2.683901 -0.795609 3 0 3 
z
" id="mdcba16cf01" style="stroke:#d08740;"/>
    </defs>
    <g clip-path="url(#p6183ace0b2)">
     <use style="fill:#d08740;stroke:#d08740;" x="152.039505" xlink:href="#mdcba16cf01" y="276.339482"/>
    </g>
   </g>
   <g id="line2d_83">
    <g clip-path="url(#p6183ace0b2)">
     <use style="fill:#d18740;stroke:#d18740;" x="158.699565" xlink:href="#ma6289abbff" y="277.476032"/>
    </g>
   </g>
   <g id="line2d_84">
    <defs>
     <path d="M 0 3 
C 0.795609 3 1.55874 2.683901 2.12132 2.12132 
C 2.683901 1.55874 3 0.795609 3 0 
C 3 -0.795609 2.683901 -1.55874 2.12132 -2.12132 
C 1.55874 -2.683901 0.795609 -3 0 -3 
C -0.795609 -3 -1.55874 -2.683901 -2.12132 -2.12132 
C -2.683901 -1.55874 -3 -0.795609 -3 0 
C -3 0.795609 -2.683901 1.55874 -2.12132 2.12132 
C -1.55874 2.683901 -0.795609 3 0 3 
z
" id="m8dfcb2de0d" style="stroke:#d3883f;"/>
    </defs>
    <g clip-path="url(#p6183ace0b2)">
     <use style="fill:#d3883f;stroke:#d3883f;" x="165.888548" xlink:href="#m8dfcb2de0d" y="278.355091"/>
    </g>
   </g>
   <g id="line2d_85">
    <g clip-path="url(#p6183ace0b2)">
     <use style="fill:#d4883e;stroke:#d4883e;" x="173.475911" xlink:href="#m98680c32b8" y="279.366054"/>
    </g>
   </g>
   <g id="line2d_86">
    <defs>
     <path d="M 0 3 
C 0.795609 3 1.55874 2.683901 2.12132 2.12132 
C 2.683901 1.55874 3 0.795609 3 0 
C 3 -0.795609 2.683901 -1.55874 2.12132 -2.12132 
C 1.55874 -2.683901 0.795609 -3 0 -3 
C -0.795609 -3 -1.55874 -2.683901 -2.12132 -2.12132 
C -2.683901 -1.55874 -3 -0.795609 -3 0 
C -3 0.795609 -2.683901 1.55874 -2.12132 2.12132 
C -1.55874 2.683901 -0.795609 3 0 3 
z
" id="m9177b74c0d" style="stroke:#d5893d;"/>
    </defs>
    <g clip-path="url(#p6183ace0b2)">
     <use style="fill:#d5893d;stroke:#d5893d;" x="181.113634" xlink:href="#m9177b74c0d" y="280.422336"/>
    </g>
   </g>
   <g id="line2d_87">
    <defs>
     <path d="M 0 3 
C 0.795609 3 1.55874 2.683901 2.12132 2.12132 
C 2.683901 1.55874 3 0.795609 3 0 
C 3 -0.795609 2.683901 -1.55874 2.12132 -2.12132 
C 1.55874 -2.683901 0.795609 -3 0 -3 
C -0.795609 -3 -1.55874 -2.683901 -2.12132 -2.12132 
C -2.683901 -1.55874 -3 -0.795609 -3 0 
C -3 0.795609 -2.683901 1.55874 -2.12132 2.12132 
C -1.55874 2.683901 -0.795609 3 0 3 
z
" id="m9b935f779d" style="stroke:#d6893c;"/>
    </defs>
    <g clip-path="url(#p6183ace0b2)">
     <use style="fill:#d6893c;stroke:#d6893c;" x="188.755426" xlink:href="#m9b935f779d" y="281.099468"/>
    </g>
   </g>
   <g id="line2d_88">
    <defs>
     <path d="M 0 3 
C 0.795609 3 1.55874 2.683901 2.12132 2.12132 
C 2.683901 1.55874 3 0.795609 3 0 
C 3 -0.795609 2.683901 -1.55874 2.12132 -2.12132 
C 1.55874 -2.683901 0.795609 -3 0 -3 
C -0.795609 -3 -1.55874 -2.683901 -2.12132 -2.12132 
C -2.683901 -1.55874 -3 -0.795609 -3 0 
C -3 0.795609 -2.683901 1.55874 -2.12132 2.12132 
C -1.55874 2.683901 -0.795609 3 0 3 
z
" id="md0c4537093" style="stroke:#d88a3b;"/>
    </defs>
    <g clip-path="url(#p6183ace0b2)">
     <use style="fill:#d88a3b;stroke:#d88a3b;" x="196.446748" xlink:href="#md0c4537093" y="280.43304"/>
    </g>
   </g>
   <g id="line2d_89">
    <g clip-path="url(#p6183ace0b2)">
     <use style="fill:#da8b3a;stroke:#da8b3a;" x="204.475358" xlink:href="#mdb4470085f" y="278.804004"/>
    </g>
   </g>
   <g id="line2d_90">
    <defs>
     <path d="M 0 3 
C 0.795609 3 1.55874 2.683901 2.12132 2.12132 
C 2.683901 1.55874 3 0.795609 3 0 
C 3 -0.795609 2.683901 -1.55874 2.12132 -2.12132 
C 1.55874 -2.683901 0.795609 -3 0 -3 
C -0.795609 -3 -1.55874 -2.683901 -2.12132 -2.12132 
C -2.683901 -1.55874 -3 -0.795609 -3 0 
C -3 0.795609 -2.683901 1.55874 -2.12132 2.12132 
C -1.55874 2.683901 -0.795609 3 0 3 
z
" id="m2587c042dd" style="stroke:#dc8b38;"/>
    </defs>
    <g clip-path="url(#p6183ace0b2)">
     <use style="fill:#dc8b38;stroke:#dc8b38;" x="212.09008" xlink:href="#m2587c042dd" y="276.379375"/>
    </g>
   </g>
   <g id="line2d_91">
    <g clip-path="url(#p6183ace0b2)">
     <use style="fill:#dd8c37;stroke:#dd8c37;" x="218.732231" xlink:href="#mb9f8967bb6" y="275.20422"/>
    </g>
   </g>
   <g id="line2d_92">
    <g clip-path="url(#p6183ace0b2)">
     <use style="fill:#df8c36;stroke:#df8c36;" x="225.393886" xlink:href="#mc13a893395" y="275.803485"/>
    </g>
   </g>
   <g id="line2d_93">
    <g clip-path="url(#p6183ace0b2)">
     <use style="fill:#e08d35;stroke:#e08d35;" x="232.012719" xlink:href="#m107dea7ff4" y="276.563378"/>
    </g>
   </g>
   <g id="line2d_94">
    <defs>
     <path d="M 0 3 
C 0.795609 3 1.55874 2.683901 2.12132 2.12132 
C 2.683901 1.55874 3 0.795609 3 0 
C 3 -0.795609 2.683901 -1.55874 2.12132 -2.12132 
C 1.55874 -2.683901 0.795609 -3 0 -3 
C -0.795609 -3 -1.55874 -2.683901 -2.12132 -2.12132 
C -2.683901 -1.55874 -3 -0.795609 -3 0 
C -3 0.795609 -2.683901 1.55874 -2.12132 2.12132 
C -1.55874 2.683901 -0.795609 3 0 3 
z
" id="m317e91713c" style="stroke:#e18d35;"/>
    </defs>
    <g clip-path="url(#p6183ace0b2)">
     <use style="fill:#e18d35;stroke:#e18d35;" x="238.763276" xlink:href="#m317e91713c" y="277.514658"/>
    </g>
   </g>
   <g id="line2d_95">
    <g clip-path="url(#p6183ace0b2)">
     <use style="fill:#e28e34;stroke:#e28e34;" x="246.603469" xlink:href="#mdc3bf0104d" y="278.588469"/>
    </g>
   </g>
   <g id="line2d_96">
    <g clip-path="url(#p6183ace0b2)">
     <use style="fill:#e38e33;stroke:#e38e33;" x="254.33419" xlink:href="#me3eb069915" y="279.524073"/>
    </g>
   </g>
   <g id="line2d_97">
    <g clip-path="url(#p6183ace0b2)">
     <use style="fill:#e48f32;stroke:#e48f32;" x="261.350629" xlink:href="#mab725d9c35" y="280.494546"/>
    </g>
   </g>
   <g id="line2d_98">
    <g clip-path="url(#p6183ace0b2)">
     <use style="fill:#e68f30;stroke:#e68f30;" x="269.019369" xlink:href="#md9dec5dea2" y="280.431642"/>
    </g>
   </g>
   <g id="line2d_99">
    <defs>
     <path d="M 0 3 
C 0.795609 3 1.55874 2.683901 2.12132 2.12132 
C 2.683901 1.55874 3 0.795609 3 0 
C 3 -0.795609 2.683901 -1.55874 2.12132 -2.12132 
C 1.55874 -2.683901 0.795609 -3 0 -3 
C -0.795609 -3 -1.55874 -2.683901 -2.12132 -2.12132 
C -2.683901 -1.55874 -3 -0.795609 -3 0 
C -3 0.795609 -2.683901 1.55874 -2.12132 2.12132 
C -1.55874 2.683901 -0.795609 3 0 3 
z
" id="m27e7b811ec" style="stroke:#e7902f;"/>
    </defs>
    <g clip-path="url(#p6183ace0b2)">
     <use style="fill:#e7902f;stroke:#e7902f;" x="275.672101" xlink:href="#m27e7b811ec" y="279.596772"/>
    </g>
   </g>
   <g id="line2d_100">
    <defs>
     <path d="M 0 3 
C 0.795609 3 1.55874 2.683901 2.12132 2.12132 
C 2.683901 1.55874 3 0.795609 3 0 
C 3 -0.795609 2.683901 -1.55874 2.12132 -2.12132 
C 1.55874 -2.683901 0.795609 -3 0 -3 
C -0.795609 -3 -1.55874 -2.683901 -2.12132 -2.12132 
C -2.683901 -1.55874 -3 -0.795609 -3 0 
C -3 0.795609 -2.683901 1.55874 -2.12132 2.12132 
C -1.55874 2.683901 -0.795609 3 0 3 
z
" id="m23750fc70b" style="stroke:#e8902e;"/>
    </defs>
    <g clip-path="url(#p6183ace0b2)">
     <use style="fill:#e8902e;stroke:#e8902e;" x="282.81916" xlink:href="#m23750fc70b" y="280.221124"/>
    </g>
   </g>
   <g id="line2d_101">
    <defs>
     <path d="M 0 3 
C 0.795609 3 1.55874 2.683901 2.12132 2.12132 
C 2.683901 1.55874 3 0.795609 3 0 
C 3 -0.795609 2.683901 -1.55874 2.12132 -2.12132 
C 1.55874 -2.683901 0.795609 -3 0 -3 
C -0.795609 -3 -1.55874 -2.683901 -2.12132 -2.12132 
C -2.683901 -1.55874 -3 -0.795609 -3 0 
C -3 0.795609 -2.683901 1.55874 -2.12132 2.12132 
C -1.55874 2.683901 -0.795609 3 0 3 
z
" id="m8e1d55f1f2" style="stroke:#e9902d;"/>
    </defs>
    <g clip-path="url(#p6183ace0b2)">
     <use style="fill:#e9902d;stroke:#e9902d;" x="289.310795" xlink:href="#m8e1d55f1f2" y="281.040301"/>
    </g>
   </g>
   <g id="line2d_102">
    <defs>
     <path d="M 0 3 
C 0.795609 3 1.55874 2.683901 2.12132 2.12132 
C 2.683901 1.55874 3 0.795609 3 0 
C 3 -0.795609 2.683901 -1.55874 2.12132 -2.12132 
C 1.55874 -2.683901 0.795609 -3 0 -3 
C -0.795609 -3 -1.55874 -2.683901 -2.12132 -2.12132 
C -2.683901 -1.55874 -3 -0.795609 -3 0 
C -3 0.795609 -2.683901 1.55874 -2.12132 2.12132 
C -1.55874 2.683901 -0.795609 3 0 3 
z
" id="m5a596e2490" style="stroke:#ea912c;"/>
    </defs>
    <g clip-path="url(#p6183ace0b2)">
     <use style="fill:#ea912c;stroke:#ea912c;" x="295.678317" xlink:href="#m5a596e2490" y="281.790614"/>
    </g>
   </g>
   <g id="line2d_103">
    <defs>
     <path d="M 0 3 
C 0.795609 3 1.55874 2.683901 2.12132 2.12132 
C 2.683901 1.55874 3 0.795609 3 0 
C 3 -0.795609 2.683901 -1.55874 2.12132 -2.12132 
C 1.55874 -2.683901 0.795609 -3 0 -3 
C -0.795609 -3 -1.55874 -2.683901 -2.12132 -2.12132 
C -2.683901 -1.55874 -3 -0.795609 -3 0 
C -3 0.795609 -2.683901 1.55874 -2.12132 2.12132 
C -1.55874 2.683901 -0.795609 3 0 3 
z
" id="m2b26692fb1" style="stroke:#eb912b;"/>
    </defs>
    <g clip-path="url(#p6183ace0b2)">
     <use style="fill:#eb912b;stroke:#eb912b;" x="301.991087" xlink:href="#m2b26692fb1" y="282.520965"/>
    </g>
   </g>
   <g id="line2d_104">
    <defs>
     <path d="M 0 3 
C 0.795609 3 1.55874 2.683901 2.12132 2.12132 
C 2.683901 1.55874 3 0.795609 3 0 
C 3 -0.795609 2.683901 -1.55874 2.12132 -2.12132 
C 1.55874 -2.683901 0.795609 -3 0 -3 
C -0.795609 -3 -1.55874 -2.683901 -2.12132 -2.12132 
C -2.683901 -1.55874 -3 -0.795609 -3 0 
C -3 0.795609 -2.683901 1.55874 -2.12132 2.12132 
C -1.55874 2.683901 -0.795609 3 0 3 
z
" id="mfeab43ecfb" style="stroke:#ec922a;"/>
    </defs>
    <g clip-path="url(#p6183ace0b2)">
     <use style="fill:#ec922a;stroke:#ec922a;" x="308.73489" xlink:href="#mfeab43ecfb" y="281.35374"/>
    </g>
   </g>
   <g id="line2d_105">
    <defs>
     <path d="M 0 3 
C 0.795609 3 1.55874 2.683901 2.12132 2.12132 
C 2.683901 1.55874 3 0.795609 3 0 
C 3 -0.795609 2.683901 -1.55874 2.12132 -2.12132 
C 1.55874 -2.683901 0.795609 -3 0 -3 
C -0.795609 -3 -1.55874 -2.683901 -2.12132 -2.12132 
C -2.683901 -1.55874 -3 -0.795609 -3 0 
C -3 0.795609 -2.683901 1.55874 -2.12132 2.12132 
C -1.55874 2.683901 -0.795609 3 0 3 
z
" id="m57395c7089" style="stroke:#ee9228;"/>
    </defs>
    <g clip-path="url(#p6183ace0b2)">
     <use style="fill:#ee9228;stroke:#ee9228;" x="314.839452" xlink:href="#m57395c7089" y="279.908453"/>
    </g>
   </g>
   <g id="line2d_106">
    <defs>
     <path d="M 0 3 
C 0.795609 3 1.55874 2.683901 2.12132 2.12132 
C 2.683901 1.55874 3 0.795609 3 0 
C 3 -0.795609 2.683901 -1.55874 2.12132 -2.12132 
C 1.55874 -2.683901 0.795609 -3 0 -3 
C -0.795609 -3 -1.55874 -2.683901 -2.12132 -2.12132 
C -2.683901 -1.55874 -3 -0.795609 -3 0 
C -3 0.795609 -2.683901 1.55874 -2.12132 2.12132 
C -1.55874 2.683901 -0.795609 3 0 3 
z
" id="m1e8eb267fe" style="stroke:#ef9327;"/>
    </defs>
    <g clip-path="url(#p6183ace0b2)">
     <use style="fill:#ef9327;stroke:#ef9327;" x="320.921467" xlink:href="#m1e8eb267fe" y="279.094479"/>
    </g>
   </g>
   <g id="line2d_107">
    <defs>
     <path d="M 0 3 
C 0.795609 3 1.55874 2.683901 2.12132 2.12132 
C 2.683901 1.55874 3 0.795609 3 0 
C 3 -0.795609 2.683901 -1.55874 2.12132 -2.12132 
C 1.55874 -2.683901 0.795609 -3 0 -3 
C -0.795609 -3 -1.55874 -2.683901 -2.12132 -2.12132 
C -2.683901 -1.55874 -3 -0.795609 -3 0 
C -3 0.795609 -2.683901 1.55874 -2.12132 2.12132 
C -1.55874 2.683901 -0.795609 3 0 3 
z
" id="mb8c74bd62c" style="stroke:#f09326;"/>
    </defs>
    <g clip-path="url(#p6183ace0b2)">
     <use style="fill:#f09326;stroke:#f09326;" x="326.94544" xlink:href="#mb8c74bd62c" y="278.94097"/>
    </g>
   </g>
   <g id="line2d_108">
    <defs>
     <path d="M 0 3 
C 0.795609 3 1.55874 2.683901 2.12132 2.12132 
C 2.683901 1.55874 3 0.795609 3 0 
C 3 -0.795609 2.683901 -1.55874 2.12132 -2.12132 
C 1.55874 -2.683901 0.795609 -3 0 -3 
C -0.795609 -3 -1.55874 -2.683901 -2.12132 -2.12132 
C -2.683901 -1.55874 -3 -0.795609 -3 0 
C -3 0.795609 -2.683901 1.55874 -2.12132 2.12132 
C -1.55874 2.683901 -0.795609 3 0 3 
z
" id="mf1399cd8ff" style="stroke:#f09325;"/>
    </defs>
    <g clip-path="url(#p6183ace0b2)">
     <use style="fill:#f09325;stroke:#f09325;" x="332.666926" xlink:href="#mf1399cd8ff" y="279.771673"/>
    </g>
   </g>
   <g id="line2d_109">
    <defs>
     <path d="M 0 3 
C 0.795609 3 1.55874 2.683901 2.12132 2.12132 
C 2.683901 1.55874 3 0.795609 3 0 
C 3 -0.795609 2.683901 -1.55874 2.12132 -2.12132 
C 1.55874 -2.683901 0.795609 -3 0 -3 
C -0.795609 -3 -1.55874 -2.683901 -2.12132 -2.12132 
C -2.683901 -1.55874 -3 -0.795609 -3 0 
C -3 0.795609 -2.683901 1.55874 -2.12132 2.12132 
C -1.55874 2.683901 -0.795609 3 0 3 
z
" id="m7c67d3a3a9" style="stroke:#f19424;"/>
    </defs>
    <g clip-path="url(#p6183ace0b2)">
     <use style="fill:#f19424;stroke:#f19424;" x="338.758267" xlink:href="#m7c67d3a3a9" y="280.71479"/>
    </g>
   </g>
   <g id="line2d_110">
    <defs>
     <path d="M 0 3 
C 0.795609 3 1.55874 2.683901 2.12132 2.12132 
C 2.683901 1.55874 3 0.795609 3 0 
C 3 -0.795609 2.683901 -1.55874 2.12132 -2.12132 
C 1.55874 -2.683901 0.795609 -3 0 -3 
C -0.795609 -3 -1.55874 -2.683901 -2.12132 -2.12132 
C -2.683901 -1.55874 -3 -0.795609 -3 0 
C -3 0.795609 -2.683901 1.55874 -2.12132 2.12132 
C -1.55874 2.683901 -0.795609 3 0 3 
z
" id="m9d20456c1a" style="stroke:#f29423;"/>
    </defs>
    <g clip-path="url(#p6183ace0b2)">
     <use style="fill:#f29423;stroke:#f29423;" x="344.023113" xlink:href="#m9d20456c1a" y="282.203507"/>
    </g>
   </g>
   <g id="line2d_111">
    <defs>
     <path d="M 0 3 
C 0.795609 3 1.55874 2.683901 2.12132 2.12132 
C 2.683901 1.55874 3 0.795609 3 0 
C 3 -0.795609 2.683901 -1.55874 2.12132 -2.12132 
C 1.55874 -2.683901 0.795609 -3 0 -3 
C -0.795609 -3 -1.55874 -2.683901 -2.12132 -2.12132 
C -2.683901 -1.55874 -3 -0.795609 -3 0 
C -3 0.795609 -2.683901 1.55874 -2.12132 2.12132 
C -1.55874 2.683901 -0.795609 3 0 3 
z
" id="m8ab4d40e41" style="stroke:#f39422;"/>
    </defs>
    <g clip-path="url(#p6183ace0b2)">
     <use style="fill:#f39422;stroke:#f39422;" x="350.275458" xlink:href="#m8ab4d40e41" y="283.633248"/>
    </g>
   </g>
   <g id="line2d_112">
    <defs>
     <path d="M 0 3 
C 0.795609 3 1.55874 2.683901 2.12132 2.12132 
C 2.683901 1.55874 3 0.795609 3 0 
C 3 -0.795609 2.683901 -1.55874 2.12132 -2.12132 
C 1.55874 -2.683901 0.795609 -3 0 -3 
C -0.795609 -3 -1.55874 -2.683901 -2.12132 -2.12132 
C -2.683901 -1.55874 -3 -0.795609 -3 0 
C -3 0.795609 -2.683901 1.55874 -2.12132 2.12132 
C -1.55874 2.683901 -0.795609 3 0 3 
z
" id="m94549bc93e" style="stroke:#f39421;"/>
    </defs>
    <g clip-path="url(#p6183ace0b2)">
     <use style="fill:#f39421;stroke:#f39421;" x="356.903159" xlink:href="#m94549bc93e" y="284.924759"/>
    </g>
   </g>
   <g id="line2d_113">
    <defs>
     <path d="M 0 3 
C 0.795609 3 1.55874 2.683901 2.12132 2.12132 
C 2.683901 1.55874 3 0.795609 3 0 
C 3 -0.795609 2.683901 -1.55874 2.12132 -2.12132 
C 1.55874 -2.683901 0.795609 -3 0 -3 
C -0.795609 -3 -1.55874 -2.683901 -2.12132 -2.12132 
C -2.683901 -1.55874 -3 -0.795609 -3 0 
C -3 0.795609 -2.683901 1.55874 -2.12132 2.12132 
C -1.55874 2.683901 -0.795609 3 0 3 
z
" id="m3bda2fd4bf" style="stroke:#f49520;"/>
    </defs>
    <g clip-path="url(#p6183ace0b2)">
     <use style="fill:#f49520;stroke:#f49520;" x="363.630491" xlink:href="#m3bda2fd4bf" y="286.134713"/>
    </g>
   </g>
   <g id="line2d_114">
    <defs>
     <path d="M 0 3 
C 0.795609 3 1.55874 2.683901 2.12132 2.12132 
C 2.683901 1.55874 3 0.795609 3 0 
C 3 -0.795609 2.683901 -1.55874 2.12132 -2.12132 
C 1.55874 -2.683901 0.795609 -3 0 -3 
C -0.795609 -3 -1.55874 -2.683901 -2.12132 -2.12132 
C -2.683901 -1.55874 -3 -0.795609 -3 0 
C -3 0.795609 -2.683901 1.55874 -2.12132 2.12132 
C -1.55874 2.683901 -0.795609 3 0 3 
z
" id="m2b5bcc0e8d" style="stroke:#f5951e;"/>
    </defs>
    <g clip-path="url(#p6183ace0b2)">
     <use style="fill:#f5951e;stroke:#f5951e;" x="371.202397" xlink:href="#m2b5bcc0e8d" y="286.864414"/>
    </g>
   </g>
   <g id="line2d_115">
    <defs>
     <path d="M 0 3 
C 0.795609 3 1.55874 2.683901 2.12132 2.12132 
C 2.683901 1.55874 3 0.795609 3 0 
C 3 -0.795609 2.683901 -1.55874 2.12132 -2.12132 
C 1.55874 -2.683901 0.795609 -3 0 -3 
C -0.795609 -3 -1.55874 -2.683901 -2.12132 -2.12132 
C -2.683901 -1.55874 -3 -0.795609 -3 0 
C -3 0.795609 -2.683901 1.55874 -2.12132 2.12132 
C -1.55874 2.683901 -0.795609 3 0 3 
z
" id="md82bf4b760" style="stroke:#f6961d;"/>
    </defs>
    <g clip-path="url(#p6183ace0b2)">
     <use style="fill:#f6961d;stroke:#f6961d;" x="377.930985" xlink:href="#md82bf4b760" y="287.215766"/>
    </g>
   </g>
   <g id="line2d_116">
    <defs>
     <path d="M 0 3 
C 0.795609 3 1.55874 2.683901 2.12132 2.12132 
C 2.683901 1.55874 3 0.795609 3 0 
C 3 -0.795609 2.683901 -1.55874 2.12132 -2.12132 
C 1.55874 -2.683901 0.795609 -3 0 -3 
C -0.795609 -3 -1.55874 -2.683901 -2.12132 -2.12132 
C -2.683901 -1.55874 -3 -0.795609 -3 0 
C -3 0.795609 -2.683901 1.55874 -2.12132 2.12132 
C -1.55874 2.683901 -0.795609 3 0 3 
z
" id="mc23db26843" style="stroke:#f7961c;"/>
    </defs>
    <g clip-path="url(#p6183ace0b2)">
     <use style="fill:#f7961c;stroke:#f7961c;" x="383.78427" xlink:href="#mc23db26843" y="288.119978"/>
    </g>
   </g>
   <g id="line2d_117">
    <defs>
     <path d="M 0 3 
C 0.795609 3 1.55874 2.683901 2.12132 2.12132 
C 2.683901 1.55874 3 0.795609 3 0 
C 3 -0.795609 2.683901 -1.55874 2.12132 -2.12132 
C 1.55874 -2.683901 0.795609 -3 0 -3 
C -0.795609 -3 -1.55874 -2.683901 -2.12132 -2.12132 
C -2.683901 -1.55874 -3 -0.795609 -3 0 
C -3 0.795609 -2.683901 1.55874 -2.12132 2.12132 
C -1.55874 2.683901 -0.795609 3 0 3 
z
" id="m4a69097cac" style="stroke:#f7961b;"/>
    </defs>
    <g clip-path="url(#p6183ace0b2)">
     <use style="fill:#f7961b;stroke:#f7961b;" x="387.722193" xlink:href="#m4a69097cac" y="289.228825"/>
    </g>
   </g>
   <g id="line2d_118">
    <defs>
     <path d="M 0 3 
C 0.795609 3 1.55874 2.683901 2.12132 2.12132 
C 2.683901 1.55874 3 0.795609 3 0 
C 3 -0.795609 2.683901 -1.55874 2.12132 -2.12132 
C 1.55874 -2.683901 0.795609 -3 0 -3 
C -0.795609 -3 -1.55874 -2.683901 -2.12132 -2.12132 
C -2.683901 -1.55874 -3 -0.795609 -3 0 
C -3 0.795609 -2.683901 1.55874 -2.12132 2.12132 
C -1.55874 2.683901 -0.795609 3 0 3 
z
" id="ma4fd0277d7" style="stroke:#f8961b;"/>
    </defs>
    <g clip-path="url(#p6183ace0b2)">
     <use style="fill:#f8961b;stroke:#f8961b;" x="389.915071" xlink:href="#ma4fd0277d7" y="290.389876"/>
    </g>
   </g>
   <g id="line2d_119">
    <g clip-path="url(#p6183ace0b2)">
     <use style="fill:#f8961b;stroke:#f8961b;" x="391.791783" xlink:href="#ma4fd0277d7" y="291.554889"/>
    </g>
   </g>
   <g id="line2d_120">
    <defs>
     <path d="M 0 3 
C 0.795609 3 1.55874 2.683901 2.12132 2.12132 
C 2.683901 1.55874 3 0.795609 3 0 
C 3 -0.795609 2.683901 -1.55874 2.12132 -2.12132 
C 1.55874 -2.683901 0.795609 -3 0 -3 
C -0.795609 -3 -1.55874 -2.683901 -2.12132 -2.12132 
C -2.683901 -1.55874 -3 -0.795609 -3 0 
C -3 0.795609 -2.683901 1.55874 -2.12132 2.12132 
C -1.55874 2.683901 -0.795609 3 0 3 
z
" id="mcd4a4d96c2" style="stroke:#f8961a;"/>
    </defs>
    <g clip-path="url(#p6183ace0b2)">
     <use style="fill:#f8961a;stroke:#f8961a;" x="393.375462" xlink:href="#mcd4a4d96c2" y="292.419703"/>
    </g>
   </g>
   <g id="line2d_121">
    <g clip-path="url(#p6183ace0b2)">
     <use style="fill:#f8961a;stroke:#f8961a;" x="394.950207" xlink:href="#mcd4a4d96c2" y="293.133616"/>
    </g>
   </g>
   <g id="line2d_122">
    <g clip-path="url(#p6183ace0b2)">
     <use style="fill:#f8961a;stroke:#f8961a;" x="396.661231" xlink:href="#mcd4a4d96c2" y="294.288572"/>
    </g>
   </g>
   <g id="line2d_123">
    <g clip-path="url(#p6183ace0b2)">
     <use style="fill:#f8961a;stroke:#f8961a;" x="398.487273" xlink:href="#mcd4a4d96c2" y="295.488"/>
    </g>
   </g>
   <g id="patch_3">
    <path d="M 57.6 307.584 
L 57.6 41.472 
" style="fill:none;stroke:#000000;stroke-linecap:square;stroke-linejoin:miter;stroke-width:0.8;"/>
   </g>
   <g id="patch_4">
    <path d="M 414.72 307.584 
L 414.72 41.472 
" style="fill:none;stroke:#000000;stroke-linecap:square;stroke-linejoin:miter;stroke-width:0.8;"/>
   </g>
   <g id="patch_5">
    <path d="M 57.6 307.584 
L 414.72 307.584 
" style="fill:none;stroke:#000000;stroke-linecap:square;stroke-linejoin:miter;stroke-width:0.8;"/>
   </g>
   <g id="patch_6">
    <path d="M 57.6 41.472 
L 414.72 41.472 
" style="fill:none;stroke:#000000;stroke-linecap:square;stroke-linejoin:miter;stroke-width:0.8;"/>
   </g>
  </g>
 </g>
 <defs>
  <clipPath id="p6183ace0b2">
   <rect height="266.112" width="357.12" x="57.6" y="41.472"/>
  </clipPath>
 </defs>
</svg>
